<svg width="263" height="284" viewBox="0 0 263 284" fill="none" xmlns="http://www.w3.org/2000/svg">
<g filter="url(#filter0_d_118_665)">
<rect x="10" y="8" width="243" height="264" rx="4" fill="white"/>
</g>
<path opacity="0.5" d="M32.228 166.804C32.228 167.204 32.132 167.576 31.94 167.92C31.748 168.264 31.456 168.544 31.064 168.76C30.672 168.976 30.188 169.084 29.612 169.084C29.052 169.084 28.552 168.984 28.112 168.784C27.68 168.576 27.332 168.296 27.068 167.944C26.812 167.584 26.664 167.176 26.624 166.72H27.788C27.812 166.96 27.892 167.196 28.028 167.428C28.172 167.652 28.372 167.84 28.628 167.992C28.892 168.136 29.208 168.208 29.576 168.208C30.056 168.208 30.424 168.08 30.68 167.824C30.936 167.568 31.064 167.24 31.064 166.84C31.064 166.496 30.972 166.216 30.788 166C30.612 165.784 30.392 165.616 30.128 165.496C29.864 165.368 29.504 165.232 29.048 165.088C28.512 164.912 28.08 164.748 27.752 164.596C27.432 164.436 27.156 164.2 26.924 163.888C26.7 163.576 26.588 163.164 26.588 162.652C26.588 162.212 26.692 161.824 26.9 161.488C27.116 161.152 27.42 160.892 27.812 160.708C28.212 160.524 28.68 160.432 29.216 160.432C30.048 160.432 30.708 160.636 31.196 161.044C31.684 161.444 31.968 161.956 32.048 162.58H30.872C30.808 162.244 30.636 161.948 30.356 161.692C30.076 161.436 29.696 161.308 29.216 161.308C28.776 161.308 28.424 161.424 28.16 161.656C27.896 161.88 27.764 162.2 27.764 162.616C27.764 162.944 27.848 163.212 28.016 163.42C28.192 163.62 28.408 163.78 28.664 163.9C28.92 164.012 29.272 164.14 29.72 164.284C30.264 164.46 30.7 164.628 31.028 164.788C31.364 164.948 31.648 165.192 31.88 165.52C32.112 165.84 32.228 166.268 32.228 166.804ZM34.2523 162.412L36.3883 167.596L38.3683 162.412H39.5803L35.6683 172.12H34.4323L35.8003 168.892L33.0283 162.412H34.2523ZM44.1495 162.304C44.9175 162.304 45.5375 162.552 46.0095 163.048C46.4815 163.536 46.7175 164.244 46.7175 165.172V169H45.6255V165.268C45.6255 164.612 45.4575 164.108 45.1215 163.756C44.7855 163.404 44.3295 163.228 43.7535 163.228C43.1535 163.228 42.6735 163.424 42.3135 163.816C41.9535 164.2 41.7735 164.764 41.7735 165.508V169H40.6815V162.412H41.7735V163.972C41.9415 163.436 42.2375 163.024 42.6615 162.736C43.0935 162.448 43.5895 162.304 44.1495 162.304ZM51.4084 162.328C52.2484 162.328 52.9444 162.552 53.4964 163C54.0484 163.448 54.3884 164.048 54.5164 164.8H53.3644C53.2844 164.328 53.0644 163.96 52.7044 163.696C52.3524 163.424 51.9124 163.288 51.3844 163.288C51.0004 163.288 50.6484 163.376 50.3284 163.552C50.0164 163.728 49.7644 164 49.5724 164.368C49.3804 164.728 49.2844 165.176 49.2844 165.712C49.2844 166.248 49.3804 166.7 49.5724 167.068C49.7644 167.428 50.0164 167.696 50.3284 167.872C50.6484 168.048 51.0004 168.136 51.3844 168.136C51.9124 168.136 52.3524 168 52.7044 167.728C53.0644 167.456 53.2844 167.084 53.3644 166.612H54.5164C54.3884 167.372 54.0484 167.976 53.4964 168.424C52.9444 168.864 52.2484 169.084 51.4084 169.084C50.7764 169.084 50.2164 168.948 49.7284 168.676C49.2404 168.404 48.8564 168.016 48.5764 167.512C48.3044 167 48.1684 166.4 48.1684 165.712C48.1684 165.024 48.3044 164.424 48.5764 163.912C48.8564 163.4 49.2404 163.008 49.7284 162.736C50.2164 162.464 50.7764 162.328 51.4084 162.328ZM64.4624 166.804C64.4624 167.204 64.3664 167.576 64.1744 167.92C63.9824 168.264 63.6904 168.544 63.2984 168.76C62.9064 168.976 62.4224 169.084 61.8464 169.084C61.2864 169.084 60.7864 168.984 60.3464 168.784C59.9144 168.576 59.5664 168.296 59.3024 167.944C59.0464 167.584 58.8984 167.176 58.8584 166.72H60.0224C60.0464 166.96 60.1264 167.196 60.2624 167.428C60.4064 167.652 60.6064 167.84 60.8624 167.992C61.1264 168.136 61.4424 168.208 61.8104 168.208C62.2904 168.208 62.6584 168.08 62.9144 167.824C63.1704 167.568 63.2984 167.24 63.2984 166.84C63.2984 166.496 63.2064 166.216 63.0224 166C62.8464 165.784 62.6264 165.616 62.3624 165.496C62.0984 165.368 61.7384 165.232 61.2824 165.088C60.7464 164.912 60.3144 164.748 59.9864 164.596C59.6664 164.436 59.3904 164.2 59.1584 163.888C58.9344 163.576 58.8224 163.164 58.8224 162.652C58.8224 162.212 58.9264 161.824 59.1344 161.488C59.3504 161.152 59.6544 160.892 60.0464 160.708C60.4464 160.524 60.9144 160.432 61.4504 160.432C62.2824 160.432 62.9424 160.636 63.4304 161.044C63.9184 161.444 64.2024 161.956 64.2824 162.58H63.1064C63.0424 162.244 62.8704 161.948 62.5904 161.692C62.3104 161.436 61.9304 161.308 61.4504 161.308C61.0104 161.308 60.6584 161.424 60.3944 161.656C60.1304 161.88 59.9984 162.2 59.9984 162.616C59.9984 162.944 60.0824 163.212 60.2504 163.42C60.4264 163.62 60.6424 163.78 60.8984 163.9C61.1544 164.012 61.5064 164.14 61.9544 164.284C62.4984 164.46 62.9344 164.628 63.2624 164.788C63.5984 164.948 63.8824 165.192 64.1144 165.52C64.3464 165.84 64.4624 166.268 64.4624 166.804ZM68.7307 162.328C69.3707 162.328 69.9107 162.488 70.3507 162.808C70.7987 163.128 71.1107 163.556 71.2867 164.092V162.412H72.3787V169H71.2867V167.32C71.1107 167.856 70.7987 168.284 70.3507 168.604C69.9107 168.924 69.3707 169.084 68.7307 169.084C68.1467 169.084 67.6267 168.948 67.1707 168.676C66.7147 168.404 66.3547 168.016 66.0907 167.512C65.8347 167 65.7067 166.4 65.7067 165.712C65.7067 165.024 65.8347 164.424 66.0907 163.912C66.3547 163.4 66.7147 163.008 67.1707 162.736C67.6267 162.464 68.1467 162.328 68.7307 162.328ZM69.0427 163.3C68.3707 163.3 67.8307 163.516 67.4227 163.948C67.0227 164.372 66.8227 164.96 66.8227 165.712C66.8227 166.464 67.0227 167.056 67.4227 167.488C67.8307 167.912 68.3707 168.124 69.0427 168.124C69.4747 168.124 69.8587 168.024 70.1947 167.824C70.5387 167.624 70.8067 167.344 70.9987 166.984C71.1907 166.616 71.2867 166.192 71.2867 165.712C71.2867 165.232 71.1907 164.808 70.9987 164.44C70.8067 164.072 70.5387 163.792 70.1947 163.6C69.8587 163.4 69.4747 163.3 69.0427 163.3ZM75.3086 160.12V169H74.2166V160.12H75.3086ZM83.2243 165.34C83.2243 165.572 83.2083 165.772 83.1763 165.94H77.9083C77.9323 166.692 78.1443 167.256 78.5443 167.632C78.9523 168.008 79.4483 168.196 80.0323 168.196C80.5603 168.196 81.0003 168.064 81.3523 167.8C81.7123 167.528 81.9323 167.168 82.0123 166.72H83.1763C83.0963 167.176 82.9163 167.584 82.6363 167.944C82.3643 168.304 82.0083 168.584 81.5683 168.784C81.1283 168.984 80.6323 169.084 80.0803 169.084C79.4483 169.084 78.8883 168.948 78.4003 168.676C77.9123 168.404 77.5283 168.016 77.2483 167.512C76.9763 167 76.8403 166.4 76.8403 165.712C76.8403 165.024 76.9763 164.424 77.2483 163.912C77.5283 163.4 77.9123 163.008 78.4003 162.736C78.8883 162.464 79.4483 162.328 80.0803 162.328C80.7203 162.328 81.2763 162.464 81.7483 162.736C82.2283 163.008 82.5923 163.372 82.8403 163.828C83.0963 164.284 83.2243 164.788 83.2243 165.34ZM82.1203 165.412C82.1443 164.924 82.0643 164.516 81.8803 164.188C81.6963 163.86 81.4443 163.616 81.1243 163.456C80.8043 163.296 80.4563 163.216 80.0803 163.216C79.4803 163.216 78.9763 163.404 78.5683 163.78C78.1603 164.148 77.9403 164.692 77.9083 165.412H82.1203ZM86.8166 162.328C87.5606 162.328 88.1566 162.524 88.6046 162.916C89.0606 163.3 89.3366 163.82 89.4326 164.476H88.3886C88.3406 164.084 88.1766 163.764 87.8966 163.516C87.6246 163.26 87.2566 163.132 86.7926 163.132C86.4006 163.132 86.0926 163.228 85.8686 163.42C85.6526 163.604 85.5446 163.856 85.5446 164.176C85.5446 164.416 85.6166 164.612 85.7606 164.764C85.9126 164.908 86.0966 165.02 86.3126 165.1C86.5366 165.172 86.8406 165.252 87.2246 165.34C87.7126 165.452 88.1046 165.568 88.4006 165.688C88.7046 165.8 88.9606 165.984 89.1686 166.24C89.3846 166.496 89.4926 166.84 89.4926 167.272C89.4926 167.808 89.2886 168.244 88.8806 168.58C88.4806 168.916 87.9446 169.084 87.2726 169.084C86.4886 169.084 85.8486 168.896 85.3526 168.52C84.8566 168.144 84.5646 167.62 84.4766 166.948H85.5326C85.5726 167.348 85.7446 167.672 86.0486 167.92C86.3606 168.168 86.7686 168.292 87.2726 168.292C87.6486 168.292 87.9406 168.196 88.1486 168.004C88.3646 167.812 88.4726 167.56 88.4726 167.248C88.4726 166.992 88.3966 166.788 88.2446 166.636C88.0926 166.484 87.9046 166.368 87.6806 166.288C87.4566 166.208 87.1486 166.124 86.7566 166.036C86.2686 165.924 85.8766 165.812 85.5806 165.7C85.2926 165.588 85.0446 165.412 84.8366 165.172C84.6366 164.924 84.5366 164.592 84.5366 164.176C84.5366 163.624 84.7406 163.18 85.1486 162.844C85.5566 162.5 86.1126 162.328 86.8166 162.328ZM93.9678 160.852C93.3838 160.844 92.9758 160.944 92.7438 161.152C92.5198 161.36 92.4078 161.72 92.4078 162.232V162.412H93.9678V163.372H92.4078V169H91.3158V163.372H90.3678V162.412H91.3158V162.148C91.3158 160.572 92.1998 159.82 93.9678 159.892V160.852ZM98.2413 162.328C98.8733 162.328 99.4373 162.464 99.9333 162.736C100.437 163.008 100.829 163.4 101.109 163.912C101.397 164.424 101.541 165.024 101.541 165.712C101.541 166.4 101.397 167 101.109 167.512C100.829 168.016 100.437 168.404 99.9333 168.676C99.4373 168.948 98.8733 169.084 98.2413 169.084C97.6093 169.084 97.0413 168.948 96.5373 168.676C96.0413 168.404 95.6493 168.016 95.3613 167.512C95.0733 167 94.9293 166.4 94.9293 165.712C94.9293 165.024 95.0733 164.424 95.3613 163.912C95.6493 163.4 96.0413 163.008 96.5373 162.736C97.0413 162.464 97.6093 162.328 98.2413 162.328ZM98.2413 163.288C97.8493 163.288 97.4853 163.376 97.1493 163.552C96.8213 163.728 96.5533 164 96.3453 164.368C96.1453 164.728 96.0453 165.176 96.0453 165.712C96.0453 166.24 96.1453 166.688 96.3453 167.056C96.5533 167.416 96.8213 167.684 97.1493 167.86C97.4853 168.036 97.8493 168.124 98.2413 168.124C98.6333 168.124 98.9933 168.036 99.3213 167.86C99.6573 167.684 99.9253 167.416 100.125 167.056C100.333 166.688 100.437 166.24 100.437 165.712C100.437 165.176 100.333 164.728 100.125 164.368C99.9253 164 99.6573 163.728 99.3213 163.552C98.9933 163.376 98.6333 163.288 98.2413 163.288ZM104.156 163.744C104.372 163.288 104.688 162.936 105.104 162.688C105.52 162.432 106.016 162.304 106.592 162.304V163.492H106.256C105.64 163.492 105.136 163.652 104.744 163.972C104.352 164.284 104.156 164.804 104.156 165.532V169H103.064V162.412H104.156V163.744ZM110.686 162.328C111.526 162.328 112.222 162.552 112.774 163C113.326 163.448 113.666 164.048 113.794 164.8H112.642C112.562 164.328 112.342 163.96 111.982 163.696C111.63 163.424 111.19 163.288 110.662 163.288C110.278 163.288 109.926 163.376 109.606 163.552C109.294 163.728 109.042 164 108.85 164.368C108.658 164.728 108.562 165.176 108.562 165.712C108.562 166.248 108.658 166.7 108.85 167.068C109.042 167.428 109.294 167.696 109.606 167.872C109.926 168.048 110.278 168.136 110.662 168.136C111.19 168.136 111.63 168 111.982 167.728C112.342 167.456 112.562 167.084 112.642 166.612H113.794C113.666 167.372 113.326 167.976 112.774 168.424C112.222 168.864 111.526 169.084 110.686 169.084C110.054 169.084 109.494 168.948 109.006 168.676C108.518 168.404 108.134 168.016 107.854 167.512C107.582 167 107.446 166.4 107.446 165.712C107.446 165.024 107.582 164.424 107.854 163.912C108.134 163.4 108.518 163.008 109.006 162.736C109.494 162.464 110.054 162.328 110.686 162.328ZM121.383 165.34C121.383 165.572 121.367 165.772 121.335 165.94H116.067C116.091 166.692 116.303 167.256 116.703 167.632C117.111 168.008 117.607 168.196 118.191 168.196C118.719 168.196 119.159 168.064 119.511 167.8C119.871 167.528 120.091 167.168 120.171 166.72H121.335C121.255 167.176 121.075 167.584 120.795 167.944C120.523 168.304 120.167 168.584 119.727 168.784C119.287 168.984 118.791 169.084 118.239 169.084C117.607 169.084 117.047 168.948 116.559 168.676C116.071 168.404 115.687 168.016 115.407 167.512C115.135 167 114.999 166.4 114.999 165.712C114.999 165.024 115.135 164.424 115.407 163.912C115.687 163.4 116.071 163.008 116.559 162.736C117.047 162.464 117.607 162.328 118.239 162.328C118.879 162.328 119.435 162.464 119.907 162.736C120.387 163.008 120.751 163.372 120.999 163.828C121.255 164.284 121.383 164.788 121.383 165.34ZM120.279 165.412C120.303 164.924 120.223 164.516 120.039 164.188C119.855 163.86 119.603 163.616 119.283 163.456C118.963 163.296 118.615 163.216 118.239 163.216C117.639 163.216 117.135 163.404 116.727 163.78C116.319 164.148 116.099 164.692 116.067 165.412H120.279ZM128.892 160.852C128.308 160.844 127.9 160.944 127.668 161.152C127.444 161.36 127.332 161.72 127.332 162.232V162.412H128.892V163.372H127.332V169H126.24V163.372H125.292V162.412H126.24V162.148C126.24 160.572 127.124 159.82 128.892 159.892V160.852ZM133.166 162.328C133.798 162.328 134.362 162.464 134.858 162.736C135.362 163.008 135.754 163.4 136.034 163.912C136.322 164.424 136.466 165.024 136.466 165.712C136.466 166.4 136.322 167 136.034 167.512C135.754 168.016 135.362 168.404 134.858 168.676C134.362 168.948 133.798 169.084 133.166 169.084C132.534 169.084 131.966 168.948 131.462 168.676C130.966 168.404 130.574 168.016 130.286 167.512C129.998 167 129.854 166.4 129.854 165.712C129.854 165.024 129.998 164.424 130.286 163.912C130.574 163.4 130.966 163.008 131.462 162.736C131.966 162.464 132.534 162.328 133.166 162.328ZM133.166 163.288C132.774 163.288 132.41 163.376 132.074 163.552C131.746 163.728 131.478 164 131.27 164.368C131.07 164.728 130.97 165.176 130.97 165.712C130.97 166.24 131.07 166.688 131.27 167.056C131.478 167.416 131.746 167.684 132.074 167.86C132.41 168.036 132.774 168.124 133.166 168.124C133.558 168.124 133.918 168.036 134.246 167.86C134.582 167.684 134.85 167.416 135.05 167.056C135.258 166.688 135.362 166.24 135.362 165.712C135.362 165.176 135.258 164.728 135.05 164.368C134.85 164 134.582 163.728 134.246 163.552C133.918 163.376 133.558 163.288 133.166 163.288ZM139.081 163.744C139.297 163.288 139.613 162.936 140.029 162.688C140.445 162.432 140.941 162.304 141.517 162.304V163.492H141.181C140.565 163.492 140.061 163.652 139.669 163.972C139.277 164.284 139.081 164.804 139.081 165.532V169H137.989V162.412H139.081V163.744ZM148.459 162.328C149.099 162.328 149.639 162.488 150.079 162.808C150.527 163.128 150.839 163.556 151.015 164.092V162.412H152.107V169H151.015V167.32C150.839 167.856 150.527 168.284 150.079 168.604C149.639 168.924 149.099 169.084 148.459 169.084C147.875 169.084 147.355 168.948 146.899 168.676C146.443 168.404 146.083 168.016 145.819 167.512C145.563 167 145.435 166.4 145.435 165.712C145.435 165.024 145.563 164.424 145.819 163.912C146.083 163.4 146.443 163.008 146.899 162.736C147.355 162.464 147.875 162.328 148.459 162.328ZM148.771 163.3C148.099 163.3 147.559 163.516 147.151 163.948C146.751 164.372 146.551 164.96 146.551 165.712C146.551 166.464 146.751 167.056 147.151 167.488C147.559 167.912 148.099 168.124 148.771 168.124C149.203 168.124 149.587 168.024 149.923 167.824C150.267 167.624 150.535 167.344 150.727 166.984C150.919 166.616 151.015 166.192 151.015 165.712C151.015 165.232 150.919 164.808 150.727 164.44C150.535 164.072 150.267 163.792 149.923 163.6C149.587 163.4 149.203 163.3 148.771 163.3ZM159.926 160.852C159.342 160.844 158.934 160.944 158.702 161.152C158.478 161.36 158.366 161.72 158.366 162.232V162.412H159.926V163.372H158.366V169H157.274V163.372H156.326V162.412H157.274V162.148C157.274 160.572 158.158 159.82 159.926 159.892V160.852ZM163.911 162.328C164.551 162.328 165.091 162.488 165.531 162.808C165.979 163.128 166.291 163.556 166.467 164.092V162.412H167.559V169H166.467V167.32C166.291 167.856 165.979 168.284 165.531 168.604C165.091 168.924 164.551 169.084 163.911 169.084C163.327 169.084 162.807 168.948 162.351 168.676C161.895 168.404 161.535 168.016 161.271 167.512C161.015 167 160.887 166.4 160.887 165.712C160.887 165.024 161.015 164.424 161.271 163.912C161.535 163.4 161.895 163.008 162.351 162.736C162.807 162.464 163.327 162.328 163.911 162.328ZM164.223 163.3C163.551 163.3 163.011 163.516 162.603 163.948C162.203 164.372 162.003 164.96 162.003 165.712C162.003 166.464 162.203 167.056 162.603 167.488C163.011 167.912 163.551 168.124 164.223 168.124C164.655 168.124 165.039 168.024 165.375 167.824C165.719 167.624 165.987 167.344 166.179 166.984C166.371 166.616 166.467 166.192 166.467 165.712C166.467 165.232 166.371 164.808 166.179 164.44C165.987 164.072 165.719 163.792 165.375 163.6C165.039 163.4 164.655 163.3 164.223 163.3ZM171.461 162.328C172.205 162.328 172.801 162.524 173.249 162.916C173.705 163.3 173.981 163.82 174.077 164.476H173.033C172.985 164.084 172.821 163.764 172.541 163.516C172.269 163.26 171.901 163.132 171.437 163.132C171.045 163.132 170.737 163.228 170.513 163.42C170.297 163.604 170.189 163.856 170.189 164.176C170.189 164.416 170.261 164.612 170.405 164.764C170.557 164.908 170.741 165.02 170.957 165.1C171.181 165.172 171.485 165.252 171.869 165.34C172.357 165.452 172.749 165.568 173.045 165.688C173.349 165.8 173.605 165.984 173.813 166.24C174.029 166.496 174.137 166.84 174.137 167.272C174.137 167.808 173.933 168.244 173.525 168.58C173.125 168.916 172.589 169.084 171.917 169.084C171.133 169.084 170.493 168.896 169.997 168.52C169.501 168.144 169.209 167.62 169.121 166.948H170.177C170.217 167.348 170.389 167.672 170.693 167.92C171.005 168.168 171.413 168.292 171.917 168.292C172.293 168.292 172.585 168.196 172.793 168.004C173.009 167.812 173.117 167.56 173.117 167.248C173.117 166.992 173.041 166.788 172.889 166.636C172.737 166.484 172.549 166.368 172.325 166.288C172.101 166.208 171.793 166.124 171.401 166.036C170.913 165.924 170.521 165.812 170.225 165.7C169.937 165.588 169.689 165.412 169.481 165.172C169.281 164.924 169.181 164.592 169.181 164.176C169.181 163.624 169.385 163.18 169.793 162.844C170.201 162.5 170.757 162.328 171.461 162.328ZM178.84 168.04V169H178.024C177.352 169 176.848 168.84 176.512 168.52C176.184 168.2 176.02 167.664 176.02 166.912V163.36H175.036V162.412H176.02V160.768H177.124V162.412H178.828V163.36H177.124V166.936C177.124 167.36 177.2 167.652 177.352 167.812C177.512 167.964 177.784 168.04 178.168 168.04H178.84ZM180.909 168.196C181.021 168.548 181.077 168.876 181.077 169.18C181.077 169.596 180.973 169.928 180.765 170.176C180.557 170.432 180.245 170.56 179.829 170.56V170.092C180.029 170.092 180.173 170.036 180.261 169.924C180.357 169.82 180.405 169.652 180.405 169.42V169.312H179.793V168.196H180.909ZM186.627 163.744C186.843 163.288 187.159 162.936 187.575 162.688C187.991 162.432 188.487 162.304 189.063 162.304V163.492H188.727C188.111 163.492 187.607 163.652 187.215 163.972C186.823 164.284 186.627 164.804 186.627 165.532V169H185.535V162.412H186.627V163.744ZM196.301 165.34C196.301 165.572 196.285 165.772 196.253 165.94H190.985C191.009 166.692 191.221 167.256 191.621 167.632C192.029 168.008 192.525 168.196 193.109 168.196C193.637 168.196 194.077 168.064 194.429 167.8C194.789 167.528 195.009 167.168 195.089 166.72H196.253C196.173 167.176 195.993 167.584 195.713 167.944C195.441 168.304 195.085 168.584 194.645 168.784C194.205 168.984 193.709 169.084 193.157 169.084C192.525 169.084 191.965 168.948 191.477 168.676C190.989 168.404 190.605 168.016 190.325 167.512C190.053 167 189.917 166.4 189.917 165.712C189.917 165.024 190.053 164.424 190.325 163.912C190.605 163.4 190.989 163.008 191.477 162.736C191.965 162.464 192.525 162.328 193.157 162.328C193.797 162.328 194.353 162.464 194.825 162.736C195.305 163.008 195.669 163.372 195.917 163.828C196.173 164.284 196.301 164.788 196.301 165.34ZM195.197 165.412C195.221 164.924 195.141 164.516 194.957 164.188C194.773 163.86 194.521 163.616 194.201 163.456C193.881 163.296 193.533 163.216 193.157 163.216C192.557 163.216 192.053 163.404 191.645 163.78C191.237 164.148 191.017 164.692 190.985 165.412H195.197ZM198.921 160.12V169H197.829V160.12H198.921ZM200.585 160.48C200.585 160.28 200.653 160.12 200.789 160C200.925 159.872 201.105 159.808 201.329 159.808C201.553 159.808 201.733 159.872 201.869 160C202.005 160.12 202.073 160.28 202.073 160.48C202.073 160.68 202.005 160.844 201.869 160.972C201.733 161.092 201.553 161.152 201.329 161.152C201.105 161.152 200.925 161.092 200.789 160.972C200.653 160.844 200.585 160.68 200.585 160.48ZM201.869 162.412V169H200.777V162.412H201.869ZM206.424 162.328C207.064 162.328 207.604 162.488 208.044 162.808C208.492 163.128 208.804 163.556 208.98 164.092V162.412H210.072V169H208.98V167.32C208.804 167.856 208.492 168.284 208.044 168.604C207.604 168.924 207.064 169.084 206.424 169.084C205.84 169.084 205.32 168.948 204.864 168.676C204.408 168.404 204.048 168.016 203.784 167.512C203.528 167 203.4 166.4 203.4 165.712C203.4 165.024 203.528 164.424 203.784 163.912C204.048 163.4 204.408 163.008 204.864 162.736C205.32 162.464 205.84 162.328 206.424 162.328ZM206.736 163.3C206.064 163.3 205.524 163.516 205.116 163.948C204.716 164.372 204.516 164.96 204.516 165.712C204.516 166.464 204.716 167.056 205.116 167.488C205.524 167.912 206.064 168.124 206.736 168.124C207.168 168.124 207.552 168.024 207.888 167.824C208.232 167.624 208.5 167.344 208.692 166.984C208.884 166.616 208.98 166.192 208.98 165.712C208.98 165.232 208.884 164.808 208.692 164.44C208.5 164.072 208.232 163.792 207.888 163.6C207.552 163.4 207.168 163.3 206.736 163.3ZM215.546 162.328C216.13 162.328 216.65 162.464 217.106 162.736C217.562 163.008 217.918 163.4 218.174 163.912C218.438 164.424 218.57 165.024 218.57 165.712C218.57 166.4 218.438 167 218.174 167.512C217.918 168.016 217.562 168.404 217.106 168.676C216.65 168.948 216.13 169.084 215.546 169.084C214.906 169.084 214.362 168.924 213.914 168.604C213.474 168.276 213.17 167.848 213.002 167.32V169H211.91V160.12H213.002V164.092C213.17 163.564 213.474 163.14 213.914 162.82C214.362 162.492 214.906 162.328 215.546 162.328ZM215.234 163.3C214.81 163.3 214.426 163.4 214.082 163.6C213.738 163.792 213.47 164.072 213.278 164.44C213.086 164.808 212.99 165.232 212.99 165.712C212.99 166.192 213.086 166.616 213.278 166.984C213.47 167.344 213.738 167.624 214.082 167.824C214.426 168.024 214.81 168.124 215.234 168.124C215.914 168.124 216.454 167.912 216.854 167.488C217.262 167.056 217.466 166.464 217.466 165.712C217.466 164.96 217.262 164.372 216.854 163.948C216.454 163.516 215.914 163.3 215.234 163.3ZM221.188 160.12V169H220.096V160.12H221.188ZM229.104 165.34C229.104 165.572 229.088 165.772 229.056 165.94H223.788C223.812 166.692 224.024 167.256 224.424 167.632C224.832 168.008 225.328 168.196 225.912 168.196C226.44 168.196 226.88 168.064 227.232 167.8C227.592 167.528 227.812 167.168 227.892 166.72H229.056C228.976 167.176 228.796 167.584 228.516 167.944C228.244 168.304 227.888 168.584 227.448 168.784C227.008 168.984 226.512 169.084 225.96 169.084C225.328 169.084 224.768 168.948 224.28 168.676C223.792 168.404 223.408 168.016 223.128 167.512C222.856 167 222.72 166.4 222.72 165.712C222.72 165.024 222.856 164.424 223.128 163.912C223.408 163.4 223.792 163.008 224.28 162.736C224.768 162.464 225.328 162.328 225.96 162.328C226.6 162.328 227.156 162.464 227.628 162.736C228.108 163.008 228.472 163.372 228.72 163.828C228.976 164.284 229.104 164.788 229.104 165.34ZM228 165.412C228.024 164.924 227.944 164.516 227.76 164.188C227.576 163.86 227.324 163.616 227.004 163.456C226.684 163.296 226.336 163.216 225.96 163.216C225.36 163.216 224.856 163.404 224.448 163.78C224.04 164.148 223.82 164.692 223.788 165.412H228ZM29.576 180.328C30.216 180.328 30.756 180.488 31.196 180.808C31.644 181.128 31.956 181.556 32.132 182.092V180.412H33.224V187H32.132V185.32C31.956 185.856 31.644 186.284 31.196 186.604C30.756 186.924 30.216 187.084 29.576 187.084C28.992 187.084 28.472 186.948 28.016 186.676C27.56 186.404 27.2 186.016 26.936 185.512C26.68 185 26.552 184.4 26.552 183.712C26.552 183.024 26.68 182.424 26.936 181.912C27.2 181.4 27.56 181.008 28.016 180.736C28.472 180.464 28.992 180.328 29.576 180.328ZM29.888 181.3C29.216 181.3 28.676 181.516 28.268 181.948C27.868 182.372 27.668 182.96 27.668 183.712C27.668 184.464 27.868 185.056 28.268 185.488C28.676 185.912 29.216 186.124 29.888 186.124C30.32 186.124 30.704 186.024 31.04 185.824C31.384 185.624 31.652 185.344 31.844 184.984C32.036 184.616 32.132 184.192 32.132 183.712C32.132 183.232 32.036 182.808 31.844 182.44C31.652 182.072 31.384 181.792 31.04 181.6C30.704 181.4 30.32 181.3 29.888 181.3ZM38.5299 180.304C39.2979 180.304 39.9179 180.552 40.3899 181.048C40.8619 181.536 41.0979 182.244 41.0979 183.172V187H40.0059V183.268C40.0059 182.612 39.8379 182.108 39.5019 181.756C39.1659 181.404 38.7099 181.228 38.1339 181.228C37.5339 181.228 37.0539 181.424 36.6939 181.816C36.3339 182.2 36.1539 182.764 36.1539 183.508V187H35.0619V180.412H36.1539V181.972C36.3219 181.436 36.6179 181.024 37.0419 180.736C37.4739 180.448 37.9699 180.304 38.5299 180.304ZM45.5729 180.328C46.2129 180.328 46.7529 180.488 47.1929 180.808C47.6409 181.128 47.9529 181.556 48.1289 182.092V178.12H49.2209V187H48.1289V185.32C47.9529 185.856 47.6409 186.284 47.1929 186.604C46.7529 186.924 46.2129 187.084 45.5729 187.084C44.9889 187.084 44.4689 186.948 44.0129 186.676C43.5569 186.404 43.1969 186.016 42.9329 185.512C42.6769 185 42.5489 184.4 42.5489 183.712C42.5489 183.024 42.6769 182.424 42.9329 181.912C43.1969 181.4 43.5569 181.008 44.0129 180.736C44.4689 180.464 44.9889 180.328 45.5729 180.328ZM45.8849 181.3C45.2129 181.3 44.6729 181.516 44.2649 181.948C43.8649 182.372 43.6649 182.96 43.6649 183.712C43.6649 184.464 43.8649 185.056 44.2649 185.488C44.6729 185.912 45.2129 186.124 45.8849 186.124C46.3169 186.124 46.7009 186.024 47.0369 185.824C47.3809 185.624 47.6489 185.344 47.8409 184.984C48.0329 184.616 48.1289 184.192 48.1289 183.712C48.1289 183.232 48.0329 182.808 47.8409 182.44C47.6489 182.072 47.3809 181.792 47.0369 181.6C46.7009 181.4 46.3169 181.3 45.8849 181.3ZM57.7597 180.328C58.3437 180.328 58.8637 180.464 59.3197 180.736C59.7757 181.008 60.1317 181.4 60.3877 181.912C60.6517 182.424 60.7837 183.024 60.7837 183.712C60.7837 184.4 60.6517 185 60.3877 185.512C60.1317 186.016 59.7757 186.404 59.3197 186.676C58.8637 186.948 58.3437 187.084 57.7597 187.084C57.1197 187.084 56.5757 186.924 56.1277 186.604C55.6877 186.276 55.3837 185.848 55.2157 185.32V190.12H54.1237V180.412H55.2157V182.092C55.3837 181.564 55.6877 181.14 56.1277 180.82C56.5757 180.492 57.1197 180.328 57.7597 180.328ZM57.4477 181.3C57.0237 181.3 56.6397 181.4 56.2957 181.6C55.9517 181.792 55.6837 182.072 55.4917 182.44C55.2997 182.808 55.2037 183.232 55.2037 183.712C55.2037 184.192 55.2997 184.616 55.4917 184.984C55.6837 185.344 55.9517 185.624 56.2957 185.824C56.6397 186.024 57.0237 186.124 57.4477 186.124C58.1277 186.124 58.6677 185.912 59.0677 185.488C59.4757 185.056 59.6797 184.464 59.6797 183.712C59.6797 182.96 59.4757 182.372 59.0677 181.948C58.6677 181.516 58.1277 181.3 57.4477 181.3ZM65.2976 180.328C65.9296 180.328 66.4936 180.464 66.9896 180.736C67.4936 181.008 67.8856 181.4 68.1656 181.912C68.4536 182.424 68.5976 183.024 68.5976 183.712C68.5976 184.4 68.4536 185 68.1656 185.512C67.8856 186.016 67.4936 186.404 66.9896 186.676C66.4936 186.948 65.9296 187.084 65.2976 187.084C64.6656 187.084 64.0976 186.948 63.5936 186.676C63.0976 186.404 62.7056 186.016 62.4176 185.512C62.1296 185 61.9856 184.4 61.9856 183.712C61.9856 183.024 62.1296 182.424 62.4176 181.912C62.7056 181.4 63.0976 181.008 63.5936 180.736C64.0976 180.464 64.6656 180.328 65.2976 180.328ZM65.2976 181.288C64.9056 181.288 64.5416 181.376 64.2056 181.552C63.8776 181.728 63.6096 182 63.4016 182.368C63.2016 182.728 63.1016 183.176 63.1016 183.712C63.1016 184.24 63.2016 184.688 63.4016 185.056C63.6096 185.416 63.8776 185.684 64.2056 185.86C64.5416 186.036 64.9056 186.124 65.2976 186.124C65.6896 186.124 66.0496 186.036 66.3776 185.86C66.7136 185.684 66.9816 185.416 67.1816 185.056C67.3896 184.688 67.4936 184.24 67.4936 183.712C67.4936 183.176 67.3896 182.728 67.1816 182.368C66.9816 182 66.7136 181.728 66.3776 181.552C66.0496 181.376 65.6896 181.288 65.2976 181.288ZM79.1685 180.412L77.2725 187H76.0965L74.2845 181.636L72.4605 187H71.2725L69.4005 180.412H70.5045L71.9085 185.956L73.7325 180.412H74.8725L76.7085 185.944L78.1245 180.412H79.1685ZM86.3469 183.34C86.3469 183.572 86.3309 183.772 86.2989 183.94H81.0309C81.0549 184.692 81.2669 185.256 81.6669 185.632C82.0749 186.008 82.5709 186.196 83.1549 186.196C83.6829 186.196 84.1229 186.064 84.4749 185.8C84.8349 185.528 85.0549 185.168 85.1349 184.72H86.2989C86.2189 185.176 86.0389 185.584 85.7589 185.944C85.4869 186.304 85.1309 186.584 84.6909 186.784C84.2509 186.984 83.7549 187.084 83.2029 187.084C82.5709 187.084 82.0109 186.948 81.5229 186.676C81.0349 186.404 80.6509 186.016 80.3709 185.512C80.0989 185 79.9629 184.4 79.9629 183.712C79.9629 183.024 80.0989 182.424 80.3709 181.912C80.6509 181.4 81.0349 181.008 81.5229 180.736C82.0109 180.464 82.5709 180.328 83.2029 180.328C83.8429 180.328 84.3989 180.464 84.8709 180.736C85.3509 181.008 85.7149 181.372 85.9629 181.828C86.2189 182.284 86.3469 182.788 86.3469 183.34ZM85.2429 183.412C85.2669 182.924 85.1869 182.516 85.0029 182.188C84.8189 181.86 84.5669 181.616 84.2469 181.456C83.9269 181.296 83.5789 181.216 83.2029 181.216C82.6029 181.216 82.0989 181.404 81.6909 181.78C81.2829 182.148 81.0629 182.692 81.0309 183.412H85.2429ZM88.9672 181.744C89.1832 181.288 89.4992 180.936 89.9152 180.688C90.3312 180.432 90.8272 180.304 91.4032 180.304V181.492H91.0672C90.4512 181.492 89.9472 181.652 89.5552 181.972C89.1632 182.284 88.9672 182.804 88.9672 183.532V187H87.8752V180.412H88.9672V181.744ZM95.4967 178.852C94.9127 178.844 94.5047 178.944 94.2727 179.152C94.0487 179.36 93.9367 179.72 93.9367 180.232V180.412H95.4967V181.372H93.9367V187H92.8447V181.372H91.8967V180.412H92.8447V180.148C92.8447 178.572 93.7287 177.82 95.4967 177.892V178.852ZM102.638 180.412V187H101.546V185.452C101.378 185.988 101.078 186.4 100.646 186.688C100.222 186.968 99.7263 187.108 99.1583 187.108C98.3983 187.108 97.7823 186.864 97.3103 186.376C96.8383 185.88 96.6023 185.172 96.6023 184.252V180.412H97.6943V184.144C97.6943 184.8 97.8623 185.308 98.1983 185.668C98.5343 186.02 98.9903 186.196 99.5663 186.196C100.166 186.196 100.646 186.004 101.006 185.62C101.366 185.228 101.546 184.66 101.546 183.916V180.412H102.638ZM105.58 178.12V187H104.488V178.12H105.58ZM110.308 178.48C110.308 178.28 110.376 178.12 110.512 178C110.648 177.872 110.828 177.808 111.052 177.808C111.276 177.808 111.456 177.872 111.592 178C111.728 178.12 111.796 178.28 111.796 178.48C111.796 178.68 111.728 178.844 111.592 178.972C111.456 179.092 111.276 179.152 111.052 179.152C110.828 179.152 110.648 179.092 110.512 178.972C110.376 178.844 110.308 178.68 110.308 178.48ZM111.592 180.412V187H110.5V180.412H111.592ZM116.916 180.304C117.684 180.304 118.304 180.552 118.776 181.048C119.248 181.536 119.484 182.244 119.484 183.172V187H118.392V183.268C118.392 182.612 118.224 182.108 117.888 181.756C117.552 181.404 117.096 181.228 116.52 181.228C115.92 181.228 115.44 181.424 115.08 181.816C114.72 182.2 114.54 182.764 114.54 183.508V187H113.448V180.412H114.54V181.972C114.708 181.436 115.004 181.024 115.428 180.736C115.86 180.448 116.356 180.304 116.916 180.304ZM124.403 186.04V187H123.587C122.915 187 122.411 186.84 122.075 186.52C121.747 186.2 121.583 185.664 121.583 184.912V181.36H120.599V180.412H121.583V178.768H122.687V180.412H124.391V181.36H122.687V184.936C122.687 185.36 122.763 185.652 122.915 185.812C123.075 185.964 123.347 186.04 123.731 186.04H124.403ZM131.895 183.34C131.895 183.572 131.879 183.772 131.847 183.94H126.579C126.603 184.692 126.815 185.256 127.215 185.632C127.623 186.008 128.119 186.196 128.703 186.196C129.231 186.196 129.671 186.064 130.023 185.8C130.383 185.528 130.603 185.168 130.683 184.72H131.847C131.767 185.176 131.587 185.584 131.307 185.944C131.035 186.304 130.679 186.584 130.239 186.784C129.799 186.984 129.303 187.084 128.751 187.084C128.119 187.084 127.559 186.948 127.071 186.676C126.583 186.404 126.199 186.016 125.919 185.512C125.647 185 125.511 184.4 125.511 183.712C125.511 183.024 125.647 182.424 125.919 181.912C126.199 181.4 126.583 181.008 127.071 180.736C127.559 180.464 128.119 180.328 128.751 180.328C129.391 180.328 129.947 180.464 130.419 180.736C130.899 181.008 131.263 181.372 131.511 181.828C131.767 182.284 131.895 182.788 131.895 183.34ZM130.791 183.412C130.815 182.924 130.735 182.516 130.551 182.188C130.367 181.86 130.115 181.616 129.795 181.456C129.475 181.296 129.127 181.216 128.751 181.216C128.151 181.216 127.647 181.404 127.239 181.78C126.831 182.148 126.611 182.692 126.579 183.412H130.791ZM136.124 180.328C136.764 180.328 137.304 180.488 137.744 180.808C138.192 181.128 138.504 181.556 138.68 182.092V180.412H139.772V187.108C139.772 187.716 139.644 188.256 139.388 188.728C139.132 189.2 138.772 189.568 138.308 189.832C137.844 190.096 137.304 190.228 136.688 190.228C135.8 190.228 135.076 190.012 134.516 189.58C133.956 189.156 133.6 188.58 133.448 187.852H134.528C134.656 188.292 134.896 188.636 135.248 188.884C135.608 189.14 136.068 189.268 136.628 189.268C137.22 189.268 137.708 189.076 138.092 188.692C138.484 188.316 138.68 187.788 138.68 187.108V185.32C138.504 185.856 138.192 186.284 137.744 186.604C137.304 186.924 136.764 187.084 136.124 187.084C135.54 187.084 135.02 186.948 134.564 186.676C134.108 186.404 133.748 186.016 133.484 185.512C133.228 185 133.1 184.4 133.1 183.712C133.1 183.024 133.228 182.424 133.484 181.912C133.748 181.4 134.108 181.008 134.564 180.736C135.02 180.464 135.54 180.328 136.124 180.328ZM136.436 181.3C135.764 181.3 135.224 181.516 134.816 181.948C134.416 182.372 134.216 182.96 134.216 183.712C134.216 184.464 134.416 185.056 134.816 185.488C135.224 185.912 135.764 186.124 136.436 186.124C136.868 186.124 137.252 186.024 137.588 185.824C137.932 185.624 138.2 185.344 138.392 184.984C138.584 184.616 138.68 184.192 138.68 183.712C138.68 183.232 138.584 182.808 138.392 182.44C138.2 182.072 137.932 181.792 137.588 181.6C137.252 181.4 136.868 181.3 136.436 181.3ZM142.702 181.744C142.918 181.288 143.234 180.936 143.65 180.688C144.066 180.432 144.562 180.304 145.138 180.304V181.492H144.802C144.186 181.492 143.682 181.652 143.29 181.972C142.898 182.284 142.702 182.804 142.702 183.532V187H141.61V180.412H142.702V181.744ZM149.015 180.328C149.655 180.328 150.195 180.488 150.635 180.808C151.083 181.128 151.395 181.556 151.571 182.092V180.412H152.663V187H151.571V185.32C151.395 185.856 151.083 186.284 150.635 186.604C150.195 186.924 149.655 187.084 149.015 187.084C148.431 187.084 147.911 186.948 147.455 186.676C146.999 186.404 146.639 186.016 146.375 185.512C146.119 185 145.991 184.4 145.991 183.712C145.991 183.024 146.119 182.424 146.375 181.912C146.639 181.4 146.999 181.008 147.455 180.736C147.911 180.464 148.431 180.328 149.015 180.328ZM149.327 181.3C148.655 181.3 148.115 181.516 147.707 181.948C147.307 182.372 147.107 182.96 147.107 183.712C147.107 184.464 147.307 185.056 147.707 185.488C148.115 185.912 148.655 186.124 149.327 186.124C149.759 186.124 150.143 186.024 150.479 185.824C150.823 185.624 151.091 185.344 151.283 184.984C151.475 184.616 151.571 184.192 151.571 183.712C151.571 183.232 151.475 182.808 151.283 182.44C151.091 182.072 150.823 181.792 150.479 181.6C150.143 181.4 149.759 181.3 149.327 181.3ZM157.645 186.04V187H156.829C156.157 187 155.653 186.84 155.317 186.52C154.989 186.2 154.825 185.664 154.825 184.912V181.36H153.841V180.412H154.825V178.768H155.929V180.412H157.633V181.36H155.929V184.936C155.929 185.36 156.005 185.652 156.157 185.812C156.317 185.964 156.589 186.04 156.973 186.04H157.645ZM158.886 178.48C158.886 178.28 158.954 178.12 159.09 178C159.226 177.872 159.406 177.808 159.63 177.808C159.854 177.808 160.034 177.872 160.17 178C160.306 178.12 160.374 178.28 160.374 178.48C160.374 178.68 160.306 178.844 160.17 178.972C160.034 179.092 159.854 179.152 159.63 179.152C159.406 179.152 159.226 179.092 159.09 178.972C158.954 178.844 158.886 178.68 158.886 178.48ZM160.17 180.412V187H159.078V180.412H160.17ZM165.013 180.328C165.645 180.328 166.209 180.464 166.705 180.736C167.209 181.008 167.601 181.4 167.881 181.912C168.169 182.424 168.313 183.024 168.313 183.712C168.313 184.4 168.169 185 167.881 185.512C167.601 186.016 167.209 186.404 166.705 186.676C166.209 186.948 165.645 187.084 165.013 187.084C164.381 187.084 163.813 186.948 163.309 186.676C162.813 186.404 162.421 186.016 162.133 185.512C161.845 185 161.701 184.4 161.701 183.712C161.701 183.024 161.845 182.424 162.133 181.912C162.421 181.4 162.813 181.008 163.309 180.736C163.813 180.464 164.381 180.328 165.013 180.328ZM165.013 181.288C164.621 181.288 164.257 181.376 163.921 181.552C163.593 181.728 163.325 182 163.117 182.368C162.917 182.728 162.817 183.176 162.817 183.712C162.817 184.24 162.917 184.688 163.117 185.056C163.325 185.416 163.593 185.684 163.921 185.86C164.257 186.036 164.621 186.124 165.013 186.124C165.405 186.124 165.765 186.036 166.093 185.86C166.429 185.684 166.697 185.416 166.897 185.056C167.105 184.688 167.209 184.24 167.209 183.712C167.209 183.176 167.105 182.728 166.897 182.368C166.697 182 166.429 181.728 166.093 181.552C165.765 181.376 165.405 181.288 165.013 181.288ZM176.537 180.328C177.121 180.328 177.641 180.464 178.097 180.736C178.553 181.008 178.909 181.4 179.165 181.912C179.429 182.424 179.561 183.024 179.561 183.712C179.561 184.4 179.429 185 179.165 185.512C178.909 186.016 178.553 186.404 178.097 186.676C177.641 186.948 177.121 187.084 176.537 187.084C175.897 187.084 175.353 186.924 174.905 186.604C174.465 186.276 174.161 185.848 173.993 185.32V187H172.901V178.12H173.993V182.092C174.161 181.564 174.465 181.14 174.905 180.82C175.353 180.492 175.897 180.328 176.537 180.328ZM176.225 181.3C175.801 181.3 175.417 181.4 175.073 181.6C174.729 181.792 174.461 182.072 174.269 182.44C174.077 182.808 173.981 183.232 173.981 183.712C173.981 184.192 174.077 184.616 174.269 184.984C174.461 185.344 174.729 185.624 175.073 185.824C175.417 186.024 175.801 186.124 176.225 186.124C176.905 186.124 177.445 185.912 177.845 185.488C178.253 185.056 178.457 184.464 178.457 183.712C178.457 182.96 178.253 182.372 177.845 181.948C177.445 181.516 176.905 181.3 176.225 181.3ZM187.147 183.34C187.147 183.572 187.131 183.772 187.099 183.94H181.831C181.855 184.692 182.067 185.256 182.467 185.632C182.875 186.008 183.371 186.196 183.955 186.196C184.483 186.196 184.923 186.064 185.275 185.8C185.635 185.528 185.855 185.168 185.935 184.72H187.099C187.019 185.176 186.839 185.584 186.559 185.944C186.287 186.304 185.931 186.584 185.491 186.784C185.051 186.984 184.555 187.084 184.003 187.084C183.371 187.084 182.811 186.948 182.323 186.676C181.835 186.404 181.451 186.016 181.171 185.512C180.899 185 180.763 184.4 180.763 183.712C180.763 183.024 180.899 182.424 181.171 181.912C181.451 181.4 181.835 181.008 182.323 180.736C182.811 180.464 183.371 180.328 184.003 180.328C184.643 180.328 185.199 180.464 185.671 180.736C186.151 181.008 186.515 181.372 186.763 181.828C187.019 182.284 187.147 182.788 187.147 183.34ZM186.043 183.412C186.067 182.924 185.987 182.516 185.803 182.188C185.619 181.86 185.367 181.616 185.047 181.456C184.727 181.296 184.379 181.216 184.003 181.216C183.403 181.216 182.899 181.404 182.491 181.78C182.083 182.148 181.863 182.692 181.831 183.412H186.043ZM191.819 186.04V187H191.003C190.331 187 189.827 186.84 189.491 186.52C189.163 186.2 188.999 185.664 188.999 184.912V181.36H188.015V180.412H188.999V178.768H190.103V180.412H191.807V181.36H190.103V184.936C190.103 185.36 190.179 185.652 190.331 185.812C190.491 185.964 190.763 186.04 191.147 186.04H191.819ZM202.3 180.412L200.404 187H199.228L197.416 181.636L195.592 187H194.404L192.532 180.412H193.636L195.04 185.956L196.864 180.412H198.004L199.84 185.944L201.256 180.412H202.3ZM209.478 183.34C209.478 183.572 209.462 183.772 209.43 183.94H204.162C204.186 184.692 204.398 185.256 204.798 185.632C205.206 186.008 205.702 186.196 206.286 186.196C206.814 186.196 207.254 186.064 207.606 185.8C207.966 185.528 208.186 185.168 208.266 184.72H209.43C209.35 185.176 209.17 185.584 208.89 185.944C208.618 186.304 208.262 186.584 207.822 186.784C207.382 186.984 206.886 187.084 206.334 187.084C205.702 187.084 205.142 186.948 204.654 186.676C204.166 186.404 203.782 186.016 203.502 185.512C203.23 185 203.094 184.4 203.094 183.712C203.094 183.024 203.23 182.424 203.502 181.912C203.782 181.4 204.166 181.008 204.654 180.736C205.142 180.464 205.702 180.328 206.334 180.328C206.974 180.328 207.53 180.464 208.002 180.736C208.482 181.008 208.846 181.372 209.094 181.828C209.35 182.284 209.478 182.788 209.478 183.34ZM208.374 183.412C208.398 182.924 208.318 182.516 208.134 182.188C207.95 181.86 207.698 181.616 207.378 181.456C207.058 181.296 206.71 181.216 206.334 181.216C205.734 181.216 205.23 181.404 204.822 181.78C204.414 182.148 204.194 182.692 204.162 183.412H208.374ZM217.066 183.34C217.066 183.572 217.05 183.772 217.018 183.94H211.75C211.774 184.692 211.986 185.256 212.386 185.632C212.794 186.008 213.29 186.196 213.874 186.196C214.402 186.196 214.842 186.064 215.194 185.8C215.554 185.528 215.774 185.168 215.854 184.72H217.018C216.938 185.176 216.758 185.584 216.478 185.944C216.206 186.304 215.85 186.584 215.41 186.784C214.97 186.984 214.474 187.084 213.922 187.084C213.29 187.084 212.73 186.948 212.242 186.676C211.754 186.404 211.37 186.016 211.09 185.512C210.818 185 210.682 184.4 210.682 183.712C210.682 183.024 210.818 182.424 211.09 181.912C211.37 181.4 211.754 181.008 212.242 180.736C212.73 180.464 213.29 180.328 213.922 180.328C214.562 180.328 215.118 180.464 215.59 180.736C216.07 181.008 216.434 181.372 216.682 181.828C216.938 182.284 217.066 182.788 217.066 183.34ZM215.962 183.412C215.986 182.924 215.906 182.516 215.722 182.188C215.538 181.86 215.286 181.616 214.966 181.456C214.646 181.296 214.298 181.216 213.922 181.216C213.322 181.216 212.818 181.404 212.41 181.78C212.002 182.148 211.782 182.692 211.75 183.412H215.962ZM222.063 180.304C222.831 180.304 223.451 180.552 223.923 181.048C224.395 181.536 224.631 182.244 224.631 183.172V187H223.539V183.268C223.539 182.612 223.371 182.108 223.035 181.756C222.699 181.404 222.243 181.228 221.667 181.228C221.067 181.228 220.587 181.424 220.227 181.816C219.867 182.2 219.687 182.764 219.687 183.508V187H218.595V180.412H219.687V181.972C219.855 181.436 220.151 181.024 220.575 180.736C221.007 180.448 221.503 180.304 222.063 180.304ZM27.332 198.412L29.468 203.596L31.448 198.412H32.66L28.748 208.12H27.512L28.88 204.892L26.108 198.412H27.332ZM36.7492 198.328C37.3812 198.328 37.9452 198.464 38.4412 198.736C38.9452 199.008 39.3372 199.4 39.6172 199.912C39.9052 200.424 40.0492 201.024 40.0492 201.712C40.0492 202.4 39.9052 203 39.6172 203.512C39.3372 204.016 38.9452 204.404 38.4412 204.676C37.9452 204.948 37.3812 205.084 36.7492 205.084C36.1172 205.084 35.5492 204.948 35.0452 204.676C34.5492 204.404 34.1572 204.016 33.8692 203.512C33.5812 203 33.4372 202.4 33.4372 201.712C33.4372 201.024 33.5812 200.424 33.8692 199.912C34.1572 199.4 34.5492 199.008 35.0452 198.736C35.5492 198.464 36.1172 198.328 36.7492 198.328ZM36.7492 199.288C36.3572 199.288 35.9932 199.376 35.6572 199.552C35.3292 199.728 35.0612 200 34.8532 200.368C34.6532 200.728 34.5532 201.176 34.5532 201.712C34.5532 202.24 34.6532 202.688 34.8532 203.056C35.0612 203.416 35.3292 203.684 35.6572 203.86C35.9932 204.036 36.3572 204.124 36.7492 204.124C37.1412 204.124 37.5012 204.036 37.8292 203.86C38.1652 203.684 38.4332 203.416 38.6332 203.056C38.8412 202.688 38.9452 202.24 38.9452 201.712C38.9452 201.176 38.8412 200.728 38.6332 200.368C38.4332 200 38.1652 199.728 37.8292 199.552C37.5012 199.376 37.1412 199.288 36.7492 199.288ZM47.4281 198.412V205H46.3361V203.452C46.1681 203.988 45.8681 204.4 45.4361 204.688C45.0121 204.968 44.5161 205.108 43.9481 205.108C43.1881 205.108 42.5721 204.864 42.1001 204.376C41.6281 203.88 41.3921 203.172 41.3921 202.252V198.412H42.4841V202.144C42.4841 202.8 42.6521 203.308 42.9881 203.668C43.3241 204.02 43.7801 204.196 44.3561 204.196C44.9561 204.196 45.4361 204.004 45.7961 203.62C46.1561 203.228 46.3361 202.66 46.3361 201.916V198.412H47.4281ZM50.3696 199.744C50.5856 199.288 50.9016 198.936 51.3176 198.688C51.7336 198.432 52.2296 198.304 52.8056 198.304V199.492H52.4696C51.8536 199.492 51.3496 199.652 50.9576 199.972C50.5656 200.284 50.3696 200.804 50.3696 201.532V205H49.2776V198.412H50.3696V199.744ZM60.1919 204.04V205H59.3759C58.7039 205 58.1999 204.84 57.8639 204.52C57.5359 204.2 57.3719 203.664 57.3719 202.912V199.36H56.3879V198.412H57.3719V196.768H58.4759V198.412H60.1799V199.36H58.4759V202.936C58.4759 203.36 58.5519 203.652 58.7039 203.812C58.8639 203.964 59.1359 204.04 59.5199 204.04H60.1919ZM70.6724 198.412L68.7764 205H67.6004L65.7884 199.636L63.9644 205H62.7764L60.9044 198.412H62.0084L63.4124 203.956L65.2364 198.412H66.3764L68.2124 203.944L69.6284 198.412H70.6724ZM74.7788 198.328C75.4108 198.328 75.9748 198.464 76.4708 198.736C76.9748 199.008 77.3668 199.4 77.6468 199.912C77.9348 200.424 78.0788 201.024 78.0788 201.712C78.0788 202.4 77.9348 203 77.6468 203.512C77.3668 204.016 76.9748 204.404 76.4708 204.676C75.9748 204.948 75.4108 205.084 74.7788 205.084C74.1468 205.084 73.5788 204.948 73.0748 204.676C72.5788 204.404 72.1868 204.016 71.8988 203.512C71.6108 203 71.4668 202.4 71.4668 201.712C71.4668 201.024 71.6108 200.424 71.8988 199.912C72.1868 199.4 72.5788 199.008 73.0748 198.736C73.5788 198.464 74.1468 198.328 74.7788 198.328ZM74.7788 199.288C74.3868 199.288 74.0228 199.376 73.6868 199.552C73.3588 199.728 73.0908 200 72.8828 200.368C72.6828 200.728 72.5828 201.176 72.5828 201.712C72.5828 202.24 72.6828 202.688 72.8828 203.056C73.0908 203.416 73.3588 203.684 73.6868 203.86C74.0228 204.036 74.3868 204.124 74.7788 204.124C75.1708 204.124 75.5308 204.036 75.8588 203.86C76.1948 203.684 76.4628 203.416 76.6628 203.056C76.8708 202.688 76.9748 202.24 76.9748 201.712C76.9748 201.176 76.8708 200.728 76.6628 200.368C76.4628 200 76.1948 199.728 75.8588 199.552C75.5308 199.376 75.1708 199.288 74.7788 199.288ZM85.3666 198.328C86.0066 198.328 86.5466 198.488 86.9866 198.808C87.4346 199.128 87.7466 199.556 87.9226 200.092V196.12H89.0146V205H87.9226V203.32C87.7466 203.856 87.4346 204.284 86.9866 204.604C86.5466 204.924 86.0066 205.084 85.3666 205.084C84.7826 205.084 84.2626 204.948 83.8066 204.676C83.3506 204.404 82.9906 204.016 82.7266 203.512C82.4706 203 82.3426 202.4 82.3426 201.712C82.3426 201.024 82.4706 200.424 82.7266 199.912C82.9906 199.4 83.3506 199.008 83.8066 198.736C84.2626 198.464 84.7826 198.328 85.3666 198.328ZM85.6786 199.3C85.0066 199.3 84.4666 199.516 84.0586 199.948C83.6586 200.372 83.4586 200.96 83.4586 201.712C83.4586 202.464 83.6586 203.056 84.0586 203.488C84.4666 203.912 85.0066 204.124 85.6786 204.124C86.1106 204.124 86.4946 204.024 86.8306 203.824C87.1746 203.624 87.4426 203.344 87.6346 202.984C87.8266 202.616 87.9226 202.192 87.9226 201.712C87.9226 201.232 87.8266 200.808 87.6346 200.44C87.4426 200.072 87.1746 199.792 86.8306 199.6C86.4946 199.4 86.1106 199.3 85.6786 199.3ZM93.5526 198.328C94.1926 198.328 94.7326 198.488 95.1726 198.808C95.6206 199.128 95.9326 199.556 96.1086 200.092V198.412H97.2006V205H96.1086V203.32C95.9326 203.856 95.6206 204.284 95.1726 204.604C94.7326 204.924 94.1926 205.084 93.5526 205.084C92.9686 205.084 92.4486 204.948 91.9926 204.676C91.5366 204.404 91.1766 204.016 90.9126 203.512C90.6566 203 90.5286 202.4 90.5286 201.712C90.5286 201.024 90.6566 200.424 90.9126 199.912C91.1766 199.4 91.5366 199.008 91.9926 198.736C92.4486 198.464 92.9686 198.328 93.5526 198.328ZM93.8646 199.3C93.1926 199.3 92.6526 199.516 92.2446 199.948C91.8446 200.372 91.6446 200.96 91.6446 201.712C91.6446 202.464 91.8446 203.056 92.2446 203.488C92.6526 203.912 93.1926 204.124 93.8646 204.124C94.2966 204.124 94.6806 204.024 95.0166 203.824C95.3606 203.624 95.6286 203.344 95.8206 202.984C96.0126 202.616 96.1086 202.192 96.1086 201.712C96.1086 201.232 96.0126 200.808 95.8206 200.44C95.6286 200.072 95.3606 199.792 95.0166 199.6C94.6806 199.4 94.2966 199.3 93.8646 199.3ZM102.182 204.04V205H101.366C100.694 205 100.19 204.84 99.8545 204.52C99.5265 204.2 99.3625 203.664 99.3625 202.912V199.36H98.3785V198.412H99.3625V196.768H100.466V198.412H102.17V199.36H100.466V202.936C100.466 203.36 100.542 203.652 100.694 203.812C100.854 203.964 101.126 204.04 101.51 204.04H102.182ZM106.315 198.328C106.955 198.328 107.495 198.488 107.935 198.808C108.383 199.128 108.695 199.556 108.871 200.092V198.412H109.963V205H108.871V203.32C108.695 203.856 108.383 204.284 107.935 204.604C107.495 204.924 106.955 205.084 106.315 205.084C105.731 205.084 105.211 204.948 104.755 204.676C104.299 204.404 103.939 204.016 103.675 203.512C103.419 203 103.291 202.4 103.291 201.712C103.291 201.024 103.419 200.424 103.675 199.912C103.939 199.4 104.299 199.008 104.755 198.736C105.211 198.464 105.731 198.328 106.315 198.328ZM106.627 199.3C105.955 199.3 105.415 199.516 105.007 199.948C104.607 200.372 104.407 200.96 104.407 201.712C104.407 202.464 104.607 203.056 105.007 203.488C105.415 203.912 105.955 204.124 106.627 204.124C107.059 204.124 107.443 204.024 107.779 203.824C108.123 203.624 108.391 203.344 108.583 202.984C108.775 202.616 108.871 202.192 108.871 201.712C108.871 201.232 108.775 200.808 108.583 200.44C108.391 200.072 108.123 199.792 107.779 199.6C107.443 199.4 107.059 199.3 106.627 199.3ZM115.437 198.328C116.021 198.328 116.541 198.464 116.997 198.736C117.453 199.008 117.809 199.4 118.065 199.912C118.329 200.424 118.461 201.024 118.461 201.712C118.461 202.4 118.329 203 118.065 203.512C117.809 204.016 117.453 204.404 116.997 204.676C116.541 204.948 116.021 205.084 115.437 205.084C114.797 205.084 114.253 204.924 113.805 204.604C113.365 204.276 113.061 203.848 112.893 203.32V205H111.801V196.12H112.893V200.092C113.061 199.564 113.365 199.14 113.805 198.82C114.253 198.492 114.797 198.328 115.437 198.328ZM115.125 199.3C114.701 199.3 114.317 199.4 113.973 199.6C113.629 199.792 113.361 200.072 113.169 200.44C112.977 200.808 112.881 201.232 112.881 201.712C112.881 202.192 112.977 202.616 113.169 202.984C113.361 203.344 113.629 203.624 113.973 203.824C114.317 204.024 114.701 204.124 115.125 204.124C115.805 204.124 116.345 203.912 116.745 203.488C117.153 203.056 117.357 202.464 117.357 201.712C117.357 200.96 117.153 200.372 116.745 199.948C116.345 199.516 115.805 199.3 115.125 199.3ZM122.687 198.328C123.327 198.328 123.867 198.488 124.307 198.808C124.755 199.128 125.067 199.556 125.243 200.092V198.412H126.335V205H125.243V203.32C125.067 203.856 124.755 204.284 124.307 204.604C123.867 204.924 123.327 205.084 122.687 205.084C122.103 205.084 121.583 204.948 121.127 204.676C120.671 204.404 120.311 204.016 120.047 203.512C119.791 203 119.663 202.4 119.663 201.712C119.663 201.024 119.791 200.424 120.047 199.912C120.311 199.4 120.671 199.008 121.127 198.736C121.583 198.464 122.103 198.328 122.687 198.328ZM122.999 199.3C122.327 199.3 121.787 199.516 121.379 199.948C120.979 200.372 120.779 200.96 120.779 201.712C120.779 202.464 120.979 203.056 121.379 203.488C121.787 203.912 122.327 204.124 122.999 204.124C123.431 204.124 123.815 204.024 124.151 203.824C124.495 203.624 124.763 203.344 124.955 202.984C125.147 202.616 125.243 202.192 125.243 201.712C125.243 201.232 125.147 200.808 124.955 200.44C124.763 200.072 124.495 199.792 124.151 199.6C123.815 199.4 123.431 199.3 122.999 199.3ZM130.237 198.328C130.981 198.328 131.577 198.524 132.025 198.916C132.481 199.3 132.757 199.82 132.853 200.476H131.809C131.761 200.084 131.597 199.764 131.317 199.516C131.045 199.26 130.677 199.132 130.213 199.132C129.821 199.132 129.513 199.228 129.289 199.42C129.073 199.604 128.965 199.856 128.965 200.176C128.965 200.416 129.037 200.612 129.181 200.764C129.333 200.908 129.517 201.02 129.733 201.1C129.957 201.172 130.261 201.252 130.645 201.34C131.133 201.452 131.525 201.568 131.821 201.688C132.125 201.8 132.381 201.984 132.589 202.24C132.805 202.496 132.913 202.84 132.913 203.272C132.913 203.808 132.709 204.244 132.301 204.58C131.901 204.916 131.365 205.084 130.693 205.084C129.909 205.084 129.269 204.896 128.773 204.52C128.277 204.144 127.985 203.62 127.897 202.948H128.953C128.993 203.348 129.165 203.672 129.469 203.92C129.781 204.168 130.189 204.292 130.693 204.292C131.069 204.292 131.361 204.196 131.569 204.004C131.785 203.812 131.893 203.56 131.893 203.248C131.893 202.992 131.817 202.788 131.665 202.636C131.513 202.484 131.325 202.368 131.101 202.288C130.877 202.208 130.569 202.124 130.177 202.036C129.689 201.924 129.297 201.812 129.001 201.7C128.713 201.588 128.465 201.412 128.257 201.172C128.057 200.924 127.957 200.592 127.957 200.176C127.957 199.624 128.161 199.18 128.569 198.844C128.977 198.5 129.533 198.328 130.237 198.328ZM140.532 201.34C140.532 201.572 140.516 201.772 140.484 201.94H135.216C135.24 202.692 135.452 203.256 135.852 203.632C136.26 204.008 136.756 204.196 137.34 204.196C137.868 204.196 138.308 204.064 138.66 203.8C139.02 203.528 139.24 203.168 139.32 202.72H140.484C140.404 203.176 140.224 203.584 139.944 203.944C139.672 204.304 139.316 204.584 138.876 204.784C138.436 204.984 137.94 205.084 137.388 205.084C136.756 205.084 136.196 204.948 135.708 204.676C135.22 204.404 134.836 204.016 134.556 203.512C134.284 203 134.148 202.4 134.148 201.712C134.148 201.024 134.284 200.424 134.556 199.912C134.836 199.4 135.22 199.008 135.708 198.736C136.196 198.464 136.756 198.328 137.388 198.328C138.028 198.328 138.584 198.464 139.056 198.736C139.536 199.008 139.9 199.372 140.148 199.828C140.404 200.284 140.532 200.788 140.532 201.34ZM139.428 201.412C139.452 200.924 139.372 200.516 139.188 200.188C139.004 199.86 138.752 199.616 138.432 199.456C138.112 199.296 137.764 199.216 137.388 199.216C136.788 199.216 136.284 199.404 135.876 199.78C135.468 200.148 135.248 200.692 135.216 201.412H139.428ZM144.124 198.328C144.868 198.328 145.464 198.524 145.912 198.916C146.368 199.3 146.644 199.82 146.74 200.476H145.696C145.648 200.084 145.484 199.764 145.204 199.516C144.932 199.26 144.564 199.132 144.1 199.132C143.708 199.132 143.4 199.228 143.176 199.42C142.96 199.604 142.852 199.856 142.852 200.176C142.852 200.416 142.924 200.612 143.068 200.764C143.22 200.908 143.404 201.02 143.62 201.1C143.844 201.172 144.148 201.252 144.532 201.34C145.02 201.452 145.412 201.568 145.708 201.688C146.012 201.8 146.268 201.984 146.476 202.24C146.692 202.496 146.8 202.84 146.8 203.272C146.8 203.808 146.596 204.244 146.188 204.58C145.788 204.916 145.252 205.084 144.58 205.084C143.796 205.084 143.156 204.896 142.66 204.52C142.164 204.144 141.872 203.62 141.784 202.948H142.84C142.88 203.348 143.052 203.672 143.356 203.92C143.668 204.168 144.076 204.292 144.58 204.292C144.956 204.292 145.248 204.196 145.456 204.004C145.672 203.812 145.78 203.56 145.78 203.248C145.78 202.992 145.704 202.788 145.552 202.636C145.4 202.484 145.212 202.368 144.988 202.288C144.764 202.208 144.456 202.124 144.064 202.036C143.576 201.924 143.184 201.812 142.888 201.7C142.6 201.588 142.352 201.412 142.144 201.172C141.944 200.924 141.844 200.592 141.844 200.176C141.844 199.624 142.048 199.18 142.456 198.844C142.864 198.5 143.42 198.328 144.124 198.328ZM149.164 203.716V205H147.844V203.716H149.164Z" fill="#192A3E"/>
<path d="M33.995 141.18C33.995 141.7 33.87 142.185 33.62 142.635C33.37 143.075 32.99 143.43 32.48 143.7C31.97 143.97 31.345 144.105 30.605 144.105C29.885 144.105 29.24 143.98 28.67 143.73C28.1 143.47 27.645 143.11 27.305 142.65C26.965 142.19 26.77 141.66 26.72 141.06H28.55C28.6 141.52 28.795 141.915 29.135 142.245C29.485 142.575 29.95 142.74 30.53 142.74C31.05 142.74 31.45 142.6 31.73 142.32C32.02 142.04 32.165 141.68 32.165 141.24C32.165 140.86 32.06 140.55 31.85 140.31C31.64 140.06 31.38 139.865 31.07 139.725C30.76 139.585 30.335 139.425 29.795 139.245C29.135 139.035 28.595 138.825 28.175 138.615C27.765 138.405 27.415 138.1 27.125 137.7C26.835 137.3 26.69 136.775 26.69 136.125C26.69 135.555 26.83 135.055 27.11 134.625C27.39 134.195 27.79 133.865 28.31 133.635C28.83 133.395 29.43 133.275 30.11 133.275C31.19 133.275 32.045 133.535 32.675 134.055C33.315 134.575 33.68 135.255 33.77 136.095H31.925C31.855 135.695 31.665 135.355 31.355 135.075C31.055 134.785 30.64 134.64 30.11 134.64C29.63 134.64 29.245 134.765 28.955 135.015C28.665 135.255 28.52 135.605 28.52 136.065C28.52 136.425 28.62 136.725 28.82 136.965C29.02 137.195 29.27 137.38 29.57 137.52C29.88 137.65 30.3 137.805 30.83 137.985C31.5 138.195 32.045 138.41 32.465 138.63C32.895 138.84 33.255 139.15 33.545 139.56C33.845 139.97 33.995 140.51 33.995 141.18ZM39.1219 135.63C39.8719 135.63 40.5119 135.815 41.0419 136.185C41.5719 136.555 41.9469 137.045 42.1669 137.655V135.735H43.8769V144H42.1669V142.08C41.9469 142.69 41.5719 143.18 41.0419 143.55C40.5119 143.92 39.8719 144.105 39.1219 144.105C38.4019 144.105 37.7569 143.935 37.1869 143.595C36.6269 143.255 36.1869 142.765 35.8669 142.125C35.5469 141.485 35.3869 140.73 35.3869 139.86C35.3869 139 35.5469 138.25 35.8669 137.61C36.1869 136.97 36.6269 136.48 37.1869 136.14C37.7569 135.8 38.4019 135.63 39.1219 135.63ZM39.6469 137.13C38.8869 137.13 38.2769 137.375 37.8169 137.865C37.3669 138.345 37.1419 139.01 37.1419 139.86C37.1419 140.71 37.3669 141.38 37.8169 141.87C38.2769 142.35 38.8869 142.59 39.6469 142.59C40.1269 142.59 40.5569 142.48 40.9369 142.26C41.3169 142.03 41.6169 141.71 41.8369 141.3C42.0569 140.89 42.1669 140.41 42.1669 139.86C42.1669 139.32 42.0569 138.845 41.8369 138.435C41.6169 138.015 41.3169 137.695 40.9369 137.475C40.5569 137.245 40.1269 137.13 39.6469 137.13ZM47.7389 132.9V144H46.0289V132.9H47.7389ZM57.5882 139.47C57.5882 139.75 57.5682 139.995 57.5282 140.205H51.1682C51.1982 141.055 51.4332 141.685 51.8732 142.095C52.3132 142.505 52.8582 142.71 53.5082 142.71C54.0782 142.71 54.5582 142.565 54.9482 142.275C55.3482 141.985 55.5932 141.6 55.6832 141.12H57.5132C57.4032 141.7 57.1732 142.215 56.8232 142.665C56.4732 143.115 56.0182 143.47 55.4582 143.73C54.8982 143.98 54.2732 144.105 53.5832 144.105C52.7832 144.105 52.0732 143.935 51.4532 143.595C50.8432 143.255 50.3632 142.765 50.0132 142.125C49.6632 141.485 49.4882 140.73 49.4882 139.86C49.4882 139 49.6632 138.25 50.0132 137.61C50.3632 136.97 50.8432 136.48 51.4532 136.14C52.0732 135.8 52.7832 135.63 53.5832 135.63C54.3932 135.63 55.0982 135.8 55.6982 136.14C56.3082 136.47 56.7732 136.93 57.0932 137.52C57.4232 138.1 57.5882 138.75 57.5882 139.47ZM55.8632 139.425C55.8832 138.885 55.7882 138.435 55.5782 138.075C55.3782 137.705 55.0982 137.435 54.7382 137.265C54.3882 137.085 54.0032 136.995 53.5832 136.995C52.9132 136.995 52.3532 137.2 51.9032 137.61C51.4532 138.02 51.2082 138.625 51.1682 139.425H55.8632ZM62.0543 135.63C63.0243 135.63 63.7993 135.88 64.3793 136.38C64.9693 136.87 65.3293 137.53 65.4593 138.36H63.8393C63.7693 137.91 63.5743 137.55 63.2543 137.28C62.9443 137 62.5293 136.86 62.0093 136.86C61.5793 136.86 61.2443 136.965 61.0043 137.175C60.7743 137.375 60.6593 137.65 60.6593 138C60.6593 138.26 60.7443 138.47 60.9143 138.63C61.0843 138.79 61.2943 138.915 61.5443 139.005C61.8043 139.095 62.1693 139.195 62.6393 139.305C63.2593 139.445 63.7593 139.59 64.1393 139.74C64.5293 139.89 64.8593 140.13 65.1293 140.46C65.4093 140.78 65.5493 141.22 65.5493 141.78C65.5493 142.47 65.2843 143.03 64.7543 143.46C64.2343 143.89 63.5293 144.105 62.6393 144.105C61.6093 144.105 60.7743 143.865 60.1343 143.385C59.5043 142.905 59.1243 142.235 58.9943 141.375H60.6593C60.7093 141.825 60.9093 142.19 61.2593 142.47C61.6093 142.75 62.0693 142.89 62.6393 142.89C63.0493 142.89 63.3693 142.785 63.5993 142.575C63.8393 142.355 63.9593 142.08 63.9593 141.75C63.9593 141.46 63.8693 141.23 63.6893 141.06C63.5093 140.89 63.2843 140.76 63.0143 140.67C62.7443 140.57 62.3743 140.47 61.9043 140.37C61.3043 140.23 60.8143 140.09 60.4343 139.95C60.0643 139.81 59.7443 139.585 59.4743 139.275C59.2143 138.955 59.0843 138.525 59.0843 137.985C59.0843 137.285 59.3443 136.72 59.8643 136.29C60.3943 135.85 61.1243 135.63 62.0543 135.63ZM71.2191 134.025C70.5491 133.995 70.0791 134.105 69.8091 134.355C69.5391 134.595 69.4041 135.01 69.4041 135.6V135.735H71.2191V137.205H69.4041V144H67.6791V137.205H66.5541V135.735H67.6791V135.465C67.6791 134.455 67.9741 133.7 68.5641 133.2C69.1541 132.69 70.0391 132.465 71.2191 132.525V134.025ZM76.4736 135.63C77.2736 135.63 77.9936 135.8 78.6336 136.14C79.2736 136.48 79.7736 136.97 80.1336 137.61C80.4936 138.25 80.6736 139 80.6736 139.86C80.6736 140.73 80.4936 141.485 80.1336 142.125C79.7736 142.765 79.2736 143.255 78.6336 143.595C77.9936 143.935 77.2736 144.105 76.4736 144.105C75.6736 144.105 74.9536 143.935 74.3136 143.595C73.6836 143.255 73.1836 142.765 72.8136 142.125C72.4536 141.475 72.2736 140.72 72.2736 139.86C72.2736 139 72.4536 138.25 72.8136 137.61C73.1836 136.97 73.6836 136.48 74.3136 136.14C74.9536 135.8 75.6736 135.63 76.4736 135.63ZM76.4736 137.115C76.0336 137.115 75.6286 137.215 75.2586 137.415C74.8886 137.615 74.5886 137.925 74.3586 138.345C74.1386 138.755 74.0286 139.26 74.0286 139.86C74.0286 140.47 74.1386 140.98 74.3586 141.39C74.5886 141.8 74.8886 142.105 75.2586 142.305C75.6286 142.505 76.0336 142.605 76.4736 142.605C76.9136 142.605 77.3186 142.505 77.6886 142.305C78.0586 142.105 78.3536 141.8 78.5736 141.39C78.8036 140.98 78.9186 140.47 78.9186 139.86C78.9186 139.26 78.8036 138.755 78.5736 138.345C78.3536 137.925 78.0586 137.615 77.6886 137.415C77.3186 137.215 76.9136 137.115 76.4736 137.115ZM84.1276 137.355C84.4076 136.815 84.8076 136.39 85.3276 136.08C85.8476 135.76 86.4476 135.6 87.1276 135.6V137.46H86.6176C85.8676 137.46 85.2626 137.645 84.8026 138.015C84.3526 138.375 84.1276 138.975 84.1276 139.815V144H82.4176V135.735H84.1276V137.355ZM92.1838 135.63C93.2538 135.63 94.1388 135.915 94.8388 136.485C95.5388 137.045 95.9738 137.81 96.1438 138.78H94.3288C94.2288 138.26 93.9838 137.855 93.5938 137.565C93.2138 137.265 92.7338 137.115 92.1538 137.115C91.4938 137.115 90.9438 137.35 90.5038 137.82C90.0638 138.28 89.8438 138.96 89.8438 139.86C89.8438 140.76 90.0638 141.445 90.5038 141.915C90.9438 142.385 91.4938 142.62 92.1538 142.62C92.7338 142.62 93.2138 142.47 93.5938 142.17C93.9838 141.87 94.2288 141.46 94.3288 140.94H96.1438C95.9738 141.91 95.5388 142.68 94.8388 143.25C94.1388 143.82 93.2538 144.105 92.1838 144.105C91.3838 144.105 90.6738 143.935 90.0538 143.595C89.4438 143.255 88.9638 142.765 88.6138 142.125C88.2638 141.485 88.0888 140.73 88.0888 139.86C88.0888 139 88.2638 138.25 88.6138 137.61C88.9638 136.97 89.4438 136.48 90.0538 136.14C90.6738 135.8 91.3838 135.63 92.1838 135.63ZM105.576 139.47C105.576 139.75 105.556 139.995 105.516 140.205H99.1559C99.1859 141.055 99.4209 141.685 99.8609 142.095C100.301 142.505 100.846 142.71 101.496 142.71C102.066 142.71 102.546 142.565 102.936 142.275C103.336 141.985 103.581 141.6 103.671 141.12H105.501C105.391 141.7 105.161 142.215 104.811 142.665C104.461 143.115 104.006 143.47 103.446 143.73C102.886 143.98 102.261 144.105 101.571 144.105C100.771 144.105 100.061 143.935 99.4409 143.595C98.8309 143.255 98.3509 142.765 98.0009 142.125C97.6509 141.485 97.4759 140.73 97.4759 139.86C97.4759 139 97.6509 138.25 98.0009 137.61C98.3509 136.97 98.8309 136.48 99.4409 136.14C100.061 135.8 100.771 135.63 101.571 135.63C102.381 135.63 103.086 135.8 103.686 136.14C104.296 136.47 104.761 136.93 105.081 137.52C105.411 138.1 105.576 138.75 105.576 139.47ZM103.851 139.425C103.871 138.885 103.776 138.435 103.566 138.075C103.366 137.705 103.086 137.435 102.726 137.265C102.376 137.085 101.991 136.995 101.571 136.995C100.901 136.995 100.341 137.2 99.8909 137.61C99.4409 138.02 99.1959 138.625 99.1559 139.425H103.851Z" fill="#192A3E"/>
<path d="M30.979 240.731C32.123 240.731 33.072 241.026 33.826 241.615C34.58 242.204 35.0783 243.006 35.321 244.02H33.397C33.1977 243.526 32.8857 243.136 32.461 242.85C32.045 242.564 31.5423 242.421 30.953 242.421C30.4677 242.421 30.03 242.542 29.64 242.785C29.25 243.028 28.9467 243.374 28.73 243.825C28.5133 244.276 28.405 244.804 28.405 245.411C28.405 246.009 28.5133 246.533 28.73 246.984C28.9467 247.435 29.25 247.781 29.64 248.024C30.03 248.267 30.4677 248.388 30.953 248.388C31.5423 248.388 32.045 248.245 32.461 247.959C32.8857 247.673 33.1977 247.283 33.397 246.789H35.321C35.0783 247.803 34.58 248.605 33.826 249.194C33.072 249.783 32.123 250.078 30.979 250.078C30.1037 250.078 29.328 249.883 28.652 249.493C27.9847 249.094 27.4647 248.54 27.092 247.829C26.728 247.118 26.546 246.312 26.546 245.411C26.546 244.501 26.728 243.691 27.092 242.98C27.4647 242.269 27.9847 241.719 28.652 241.329C29.3193 240.93 30.095 240.731 30.979 240.731ZM40.1243 242.707C40.8263 242.707 41.4546 242.854 42.0093 243.149C42.5726 243.444 43.0146 243.873 43.3353 244.436C43.6559 244.991 43.8163 245.645 43.8163 246.399C43.8163 247.153 43.6559 247.807 43.3353 248.362C43.0146 248.917 42.5726 249.346 42.0093 249.649C41.4546 249.944 40.8263 250.091 40.1243 250.091C39.4223 250.091 38.7896 249.944 38.2263 249.649C37.6716 249.346 37.2339 248.917 36.9133 248.362C36.5926 247.807 36.4323 247.153 36.4323 246.399C36.4323 245.645 36.5926 244.991 36.9133 244.436C37.2339 243.873 37.6716 243.444 38.2263 243.149C38.7896 242.854 39.4223 242.707 40.1243 242.707ZM40.1243 244.293C39.6129 244.293 39.1796 244.475 38.8243 244.839C38.4689 245.194 38.2913 245.714 38.2913 246.399C38.2913 247.084 38.4689 247.608 38.8243 247.972C39.1796 248.327 39.6129 248.505 40.1243 248.505C40.6356 248.505 41.0689 248.327 41.4243 247.972C41.7796 247.608 41.9573 247.084 41.9573 246.399C41.9573 245.714 41.7796 245.194 41.4243 244.839C41.0689 244.475 40.6356 244.293 40.1243 244.293ZM49.5017 242.694C50.3337 242.694 50.9967 242.967 51.4907 243.513C51.9847 244.059 52.2317 244.826 52.2317 245.814V250H50.4117V246.022C50.4117 245.45 50.2644 245.008 49.9697 244.696C49.675 244.375 49.272 244.215 48.7607 244.215C48.2407 244.215 47.8247 244.384 47.5127 244.722C47.2007 245.06 47.0447 245.545 47.0447 246.178V250H45.2117V242.798H47.0447V244.241C47.2354 243.756 47.5474 243.379 47.9807 243.11C48.4227 242.833 48.9297 242.694 49.5017 242.694ZM58.2345 242.694C59.0665 242.694 59.7295 242.967 60.2235 243.513C60.7175 244.059 60.9645 244.826 60.9645 245.814V250H59.1445V246.022C59.1445 245.45 58.9972 245.008 58.7025 244.696C58.4078 244.375 58.0048 244.215 57.4935 244.215C56.9735 244.215 56.5575 244.384 56.2455 244.722C55.9335 245.06 55.7775 245.545 55.7775 246.178V250H53.9445V242.798H55.7775V244.241C55.9682 243.756 56.2802 243.379 56.7135 243.11C57.1555 242.833 57.6625 242.694 58.2345 242.694ZM69.4503 246.126C69.4503 246.308 69.4286 246.516 69.3853 246.75H64.1073C64.1333 247.391 64.3066 247.864 64.6273 248.167C64.948 248.47 65.3466 248.622 65.8233 248.622C66.248 248.622 66.599 248.518 66.8763 248.31C67.1623 248.102 67.3443 247.82 67.4223 247.465H69.3593C69.264 247.968 69.0603 248.418 68.7483 248.817C68.4363 249.216 68.0333 249.528 67.5393 249.753C67.054 249.978 66.5123 250.091 65.9143 250.091C65.2123 250.091 64.5883 249.944 64.0423 249.649C63.4963 249.346 63.0716 248.917 62.7683 248.362C62.465 247.807 62.3133 247.153 62.3133 246.399C62.3133 245.645 62.465 244.991 62.7683 244.436C63.0716 243.873 63.4963 243.444 64.0423 243.149C64.5883 242.854 65.2123 242.707 65.9143 242.707C66.625 242.707 67.2446 242.854 67.7733 243.149C68.3106 243.444 68.7223 243.851 69.0083 244.371C69.303 244.882 69.4503 245.467 69.4503 246.126ZM67.6043 245.944C67.6303 245.355 67.4743 244.908 67.1363 244.605C66.807 244.302 66.3996 244.15 65.9143 244.15C65.4203 244.15 65.0043 244.302 64.6663 244.605C64.3283 244.908 64.142 245.355 64.1073 245.944H67.6043ZM74.0885 242.707C75.0159 242.707 75.7872 242.958 76.4025 243.461C77.0265 243.964 77.4165 244.648 77.5725 245.515H75.6355C75.5575 245.134 75.3799 244.835 75.1025 244.618C74.8252 244.393 74.4742 244.28 74.0495 244.28C73.5642 244.28 73.1569 244.462 72.8275 244.826C72.5069 245.181 72.3465 245.706 72.3465 246.399C72.3465 247.092 72.5069 247.621 72.8275 247.985C73.1569 248.34 73.5642 248.518 74.0495 248.518C74.4742 248.518 74.8252 248.41 75.1025 248.193C75.3799 247.968 75.5575 247.664 75.6355 247.283H77.5725C77.4165 248.15 77.0265 248.834 76.4025 249.337C75.7872 249.84 75.0159 250.091 74.0885 250.091C73.3865 250.091 72.7625 249.944 72.2165 249.649C71.6705 249.346 71.2459 248.917 70.9425 248.362C70.6392 247.807 70.4875 247.153 70.4875 246.399C70.4875 245.645 70.6392 244.991 70.9425 244.436C71.2459 243.873 71.6705 243.444 72.2165 243.149C72.7625 242.854 73.3865 242.707 74.0885 242.707ZM82.823 248.427V250H81.861C81.055 250 80.4353 249.805 80.002 249.415C79.5773 249.025 79.365 248.375 79.365 247.465V244.345H78.364V242.798H79.365V241.017H81.198V242.798H82.81V244.345H81.198V247.491C81.198 247.838 81.2673 248.08 81.406 248.219C81.5446 248.358 81.7786 248.427 82.108 248.427H82.823Z" fill="#109CF1"/>
<path d="M123.622 36.6738C126.844 33.3179 131.33 31.2367 136.29 31.2367C142.885 31.2367 148.638 34.9126 151.702 40.3696C154.365 39.1804 157.312 38.5189 160.413 38.5189C172.307 38.5189 181.95 48.2422 181.95 60.236C181.95 72.2312 172.307 81.9546 160.413 81.9546C158.961 81.9546 157.543 81.8095 156.171 81.5321C153.473 86.3433 148.331 89.5939 142.429 89.5939C139.959 89.5939 137.622 89.0234 135.542 88.0091C132.807 94.4406 126.434 98.9502 119.007 98.9502C111.273 98.9502 104.681 94.0579 102.151 87.1968C101.045 87.4315 99.8994 87.5539 98.724 87.5539C89.5153 87.5539 82.0498 80.0142 82.0498 70.7119C82.0498 64.4782 85.404 59.0354 90.3876 56.1233C89.3616 53.7633 88.7909 51.1585 88.7909 48.42C88.7909 37.7222 97.4788 29.0502 108.195 29.0502C114.486 29.0502 120.077 32.0404 123.622 36.6738Z" fill="#00A1E0"/>
<path d="M96.5196 65.298C96.457 65.4617 96.5424 65.4958 96.5623 65.5243C96.7502 65.6609 96.9409 65.7591 97.133 65.8687C98.1519 66.4094 99.1139 66.5674 100.12 66.5674C102.169 66.5674 103.441 65.4773 103.441 63.7226V63.6885C103.441 62.0662 102.006 61.477 100.658 61.0515L100.483 60.9946C99.4668 60.6645 98.5902 60.3798 98.5902 59.711V59.6754C98.5902 59.1033 99.1025 58.6821 99.8966 58.6821C100.779 58.6821 101.826 58.9753 102.501 59.3481C102.501 59.3481 102.699 59.4762 102.771 59.2841C102.811 59.1816 103.153 58.2623 103.188 58.1627C103.227 58.0545 103.158 57.9748 103.089 57.9321C102.319 57.4639 101.254 57.1438 100.153 57.1438L99.9478 57.1452C98.0722 57.1452 96.763 58.278 96.763 59.9017V59.9358C96.763 61.6478 98.2074 62.2028 99.5608 62.5899L99.7785 62.6568C100.765 62.9599 101.614 63.2203 101.614 63.9148V63.9489C101.614 64.5836 101.062 65.0561 100.171 65.0561C99.8255 65.0561 98.7226 65.049 97.5315 64.2961C97.3877 64.2122 97.3038 64.151 97.1928 64.0841C97.1344 64.0471 96.9878 63.9831 96.9238 64.1766L96.5196 65.298Z" fill="white"/>
<path d="M126.519 65.298C126.457 65.4617 126.542 65.4958 126.562 65.5243C126.75 65.6609 126.94 65.7591 127.133 65.8687C128.151 66.4094 129.113 66.5674 130.12 66.5674C132.169 66.5674 133.441 65.4773 133.441 63.7226V63.6885C133.441 62.0662 132.005 61.477 130.657 61.0515L130.482 60.9946C129.466 60.6645 128.59 60.3798 128.59 59.711V59.6754C128.59 59.1033 129.102 58.6821 129.896 58.6821C130.778 58.6821 131.826 58.9753 132.5 59.3481C132.5 59.3481 132.698 59.4762 132.771 59.2841C132.811 59.1816 133.152 58.2623 133.188 58.1627C133.226 58.0545 133.158 57.9748 133.088 57.9321C132.318 57.4639 131.254 57.1438 130.152 57.1438L129.947 57.1452C128.072 57.1452 126.763 58.278 126.763 59.9017V59.9358C126.763 61.6478 128.207 62.2028 129.56 62.5899L129.778 62.6568C130.764 62.9599 131.615 63.2203 131.615 63.9148V63.9489C131.615 64.5836 131.062 65.0561 130.171 65.0561C129.825 65.0561 128.722 65.049 127.531 64.2961C127.387 64.2122 127.302 64.1538 127.194 64.0841C127.157 64.0599 126.983 63.993 126.923 64.1766L126.519 65.298Z" fill="white"/>
<path d="M146.999 61.8608C146.999 62.8527 146.814 63.634 146.45 64.1861C146.09 64.7326 145.545 64.9987 144.785 64.9987C144.024 64.9987 143.482 64.734 143.127 64.1861C142.769 63.6354 142.586 62.8527 142.586 61.8608C142.586 60.8704 142.769 60.0905 143.127 59.544C143.482 59.0033 144.024 58.74 144.785 58.74C145.545 58.74 146.09 59.0033 146.452 59.544C146.814 60.0905 146.999 60.8704 146.999 61.8608ZM148.71 60.0222C148.542 59.4544 148.28 58.9535 147.932 58.5365C147.583 58.1181 147.142 57.7823 146.618 57.5375C146.096 57.2942 145.478 57.1704 144.785 57.1704C144.091 57.1704 143.473 57.2942 142.951 57.5375C142.427 57.7823 141.986 58.1181 141.636 58.5365C141.289 58.9549 141.027 59.4558 140.857 60.0222C140.691 60.5872 140.607 61.2048 140.607 61.8608C140.607 62.5168 140.691 63.1359 140.857 63.6994C141.027 64.2658 141.287 64.7667 141.637 65.1851C141.986 65.6035 142.428 65.9379 142.951 66.1756C143.474 66.4132 144.091 66.5342 144.785 66.5342C145.478 66.5342 146.094 66.4132 146.618 66.1756C147.14 65.9379 147.583 65.6035 147.932 65.1851C148.28 64.7681 148.542 64.2672 148.71 63.6994C148.878 63.1345 148.962 62.5154 148.962 61.8608C148.962 61.2062 148.878 60.5872 148.71 60.0222Z" fill="white"/>
<path fill-rule="evenodd" clip-rule="evenodd" d="M162.757 64.7334C162.7 64.5669 162.539 64.6295 162.539 64.6295C162.29 64.7248 162.025 64.8131 161.744 64.8572C161.458 64.9013 161.143 64.9241 160.806 64.9241C159.978 64.9241 159.32 64.6779 158.849 64.1912C158.377 63.7045 158.112 62.9175 158.115 61.8531C158.118 60.8839 158.351 60.1553 158.771 59.6003C159.188 59.0482 159.822 58.765 160.669 58.765C161.375 58.765 161.913 58.8461 162.476 59.024C162.476 59.024 162.612 59.0823 162.676 58.9059C162.825 58.4903 162.936 58.1929 163.096 57.7361C163.141 57.6066 163.03 57.5511 162.99 57.5354C162.768 57.4486 162.245 57.3078 161.849 57.248C161.479 57.1911 161.046 57.1612 160.565 57.1612C159.847 57.1612 159.206 57.2836 158.658 57.5283C158.112 57.7717 157.648 58.1075 157.281 58.5259C156.914 58.9443 156.635 59.4452 156.448 60.0116C156.263 60.5766 156.169 61.197 156.169 61.8531C156.169 63.2719 156.552 64.4189 157.308 65.2585C158.065 66.101 159.202 66.5293 160.685 66.5293C161.561 66.5293 162.461 66.3514 163.107 66.0967C163.107 66.0967 163.231 66.0369 163.177 65.8932L162.757 64.7334Z" fill="white"/>
<path fill-rule="evenodd" clip-rule="evenodd" d="M165.75 60.9107C165.831 60.36 165.983 59.9017 166.218 59.5445C166.572 59.0023 167.113 58.7049 167.873 58.7049C168.633 58.7049 169.135 59.0038 169.495 59.5445C169.734 59.9017 169.838 60.3799 169.879 60.9107H165.75ZM171.509 59.6996C171.364 59.1518 171.004 58.5982 170.767 58.3449C170.395 57.9436 170.03 57.6632 169.669 57.5067C169.196 57.3046 168.63 57.1708 168.01 57.1708C167.287 57.1708 166.631 57.2918 166.098 57.5423C165.565 57.7927 165.116 58.1343 164.765 58.5598C164.413 58.9838 164.149 59.489 163.981 60.0625C163.811 60.6332 163.726 61.2551 163.726 61.9111C163.726 62.5785 163.814 63.2004 163.989 63.7597C164.166 64.3232 164.448 64.8199 164.829 65.2312C165.209 65.6453 165.698 65.9697 166.285 66.196C166.867 66.4209 167.574 66.5375 168.387 66.5361C170.059 66.5304 170.94 66.1576 171.303 65.9569C171.367 65.9213 171.428 65.8587 171.351 65.6794L170.972 64.6192C170.915 64.4613 170.755 64.5196 170.755 64.5196C170.341 64.6733 169.751 64.9494 168.378 64.9465C167.48 64.9451 166.814 64.6804 166.397 64.2663C165.969 63.8422 165.76 63.2189 165.723 62.3395L171.513 62.3452C171.513 62.3452 171.665 62.3423 171.681 62.1943C171.687 62.1317 171.88 61.0046 171.509 59.6996Z" fill="white"/>
<path fill-rule="evenodd" clip-rule="evenodd" d="M119.376 60.9107C119.459 60.36 119.61 59.9017 119.844 59.5445C120.199 59.0023 120.739 58.7049 121.499 58.7049C122.259 58.7049 122.762 59.0038 123.123 59.5445C123.361 59.9017 123.465 60.3799 123.506 60.9107H119.376ZM125.134 59.6996C124.989 59.1518 124.63 58.5982 124.394 58.3449C124.021 57.9436 123.657 57.6632 123.295 57.5067C122.823 57.3046 122.256 57.1708 121.636 57.1708C120.914 57.1708 120.257 57.2918 119.725 57.5423C119.191 57.7927 118.743 58.1343 118.391 58.5598C118.04 58.9838 117.775 59.489 117.607 60.0625C117.439 60.6332 117.353 61.2551 117.353 61.9111C117.353 62.5785 117.441 63.2004 117.616 63.7597C117.792 64.3232 118.074 64.8199 118.455 65.2312C118.835 65.6453 119.325 65.9697 119.911 66.196C120.493 66.4209 121.201 66.5375 122.013 66.5361C123.685 66.5304 124.566 66.1576 124.929 65.9569C124.993 65.9213 125.054 65.8587 124.977 65.6794L124.6 64.6192C124.542 64.4613 124.381 64.5196 124.381 64.5196C123.967 64.6733 123.379 64.9494 122.003 64.9465C121.107 64.9451 120.441 64.6804 120.024 64.2663C119.595 63.8422 119.386 63.2189 119.349 62.3395L125.14 62.3452C125.14 62.3452 125.292 62.3423 125.308 62.1943C125.313 62.1317 125.507 61.0046 125.134 59.6996Z" fill="white"/>
<path d="M106.86 64.7022C106.633 64.5215 106.602 64.476 106.525 64.3593C106.411 64.1814 106.353 63.9281 106.353 63.6065C106.353 63.097 106.521 62.7313 106.87 62.4851C106.865 62.4865 107.368 62.0511 108.549 62.0667C109.379 62.0781 110.12 62.2005 110.12 62.2005V64.8332H110.121C110.121 64.8332 109.386 64.9911 108.557 65.0409C107.379 65.1121 106.855 64.7008 106.86 64.7022ZM109.164 60.6337C108.929 60.6166 108.624 60.6066 108.26 60.6066C107.763 60.6066 107.284 60.6692 106.834 60.7902C106.382 60.9112 105.975 61.1004 105.624 61.3509C105.273 61.6028 104.99 61.9244 104.785 62.3058C104.58 62.6872 104.476 63.1369 104.476 63.6406C104.476 64.1529 104.564 64.5984 104.741 64.9627C104.917 65.3284 105.172 65.6329 105.496 65.8677C105.818 66.1025 106.215 66.2747 106.676 66.3786C107.13 66.4825 107.645 66.5352 108.209 66.5352C108.802 66.5352 109.394 66.4868 109.968 66.3886C110.536 66.2918 111.233 66.1509 111.426 66.1068C111.618 66.0613 111.832 66.0029 111.832 66.0029C111.976 65.9673 111.964 65.8137 111.964 65.8137L111.961 60.5184C111.961 59.3572 111.651 58.4962 111.041 57.9626C110.433 57.4303 109.538 57.1614 108.381 57.1614C107.947 57.1614 107.248 57.2211 106.83 57.3051C106.83 57.3051 105.565 57.5499 105.044 57.9569C105.044 57.9569 104.93 58.028 104.993 58.1874L105.402 59.2889C105.454 59.4312 105.592 59.3828 105.592 59.3828C105.592 59.3828 105.636 59.3657 105.687 59.3358C106.801 58.7296 108.21 58.7481 108.21 58.7481C108.836 58.7481 109.317 58.8733 109.642 59.1224C109.958 59.3643 110.119 59.73 110.119 60.5013V60.7461C109.62 60.6749 109.164 60.6337 109.164 60.6337Z" fill="white"/>
<path fill-rule="evenodd" clip-rule="evenodd" d="M155.866 57.6503C155.911 57.5193 155.818 57.4567 155.78 57.4425C155.681 57.4041 155.189 57.3002 154.809 57.276C154.082 57.2319 153.678 57.3543 153.316 57.5165C152.958 57.6787 152.559 57.9406 152.337 58.238V57.5336C152.337 57.4354 152.268 57.3571 152.171 57.3571H150.687C150.59 57.3571 150.52 57.4354 150.52 57.5336V66.1702C150.52 66.267 150.6 66.3467 150.696 66.3467H152.218C152.315 66.3467 152.393 66.267 152.393 66.1702V61.8555C152.393 61.2763 152.457 60.6985 152.585 60.3356C152.71 59.977 152.881 59.6895 153.092 59.4832C153.304 59.2783 153.544 59.1345 153.807 59.0534C154.076 58.9709 154.374 58.9438 154.584 58.9438C154.887 58.9438 155.22 59.0221 155.22 59.0221C155.331 59.0349 155.394 58.9666 155.431 58.8656C155.531 58.6009 155.812 57.8082 155.866 57.6503Z" fill="white"/>
<path fill-rule="evenodd" clip-rule="evenodd" d="M141.587 53.6459C141.402 53.589 141.234 53.5505 141.015 53.5093C140.793 53.4694 140.528 53.4495 140.228 53.4495C139.181 53.4495 138.355 53.7455 137.776 54.329C137.2 54.9096 136.808 55.7933 136.612 56.956L136.541 57.3473H135.226C135.226 57.3473 135.066 57.3416 135.032 57.5152L134.817 58.7206C134.802 58.8344 134.852 58.907 135.005 58.907H136.285L134.987 66.1533C134.886 66.7368 134.769 67.2163 134.639 67.5807C134.513 67.9393 134.389 68.2082 134.235 68.4046C134.087 68.5925 133.948 68.7319 133.706 68.813C133.507 68.8799 133.276 68.9112 133.024 68.9112C132.885 68.9112 132.698 68.8885 132.56 68.86C132.424 68.833 132.351 68.8031 132.247 68.759C132.247 68.759 132.098 68.702 132.038 68.8515C131.991 68.9753 131.65 69.9131 131.608 70.0283C131.568 70.1436 131.625 70.2333 131.698 70.2603C131.869 70.3201 131.995 70.3599 132.227 70.4154C132.549 70.4908 132.821 70.4951 133.076 70.4951C133.608 70.4951 134.094 70.4197 134.497 70.2745C134.901 70.128 135.254 69.8732 135.567 69.5288C135.905 69.156 136.117 68.7661 136.319 68.2324C136.519 67.7059 136.692 67.0513 136.828 66.2885L138.133 58.907H140.04C140.04 58.907 140.201 58.9127 140.234 58.7377L140.45 57.5337C140.464 57.4185 140.416 57.3473 140.261 57.3473H138.409C138.419 57.306 138.503 56.6543 138.715 56.0409C138.806 55.7805 138.977 55.5685 139.121 55.4233C139.263 55.281 139.427 55.18 139.606 55.1216C139.79 55.0618 139.999 55.0334 140.228 55.0334C140.402 55.0334 140.574 55.0533 140.703 55.0804C140.883 55.1188 140.952 55.1387 140.999 55.1529C141.188 55.2098 141.214 55.1543 141.251 55.0633L141.694 53.848C141.739 53.717 141.627 53.6615 141.587 53.6459Z" fill="white"/>
<path fill-rule="evenodd" clip-rule="evenodd" d="M115.719 66.1707C115.719 66.2674 115.649 66.3457 115.553 66.3457H114.017C113.92 66.3457 113.852 66.2674 113.852 66.1707V53.8126C113.852 53.7159 113.92 53.6376 114.017 53.6376H115.553C115.649 53.6376 115.719 53.7159 115.719 53.8126V66.1707Z" fill="white"/>
<defs>
<filter id="filter0_d_118_665" x="0" y="0" width="263" height="284" filterUnits="userSpaceOnUse" color-interpolation-filters="sRGB">
<feFlood flood-opacity="0" result="BackgroundImageFix"/>
<feColorMatrix in="SourceAlpha" type="matrix" values="0 0 0 0 0 0 0 0 0 0 0 0 0 0 0 0 0 0 127 0" result="hardAlpha"/>
<feOffset dy="2"/>
<feGaussianBlur stdDeviation="5"/>
<feColorMatrix type="matrix" values="0 0 0 0 0 0 0 0 0 0 0 0 0 0 0 0 0 0 0.08 0"/>
<feBlend mode="normal" in2="BackgroundImageFix" result="effect1_dropShadow_118_665"/>
<feBlend mode="normal" in="SourceGraphic" in2="effect1_dropShadow_118_665" result="shape"/>
</filter>
</defs>
</svg>
