<svg width="275" height="296" viewBox="0 0 275 296" fill="none" xmlns="http://www.w3.org/2000/svg">
<g filter="url(#filter0_d_118_586)">
<rect x="16" y="16" width="243" height="264" rx="4" fill="white"/>
</g>
<path opacity="0.5" d="M38.228 174.804C38.228 175.204 38.132 175.576 37.94 175.92C37.748 176.264 37.456 176.544 37.064 176.76C36.672 176.976 36.188 177.084 35.612 177.084C35.052 177.084 34.552 176.984 34.112 176.784C33.68 176.576 33.332 176.296 33.068 175.944C32.812 175.584 32.664 175.176 32.624 174.72H33.788C33.812 174.96 33.892 175.196 34.028 175.428C34.172 175.652 34.372 175.84 34.628 175.992C34.892 176.136 35.208 176.208 35.576 176.208C36.056 176.208 36.424 176.08 36.68 175.824C36.936 175.568 37.064 175.24 37.064 174.84C37.064 174.496 36.972 174.216 36.788 174C36.612 173.784 36.392 173.616 36.128 173.496C35.864 173.368 35.504 173.232 35.048 173.088C34.512 172.912 34.08 172.748 33.752 172.596C33.432 172.436 33.156 172.2 32.924 171.888C32.7 171.576 32.588 171.164 32.588 170.652C32.588 170.212 32.692 169.824 32.9 169.488C33.116 169.152 33.42 168.892 33.812 168.708C34.212 168.524 34.68 168.432 35.216 168.432C36.048 168.432 36.708 168.636 37.196 169.044C37.684 169.444 37.968 169.956 38.048 170.58H36.872C36.808 170.244 36.636 169.948 36.356 169.692C36.076 169.436 35.696 169.308 35.216 169.308C34.776 169.308 34.424 169.424 34.16 169.656C33.896 169.88 33.764 170.2 33.764 170.616C33.764 170.944 33.848 171.212 34.016 171.42C34.192 171.62 34.408 171.78 34.664 171.9C34.92 172.012 35.272 172.14 35.72 172.284C36.264 172.46 36.7 172.628 37.028 172.788C37.364 172.948 37.648 173.192 37.88 173.52C38.112 173.84 38.228 174.268 38.228 174.804ZM40.8883 168.12V177H39.7963V168.12H40.8883ZM45.444 170.328C46.084 170.328 46.624 170.488 47.064 170.808C47.512 171.128 47.824 171.556 48 172.092V170.412H49.092V177H48V175.32C47.824 175.856 47.512 176.284 47.064 176.604C46.624 176.924 46.084 177.084 45.444 177.084C44.86 177.084 44.34 176.948 43.884 176.676C43.428 176.404 43.068 176.016 42.804 175.512C42.548 175 42.42 174.4 42.42 173.712C42.42 173.024 42.548 172.424 42.804 171.912C43.068 171.4 43.428 171.008 43.884 170.736C44.34 170.464 44.86 170.328 45.444 170.328ZM45.756 171.3C45.084 171.3 44.544 171.516 44.136 171.948C43.736 172.372 43.536 172.96 43.536 173.712C43.536 174.464 43.736 175.056 44.136 175.488C44.544 175.912 45.084 176.124 45.756 176.124C46.188 176.124 46.572 176.024 46.908 175.824C47.252 175.624 47.52 175.344 47.712 174.984C47.904 174.616 48 174.192 48 173.712C48 173.232 47.904 172.808 47.712 172.44C47.52 172.072 47.252 171.792 46.908 171.6C46.572 171.4 46.188 171.3 45.756 171.3ZM53.8459 170.328C54.6859 170.328 55.3819 170.552 55.9339 171C56.4859 171.448 56.8259 172.048 56.9539 172.8H55.8019C55.7219 172.328 55.5019 171.96 55.1419 171.696C54.7899 171.424 54.3499 171.288 53.8219 171.288C53.4379 171.288 53.0859 171.376 52.7659 171.552C52.4539 171.728 52.2019 172 52.0099 172.368C51.8179 172.728 51.7219 173.176 51.7219 173.712C51.7219 174.248 51.8179 174.7 52.0099 175.068C52.2019 175.428 52.4539 175.696 52.7659 175.872C53.0859 176.048 53.4379 176.136 53.8219 176.136C54.3499 176.136 54.7899 176 55.1419 175.728C55.5019 175.456 55.7219 175.084 55.8019 174.612H56.9539C56.8259 175.372 56.4859 175.976 55.9339 176.424C55.3819 176.864 54.6859 177.084 53.8459 177.084C53.2139 177.084 52.6539 176.948 52.1659 176.676C51.6779 176.404 51.2939 176.016 51.0139 175.512C50.7419 175 50.6059 174.4 50.6059 173.712C50.6059 173.024 50.7419 172.424 51.0139 171.912C51.2939 171.4 51.6779 171.008 52.1659 170.736C52.6539 170.464 53.2139 170.328 53.8459 170.328ZM62.095 177L59.575 174.036V177H58.483V168.12H59.575V173.28L62.059 170.412H63.391L60.439 173.688L63.463 177H62.095ZM67.3973 168.48C67.3973 168.28 67.4653 168.12 67.6013 168C67.7373 167.872 67.9173 167.808 68.1413 167.808C68.3653 167.808 68.5453 167.872 68.6813 168C68.8173 168.12 68.8853 168.28 68.8853 168.48C68.8853 168.68 68.8173 168.844 68.6813 168.972C68.5453 169.092 68.3653 169.152 68.1413 169.152C67.9173 169.152 67.7373 169.092 67.6013 168.972C67.4653 168.844 67.3973 168.68 67.3973 168.48ZM68.6813 170.412V177H67.5893V170.412H68.6813ZM72.6009 170.328C73.3449 170.328 73.9409 170.524 74.3889 170.916C74.8449 171.3 75.1209 171.82 75.2169 172.476H74.1729C74.1249 172.084 73.9609 171.764 73.6809 171.516C73.4089 171.26 73.0409 171.132 72.5769 171.132C72.1849 171.132 71.8769 171.228 71.6529 171.42C71.4369 171.604 71.3289 171.856 71.3289 172.176C71.3289 172.416 71.4009 172.612 71.5449 172.764C71.6969 172.908 71.8809 173.02 72.0969 173.1C72.3209 173.172 72.6249 173.252 73.0089 173.34C73.4969 173.452 73.8889 173.568 74.1849 173.688C74.4889 173.8 74.7449 173.984 74.9529 174.24C75.1689 174.496 75.2769 174.84 75.2769 175.272C75.2769 175.808 75.0729 176.244 74.6649 176.58C74.2649 176.916 73.7289 177.084 73.0569 177.084C72.2729 177.084 71.6329 176.896 71.1369 176.52C70.6409 176.144 70.3489 175.62 70.2609 174.948H71.3169C71.3569 175.348 71.5289 175.672 71.8329 175.92C72.1449 176.168 72.5529 176.292 73.0569 176.292C73.4329 176.292 73.7249 176.196 73.9329 176.004C74.1489 175.812 74.2569 175.56 74.2569 175.248C74.2569 174.992 74.1809 174.788 74.0289 174.636C73.8769 174.484 73.6889 174.368 73.4649 174.288C73.2409 174.208 72.9329 174.124 72.5409 174.036C72.0529 173.924 71.6609 173.812 71.3649 173.7C71.0769 173.588 70.8289 173.412 70.6209 173.172C70.4209 172.924 70.3209 172.592 70.3209 172.176C70.3209 171.624 70.5249 171.18 70.9329 170.844C71.3409 170.5 71.8969 170.328 72.6009 170.328ZM82.601 170.328C83.241 170.328 83.781 170.488 84.221 170.808C84.669 171.128 84.981 171.556 85.157 172.092V170.412H86.249V177H85.157V175.32C84.981 175.856 84.669 176.284 84.221 176.604C83.781 176.924 83.241 177.084 82.601 177.084C82.017 177.084 81.497 176.948 81.041 176.676C80.585 176.404 80.225 176.016 79.961 175.512C79.705 175 79.577 174.4 79.577 173.712C79.577 173.024 79.705 172.424 79.961 171.912C80.225 171.4 80.585 171.008 81.041 170.736C81.497 170.464 82.017 170.328 82.601 170.328ZM82.913 171.3C82.241 171.3 81.701 171.516 81.293 171.948C80.893 172.372 80.693 172.96 80.693 173.712C80.693 174.464 80.893 175.056 81.293 175.488C81.701 175.912 82.241 176.124 82.913 176.124C83.345 176.124 83.729 176.024 84.065 175.824C84.409 175.624 84.677 175.344 84.869 174.984C85.061 174.616 85.157 174.192 85.157 173.712C85.157 173.232 85.061 172.808 84.869 172.44C84.677 172.072 84.409 171.792 84.065 171.6C83.729 171.4 83.345 171.3 82.913 171.3ZM93.8518 170.328C94.4918 170.328 95.0318 170.488 95.4718 170.808C95.9198 171.128 96.2318 171.556 96.4078 172.092V168.12H97.4998V177H96.4078V175.32C96.2318 175.856 95.9198 176.284 95.4718 176.604C95.0318 176.924 94.4918 177.084 93.8518 177.084C93.2678 177.084 92.7478 176.948 92.2918 176.676C91.8358 176.404 91.4758 176.016 91.2118 175.512C90.9558 175 90.8278 174.4 90.8278 173.712C90.8278 173.024 90.9558 172.424 91.2118 171.912C91.4758 171.4 91.8358 171.008 92.2918 170.736C92.7478 170.464 93.2678 170.328 93.8518 170.328ZM94.1638 171.3C93.4918 171.3 92.9518 171.516 92.5438 171.948C92.1438 172.372 91.9438 172.96 91.9438 173.712C91.9438 174.464 92.1438 175.056 92.5438 175.488C92.9518 175.912 93.4918 176.124 94.1638 176.124C94.5958 176.124 94.9798 176.024 95.3158 175.824C95.6598 175.624 95.9278 175.344 96.1198 174.984C96.3118 174.616 96.4078 174.192 96.4078 173.712C96.4078 173.232 96.3118 172.808 96.1198 172.44C95.9278 172.072 95.6598 171.792 95.3158 171.6C94.9798 171.4 94.5958 171.3 94.1638 171.3ZM99.1457 168.48C99.1457 168.28 99.2137 168.12 99.3497 168C99.4857 167.872 99.6657 167.808 99.8897 167.808C100.114 167.808 100.294 167.872 100.43 168C100.566 168.12 100.634 168.28 100.634 168.48C100.634 168.68 100.566 168.844 100.43 168.972C100.294 169.092 100.114 169.152 99.8897 169.152C99.6657 169.152 99.4857 169.092 99.3497 168.972C99.2137 168.844 99.1457 168.68 99.1457 168.48ZM100.43 170.412V177H99.3377V170.412H100.43ZM104.985 170.328C105.625 170.328 106.165 170.488 106.605 170.808C107.053 171.128 107.365 171.556 107.541 172.092V170.412H108.633V177.108C108.633 177.716 108.505 178.256 108.249 178.728C107.993 179.2 107.633 179.568 107.169 179.832C106.705 180.096 106.165 180.228 105.549 180.228C104.661 180.228 103.937 180.012 103.377 179.58C102.817 179.156 102.461 178.58 102.309 177.852H103.389C103.517 178.292 103.757 178.636 104.109 178.884C104.469 179.14 104.929 179.268 105.489 179.268C106.081 179.268 106.569 179.076 106.953 178.692C107.345 178.316 107.541 177.788 107.541 177.108V175.32C107.365 175.856 107.053 176.284 106.605 176.604C106.165 176.924 105.625 177.084 104.985 177.084C104.401 177.084 103.881 176.948 103.425 176.676C102.969 176.404 102.609 176.016 102.345 175.512C102.089 175 101.961 174.4 101.961 173.712C101.961 173.024 102.089 172.424 102.345 171.912C102.609 171.4 102.969 171.008 103.425 170.736C103.881 170.464 104.401 170.328 104.985 170.328ZM105.297 171.3C104.625 171.3 104.085 171.516 103.677 171.948C103.277 172.372 103.077 172.96 103.077 173.712C103.077 174.464 103.277 175.056 103.677 175.488C104.085 175.912 104.625 176.124 105.297 176.124C105.729 176.124 106.113 176.024 106.449 175.824C106.793 175.624 107.061 175.344 107.253 174.984C107.445 174.616 107.541 174.192 107.541 173.712C107.541 173.232 107.445 172.808 107.253 172.44C107.061 172.072 106.793 171.792 106.449 171.6C106.113 171.4 105.729 171.3 105.297 171.3ZM110.279 168.48C110.279 168.28 110.347 168.12 110.483 168C110.619 167.872 110.799 167.808 111.023 167.808C111.247 167.808 111.427 167.872 111.563 168C111.699 168.12 111.767 168.28 111.767 168.48C111.767 168.68 111.699 168.844 111.563 168.972C111.427 169.092 111.247 169.152 111.023 169.152C110.799 169.152 110.619 169.092 110.483 168.972C110.347 168.844 110.279 168.68 110.279 168.48ZM111.563 170.412V177H110.471V170.412H111.563ZM116.563 176.04V177H115.747C115.075 177 114.571 176.84 114.235 176.52C113.907 176.2 113.743 175.664 113.743 174.912V171.36H112.759V170.412H113.743V168.768H114.847V170.412H116.551V171.36H114.847V174.936C114.847 175.36 114.923 175.652 115.075 175.812C115.235 175.964 115.507 176.04 115.891 176.04H116.563ZM120.696 170.328C121.336 170.328 121.876 170.488 122.316 170.808C122.764 171.128 123.076 171.556 123.252 172.092V170.412H124.344V177H123.252V175.32C123.076 175.856 122.764 176.284 122.316 176.604C121.876 176.924 121.336 177.084 120.696 177.084C120.112 177.084 119.592 176.948 119.136 176.676C118.68 176.404 118.32 176.016 118.056 175.512C117.8 175 117.672 174.4 117.672 173.712C117.672 173.024 117.8 172.424 118.056 171.912C118.32 171.4 118.68 171.008 119.136 170.736C119.592 170.464 120.112 170.328 120.696 170.328ZM121.008 171.3C120.336 171.3 119.796 171.516 119.388 171.948C118.988 172.372 118.788 172.96 118.788 173.712C118.788 174.464 118.988 175.056 119.388 175.488C119.796 175.912 120.336 176.124 121.008 176.124C121.44 176.124 121.824 176.024 122.16 175.824C122.504 175.624 122.772 175.344 122.964 174.984C123.156 174.616 123.252 174.192 123.252 173.712C123.252 173.232 123.156 172.808 122.964 172.44C122.772 172.072 122.504 171.792 122.16 171.6C121.824 171.4 121.44 171.3 121.008 171.3ZM127.273 168.12V177H126.181V168.12H127.273ZM141.242 170.412L139.346 177H138.17L136.358 171.636L134.534 177H133.346L131.474 170.412H132.578L133.982 175.956L135.806 170.412H136.946L138.782 175.944L140.198 170.412H141.242ZM145.348 170.328C145.98 170.328 146.544 170.464 147.04 170.736C147.544 171.008 147.936 171.4 148.216 171.912C148.504 172.424 148.648 173.024 148.648 173.712C148.648 174.4 148.504 175 148.216 175.512C147.936 176.016 147.544 176.404 147.04 176.676C146.544 176.948 145.98 177.084 145.348 177.084C144.716 177.084 144.148 176.948 143.644 176.676C143.148 176.404 142.756 176.016 142.468 175.512C142.18 175 142.036 174.4 142.036 173.712C142.036 173.024 142.18 172.424 142.468 171.912C142.756 171.4 143.148 171.008 143.644 170.736C144.148 170.464 144.716 170.328 145.348 170.328ZM145.348 171.288C144.956 171.288 144.592 171.376 144.256 171.552C143.928 171.728 143.66 172 143.452 172.368C143.252 172.728 143.152 173.176 143.152 173.712C143.152 174.24 143.252 174.688 143.452 175.056C143.66 175.416 143.928 175.684 144.256 175.86C144.592 176.036 144.956 176.124 145.348 176.124C145.74 176.124 146.1 176.036 146.428 175.86C146.764 175.684 147.032 175.416 147.232 175.056C147.44 174.688 147.544 174.24 147.544 173.712C147.544 173.176 147.44 172.728 147.232 172.368C147.032 172 146.764 171.728 146.428 171.552C146.1 171.376 145.74 171.288 145.348 171.288ZM151.263 171.744C151.479 171.288 151.795 170.936 152.211 170.688C152.627 170.432 153.123 170.304 153.699 170.304V171.492H153.363C152.747 171.492 152.243 171.652 151.851 171.972C151.459 172.284 151.263 172.804 151.263 173.532V177H150.171V170.412H151.263V171.744ZM158.489 177L155.969 174.036V177H154.877V168.12H155.969V173.28L158.453 170.412H159.785L156.833 173.688L159.857 177H158.489ZM164.554 170.328C165.138 170.328 165.658 170.464 166.114 170.736C166.57 171.008 166.926 171.4 167.182 171.912C167.446 172.424 167.578 173.024 167.578 173.712C167.578 174.4 167.446 175 167.182 175.512C166.926 176.016 166.57 176.404 166.114 176.676C165.658 176.948 165.138 177.084 164.554 177.084C163.914 177.084 163.37 176.924 162.922 176.604C162.482 176.276 162.178 175.848 162.01 175.32V180.12H160.918V170.412H162.01V172.092C162.178 171.564 162.482 171.14 162.922 170.82C163.37 170.492 163.914 170.328 164.554 170.328ZM164.242 171.3C163.818 171.3 163.434 171.4 163.09 171.6C162.746 171.792 162.478 172.072 162.286 172.44C162.094 172.808 161.998 173.232 161.998 173.712C161.998 174.192 162.094 174.616 162.286 174.984C162.478 175.344 162.746 175.624 163.09 175.824C163.434 176.024 163.818 176.124 164.242 176.124C164.922 176.124 165.462 175.912 165.862 175.488C166.27 175.056 166.474 174.464 166.474 173.712C166.474 172.96 166.27 172.372 165.862 171.948C165.462 171.516 164.922 171.3 164.242 171.3ZM170.196 168.12V177H169.104V168.12H170.196ZM174.752 170.328C175.392 170.328 175.932 170.488 176.372 170.808C176.82 171.128 177.132 171.556 177.308 172.092V170.412H178.4V177H177.308V175.32C177.132 175.856 176.82 176.284 176.372 176.604C175.932 176.924 175.392 177.084 174.752 177.084C174.168 177.084 173.648 176.948 173.192 176.676C172.736 176.404 172.376 176.016 172.112 175.512C171.856 175 171.728 174.4 171.728 173.712C171.728 173.024 171.856 172.424 172.112 171.912C172.376 171.4 172.736 171.008 173.192 170.736C173.648 170.464 174.168 170.328 174.752 170.328ZM175.064 171.3C174.392 171.3 173.852 171.516 173.444 171.948C173.044 172.372 172.844 172.96 172.844 173.712C172.844 174.464 173.044 175.056 173.444 175.488C173.852 175.912 174.392 176.124 175.064 176.124C175.496 176.124 175.88 176.024 176.216 175.824C176.56 175.624 176.828 175.344 177.02 174.984C177.212 174.616 177.308 174.192 177.308 173.712C177.308 173.232 177.212 172.808 177.02 172.44C176.828 172.072 176.56 171.792 176.216 171.6C175.88 171.4 175.496 171.3 175.064 171.3ZM183.154 170.328C183.994 170.328 184.69 170.552 185.242 171C185.794 171.448 186.134 172.048 186.262 172.8H185.11C185.03 172.328 184.81 171.96 184.45 171.696C184.098 171.424 183.658 171.288 183.13 171.288C182.746 171.288 182.394 171.376 182.074 171.552C181.762 171.728 181.51 172 181.318 172.368C181.126 172.728 181.03 173.176 181.03 173.712C181.03 174.248 181.126 174.7 181.318 175.068C181.51 175.428 181.762 175.696 182.074 175.872C182.394 176.048 182.746 176.136 183.13 176.136C183.658 176.136 184.098 176 184.45 175.728C184.81 175.456 185.03 175.084 185.11 174.612H186.262C186.134 175.372 185.794 175.976 185.242 176.424C184.69 176.864 183.994 177.084 183.154 177.084C182.522 177.084 181.962 176.948 181.474 176.676C180.986 176.404 180.602 176.016 180.322 175.512C180.05 175 179.914 174.4 179.914 173.712C179.914 173.024 180.05 172.424 180.322 171.912C180.602 171.4 180.986 171.008 181.474 170.736C181.962 170.464 182.522 170.328 183.154 170.328ZM193.851 173.34C193.851 173.572 193.835 173.772 193.803 173.94H188.535C188.559 174.692 188.771 175.256 189.171 175.632C189.579 176.008 190.075 176.196 190.659 176.196C191.187 176.196 191.627 176.064 191.979 175.8C192.339 175.528 192.559 175.168 192.639 174.72H193.803C193.723 175.176 193.543 175.584 193.263 175.944C192.991 176.304 192.635 176.584 192.195 176.784C191.755 176.984 191.259 177.084 190.707 177.084C190.075 177.084 189.515 176.948 189.027 176.676C188.539 176.404 188.155 176.016 187.875 175.512C187.603 175 187.467 174.4 187.467 173.712C187.467 173.024 187.603 172.424 187.875 171.912C188.155 171.4 188.539 171.008 189.027 170.736C189.515 170.464 190.075 170.328 190.707 170.328C191.347 170.328 191.903 170.464 192.375 170.736C192.855 171.008 193.219 171.372 193.467 171.828C193.723 172.284 193.851 172.788 193.851 173.34ZM192.747 173.412C192.771 172.924 192.691 172.516 192.507 172.188C192.323 171.86 192.071 171.616 191.751 171.456C191.431 171.296 191.083 171.216 190.707 171.216C190.107 171.216 189.603 171.404 189.195 171.78C188.787 172.148 188.567 172.692 188.535 173.412H192.747ZM201.588 176.04V177H200.772C200.1 177 199.596 176.84 199.26 176.52C198.932 176.2 198.768 175.664 198.768 174.912V171.36H197.784V170.412H198.768V168.768H199.872V170.412H201.576V171.36H199.872V174.936C199.872 175.36 199.948 175.652 200.1 175.812C200.26 175.964 200.532 176.04 200.916 176.04H201.588ZM206.489 170.304C207.257 170.304 207.877 170.552 208.349 171.048C208.821 171.536 209.057 172.244 209.057 173.172V177H207.965V173.268C207.965 172.612 207.797 172.108 207.461 171.756C207.125 171.404 206.669 171.228 206.093 171.228C205.493 171.228 205.013 171.424 204.653 171.816C204.293 172.2 204.113 172.764 204.113 173.508V177H203.021V168.12H204.113V171.972C204.281 171.436 204.577 171.024 205.001 170.736C205.433 170.448 205.929 170.304 206.489 170.304ZM213.531 170.328C214.171 170.328 214.711 170.488 215.151 170.808C215.599 171.128 215.911 171.556 216.087 172.092V170.412H217.179V177H216.087V175.32C215.911 175.856 215.599 176.284 215.151 176.604C214.711 176.924 214.171 177.084 213.531 177.084C212.947 177.084 212.427 176.948 211.971 176.676C211.515 176.404 211.155 176.016 210.891 175.512C210.635 175 210.507 174.4 210.507 173.712C210.507 173.024 210.635 172.424 210.891 171.912C211.155 171.4 211.515 171.008 211.971 170.736C212.427 170.464 212.947 170.328 213.531 170.328ZM213.843 171.3C213.171 171.3 212.631 171.516 212.223 171.948C211.823 172.372 211.623 172.96 211.623 173.712C211.623 174.464 211.823 175.056 212.223 175.488C212.631 175.912 213.171 176.124 213.843 176.124C214.275 176.124 214.659 176.024 214.995 175.824C215.339 175.624 215.607 175.344 215.799 174.984C215.991 174.616 216.087 174.192 216.087 173.712C216.087 173.232 215.991 172.808 215.799 172.44C215.607 172.072 215.339 171.792 214.995 171.6C214.659 171.4 214.275 171.3 213.843 171.3ZM222.161 176.04V177H221.345C220.673 177 220.169 176.84 219.833 176.52C219.505 176.2 219.341 175.664 219.341 174.912V171.36H218.357V170.412H219.341V168.768H220.445V170.412H222.149V171.36H220.445V174.936C220.445 175.36 220.521 175.652 220.673 175.812C220.833 175.964 221.105 176.04 221.489 176.04H222.161ZM35.792 188.328C36.632 188.328 37.328 188.552 37.88 189C38.432 189.448 38.772 190.048 38.9 190.8H37.748C37.668 190.328 37.448 189.96 37.088 189.696C36.736 189.424 36.296 189.288 35.768 189.288C35.384 189.288 35.032 189.376 34.712 189.552C34.4 189.728 34.148 190 33.956 190.368C33.764 190.728 33.668 191.176 33.668 191.712C33.668 192.248 33.764 192.7 33.956 193.068C34.148 193.428 34.4 193.696 34.712 193.872C35.032 194.048 35.384 194.136 35.768 194.136C36.296 194.136 36.736 194 37.088 193.728C37.448 193.456 37.668 193.084 37.748 192.612H38.9C38.772 193.372 38.432 193.976 37.88 194.424C37.328 194.864 36.632 195.084 35.792 195.084C35.16 195.084 34.6 194.948 34.112 194.676C33.624 194.404 33.24 194.016 32.96 193.512C32.688 193 32.552 192.4 32.552 191.712C32.552 191.024 32.688 190.424 32.96 189.912C33.24 189.4 33.624 189.008 34.112 188.736C34.6 188.464 35.16 188.328 35.792 188.328ZM43.4171 188.328C44.0491 188.328 44.6131 188.464 45.1091 188.736C45.6131 189.008 46.0051 189.4 46.2851 189.912C46.5731 190.424 46.7171 191.024 46.7171 191.712C46.7171 192.4 46.5731 193 46.2851 193.512C46.0051 194.016 45.6131 194.404 45.1091 194.676C44.6131 194.948 44.0491 195.084 43.4171 195.084C42.7851 195.084 42.2171 194.948 41.7131 194.676C41.2171 194.404 40.8251 194.016 40.5371 193.512C40.2491 193 40.1051 192.4 40.1051 191.712C40.1051 191.024 40.2491 190.424 40.5371 189.912C40.8251 189.4 41.2171 189.008 41.7131 188.736C42.2171 188.464 42.7851 188.328 43.4171 188.328ZM43.4171 189.288C43.0251 189.288 42.6611 189.376 42.3251 189.552C41.9971 189.728 41.7291 190 41.5211 190.368C41.3211 190.728 41.2211 191.176 41.2211 191.712C41.2211 192.24 41.3211 192.688 41.5211 193.056C41.7291 193.416 41.9971 193.684 42.3251 193.86C42.6611 194.036 43.0251 194.124 43.4171 194.124C43.8091 194.124 44.1691 194.036 44.4971 193.86C44.8331 193.684 45.1011 193.416 45.3011 193.056C45.5091 192.688 45.6131 192.24 45.6131 191.712C45.6131 191.176 45.5091 190.728 45.3011 190.368C45.1011 190 44.8331 189.728 44.4971 189.552C44.1691 189.376 43.8091 189.288 43.4171 189.288ZM51.7081 188.304C52.4761 188.304 53.0961 188.552 53.5681 189.048C54.0401 189.536 54.2761 190.244 54.2761 191.172V195H53.1841V191.268C53.1841 190.612 53.0161 190.108 52.6801 189.756C52.3441 189.404 51.8881 189.228 51.3121 189.228C50.7121 189.228 50.2321 189.424 49.8721 189.816C49.5121 190.2 49.3321 190.764 49.3321 191.508V195H48.2401V188.412H49.3321V189.972C49.5001 189.436 49.7961 189.024 50.2201 188.736C50.6521 188.448 51.1481 188.304 51.7081 188.304ZM59.519 188.304C60.287 188.304 60.907 188.552 61.379 189.048C61.851 189.536 62.087 190.244 62.087 191.172V195H60.995V191.268C60.995 190.612 60.827 190.108 60.491 189.756C60.155 189.404 59.699 189.228 59.123 189.228C58.523 189.228 58.043 189.424 57.683 189.816C57.323 190.2 57.143 190.764 57.143 191.508V195H56.051V188.412H57.143V189.972C57.311 189.436 57.607 189.024 58.031 188.736C58.463 188.448 58.959 188.304 59.519 188.304ZM69.9219 191.34C69.9219 191.572 69.9059 191.772 69.8739 191.94H64.6059C64.6299 192.692 64.8419 193.256 65.2419 193.632C65.6499 194.008 66.1459 194.196 66.7299 194.196C67.2579 194.196 67.6979 194.064 68.0499 193.8C68.4099 193.528 68.6299 193.168 68.7099 192.72H69.8739C69.7939 193.176 69.6139 193.584 69.3339 193.944C69.0619 194.304 68.7059 194.584 68.2659 194.784C67.8259 194.984 67.3299 195.084 66.7779 195.084C66.1459 195.084 65.5859 194.948 65.0979 194.676C64.6099 194.404 64.2259 194.016 63.9459 193.512C63.6739 193 63.5379 192.4 63.5379 191.712C63.5379 191.024 63.6739 190.424 63.9459 189.912C64.2259 189.4 64.6099 189.008 65.0979 188.736C65.5859 188.464 66.1459 188.328 66.7779 188.328C67.4179 188.328 67.9739 188.464 68.4459 188.736C68.9259 189.008 69.2899 189.372 69.5379 189.828C69.7939 190.284 69.9219 190.788 69.9219 191.34ZM68.8179 191.412C68.8419 190.924 68.7619 190.516 68.5779 190.188C68.3939 189.86 68.1419 189.616 67.8219 189.456C67.5019 189.296 67.1539 189.216 66.7779 189.216C66.1779 189.216 65.6739 189.404 65.2659 189.78C64.8579 190.148 64.6379 190.692 64.6059 191.412H68.8179ZM74.3662 188.328C75.2062 188.328 75.9022 188.552 76.4542 189C77.0062 189.448 77.3462 190.048 77.4742 190.8H76.3222C76.2422 190.328 76.0222 189.96 75.6622 189.696C75.3102 189.424 74.8702 189.288 74.3422 189.288C73.9582 189.288 73.6062 189.376 73.2862 189.552C72.9742 189.728 72.7222 190 72.5302 190.368C72.3382 190.728 72.2422 191.176 72.2422 191.712C72.2422 192.248 72.3382 192.7 72.5302 193.068C72.7222 193.428 72.9742 193.696 73.2862 193.872C73.6062 194.048 73.9582 194.136 74.3422 194.136C74.8702 194.136 75.3102 194 75.6622 193.728C76.0222 193.456 76.2422 193.084 76.3222 192.612H77.4742C77.3462 193.372 77.0062 193.976 76.4542 194.424C75.9022 194.864 75.2062 195.084 74.3662 195.084C73.7342 195.084 73.1742 194.948 72.6862 194.676C72.1982 194.404 71.8142 194.016 71.5342 193.512C71.2622 193 71.1262 192.4 71.1262 191.712C71.1262 191.024 71.2622 190.424 71.5342 189.912C71.8142 189.4 72.1982 189.008 72.6862 188.736C73.1742 188.464 73.7342 188.328 74.3662 188.328ZM82.1473 194.04V195H81.3313C80.6593 195 80.1553 194.84 79.8193 194.52C79.4913 194.2 79.3273 193.664 79.3273 192.912V189.36H78.3433V188.412H79.3273V186.768H80.4313V188.412H82.1353V189.36H80.4313V192.936C80.4313 193.36 80.5073 193.652 80.6593 193.812C80.8193 193.964 81.0913 194.04 81.4753 194.04H82.1473ZM85.6439 188.328C86.3879 188.328 86.9839 188.524 87.4319 188.916C87.8879 189.3 88.1639 189.82 88.2599 190.476H87.2159C87.1679 190.084 87.0039 189.764 86.7239 189.516C86.4519 189.26 86.0839 189.132 85.6199 189.132C85.2279 189.132 84.9199 189.228 84.6959 189.42C84.4799 189.604 84.3719 189.856 84.3719 190.176C84.3719 190.416 84.4439 190.612 84.5879 190.764C84.7399 190.908 84.9239 191.02 85.1399 191.1C85.3639 191.172 85.6679 191.252 86.0519 191.34C86.5399 191.452 86.9319 191.568 87.2279 191.688C87.5319 191.8 87.7879 191.984 87.9959 192.24C88.2119 192.496 88.3199 192.84 88.3199 193.272C88.3199 193.808 88.1159 194.244 87.7079 194.58C87.3079 194.916 86.7719 195.084 86.0999 195.084C85.3159 195.084 84.6759 194.896 84.1799 194.52C83.6839 194.144 83.3919 193.62 83.3039 192.948H84.3599C84.3999 193.348 84.5719 193.672 84.8759 193.92C85.1879 194.168 85.5959 194.292 86.0999 194.292C86.4759 194.292 86.7679 194.196 86.9759 194.004C87.1919 193.812 87.2999 193.56 87.2999 193.248C87.2999 192.992 87.2239 192.788 87.0719 192.636C86.9199 192.484 86.7319 192.368 86.5079 192.288C86.2839 192.208 85.9759 192.124 85.5839 192.036C85.0959 191.924 84.7039 191.812 84.4079 191.7C84.1199 191.588 83.8719 191.412 83.6639 191.172C83.4639 190.924 83.3639 190.592 83.3639 190.176C83.3639 189.624 83.5679 189.18 83.9759 188.844C84.3839 188.5 84.9399 188.328 85.6439 188.328ZM93.4 188.412L95.536 193.596L97.516 188.412H98.728L94.816 198.12H93.58L94.948 194.892L92.176 188.412H93.4ZM102.817 188.328C103.449 188.328 104.013 188.464 104.509 188.736C105.013 189.008 105.405 189.4 105.685 189.912C105.973 190.424 106.117 191.024 106.117 191.712C106.117 192.4 105.973 193 105.685 193.512C105.405 194.016 105.013 194.404 104.509 194.676C104.013 194.948 103.449 195.084 102.817 195.084C102.185 195.084 101.617 194.948 101.113 194.676C100.617 194.404 100.225 194.016 99.9371 193.512C99.6491 193 99.5051 192.4 99.5051 191.712C99.5051 191.024 99.6491 190.424 99.9371 189.912C100.225 189.4 100.617 189.008 101.113 188.736C101.617 188.464 102.185 188.328 102.817 188.328ZM102.817 189.288C102.425 189.288 102.061 189.376 101.725 189.552C101.397 189.728 101.129 190 100.921 190.368C100.721 190.728 100.621 191.176 100.621 191.712C100.621 192.24 100.721 192.688 100.921 193.056C101.129 193.416 101.397 193.684 101.725 193.86C102.061 194.036 102.425 194.124 102.817 194.124C103.209 194.124 103.569 194.036 103.897 193.86C104.233 193.684 104.501 193.416 104.701 193.056C104.909 192.688 105.013 192.24 105.013 191.712C105.013 191.176 104.909 190.728 104.701 190.368C104.501 190 104.233 189.728 103.897 189.552C103.569 189.376 103.209 189.288 102.817 189.288ZM113.496 188.412V195H112.404V193.452C112.236 193.988 111.936 194.4 111.504 194.688C111.08 194.968 110.584 195.108 110.016 195.108C109.256 195.108 108.64 194.864 108.168 194.376C107.696 193.88 107.46 193.172 107.46 192.252V188.412H108.552V192.144C108.552 192.8 108.72 193.308 109.056 193.668C109.392 194.02 109.848 194.196 110.424 194.196C111.024 194.196 111.504 194.004 111.864 193.62C112.224 193.228 112.404 192.66 112.404 191.916V188.412H113.496ZM121.554 194.04V195H120.738C120.066 195 119.562 194.84 119.226 194.52C118.898 194.2 118.734 193.664 118.734 192.912V189.36H117.75V188.412H118.734V186.768H119.838V188.412H121.542V189.36H119.838V192.936C119.838 193.36 119.914 193.652 120.066 193.812C120.226 193.964 120.498 194.04 120.882 194.04H121.554ZM125.975 188.328C126.607 188.328 127.171 188.464 127.667 188.736C128.171 189.008 128.563 189.4 128.843 189.912C129.131 190.424 129.275 191.024 129.275 191.712C129.275 192.4 129.131 193 128.843 193.512C128.563 194.016 128.171 194.404 127.667 194.676C127.171 194.948 126.607 195.084 125.975 195.084C125.343 195.084 124.775 194.948 124.271 194.676C123.775 194.404 123.383 194.016 123.095 193.512C122.807 193 122.663 192.4 122.663 191.712C122.663 191.024 122.807 190.424 123.095 189.912C123.383 189.4 123.775 189.008 124.271 188.736C124.775 188.464 125.343 188.328 125.975 188.328ZM125.975 189.288C125.583 189.288 125.219 189.376 124.883 189.552C124.555 189.728 124.287 190 124.079 190.368C123.879 190.728 123.779 191.176 123.779 191.712C123.779 192.24 123.879 192.688 124.079 193.056C124.287 193.416 124.555 193.684 124.883 193.86C125.219 194.036 125.583 194.124 125.975 194.124C126.367 194.124 126.727 194.036 127.055 193.86C127.391 193.684 127.659 193.416 127.859 193.056C128.067 192.688 128.171 192.24 128.171 191.712C128.171 191.176 128.067 190.728 127.859 190.368C127.659 190 127.391 189.728 127.055 189.552C126.727 189.376 126.367 189.288 125.975 189.288ZM137.007 194.04V195H136.191C135.519 195 135.015 194.84 134.679 194.52C134.351 194.2 134.187 193.664 134.187 192.912V189.36H133.203V188.412H134.187V186.768H135.291V188.412H136.995V189.36H135.291V192.936C135.291 193.36 135.367 193.652 135.519 193.812C135.679 193.964 135.951 194.04 136.335 194.04H137.007ZM141.907 188.304C142.675 188.304 143.295 188.552 143.767 189.048C144.239 189.536 144.475 190.244 144.475 191.172V195H143.383V191.268C143.383 190.612 143.215 190.108 142.879 189.756C142.543 189.404 142.087 189.228 141.511 189.228C140.911 189.228 140.431 189.424 140.071 189.816C139.711 190.2 139.531 190.764 139.531 191.508V195H138.439V186.12H139.531V189.972C139.699 189.436 139.995 189.024 140.419 188.736C140.851 188.448 141.347 188.304 141.907 188.304ZM152.31 191.34C152.31 191.572 152.294 191.772 152.262 191.94H146.994C147.018 192.692 147.23 193.256 147.63 193.632C148.038 194.008 148.534 194.196 149.118 194.196C149.646 194.196 150.086 194.064 150.438 193.8C150.798 193.528 151.018 193.168 151.098 192.72H152.262C152.182 193.176 152.002 193.584 151.722 193.944C151.45 194.304 151.094 194.584 150.654 194.784C150.214 194.984 149.718 195.084 149.166 195.084C148.534 195.084 147.974 194.948 147.486 194.676C146.998 194.404 146.614 194.016 146.334 193.512C146.062 193 145.926 192.4 145.926 191.712C145.926 191.024 146.062 190.424 146.334 189.912C146.614 189.4 146.998 189.008 147.486 188.736C147.974 188.464 148.534 188.328 149.166 188.328C149.806 188.328 150.362 188.464 150.834 188.736C151.314 189.008 151.678 189.372 151.926 189.828C152.182 190.284 152.31 190.788 152.31 191.34ZM151.206 191.412C151.23 190.924 151.15 190.516 150.966 190.188C150.782 189.86 150.53 189.616 150.21 189.456C149.89 189.296 149.542 189.216 149.166 189.216C148.566 189.216 148.062 189.404 147.654 189.78C147.246 190.148 147.026 190.692 146.994 191.412H151.206ZM160.539 188.328C161.123 188.328 161.643 188.464 162.099 188.736C162.555 189.008 162.911 189.4 163.167 189.912C163.431 190.424 163.563 191.024 163.563 191.712C163.563 192.4 163.431 193 163.167 193.512C162.911 194.016 162.555 194.404 162.099 194.676C161.643 194.948 161.123 195.084 160.539 195.084C159.899 195.084 159.355 194.924 158.907 194.604C158.467 194.276 158.163 193.848 157.995 193.32V198.12H156.903V188.412H157.995V190.092C158.163 189.564 158.467 189.14 158.907 188.82C159.355 188.492 159.899 188.328 160.539 188.328ZM160.227 189.3C159.803 189.3 159.419 189.4 159.075 189.6C158.731 189.792 158.463 190.072 158.271 190.44C158.079 190.808 157.983 191.232 157.983 191.712C157.983 192.192 158.079 192.616 158.271 192.984C158.463 193.344 158.731 193.624 159.075 193.824C159.419 194.024 159.803 194.124 160.227 194.124C160.907 194.124 161.447 193.912 161.847 193.488C162.255 193.056 162.459 192.464 162.459 191.712C162.459 190.96 162.255 190.372 161.847 189.948C161.447 189.516 160.907 189.3 160.227 189.3ZM171.149 191.34C171.149 191.572 171.133 191.772 171.101 191.94H165.833C165.857 192.692 166.069 193.256 166.469 193.632C166.877 194.008 167.373 194.196 167.957 194.196C168.485 194.196 168.925 194.064 169.277 193.8C169.637 193.528 169.857 193.168 169.937 192.72H171.101C171.021 193.176 170.841 193.584 170.561 193.944C170.289 194.304 169.933 194.584 169.493 194.784C169.053 194.984 168.557 195.084 168.005 195.084C167.373 195.084 166.813 194.948 166.325 194.676C165.837 194.404 165.453 194.016 165.173 193.512C164.901 193 164.765 192.4 164.765 191.712C164.765 191.024 164.901 190.424 165.173 189.912C165.453 189.4 165.837 189.008 166.325 188.736C166.813 188.464 167.373 188.328 168.005 188.328C168.645 188.328 169.201 188.464 169.673 188.736C170.153 189.008 170.517 189.372 170.765 189.828C171.021 190.284 171.149 190.788 171.149 191.34ZM170.045 191.412C170.069 190.924 169.989 190.516 169.805 190.188C169.621 189.86 169.369 189.616 169.049 189.456C168.729 189.296 168.381 189.216 168.005 189.216C167.405 189.216 166.901 189.404 166.493 189.78C166.085 190.148 165.865 190.692 165.833 191.412H170.045ZM175.666 188.328C176.298 188.328 176.862 188.464 177.358 188.736C177.862 189.008 178.254 189.4 178.534 189.912C178.822 190.424 178.966 191.024 178.966 191.712C178.966 192.4 178.822 193 178.534 193.512C178.254 194.016 177.862 194.404 177.358 194.676C176.862 194.948 176.298 195.084 175.666 195.084C175.034 195.084 174.466 194.948 173.962 194.676C173.466 194.404 173.074 194.016 172.786 193.512C172.498 193 172.354 192.4 172.354 191.712C172.354 191.024 172.498 190.424 172.786 189.912C173.074 189.4 173.466 189.008 173.962 188.736C174.466 188.464 175.034 188.328 175.666 188.328ZM175.666 189.288C175.274 189.288 174.91 189.376 174.574 189.552C174.246 189.728 173.978 190 173.77 190.368C173.57 190.728 173.47 191.176 173.47 191.712C173.47 192.24 173.57 192.688 173.77 193.056C173.978 193.416 174.246 193.684 174.574 193.86C174.91 194.036 175.274 194.124 175.666 194.124C176.058 194.124 176.418 194.036 176.746 193.86C177.082 193.684 177.35 193.416 177.55 193.056C177.758 192.688 177.862 192.24 177.862 191.712C177.862 191.176 177.758 190.728 177.55 190.368C177.35 190 177.082 189.728 176.746 189.552C176.418 189.376 176.058 189.288 175.666 189.288ZM184.125 188.328C184.709 188.328 185.229 188.464 185.685 188.736C186.141 189.008 186.497 189.4 186.753 189.912C187.017 190.424 187.149 191.024 187.149 191.712C187.149 192.4 187.017 193 186.753 193.512C186.497 194.016 186.141 194.404 185.685 194.676C185.229 194.948 184.709 195.084 184.125 195.084C183.485 195.084 182.941 194.924 182.493 194.604C182.053 194.276 181.749 193.848 181.581 193.32V198.12H180.489V188.412H181.581V190.092C181.749 189.564 182.053 189.14 182.493 188.82C182.941 188.492 183.485 188.328 184.125 188.328ZM183.813 189.3C183.389 189.3 183.005 189.4 182.661 189.6C182.317 189.792 182.049 190.072 181.857 190.44C181.665 190.808 181.569 191.232 181.569 191.712C181.569 192.192 181.665 192.616 181.857 192.984C182.049 193.344 182.317 193.624 182.661 193.824C183.005 194.024 183.389 194.124 183.813 194.124C184.493 194.124 185.033 193.912 185.433 193.488C185.841 193.056 186.045 192.464 186.045 191.712C186.045 190.96 185.841 190.372 185.433 189.948C185.033 189.516 184.493 189.3 183.813 189.3ZM189.766 186.12V195H188.674V186.12H189.766ZM197.682 191.34C197.682 191.572 197.666 191.772 197.634 191.94H192.366C192.39 192.692 192.602 193.256 193.002 193.632C193.41 194.008 193.906 194.196 194.49 194.196C195.018 194.196 195.458 194.064 195.81 193.8C196.17 193.528 196.39 193.168 196.47 192.72H197.634C197.554 193.176 197.374 193.584 197.094 193.944C196.822 194.304 196.466 194.584 196.026 194.784C195.586 194.984 195.09 195.084 194.538 195.084C193.906 195.084 193.346 194.948 192.858 194.676C192.37 194.404 191.986 194.016 191.706 193.512C191.434 193 191.298 192.4 191.298 191.712C191.298 191.024 191.434 190.424 191.706 189.912C191.986 189.4 192.37 189.008 192.858 188.736C193.346 188.464 193.906 188.328 194.538 188.328C195.178 188.328 195.734 188.464 196.206 188.736C196.686 189.008 197.05 189.372 197.298 189.828C197.554 190.284 197.682 190.788 197.682 191.34ZM196.578 191.412C196.602 190.924 196.522 190.516 196.338 190.188C196.154 189.86 195.902 189.616 195.582 189.456C195.262 189.296 194.914 189.216 194.538 189.216C193.938 189.216 193.434 189.404 193.026 189.78C192.618 190.148 192.398 190.692 192.366 191.412H196.578ZM204.975 188.328C205.615 188.328 206.155 188.488 206.595 188.808C207.043 189.128 207.355 189.556 207.531 190.092V188.412H208.623V195H207.531V193.32C207.355 193.856 207.043 194.284 206.595 194.604C206.155 194.924 205.615 195.084 204.975 195.084C204.391 195.084 203.871 194.948 203.415 194.676C202.959 194.404 202.599 194.016 202.335 193.512C202.079 193 201.951 192.4 201.951 191.712C201.951 191.024 202.079 190.424 202.335 189.912C202.599 189.4 202.959 189.008 203.415 188.736C203.871 188.464 204.391 188.328 204.975 188.328ZM205.287 189.3C204.615 189.3 204.075 189.516 203.667 189.948C203.267 190.372 203.067 190.96 203.067 191.712C203.067 192.464 203.267 193.056 203.667 193.488C204.075 193.912 204.615 194.124 205.287 194.124C205.719 194.124 206.103 194.024 206.439 193.824C206.783 193.624 207.051 193.344 207.243 192.984C207.435 192.616 207.531 192.192 207.531 191.712C207.531 191.232 207.435 190.808 207.243 190.44C207.051 190.072 206.783 189.792 206.439 189.6C206.103 189.4 205.719 189.3 205.287 189.3ZM213.929 188.304C214.697 188.304 215.317 188.552 215.789 189.048C216.261 189.536 216.497 190.244 216.497 191.172V195H215.405V191.268C215.405 190.612 215.237 190.108 214.901 189.756C214.565 189.404 214.109 189.228 213.533 189.228C212.933 189.228 212.453 189.424 212.093 189.816C211.733 190.2 211.553 190.764 211.553 191.508V195H210.461V188.412H211.553V189.972C211.721 189.436 212.017 189.024 212.441 188.736C212.873 188.448 213.369 188.304 213.929 188.304ZM220.972 188.328C221.612 188.328 222.152 188.488 222.592 188.808C223.04 189.128 223.352 189.556 223.528 190.092V186.12H224.62V195H223.528V193.32C223.352 193.856 223.04 194.284 222.592 194.604C222.152 194.924 221.612 195.084 220.972 195.084C220.388 195.084 219.868 194.948 219.412 194.676C218.956 194.404 218.596 194.016 218.332 193.512C218.076 193 217.948 192.4 217.948 191.712C217.948 191.024 218.076 190.424 218.332 189.912C218.596 189.4 218.956 189.008 219.412 188.736C219.868 188.464 220.388 188.328 220.972 188.328ZM221.284 189.3C220.612 189.3 220.072 189.516 219.664 189.948C219.264 190.372 219.064 190.96 219.064 191.712C219.064 192.464 219.264 193.056 219.664 193.488C220.072 193.912 220.612 194.124 221.284 194.124C221.716 194.124 222.1 194.024 222.436 193.824C222.78 193.624 223.048 193.344 223.24 192.984C223.432 192.616 223.528 192.192 223.528 191.712C223.528 191.232 223.432 190.808 223.24 190.44C223.048 190.072 222.78 189.792 222.436 189.6C222.1 189.4 221.716 189.3 221.284 189.3ZM36.02 212.04V213H35.204C34.532 213 34.028 212.84 33.692 212.52C33.364 212.2 33.2 211.664 33.2 210.912V207.36H32.216V206.412H33.2V204.768H34.304V206.412H36.008V207.36H34.304V210.936C34.304 211.36 34.38 211.652 34.532 211.812C34.692 211.964 34.964 212.04 35.348 212.04H36.02ZM40.4406 206.328C41.0726 206.328 41.6366 206.464 42.1326 206.736C42.6366 207.008 43.0286 207.4 43.3086 207.912C43.5966 208.424 43.7406 209.024 43.7406 209.712C43.7406 210.4 43.5966 211 43.3086 211.512C43.0286 212.016 42.6366 212.404 42.1326 212.676C41.6366 212.948 41.0726 213.084 40.4406 213.084C39.8086 213.084 39.2406 212.948 38.7366 212.676C38.2406 212.404 37.8486 212.016 37.5606 211.512C37.2726 211 37.1286 210.4 37.1286 209.712C37.1286 209.024 37.2726 208.424 37.5606 207.912C37.8486 207.4 38.2406 207.008 38.7366 206.736C39.2406 206.464 39.8086 206.328 40.4406 206.328ZM40.4406 207.288C40.0486 207.288 39.6846 207.376 39.3486 207.552C39.0206 207.728 38.7526 208 38.5446 208.368C38.3446 208.728 38.2446 209.176 38.2446 209.712C38.2446 210.24 38.3446 210.688 38.5446 211.056C38.7526 211.416 39.0206 211.684 39.3486 211.86C39.6846 212.036 40.0486 212.124 40.4406 212.124C40.8326 212.124 41.1926 212.036 41.5206 211.86C41.8566 211.684 42.1246 211.416 42.3246 211.056C42.5326 210.688 42.6366 210.24 42.6366 209.712C42.6366 209.176 42.5326 208.728 42.3246 208.368C42.1246 208 41.8566 207.728 41.5206 207.552C41.1926 207.376 40.8326 207.288 40.4406 207.288ZM48.2515 206.328C48.8835 206.328 49.4475 206.464 49.9435 206.736C50.4475 207.008 50.8395 207.4 51.1195 207.912C51.4075 208.424 51.5515 209.024 51.5515 209.712C51.5515 210.4 51.4075 211 51.1195 211.512C50.8395 212.016 50.4475 212.404 49.9435 212.676C49.4475 212.948 48.8835 213.084 48.2515 213.084C47.6195 213.084 47.0515 212.948 46.5475 212.676C46.0515 212.404 45.6595 212.016 45.3715 211.512C45.0835 211 44.9395 210.4 44.9395 209.712C44.9395 209.024 45.0835 208.424 45.3715 207.912C45.6595 207.4 46.0515 207.008 46.5475 206.736C47.0515 206.464 47.6195 206.328 48.2515 206.328ZM48.2515 207.288C47.8595 207.288 47.4955 207.376 47.1595 207.552C46.8315 207.728 46.5635 208 46.3555 208.368C46.1555 208.728 46.0555 209.176 46.0555 209.712C46.0555 210.24 46.1555 210.688 46.3555 211.056C46.5635 211.416 46.8315 211.684 47.1595 211.86C47.4955 212.036 47.8595 212.124 48.2515 212.124C48.6435 212.124 49.0035 212.036 49.3315 211.86C49.6675 211.684 49.9355 211.416 50.1355 211.056C50.3435 210.688 50.4475 210.24 50.4475 209.712C50.4475 209.176 50.3435 208.728 50.1355 208.368C49.9355 208 49.6675 207.728 49.3315 207.552C49.0035 207.376 48.6435 207.288 48.2515 207.288ZM54.1664 204.12V213H53.0744V204.12H54.1664ZM58.0861 206.328C58.8301 206.328 59.4261 206.524 59.8741 206.916C60.3301 207.3 60.6061 207.82 60.7021 208.476H59.6581C59.6101 208.084 59.4461 207.764 59.1661 207.516C58.8941 207.26 58.5261 207.132 58.0621 207.132C57.6701 207.132 57.3621 207.228 57.1381 207.42C56.9221 207.604 56.8141 207.856 56.8141 208.176C56.8141 208.416 56.8861 208.612 57.0301 208.764C57.1821 208.908 57.3661 209.02 57.5821 209.1C57.8061 209.172 58.1101 209.252 58.4941 209.34C58.9821 209.452 59.3741 209.568 59.6701 209.688C59.9741 209.8 60.2301 209.984 60.4381 210.24C60.6541 210.496 60.7621 210.84 60.7621 211.272C60.7621 211.808 60.5581 212.244 60.1501 212.58C59.7501 212.916 59.2141 213.084 58.5421 213.084C57.7581 213.084 57.1181 212.896 56.6221 212.52C56.1261 212.144 55.8341 211.62 55.7461 210.948H56.8021C56.8421 211.348 57.0141 211.672 57.3181 211.92C57.6301 212.168 58.0381 212.292 58.5421 212.292C58.9181 212.292 59.2101 212.196 59.4181 212.004C59.6341 211.812 59.7421 211.56 59.7421 211.248C59.7421 210.992 59.6661 210.788 59.5141 210.636C59.3621 210.484 59.1741 210.368 58.9501 210.288C58.7261 210.208 58.4181 210.124 58.0261 210.036C57.5381 209.924 57.1461 209.812 56.8501 209.7C56.5621 209.588 56.3141 209.412 56.1061 209.172C55.9061 208.924 55.8061 208.592 55.8061 208.176C55.8061 207.624 56.0101 207.18 56.4181 206.844C56.8261 206.5 57.3821 206.328 58.0861 206.328ZM65.8422 206.412L67.9782 211.596L69.9582 206.412H71.1702L67.2582 216.12H66.0222L67.3902 212.892L64.6182 206.412H65.8422ZM75.2593 206.328C75.8913 206.328 76.4553 206.464 76.9513 206.736C77.4553 207.008 77.8473 207.4 78.1273 207.912C78.4153 208.424 78.5593 209.024 78.5593 209.712C78.5593 210.4 78.4153 211 78.1273 211.512C77.8473 212.016 77.4553 212.404 76.9513 212.676C76.4553 212.948 75.8913 213.084 75.2593 213.084C74.6273 213.084 74.0593 212.948 73.5553 212.676C73.0593 212.404 72.6673 212.016 72.3793 211.512C72.0913 211 71.9473 210.4 71.9473 209.712C71.9473 209.024 72.0913 208.424 72.3793 207.912C72.6673 207.4 73.0593 207.008 73.5553 206.736C74.0593 206.464 74.6273 206.328 75.2593 206.328ZM75.2593 207.288C74.8673 207.288 74.5033 207.376 74.1673 207.552C73.8393 207.728 73.5713 208 73.3633 208.368C73.1633 208.728 73.0633 209.176 73.0633 209.712C73.0633 210.24 73.1633 210.688 73.3633 211.056C73.5713 211.416 73.8393 211.684 74.1673 211.86C74.5033 212.036 74.8673 212.124 75.2593 212.124C75.6513 212.124 76.0113 212.036 76.3393 211.86C76.6753 211.684 76.9433 211.416 77.1433 211.056C77.3513 210.688 77.4553 210.24 77.4553 209.712C77.4553 209.176 77.3513 208.728 77.1433 208.368C76.9433 208 76.6753 207.728 76.3393 207.552C76.0113 207.376 75.6513 207.288 75.2593 207.288ZM85.9382 206.412V213H84.8462V211.452C84.6782 211.988 84.3782 212.4 83.9462 212.688C83.5222 212.968 83.0262 213.108 82.4582 213.108C81.6982 213.108 81.0822 212.864 80.6102 212.376C80.1382 211.88 79.9022 211.172 79.9022 210.252V206.412H80.9942V210.144C80.9942 210.8 81.1622 211.308 81.4982 211.668C81.8342 212.02 82.2902 212.196 82.8662 212.196C83.4662 212.196 83.9462 212.004 84.3062 211.62C84.6662 211.228 84.8462 210.66 84.8462 209.916V206.412H85.9382ZM99.9006 206.412L98.0046 213H96.8286L95.0166 207.636L93.1926 213H92.0046L90.1326 206.412H91.2366L92.6406 211.956L94.4646 206.412H95.6046L97.4406 211.944L98.8566 206.412H99.9006ZM104.007 206.328C104.639 206.328 105.203 206.464 105.699 206.736C106.203 207.008 106.595 207.4 106.875 207.912C107.163 208.424 107.307 209.024 107.307 209.712C107.307 210.4 107.163 211 106.875 211.512C106.595 212.016 106.203 212.404 105.699 212.676C105.203 212.948 104.639 213.084 104.007 213.084C103.375 213.084 102.807 212.948 102.303 212.676C101.807 212.404 101.415 212.016 101.127 211.512C100.839 211 100.695 210.4 100.695 209.712C100.695 209.024 100.839 208.424 101.127 207.912C101.415 207.4 101.807 207.008 102.303 206.736C102.807 206.464 103.375 206.328 104.007 206.328ZM104.007 207.288C103.615 207.288 103.251 207.376 102.915 207.552C102.587 207.728 102.319 208 102.111 208.368C101.911 208.728 101.811 209.176 101.811 209.712C101.811 210.24 101.911 210.688 102.111 211.056C102.319 211.416 102.587 211.684 102.915 211.86C103.251 212.036 103.615 212.124 104.007 212.124C104.399 212.124 104.759 212.036 105.087 211.86C105.423 211.684 105.691 211.416 105.891 211.056C106.099 210.688 106.203 210.24 106.203 209.712C106.203 209.176 106.099 208.728 105.891 208.368C105.691 208 105.423 207.728 105.087 207.552C104.759 207.376 104.399 207.288 104.007 207.288ZM109.922 207.744C110.138 207.288 110.454 206.936 110.87 206.688C111.286 206.432 111.782 206.304 112.358 206.304V207.492H112.022C111.406 207.492 110.902 207.652 110.51 207.972C110.118 208.284 109.922 208.804 109.922 209.532V213H108.83V206.412H109.922V207.744ZM117.147 213L114.627 210.036V213H113.535V204.12H114.627V209.28L117.111 206.412H118.443L115.491 209.688L118.515 213H117.147ZM131.69 206.412L129.794 213H128.618L126.806 207.636L124.982 213H123.794L121.922 206.412H123.026L124.43 211.956L126.254 206.412H127.394L129.23 211.944L130.646 206.412H131.69ZM132.616 204.48C132.616 204.28 132.684 204.12 132.82 204C132.956 203.872 133.136 203.808 133.36 203.808C133.584 203.808 133.764 203.872 133.9 204C134.036 204.12 134.104 204.28 134.104 204.48C134.104 204.68 134.036 204.844 133.9 204.972C133.764 205.092 133.584 205.152 133.36 205.152C133.136 205.152 132.956 205.092 132.82 204.972C132.684 204.844 132.616 204.68 132.616 204.48ZM133.9 206.412V213H132.808V206.412H133.9ZM138.9 212.04V213H138.084C137.412 213 136.908 212.84 136.572 212.52C136.244 212.2 136.08 211.664 136.08 210.912V207.36H135.096V206.412H136.08V204.768H137.184V206.412H138.888V207.36H137.184V210.936C137.184 211.36 137.26 211.652 137.412 211.812C137.572 211.964 137.844 212.04 138.228 212.04H138.9ZM143.8 206.304C144.568 206.304 145.188 206.552 145.66 207.048C146.132 207.536 146.368 208.244 146.368 209.172V213H145.276V209.268C145.276 208.612 145.108 208.108 144.772 207.756C144.436 207.404 143.98 207.228 143.404 207.228C142.804 207.228 142.324 207.424 141.964 207.816C141.604 208.2 141.424 208.764 141.424 209.508V213H140.332V204.12H141.424V207.972C141.592 207.436 141.888 207.024 142.312 206.736C142.744 206.448 143.24 206.304 143.8 206.304ZM157.268 209.34C157.268 209.572 157.252 209.772 157.22 209.94H151.952C151.976 210.692 152.188 211.256 152.588 211.632C152.996 212.008 153.492 212.196 154.076 212.196C154.604 212.196 155.044 212.064 155.396 211.8C155.756 211.528 155.976 211.168 156.056 210.72H157.22C157.14 211.176 156.96 211.584 156.68 211.944C156.408 212.304 156.052 212.584 155.612 212.784C155.172 212.984 154.676 213.084 154.124 213.084C153.492 213.084 152.932 212.948 152.444 212.676C151.956 212.404 151.572 212.016 151.292 211.512C151.02 211 150.884 210.4 150.884 209.712C150.884 209.024 151.02 208.424 151.292 207.912C151.572 207.4 151.956 207.008 152.444 206.736C152.932 206.464 153.492 206.328 154.124 206.328C154.764 206.328 155.32 206.464 155.792 206.736C156.272 207.008 156.636 207.372 156.884 207.828C157.14 208.284 157.268 208.788 157.268 209.34ZM156.164 209.412C156.188 208.924 156.108 208.516 155.924 208.188C155.74 207.86 155.488 207.616 155.168 207.456C154.848 207.296 154.5 207.216 154.124 207.216C153.524 207.216 153.02 207.404 152.612 207.78C152.204 208.148 151.984 208.692 151.952 209.412H156.164ZM161.352 211.836L163.392 206.412H164.568L161.988 213H160.692L158.112 206.412H159.288L161.352 211.836ZM171.8 209.34C171.8 209.572 171.784 209.772 171.752 209.94H166.484C166.508 210.692 166.72 211.256 167.12 211.632C167.528 212.008 168.024 212.196 168.608 212.196C169.136 212.196 169.576 212.064 169.928 211.8C170.288 211.528 170.508 211.168 170.588 210.72H171.752C171.672 211.176 171.492 211.584 171.212 211.944C170.94 212.304 170.584 212.584 170.144 212.784C169.704 212.984 169.208 213.084 168.656 213.084C168.024 213.084 167.464 212.948 166.976 212.676C166.488 212.404 166.104 212.016 165.824 211.512C165.552 211 165.416 210.4 165.416 209.712C165.416 209.024 165.552 208.424 165.824 207.912C166.104 207.4 166.488 207.008 166.976 206.736C167.464 206.464 168.024 206.328 168.656 206.328C169.296 206.328 169.852 206.464 170.324 206.736C170.804 207.008 171.168 207.372 171.416 207.828C171.672 208.284 171.8 208.788 171.8 209.34ZM170.696 209.412C170.72 208.924 170.64 208.516 170.456 208.188C170.272 207.86 170.02 207.616 169.7 207.456C169.38 207.296 169.032 207.216 168.656 207.216C168.056 207.216 167.552 207.404 167.144 207.78C166.736 208.148 166.516 208.692 166.484 209.412H170.696ZM174.42 207.744C174.636 207.288 174.952 206.936 175.368 206.688C175.784 206.432 176.28 206.304 176.856 206.304V207.492H176.52C175.904 207.492 175.4 207.652 175.008 207.972C174.616 208.284 174.42 208.804 174.42 209.532V213H173.328V206.412H174.42V207.744ZM178.49 206.412L180.626 211.596L182.606 206.412H183.818L179.906 216.12H178.67L180.038 212.892L177.266 206.412H178.49ZM187.619 206.328C188.259 206.328 188.799 206.488 189.239 206.808C189.687 207.128 189.999 207.556 190.175 208.092V204.12H191.267V213H190.175V211.32C189.999 211.856 189.687 212.284 189.239 212.604C188.799 212.924 188.259 213.084 187.619 213.084C187.035 213.084 186.515 212.948 186.059 212.676C185.603 212.404 185.243 212.016 184.979 211.512C184.723 211 184.595 210.4 184.595 209.712C184.595 209.024 184.723 208.424 184.979 207.912C185.243 207.4 185.603 207.008 186.059 206.736C186.515 206.464 187.035 206.328 187.619 206.328ZM187.931 207.3C187.259 207.3 186.719 207.516 186.311 207.948C185.911 208.372 185.711 208.96 185.711 209.712C185.711 210.464 185.911 211.056 186.311 211.488C186.719 211.912 187.259 212.124 187.931 212.124C188.363 212.124 188.747 212.024 189.083 211.824C189.427 211.624 189.695 211.344 189.887 210.984C190.079 210.616 190.175 210.192 190.175 209.712C190.175 209.232 190.079 208.808 189.887 208.44C189.695 208.072 189.427 207.792 189.083 207.6C188.747 207.4 188.363 207.3 187.931 207.3ZM195.805 206.328C196.445 206.328 196.985 206.488 197.425 206.808C197.873 207.128 198.185 207.556 198.361 208.092V206.412H199.453V213H198.361V211.32C198.185 211.856 197.873 212.284 197.425 212.604C196.985 212.924 196.445 213.084 195.805 213.084C195.221 213.084 194.701 212.948 194.245 212.676C193.789 212.404 193.429 212.016 193.165 211.512C192.909 211 192.781 210.4 192.781 209.712C192.781 209.024 192.909 208.424 193.165 207.912C193.429 207.4 193.789 207.008 194.245 206.736C194.701 206.464 195.221 206.328 195.805 206.328ZM196.117 207.3C195.445 207.3 194.905 207.516 194.497 207.948C194.097 208.372 193.897 208.96 193.897 209.712C193.897 210.464 194.097 211.056 194.497 211.488C194.905 211.912 195.445 212.124 196.117 212.124C196.549 212.124 196.933 212.024 197.269 211.824C197.613 211.624 197.881 211.344 198.073 210.984C198.265 210.616 198.361 210.192 198.361 209.712C198.361 209.232 198.265 208.808 198.073 208.44C197.881 208.072 197.613 207.792 197.269 207.6C196.933 207.4 196.549 207.3 196.117 207.3ZM201.747 206.412L203.883 211.596L205.863 206.412H207.075L203.163 216.12H201.927L203.295 212.892L200.523 206.412H201.747ZM208.98 211.716V213H207.66V211.716H208.98Z" fill="#192A3E"/>
<path d="M39.995 149.18C39.995 149.7 39.87 150.185 39.62 150.635C39.37 151.075 38.99 151.43 38.48 151.7C37.97 151.97 37.345 152.105 36.605 152.105C35.885 152.105 35.24 151.98 34.67 151.73C34.1 151.47 33.645 151.11 33.305 150.65C32.965 150.19 32.77 149.66 32.72 149.06H34.55C34.6 149.52 34.795 149.915 35.135 150.245C35.485 150.575 35.95 150.74 36.53 150.74C37.05 150.74 37.45 150.6 37.73 150.32C38.02 150.04 38.165 149.68 38.165 149.24C38.165 148.86 38.06 148.55 37.85 148.31C37.64 148.06 37.38 147.865 37.07 147.725C36.76 147.585 36.335 147.425 35.795 147.245C35.135 147.035 34.595 146.825 34.175 146.615C33.765 146.405 33.415 146.1 33.125 145.7C32.835 145.3 32.69 144.775 32.69 144.125C32.69 143.555 32.83 143.055 33.11 142.625C33.39 142.195 33.79 141.865 34.31 141.635C34.83 141.395 35.43 141.275 36.11 141.275C37.19 141.275 38.045 141.535 38.675 142.055C39.315 142.575 39.68 143.255 39.77 144.095H37.925C37.855 143.695 37.665 143.355 37.355 143.075C37.055 142.785 36.64 142.64 36.11 142.64C35.63 142.64 35.245 142.765 34.955 143.015C34.665 143.255 34.52 143.605 34.52 144.065C34.52 144.425 34.62 144.725 34.82 144.965C35.02 145.195 35.27 145.38 35.57 145.52C35.88 145.65 36.3 145.805 36.83 145.985C37.5 146.195 38.045 146.41 38.465 146.63C38.895 146.84 39.255 147.15 39.545 147.56C39.845 147.97 39.995 148.51 39.995 149.18ZM43.5169 140.9V152H41.8069V140.9H43.5169ZM49.0012 143.63C49.7512 143.63 50.3912 143.815 50.9212 144.185C51.4512 144.555 51.8262 145.045 52.0462 145.655V143.735H53.7562V152H52.0462V150.08C51.8262 150.69 51.4512 151.18 50.9212 151.55C50.3912 151.92 49.7512 152.105 49.0012 152.105C48.2812 152.105 47.6362 151.935 47.0662 151.595C46.5062 151.255 46.0662 150.765 45.7462 150.125C45.4262 149.485 45.2662 148.73 45.2662 147.86C45.2662 147 45.4262 146.25 45.7462 145.61C46.0662 144.97 46.5062 144.48 47.0662 144.14C47.6362 143.8 48.2812 143.63 49.0012 143.63ZM49.5262 145.13C48.7662 145.13 48.1562 145.375 47.6962 145.865C47.2462 146.345 47.0212 147.01 47.0212 147.86C47.0212 148.71 47.2462 149.38 47.6962 149.87C48.1562 150.35 48.7662 150.59 49.5262 150.59C50.0062 150.59 50.4362 150.48 50.8162 150.26C51.1962 150.03 51.4962 149.71 51.7162 149.3C51.9362 148.89 52.0462 148.41 52.0462 147.86C52.0462 147.32 51.9362 146.845 51.7162 146.435C51.4962 146.015 51.1962 145.695 50.8162 145.475C50.4362 145.245 50.0062 145.13 49.5262 145.13ZM59.5832 143.63C60.6532 143.63 61.5382 143.915 62.2382 144.485C62.9382 145.045 63.3732 145.81 63.5432 146.78H61.7282C61.6282 146.26 61.3832 145.855 60.9932 145.565C60.6132 145.265 60.1332 145.115 59.5532 145.115C58.8932 145.115 58.3432 145.35 57.9032 145.82C57.4632 146.28 57.2432 146.96 57.2432 147.86C57.2432 148.76 57.4632 149.445 57.9032 149.915C58.3432 150.385 58.8932 150.62 59.5532 150.62C60.1332 150.62 60.6132 150.47 60.9932 150.17C61.3832 149.87 61.6282 149.46 61.7282 148.94H63.5432C63.3732 149.91 62.9382 150.68 62.2382 151.25C61.5382 151.82 60.6532 152.105 59.5832 152.105C58.7832 152.105 58.0732 151.935 57.4532 151.595C56.8432 151.255 56.3632 150.765 56.0132 150.125C55.6632 149.485 55.4882 148.73 55.4882 147.86C55.4882 147 55.6632 146.25 56.0132 145.61C56.3632 144.97 56.8432 144.48 57.4532 144.14C58.0732 143.8 58.7832 143.63 59.5832 143.63ZM69.9754 152L67.0054 148.325V152H65.2954V140.9H67.0054V147.26L69.9454 143.735H72.0004L68.4004 147.845L72.0904 152H69.9754Z" fill="#192A3E"/>
<g opacity="0.5">
<path d="M36.979 248.731C38.123 248.731 39.072 249.026 39.826 249.615C40.58 250.204 41.0783 251.006 41.321 252.02H39.397C39.1977 251.526 38.8857 251.136 38.461 250.85C38.045 250.564 37.5423 250.421 36.953 250.421C36.4677 250.421 36.03 250.542 35.64 250.785C35.25 251.028 34.9467 251.374 34.73 251.825C34.5133 252.276 34.405 252.804 34.405 253.411C34.405 254.009 34.5133 254.533 34.73 254.984C34.9467 255.435 35.25 255.781 35.64 256.024C36.03 256.267 36.4677 256.388 36.953 256.388C37.5423 256.388 38.045 256.245 38.461 255.959C38.8857 255.673 39.1977 255.283 39.397 254.789H41.321C41.0783 255.803 40.58 256.605 39.826 257.194C39.072 257.783 38.123 258.078 36.979 258.078C36.1037 258.078 35.328 257.883 34.652 257.493C33.9847 257.094 33.4647 256.54 33.092 255.829C32.728 255.118 32.546 254.312 32.546 253.411C32.546 252.501 32.728 251.691 33.092 250.98C33.4647 250.269 33.9847 249.719 34.652 249.329C35.3193 248.93 36.095 248.731 36.979 248.731ZM46.1243 250.707C46.8263 250.707 47.4546 250.854 48.0093 251.149C48.5726 251.444 49.0146 251.873 49.3353 252.436C49.6559 252.991 49.8163 253.645 49.8163 254.399C49.8163 255.153 49.6559 255.807 49.3353 256.362C49.0146 256.917 48.5726 257.346 48.0093 257.649C47.4546 257.944 46.8263 258.091 46.1243 258.091C45.4223 258.091 44.7896 257.944 44.2263 257.649C43.6716 257.346 43.2339 256.917 42.9133 256.362C42.5926 255.807 42.4323 255.153 42.4323 254.399C42.4323 253.645 42.5926 252.991 42.9133 252.436C43.2339 251.873 43.6716 251.444 44.2263 251.149C44.7896 250.854 45.4223 250.707 46.1243 250.707ZM46.1243 252.293C45.6129 252.293 45.1796 252.475 44.8243 252.839C44.4689 253.194 44.2913 253.714 44.2913 254.399C44.2913 255.084 44.4689 255.608 44.8243 255.972C45.1796 256.327 45.6129 256.505 46.1243 256.505C46.6356 256.505 47.0689 256.327 47.4243 255.972C47.7796 255.608 47.9573 255.084 47.9573 254.399C47.9573 253.714 47.7796 253.194 47.4243 252.839C47.0689 252.475 46.6356 252.293 46.1243 252.293ZM55.5017 250.694C56.3337 250.694 56.9967 250.967 57.4907 251.513C57.9847 252.059 58.2317 252.826 58.2317 253.814V258H56.4117V254.022C56.4117 253.45 56.2644 253.008 55.9697 252.696C55.675 252.375 55.272 252.215 54.7607 252.215C54.2407 252.215 53.8247 252.384 53.5127 252.722C53.2007 253.06 53.0447 253.545 53.0447 254.178V258H51.2117V250.798H53.0447V252.241C53.2354 251.756 53.5474 251.379 53.9807 251.11C54.4227 250.833 54.9297 250.694 55.5017 250.694ZM64.2345 250.694C65.0665 250.694 65.7295 250.967 66.2235 251.513C66.7175 252.059 66.9645 252.826 66.9645 253.814V258H65.1445V254.022C65.1445 253.45 64.9972 253.008 64.7025 252.696C64.4078 252.375 64.0048 252.215 63.4935 252.215C62.9735 252.215 62.5575 252.384 62.2455 252.722C61.9335 253.06 61.7775 253.545 61.7775 254.178V258H59.9445V250.798H61.7775V252.241C61.9682 251.756 62.2802 251.379 62.7135 251.11C63.1555 250.833 63.6625 250.694 64.2345 250.694ZM75.4503 254.126C75.4503 254.308 75.4286 254.516 75.3853 254.75H70.1073C70.1333 255.391 70.3066 255.864 70.6273 256.167C70.948 256.47 71.3466 256.622 71.8233 256.622C72.248 256.622 72.599 256.518 72.8763 256.31C73.1623 256.102 73.3443 255.82 73.4223 255.465H75.3593C75.264 255.968 75.0603 256.418 74.7483 256.817C74.4363 257.216 74.0333 257.528 73.5393 257.753C73.054 257.978 72.5123 258.091 71.9143 258.091C71.2123 258.091 70.5883 257.944 70.0423 257.649C69.4963 257.346 69.0716 256.917 68.7683 256.362C68.465 255.807 68.3133 255.153 68.3133 254.399C68.3133 253.645 68.465 252.991 68.7683 252.436C69.0716 251.873 69.4963 251.444 70.0423 251.149C70.5883 250.854 71.2123 250.707 71.9143 250.707C72.625 250.707 73.2446 250.854 73.7733 251.149C74.3106 251.444 74.7223 251.851 75.0083 252.371C75.303 252.882 75.4503 253.467 75.4503 254.126ZM73.6043 253.944C73.6303 253.355 73.4743 252.908 73.1363 252.605C72.807 252.302 72.3996 252.15 71.9143 252.15C71.4203 252.15 71.0043 252.302 70.6663 252.605C70.3283 252.908 70.142 253.355 70.1073 253.944H73.6043ZM80.0885 250.707C81.0159 250.707 81.7872 250.958 82.4025 251.461C83.0265 251.964 83.4165 252.648 83.5725 253.515H81.6355C81.5575 253.134 81.3799 252.835 81.1025 252.618C80.8252 252.393 80.4742 252.28 80.0495 252.28C79.5642 252.28 79.1569 252.462 78.8275 252.826C78.5069 253.181 78.3465 253.706 78.3465 254.399C78.3465 255.092 78.5069 255.621 78.8275 255.985C79.1569 256.34 79.5642 256.518 80.0495 256.518C80.4742 256.518 80.8252 256.41 81.1025 256.193C81.3799 255.968 81.5575 255.664 81.6355 255.283H83.5725C83.4165 256.15 83.0265 256.834 82.4025 257.337C81.7872 257.84 81.0159 258.091 80.0885 258.091C79.3865 258.091 78.7625 257.944 78.2165 257.649C77.6705 257.346 77.2459 256.917 76.9425 256.362C76.6392 255.807 76.4875 255.153 76.4875 254.399C76.4875 253.645 76.6392 252.991 76.9425 252.436C77.2459 251.873 77.6705 251.444 78.2165 251.149C78.7625 250.854 79.3865 250.707 80.0885 250.707ZM88.823 256.427V258H87.861C87.055 258 86.4353 257.805 86.002 257.415C85.5773 257.025 85.365 256.375 85.365 255.465V252.345H84.364V250.798H85.365V249.017H87.198V250.798H88.81V252.345H87.198V255.491C87.198 255.838 87.2673 256.08 87.406 256.219C87.5446 256.358 87.7786 256.427 88.108 256.427H88.823ZM97.015 254.126C97.015 254.308 96.9933 254.516 96.95 254.75H91.672C91.698 255.391 91.8713 255.864 92.192 256.167C92.5126 256.47 92.9113 256.622 93.388 256.622C93.8126 256.622 94.1636 256.518 94.441 256.31C94.727 256.102 94.909 255.82 94.987 255.465H96.924C96.8286 255.968 96.625 256.418 96.313 256.817C96.001 257.216 95.598 257.528 95.104 257.753C94.6186 257.978 94.077 258.091 93.479 258.091C92.777 258.091 92.153 257.944 91.607 257.649C91.061 257.346 90.6363 256.917 90.333 256.362C90.0296 255.807 89.878 255.153 89.878 254.399C89.878 253.645 90.0296 252.991 90.333 252.436C90.6363 251.873 91.061 251.444 91.607 251.149C92.153 250.854 92.777 250.707 93.479 250.707C94.1896 250.707 94.8093 250.854 95.338 251.149C95.8753 251.444 96.287 251.851 96.573 252.371C96.8676 252.882 97.015 253.467 97.015 254.126ZM95.169 253.944C95.195 253.355 95.039 252.908 94.701 252.605C94.3716 252.302 93.9643 252.15 93.479 252.15C92.985 252.15 92.569 252.302 92.231 252.605C91.893 252.908 91.7066 253.355 91.672 253.944H95.169ZM101.237 250.707C101.844 250.707 102.36 250.85 102.784 251.136C103.218 251.422 103.53 251.808 103.72 252.293V248.38H105.54V258H103.72V256.492C103.53 256.977 103.218 257.367 102.784 257.662C102.36 257.948 101.844 258.091 101.237 258.091C100.631 258.091 100.085 257.944 99.5992 257.649C99.1138 257.354 98.7325 256.93 98.4552 256.375C98.1865 255.812 98.0522 255.153 98.0522 254.399C98.0522 253.645 98.1865 252.991 98.4552 252.436C98.7325 251.873 99.1138 251.444 99.5992 251.149C100.085 250.854 100.631 250.707 101.237 250.707ZM101.809 252.306C101.237 252.306 100.778 252.492 100.431 252.865C100.085 253.238 99.9112 253.749 99.9112 254.399C99.9112 255.049 100.085 255.56 100.431 255.933C100.778 256.297 101.237 256.479 101.809 256.479C102.364 256.479 102.819 256.293 103.174 255.92C103.538 255.539 103.72 255.032 103.72 254.399C103.72 253.758 103.538 253.251 103.174 252.878C102.819 252.497 102.364 252.306 101.809 252.306Z" fill="#109CF1"/>
</g>
<path d="M228 259.833C228 260.75 228.75 261.5 229.667 261.5H236.333C237.25 261.5 238 260.75 238 259.833V249.833H228V259.833ZM238.833 247.333H235.917L235.083 246.5H230.917L230.083 247.333H227.167V249H238.833V247.333Z" fill="#C2CFE0"/>
<path d="M105.136 60.763C104.705 59.4614 103.318 58.7536 102.023 59.1646C100.727 59.5984 100.023 60.9914 100.432 62.2929L106.818 82.0221C107.25 83.2323 108.568 83.9173 109.818 83.552C111.136 83.1638 111.932 81.7709 111.5 80.4921C111.5 80.4465 105.136 60.763 105.136 60.763Z" fill="#ECB32D"/>
<path d="M95.2502 63.9827C94.8183 62.6812 93.432 61.9733 92.1365 62.3843C90.8411 62.8182 90.1365 64.2111 90.5456 65.5127L96.932 85.2418C97.3638 86.452 98.682 87.1371 99.932 86.7717C101.25 86.3835 102.046 84.9906 101.614 83.7119C101.614 83.6662 95.2502 63.9827 95.2502 63.9827Z" fill="#63C1A0"/>
<path d="M113.182 77.0896C114.477 76.6557 115.182 75.2628 114.773 73.9612C114.341 72.6597 112.955 71.9518 111.659 72.3628L92.0002 78.8022C90.7956 79.2361 90.1138 80.5605 90.4774 81.8164C90.8638 83.1408 92.2502 83.94 93.5229 83.5061C93.5684 83.5061 113.182 77.0896 113.182 77.0896Z" fill="#E01A59"/>
<path d="M96.0911 82.6844C97.3638 82.2734 99.0229 81.7254 100.796 81.1545C100.387 79.8758 99.8411 78.2088 99.2729 76.4277L94.5684 77.9577L96.0911 82.6844Z" fill="#331433"/>
<path d="M106 79.4413C107.773 78.8704 109.432 78.3224 110.705 77.9113C110.295 76.6326 109.75 74.9657 109.182 73.1846L104.477 74.7145L106 79.4413Z" fill="#D62027"/>
<path d="M109.955 67.157C111.25 66.7231 111.955 65.3302 111.546 64.0286C111.114 62.7271 109.727 62.0192 108.432 62.4302L88.7956 68.8467C87.591 69.2806 86.9092 70.605 87.2729 71.8609C87.6592 73.1853 89.0456 73.9845 90.3183 73.5507C90.3638 73.5507 109.955 67.157 109.955 67.157Z" fill="#89D3DF"/>
<path d="M92.8865 72.7284C94.1592 72.3173 95.8183 71.7693 97.591 71.1985C97.0229 69.4174 96.4774 67.7504 96.0683 66.4717L91.3638 68.0016L92.8865 72.7284Z" fill="#258B74"/>
<path d="M102.773 69.5086C104.545 68.9378 106.205 68.3897 107.477 67.9787C106.909 66.1976 106.364 64.5307 105.955 63.252L101.25 64.7819L102.773 69.5086Z" fill="#819C3C"/>
<path d="M133.091 65.9462C133.954 66.3344 134.023 66.6084 133.341 67.91C132.636 69.2344 132.477 69.3257 131.614 68.9832C130.545 68.5265 129.159 68.184 128.273 68.184C126.818 68.184 125.864 68.7092 125.864 69.5084C125.864 72.1344 134.182 70.7186 134.182 76.2903C134.182 79.0989 131.773 80.9714 128.182 80.9714C126.295 80.9714 123.954 80.332 122.341 79.51C121.545 79.0989 121.477 78.8706 122.182 77.5234C122.773 76.3588 122.977 76.2218 123.841 76.5871C125.204 77.1808 126.954 77.6604 128.114 77.6604C129.432 77.6604 130.318 77.1123 130.318 76.336C130.318 73.8013 121.841 75.0115 121.841 69.5997C121.841 66.7226 124.227 64.8045 127.795 64.8045C129.523 64.7816 131.636 65.284 133.091 65.9462Z" fill="#2D333A"/>
<path d="M139.818 59.3243V80.1495C139.818 80.4691 139.477 80.7888 139.023 80.7888H136.841C136.364 80.7888 136.045 80.4463 136.045 80.1495V59.3243C136.045 58.2967 136.341 58.2054 137.932 58.2054C139.75 58.1825 139.818 58.3195 139.818 59.3243Z" fill="#2D333A"/>
<path d="M155.318 71.0161V79.9901C155.318 80.4696 154.977 80.7893 154.523 80.7893H152.364C151.864 80.7893 151.523 80.424 151.568 79.9216L151.591 78.9625C150.432 80.2641 148.75 80.9492 147.068 80.9492C143.818 80.9492 141.636 79.0539 141.636 76.2452C141.636 73.2539 144.091 71.2216 147.795 71.2216C149.204 71.2216 150.477 71.4728 151.523 71.9066V70.8791C151.523 69.235 150.227 68.2531 148.023 68.2531C147 68.2531 145.727 68.6641 144.727 69.2578C143.954 69.6917 143.773 69.6688 142.932 68.4129C142.114 67.157 142.136 66.9287 142.932 66.4035C144.454 65.4216 146.5 64.7822 148.386 64.7822C152.636 64.7822 155.318 67.0885 155.318 71.0161ZM145.273 76.2224C145.273 77.2956 146.182 78.0035 147.523 78.0035C149.159 78.0035 150.659 77.2043 151.523 75.857V74.4641C150.659 74.1216 149.591 73.9389 148.659 73.9389C146.614 73.9389 145.273 74.898 145.273 76.2224Z" fill="#2D333A"/>
<path d="M170.091 65.9696C170.886 66.4263 170.909 66.6775 170.045 68.0247C169.227 69.3035 169.091 69.372 168.204 68.9381C167.545 68.5956 166.477 68.2988 165.614 68.2988C162.886 68.2988 161.068 70.1027 161.068 72.8429C161.068 75.6744 162.886 77.5925 165.614 77.5925C166.568 77.5925 167.75 77.2271 168.523 76.7933C169.318 76.3366 169.477 76.3594 170.318 77.5925C171.068 78.7342 171.068 79.0082 170.386 79.4877C169.159 80.3326 167.25 80.972 165.545 80.972C160.5 80.972 157.114 77.7295 157.114 72.8429C157.114 68.0019 160.5 64.7822 165.591 64.7822C167.136 64.7822 168.954 65.3074 170.091 65.9696Z" fill="#2D333A"/>
<path d="M186.591 78.8248C187.227 79.624 186.977 79.9208 185.386 80.4917C183.773 81.0854 183.546 81.0397 182.977 80.309L178.455 74.2578L176.432 76.2216V80.1492C176.432 80.4689 176.091 80.7885 175.636 80.7885H173.455C172.977 80.7885 172.659 80.446 172.659 80.1492V59.324C172.659 58.2964 172.955 58.2051 174.546 58.2051C176.386 58.2051 176.432 58.3421 176.432 59.324V71.1523L182.614 65.1925C183.296 64.5531 183.682 64.5988 184.886 65.398C186.227 66.2657 186.318 66.5169 185.682 67.1334L181.091 71.6547L186.591 78.8248Z" fill="#2D333A"/>
<defs>
<filter id="filter0_d_118_586" x="0" y="0" width="275" height="296" filterUnits="userSpaceOnUse" color-interpolation-filters="sRGB">
<feFlood flood-opacity="0" result="BackgroundImageFix"/>
<feColorMatrix in="SourceAlpha" type="matrix" values="0 0 0 0 0 0 0 0 0 0 0 0 0 0 0 0 0 0 127 0" result="hardAlpha"/>
<feOffset/>
<feGaussianBlur stdDeviation="8"/>
<feColorMatrix type="matrix" values="0 0 0 0 0 0 0 0 0 0 0 0 0 0 0 0 0 0 0.14 0"/>
<feBlend mode="normal" in2="BackgroundImageFix" result="effect1_dropShadow_118_586"/>
<feBlend mode="normal" in="SourceGraphic" in2="effect1_dropShadow_118_586" result="shape"/>
</filter>
</defs>
</svg>
