<svg width="263" height="284" viewBox="0 0 263 284" fill="none" xmlns="http://www.w3.org/2000/svg">
<g filter="url(#filter0_d_118_585)">
<rect x="10" y="8" width="243" height="264" rx="4" fill="white"/>
</g>
<path opacity="0.5" d="M30.62 160.456C31.652 160.456 32.504 160.712 33.176 161.224C33.848 161.728 34.312 162.42 34.568 163.3H33.416C33.2 162.74 32.852 162.296 32.372 161.968C31.892 161.632 31.304 161.464 30.608 161.464C30.056 161.464 29.56 161.6 29.12 161.872C28.688 162.136 28.344 162.52 28.088 163.024C27.84 163.52 27.716 164.104 27.716 164.776C27.716 165.44 27.84 166.02 28.088 166.516C28.344 167.012 28.688 167.396 29.12 167.668C29.56 167.932 30.056 168.064 30.608 168.064C31.304 168.064 31.892 167.9 32.372 167.572C32.852 167.236 33.2 166.788 33.416 166.228H34.568C34.312 167.108 33.848 167.804 33.176 168.316C32.504 168.82 31.652 169.072 30.62 169.072C29.828 169.072 29.128 168.892 28.52 168.532C27.912 168.164 27.436 167.656 27.092 167.008C26.756 166.352 26.588 165.608 26.588 164.776C26.588 163.936 26.756 163.188 27.092 162.532C27.436 161.876 27.912 161.368 28.52 161.008C29.128 160.64 29.828 160.456 30.62 160.456ZM39.1163 162.328C39.7483 162.328 40.3123 162.464 40.8083 162.736C41.3123 163.008 41.7043 163.4 41.9843 163.912C42.2723 164.424 42.4163 165.024 42.4163 165.712C42.4163 166.4 42.2723 167 41.9843 167.512C41.7043 168.016 41.3123 168.404 40.8083 168.676C40.3123 168.948 39.7483 169.084 39.1163 169.084C38.4843 169.084 37.9163 168.948 37.4123 168.676C36.9163 168.404 36.5243 168.016 36.2363 167.512C35.9483 167 35.8043 166.4 35.8043 165.712C35.8043 165.024 35.9483 164.424 36.2363 163.912C36.5243 163.4 36.9163 163.008 37.4123 162.736C37.9163 162.464 38.4843 162.328 39.1163 162.328ZM39.1163 163.288C38.7243 163.288 38.3603 163.376 38.0243 163.552C37.6963 163.728 37.4283 164 37.2203 164.368C37.0203 164.728 36.9203 165.176 36.9203 165.712C36.9203 166.24 37.0203 166.688 37.2203 167.056C37.4283 167.416 37.6963 167.684 38.0243 167.86C38.3603 168.036 38.7243 168.124 39.1163 168.124C39.5083 168.124 39.8683 168.036 40.1963 167.86C40.5323 167.684 40.8003 167.416 41.0003 167.056C41.2083 166.688 41.3123 166.24 41.3123 165.712C41.3123 165.176 41.2083 164.728 41.0003 164.368C40.8003 164 40.5323 163.728 40.1963 163.552C39.8683 163.376 39.5083 163.288 39.1163 163.288ZM47.4073 162.304C48.1753 162.304 48.7953 162.552 49.2673 163.048C49.7393 163.536 49.9753 164.244 49.9753 165.172V169H48.8833V165.268C48.8833 164.612 48.7153 164.108 48.3793 163.756C48.0433 163.404 47.5873 163.228 47.0113 163.228C46.4113 163.228 45.9313 163.424 45.5713 163.816C45.2113 164.2 45.0313 164.764 45.0313 165.508V169H43.9393V162.412H45.0313V163.972C45.1993 163.436 45.4953 163.024 45.9193 162.736C46.3513 162.448 46.8473 162.304 47.4073 162.304ZM55.2182 162.304C55.9862 162.304 56.6062 162.552 57.0782 163.048C57.5502 163.536 57.7862 164.244 57.7862 165.172V169H56.6942V165.268C56.6942 164.612 56.5262 164.108 56.1902 163.756C55.8542 163.404 55.3982 163.228 54.8222 163.228C54.2222 163.228 53.7422 163.424 53.3822 163.816C53.0222 164.2 52.8422 164.764 52.8422 165.508V169H51.7502V162.412H52.8422V163.972C53.0102 163.436 53.3062 163.024 53.7302 162.736C54.1622 162.448 54.6582 162.304 55.2182 162.304ZM65.6212 165.34C65.6212 165.572 65.6052 165.772 65.5732 165.94H60.3052C60.3292 166.692 60.5412 167.256 60.9412 167.632C61.3492 168.008 61.8452 168.196 62.4292 168.196C62.9572 168.196 63.3972 168.064 63.7492 167.8C64.1092 167.528 64.3292 167.168 64.4092 166.72H65.5732C65.4932 167.176 65.3132 167.584 65.0332 167.944C64.7612 168.304 64.4052 168.584 63.9652 168.784C63.5252 168.984 63.0292 169.084 62.4772 169.084C61.8452 169.084 61.2852 168.948 60.7972 168.676C60.3092 168.404 59.9252 168.016 59.6452 167.512C59.3732 167 59.2372 166.4 59.2372 165.712C59.2372 165.024 59.3732 164.424 59.6452 163.912C59.9252 163.4 60.3092 163.008 60.7972 162.736C61.2852 162.464 61.8452 162.328 62.4772 162.328C63.1172 162.328 63.6732 162.464 64.1452 162.736C64.6252 163.008 64.9892 163.372 65.2372 163.828C65.4932 164.284 65.6212 164.788 65.6212 165.34ZM64.5172 165.412C64.5412 164.924 64.4612 164.516 64.2772 164.188C64.0932 163.86 63.8412 163.616 63.5212 163.456C63.2012 163.296 62.8532 163.216 62.4772 163.216C61.8772 163.216 61.3732 163.404 60.9652 163.78C60.5572 164.148 60.3372 164.692 60.3052 165.412H64.5172ZM70.0654 162.328C70.9054 162.328 71.6014 162.552 72.1534 163C72.7054 163.448 73.0454 164.048 73.1734 164.8H72.0214C71.9414 164.328 71.7214 163.96 71.3614 163.696C71.0094 163.424 70.5694 163.288 70.0414 163.288C69.6574 163.288 69.3054 163.376 68.9854 163.552C68.6734 163.728 68.4214 164 68.2294 164.368C68.0374 164.728 67.9414 165.176 67.9414 165.712C67.9414 166.248 68.0374 166.7 68.2294 167.068C68.4214 167.428 68.6734 167.696 68.9854 167.872C69.3054 168.048 69.6574 168.136 70.0414 168.136C70.5694 168.136 71.0094 168 71.3614 167.728C71.7214 167.456 71.9414 167.084 72.0214 166.612H73.1734C73.0454 167.372 72.7054 167.976 72.1534 168.424C71.6014 168.864 70.9054 169.084 70.0654 169.084C69.4334 169.084 68.8734 168.948 68.3854 168.676C67.8974 168.404 67.5134 168.016 67.2334 167.512C66.9614 167 66.8254 166.4 66.8254 165.712C66.8254 165.024 66.9614 164.424 67.2334 163.912C67.5134 163.4 67.8974 163.008 68.3854 162.736C68.8734 162.464 69.4334 162.328 70.0654 162.328ZM77.8466 168.04V169H77.0306C76.3586 169 75.8546 168.84 75.5186 168.52C75.1906 168.2 75.0266 167.664 75.0266 166.912V163.36H74.0426V162.412H75.0266V160.768H76.1306V162.412H77.8346V163.36H76.1306V166.936C76.1306 167.36 76.2066 167.652 76.3586 167.812C76.5186 167.964 76.7906 168.04 77.1746 168.04H77.8466ZM82.8 162.412L84.936 167.596L86.916 162.412H88.128L84.216 172.12H82.98L84.348 168.892L81.576 162.412H82.8ZM92.2171 162.328C92.8491 162.328 93.4131 162.464 93.9091 162.736C94.4131 163.008 94.8051 163.4 95.0851 163.912C95.3731 164.424 95.5171 165.024 95.5171 165.712C95.5171 166.4 95.3731 167 95.0851 167.512C94.8051 168.016 94.4131 168.404 93.9091 168.676C93.4131 168.948 92.8491 169.084 92.2171 169.084C91.5851 169.084 91.0171 168.948 90.5131 168.676C90.0171 168.404 89.6251 168.016 89.3371 167.512C89.0491 167 88.9051 166.4 88.9051 165.712C88.9051 165.024 89.0491 164.424 89.3371 163.912C89.6251 163.4 90.0171 163.008 90.5131 162.736C91.0171 162.464 91.5851 162.328 92.2171 162.328ZM92.2171 163.288C91.8251 163.288 91.4611 163.376 91.1251 163.552C90.7971 163.728 90.5291 164 90.3211 164.368C90.1211 164.728 90.0211 165.176 90.0211 165.712C90.0211 166.24 90.1211 166.688 90.3211 167.056C90.5291 167.416 90.7971 167.684 91.1251 167.86C91.4611 168.036 91.8251 168.124 92.2171 168.124C92.6091 168.124 92.9691 168.036 93.2971 167.86C93.6331 167.684 93.9011 167.416 94.1011 167.056C94.3091 166.688 94.4131 166.24 94.4131 165.712C94.4131 165.176 94.3091 164.728 94.1011 164.368C93.9011 164 93.6331 163.728 93.2971 163.552C92.9691 163.376 92.6091 163.288 92.2171 163.288ZM102.896 162.412V169H101.804V167.452C101.636 167.988 101.336 168.4 100.904 168.688C100.48 168.968 99.9841 169.108 99.4161 169.108C98.6561 169.108 98.0401 168.864 97.5681 168.376C97.0961 167.88 96.8601 167.172 96.8601 166.252V162.412H97.9521V166.144C97.9521 166.8 98.1201 167.308 98.4561 167.668C98.7921 168.02 99.2481 168.196 99.8241 168.196C100.424 168.196 100.904 168.004 101.264 167.62C101.624 167.228 101.804 166.66 101.804 165.916V162.412H102.896ZM105.838 163.744C106.054 163.288 106.37 162.936 106.786 162.688C107.202 162.432 107.698 162.304 108.274 162.304V163.492H107.938C107.322 163.492 106.818 163.652 106.426 163.972C106.034 164.284 105.838 164.804 105.838 165.532V169H104.746V162.412H105.838V163.744ZM113.608 160.12V169H112.516V160.12H113.608ZM121.524 165.34C121.524 165.572 121.508 165.772 121.476 165.94H116.208C116.232 166.692 116.444 167.256 116.844 167.632C117.252 168.008 117.748 168.196 118.332 168.196C118.86 168.196 119.3 168.064 119.652 167.8C120.012 167.528 120.232 167.168 120.312 166.72H121.476C121.396 167.176 121.216 167.584 120.936 167.944C120.664 168.304 120.308 168.584 119.868 168.784C119.428 168.984 118.932 169.084 118.38 169.084C117.748 169.084 117.188 168.948 116.7 168.676C116.212 168.404 115.828 168.016 115.548 167.512C115.276 167 115.14 166.4 115.14 165.712C115.14 165.024 115.276 164.424 115.548 163.912C115.828 163.4 116.212 163.008 116.7 162.736C117.188 162.464 117.748 162.328 118.38 162.328C119.02 162.328 119.576 162.464 120.048 162.736C120.528 163.008 120.892 163.372 121.14 163.828C121.396 164.284 121.524 164.788 121.524 165.34ZM120.42 165.412C120.444 164.924 120.364 164.516 120.18 164.188C119.996 163.86 119.744 163.616 119.424 163.456C119.104 163.296 118.756 163.216 118.38 163.216C117.78 163.216 117.276 163.404 116.868 163.78C116.46 164.148 116.24 164.692 116.208 165.412H120.42ZM125.752 162.328C126.392 162.328 126.932 162.488 127.372 162.808C127.82 163.128 128.132 163.556 128.308 164.092V162.412H129.4V169H128.308V167.32C128.132 167.856 127.82 168.284 127.372 168.604C126.932 168.924 126.392 169.084 125.752 169.084C125.168 169.084 124.648 168.948 124.192 168.676C123.736 168.404 123.376 168.016 123.112 167.512C122.856 167 122.728 166.4 122.728 165.712C122.728 165.024 122.856 164.424 123.112 163.912C123.376 163.4 123.736 163.008 124.192 162.736C124.648 162.464 125.168 162.328 125.752 162.328ZM126.064 163.3C125.392 163.3 124.852 163.516 124.444 163.948C124.044 164.372 123.844 164.96 123.844 165.712C123.844 166.464 124.044 167.056 124.444 167.488C124.852 167.912 125.392 168.124 126.064 168.124C126.496 168.124 126.88 168.024 127.216 167.824C127.56 167.624 127.828 167.344 128.02 166.984C128.212 166.616 128.308 166.192 128.308 165.712C128.308 165.232 128.212 164.808 128.02 164.44C127.828 164.072 127.56 163.792 127.216 163.6C126.88 163.4 126.496 163.3 126.064 163.3ZM133.938 162.328C134.578 162.328 135.118 162.488 135.558 162.808C136.006 163.128 136.318 163.556 136.494 164.092V160.12H137.586V169H136.494V167.32C136.318 167.856 136.006 168.284 135.558 168.604C135.118 168.924 134.578 169.084 133.938 169.084C133.354 169.084 132.834 168.948 132.378 168.676C131.922 168.404 131.562 168.016 131.298 167.512C131.042 167 130.914 166.4 130.914 165.712C130.914 165.024 131.042 164.424 131.298 163.912C131.562 163.4 131.922 163.008 132.378 162.736C132.834 162.464 133.354 162.328 133.938 162.328ZM134.25 163.3C133.578 163.3 133.038 163.516 132.63 163.948C132.23 164.372 132.03 164.96 132.03 165.712C132.03 166.464 132.23 167.056 132.63 167.488C133.038 167.912 133.578 168.124 134.25 168.124C134.682 168.124 135.066 168.024 135.402 167.824C135.746 167.624 136.014 167.344 136.206 166.984C136.398 166.616 136.494 166.192 136.494 165.712C136.494 165.232 136.398 164.808 136.206 164.44C136.014 164.072 135.746 163.792 135.402 163.6C135.066 163.4 134.682 163.3 134.25 163.3ZM145.405 160.852C144.821 160.844 144.413 160.944 144.181 161.152C143.957 161.36 143.845 161.72 143.845 162.232V162.412H145.405V163.372H143.845V169H142.753V163.372H141.805V162.412H142.753V162.148C142.753 160.572 143.637 159.82 145.405 159.892V160.852ZM147.782 160.12V169H146.69V160.12H147.782ZM152.626 162.328C153.258 162.328 153.822 162.464 154.318 162.736C154.822 163.008 155.214 163.4 155.494 163.912C155.782 164.424 155.926 165.024 155.926 165.712C155.926 166.4 155.782 167 155.494 167.512C155.214 168.016 154.822 168.404 154.318 168.676C153.822 168.948 153.258 169.084 152.626 169.084C151.994 169.084 151.426 168.948 150.922 168.676C150.426 168.404 150.034 168.016 149.746 167.512C149.458 167 149.314 166.4 149.314 165.712C149.314 165.024 149.458 164.424 149.746 163.912C150.034 163.4 150.426 163.008 150.922 162.736C151.426 162.464 151.994 162.328 152.626 162.328ZM152.626 163.288C152.234 163.288 151.87 163.376 151.534 163.552C151.206 163.728 150.938 164 150.73 164.368C150.53 164.728 150.43 165.176 150.43 165.712C150.43 166.24 150.53 166.688 150.73 167.056C150.938 167.416 151.206 167.684 151.534 167.86C151.87 168.036 152.234 168.124 152.626 168.124C153.018 168.124 153.378 168.036 153.706 167.86C154.042 167.684 154.31 167.416 154.51 167.056C154.718 166.688 154.822 166.24 154.822 165.712C154.822 165.176 154.718 164.728 154.51 164.368C154.31 164 154.042 163.728 153.706 163.552C153.378 163.376 153.018 163.288 152.626 163.288ZM166.497 162.412L164.601 169H163.425L161.613 163.636L159.789 169H158.601L156.729 162.412H157.833L159.237 167.956L161.061 162.412H162.201L164.037 167.944L165.453 162.412H166.497ZM169.679 162.328C170.423 162.328 171.019 162.524 171.467 162.916C171.923 163.3 172.199 163.82 172.295 164.476H171.251C171.203 164.084 171.039 163.764 170.759 163.516C170.487 163.26 170.119 163.132 169.655 163.132C169.263 163.132 168.955 163.228 168.731 163.42C168.515 163.604 168.407 163.856 168.407 164.176C168.407 164.416 168.479 164.612 168.623 164.764C168.775 164.908 168.959 165.02 169.175 165.1C169.399 165.172 169.703 165.252 170.087 165.34C170.575 165.452 170.967 165.568 171.263 165.688C171.567 165.8 171.823 165.984 172.031 166.24C172.247 166.496 172.355 166.84 172.355 167.272C172.355 167.808 172.151 168.244 171.743 168.58C171.343 168.916 170.807 169.084 170.135 169.084C169.351 169.084 168.711 168.896 168.215 168.52C167.719 168.144 167.427 167.62 167.339 166.948H168.395C168.435 167.348 168.607 167.672 168.911 167.92C169.223 168.168 169.631 168.292 170.135 168.292C170.511 168.292 170.803 168.196 171.011 168.004C171.227 167.812 171.335 167.56 171.335 167.248C171.335 166.992 171.259 166.788 171.107 166.636C170.955 166.484 170.767 166.368 170.543 166.288C170.319 166.208 170.011 166.124 169.619 166.036C169.131 165.924 168.739 165.812 168.443 165.7C168.155 165.588 167.907 165.412 167.699 165.172C167.499 164.924 167.399 164.592 167.399 164.176C167.399 163.624 167.603 163.18 168.011 162.844C168.419 162.5 168.975 162.328 169.679 162.328ZM179.679 162.328C180.319 162.328 180.859 162.488 181.299 162.808C181.747 163.128 182.059 163.556 182.235 164.092V162.412H183.327V169H182.235V167.32C182.059 167.856 181.747 168.284 181.299 168.604C180.859 168.924 180.319 169.084 179.679 169.084C179.095 169.084 178.575 168.948 178.119 168.676C177.663 168.404 177.303 168.016 177.039 167.512C176.783 167 176.655 166.4 176.655 165.712C176.655 165.024 176.783 164.424 177.039 163.912C177.303 163.4 177.663 163.008 178.119 162.736C178.575 162.464 179.095 162.328 179.679 162.328ZM179.991 163.3C179.319 163.3 178.779 163.516 178.371 163.948C177.971 164.372 177.771 164.96 177.771 165.712C177.771 166.464 177.971 167.056 178.371 167.488C178.779 167.912 179.319 168.124 179.991 168.124C180.423 168.124 180.807 168.024 181.143 167.824C181.487 167.624 181.755 167.344 181.947 166.984C182.139 166.616 182.235 166.192 182.235 165.712C182.235 165.232 182.139 164.808 181.947 164.44C181.755 164.072 181.487 163.792 181.143 163.6C180.807 163.4 180.423 163.3 179.991 163.3ZM188.633 162.304C189.401 162.304 190.021 162.552 190.493 163.048C190.965 163.536 191.201 164.244 191.201 165.172V169H190.109V165.268C190.109 164.612 189.941 164.108 189.605 163.756C189.269 163.404 188.813 163.228 188.237 163.228C187.637 163.228 187.157 163.424 186.797 163.816C186.437 164.2 186.257 164.764 186.257 165.508V169H185.165V162.412H186.257V163.972C186.425 163.436 186.721 163.024 187.145 162.736C187.577 162.448 188.073 162.304 188.633 162.304ZM195.676 162.328C196.316 162.328 196.856 162.488 197.296 162.808C197.744 163.128 198.056 163.556 198.232 164.092V160.12H199.324V169H198.232V167.32C198.056 167.856 197.744 168.284 197.296 168.604C196.856 168.924 196.316 169.084 195.676 169.084C195.092 169.084 194.572 168.948 194.116 168.676C193.66 168.404 193.3 168.016 193.036 167.512C192.78 167 192.652 166.4 192.652 165.712C192.652 165.024 192.78 164.424 193.036 163.912C193.3 163.4 193.66 163.008 194.116 162.736C194.572 162.464 195.092 162.328 195.676 162.328ZM195.988 163.3C195.316 163.3 194.776 163.516 194.368 163.948C193.968 164.372 193.768 164.96 193.768 165.712C193.768 166.464 193.968 167.056 194.368 167.488C194.776 167.912 195.316 168.124 195.988 168.124C196.42 168.124 196.804 168.024 197.14 167.824C197.484 167.624 197.752 167.344 197.944 166.984C198.136 166.616 198.232 166.192 198.232 165.712C198.232 165.232 198.136 164.808 197.944 164.44C197.752 164.072 197.484 163.792 197.14 163.6C196.804 163.4 196.42 163.3 195.988 163.3ZM29.792 180.328C30.632 180.328 31.328 180.552 31.88 181C32.432 181.448 32.772 182.048 32.9 182.8H31.748C31.668 182.328 31.448 181.96 31.088 181.696C30.736 181.424 30.296 181.288 29.768 181.288C29.384 181.288 29.032 181.376 28.712 181.552C28.4 181.728 28.148 182 27.956 182.368C27.764 182.728 27.668 183.176 27.668 183.712C27.668 184.248 27.764 184.7 27.956 185.068C28.148 185.428 28.4 185.696 28.712 185.872C29.032 186.048 29.384 186.136 29.768 186.136C30.296 186.136 30.736 186 31.088 185.728C31.448 185.456 31.668 185.084 31.748 184.612H32.9C32.772 185.372 32.432 185.976 31.88 186.424C31.328 186.864 30.632 187.084 29.792 187.084C29.16 187.084 28.6 186.948 28.112 186.676C27.624 186.404 27.24 186.016 26.96 185.512C26.688 185 26.552 184.4 26.552 183.712C26.552 183.024 26.688 182.424 26.96 181.912C27.24 181.4 27.624 181.008 28.112 180.736C28.6 180.464 29.16 180.328 29.792 180.328ZM37.4171 180.328C38.0491 180.328 38.6131 180.464 39.1091 180.736C39.6131 181.008 40.0051 181.4 40.2851 181.912C40.5731 182.424 40.7171 183.024 40.7171 183.712C40.7171 184.4 40.5731 185 40.2851 185.512C40.0051 186.016 39.6131 186.404 39.1091 186.676C38.6131 186.948 38.0491 187.084 37.4171 187.084C36.7851 187.084 36.2171 186.948 35.7131 186.676C35.2171 186.404 34.8251 186.016 34.5371 185.512C34.2491 185 34.1051 184.4 34.1051 183.712C34.1051 183.024 34.2491 182.424 34.5371 181.912C34.8251 181.4 35.2171 181.008 35.7131 180.736C36.2171 180.464 36.7851 180.328 37.4171 180.328ZM37.4171 181.288C37.0251 181.288 36.6611 181.376 36.3251 181.552C35.9971 181.728 35.7291 182 35.5211 182.368C35.3211 182.728 35.2211 183.176 35.2211 183.712C35.2211 184.24 35.3211 184.688 35.5211 185.056C35.7291 185.416 35.9971 185.684 36.3251 185.86C36.6611 186.036 37.0251 186.124 37.4171 186.124C37.8091 186.124 38.1691 186.036 38.4971 185.86C38.8331 185.684 39.1011 185.416 39.3011 185.056C39.5091 184.688 39.6131 184.24 39.6131 183.712C39.6131 183.176 39.5091 182.728 39.3011 182.368C39.1011 182 38.8331 181.728 38.4971 181.552C38.1691 181.376 37.8091 181.288 37.4171 181.288ZM43.3321 178.12V187H42.2401V178.12H43.3321ZM46.2797 178.12V187H45.1877V178.12H46.2797ZM54.1954 183.34C54.1954 183.572 54.1794 183.772 54.1474 183.94H48.8794C48.9034 184.692 49.1154 185.256 49.5154 185.632C49.9234 186.008 50.4194 186.196 51.0034 186.196C51.5314 186.196 51.9714 186.064 52.3234 185.8C52.6834 185.528 52.9034 185.168 52.9834 184.72H54.1474C54.0674 185.176 53.8874 185.584 53.6074 185.944C53.3354 186.304 52.9794 186.584 52.5394 186.784C52.0994 186.984 51.6034 187.084 51.0514 187.084C50.4194 187.084 49.8594 186.948 49.3714 186.676C48.8834 186.404 48.4994 186.016 48.2194 185.512C47.9474 185 47.8114 184.4 47.8114 183.712C47.8114 183.024 47.9474 182.424 48.2194 181.912C48.4994 181.4 48.8834 181.008 49.3714 180.736C49.8594 180.464 50.4194 180.328 51.0514 180.328C51.6914 180.328 52.2474 180.464 52.7194 180.736C53.1994 181.008 53.5634 181.372 53.8114 181.828C54.0674 182.284 54.1954 182.788 54.1954 183.34ZM53.0914 183.412C53.1154 182.924 53.0354 182.516 52.8514 182.188C52.6674 181.86 52.4154 181.616 52.0954 181.456C51.7754 181.296 51.4274 181.216 51.0514 181.216C50.4514 181.216 49.9474 181.404 49.5394 181.78C49.1314 182.148 48.9114 182.692 48.8794 183.412H53.0914ZM58.6397 180.328C59.4797 180.328 60.1757 180.552 60.7277 181C61.2797 181.448 61.6197 182.048 61.7477 182.8H60.5957C60.5157 182.328 60.2957 181.96 59.9357 181.696C59.5837 181.424 59.1437 181.288 58.6157 181.288C58.2317 181.288 57.8797 181.376 57.5597 181.552C57.2477 181.728 56.9957 182 56.8037 182.368C56.6117 182.728 56.5157 183.176 56.5157 183.712C56.5157 184.248 56.6117 184.7 56.8037 185.068C56.9957 185.428 57.2477 185.696 57.5597 185.872C57.8797 186.048 58.2317 186.136 58.6157 186.136C59.1437 186.136 59.5837 186 59.9357 185.728C60.2957 185.456 60.5157 185.084 60.5957 184.612H61.7477C61.6197 185.372 61.2797 185.976 60.7277 186.424C60.1757 186.864 59.4797 187.084 58.6397 187.084C58.0077 187.084 57.4477 186.948 56.9597 186.676C56.4717 186.404 56.0877 186.016 55.8077 185.512C55.5357 185 55.3997 184.4 55.3997 183.712C55.3997 183.024 55.5357 182.424 55.8077 181.912C56.0877 181.4 56.4717 181.008 56.9597 180.736C57.4477 180.464 58.0077 180.328 58.6397 180.328ZM66.4208 186.04V187H65.6048C64.9328 187 64.4288 186.84 64.0928 186.52C63.7648 186.2 63.6008 185.664 63.6008 184.912V181.36H62.6168V180.412H63.6008V178.768H64.7048V180.412H66.4088V181.36H64.7048V184.936C64.7048 185.36 64.7808 185.652 64.9328 185.812C65.0928 185.964 65.3648 186.04 65.7488 186.04H66.4208ZM73.9133 183.34C73.9133 183.572 73.8973 183.772 73.8653 183.94H68.5973C68.6213 184.692 68.8333 185.256 69.2333 185.632C69.6413 186.008 70.1373 186.196 70.7213 186.196C71.2493 186.196 71.6893 186.064 72.0413 185.8C72.4013 185.528 72.6213 185.168 72.7013 184.72H73.8653C73.7853 185.176 73.6053 185.584 73.3253 185.944C73.0533 186.304 72.6973 186.584 72.2573 186.784C71.8173 186.984 71.3213 187.084 70.7693 187.084C70.1373 187.084 69.5773 186.948 69.0893 186.676C68.6013 186.404 68.2173 186.016 67.9373 185.512C67.6653 185 67.5293 184.4 67.5293 183.712C67.5293 183.024 67.6653 182.424 67.9373 181.912C68.2173 181.4 68.6013 181.008 69.0893 180.736C69.5773 180.464 70.1373 180.328 70.7693 180.328C71.4093 180.328 71.9653 180.464 72.4373 180.736C72.9173 181.008 73.2813 181.372 73.5293 181.828C73.7853 182.284 73.9133 182.788 73.9133 183.34ZM72.8093 183.412C72.8333 182.924 72.7533 182.516 72.5693 182.188C72.3853 181.86 72.1333 181.616 71.8133 181.456C71.4933 181.296 71.1453 181.216 70.7693 181.216C70.1693 181.216 69.6653 181.404 69.2573 181.78C68.8493 182.148 68.6293 182.692 68.5973 183.412H72.8093ZM78.1416 180.328C78.7816 180.328 79.3216 180.488 79.7616 180.808C80.2096 181.128 80.5216 181.556 80.6976 182.092V178.12H81.7896V187H80.6976V185.32C80.5216 185.856 80.2096 186.284 79.7616 186.604C79.3216 186.924 78.7816 187.084 78.1416 187.084C77.5576 187.084 77.0376 186.948 76.5816 186.676C76.1256 186.404 75.7656 186.016 75.5016 185.512C75.2456 185 75.1176 184.4 75.1176 183.712C75.1176 183.024 75.2456 182.424 75.5016 181.912C75.7656 181.4 76.1256 181.008 76.5816 180.736C77.0376 180.464 77.5576 180.328 78.1416 180.328ZM78.4536 181.3C77.7816 181.3 77.2416 181.516 76.8336 181.948C76.4336 182.372 76.2336 182.96 76.2336 183.712C76.2336 184.464 76.4336 185.056 76.8336 185.488C77.2416 185.912 77.7816 186.124 78.4536 186.124C78.8856 186.124 79.2696 186.024 79.6056 185.824C79.9496 185.624 80.2176 185.344 80.4096 184.984C80.6016 184.616 80.6976 184.192 80.6976 183.712C80.6976 183.232 80.6016 182.808 80.4096 182.44C80.2176 182.072 79.9496 181.792 79.6056 181.6C79.2696 181.4 78.8856 181.3 78.4536 181.3ZM89.6084 178.852C89.0244 178.844 88.6164 178.944 88.3844 179.152C88.1604 179.36 88.0484 179.72 88.0484 180.232V180.412H89.6084V181.372H88.0484V187H86.9564V181.372H86.0084V180.412H86.9564V180.148C86.9564 178.572 87.8404 177.82 89.6084 177.892V178.852ZM93.882 180.328C94.514 180.328 95.078 180.464 95.574 180.736C96.078 181.008 96.47 181.4 96.75 181.912C97.038 182.424 97.182 183.024 97.182 183.712C97.182 184.4 97.038 185 96.75 185.512C96.47 186.016 96.078 186.404 95.574 186.676C95.078 186.948 94.514 187.084 93.882 187.084C93.25 187.084 92.682 186.948 92.178 186.676C91.682 186.404 91.29 186.016 91.002 185.512C90.714 185 90.57 184.4 90.57 183.712C90.57 183.024 90.714 182.424 91.002 181.912C91.29 181.4 91.682 181.008 92.178 180.736C92.682 180.464 93.25 180.328 93.882 180.328ZM93.882 181.288C93.49 181.288 93.126 181.376 92.79 181.552C92.462 181.728 92.194 182 91.986 182.368C91.786 182.728 91.686 183.176 91.686 183.712C91.686 184.24 91.786 184.688 91.986 185.056C92.194 185.416 92.462 185.684 92.79 185.86C93.126 186.036 93.49 186.124 93.882 186.124C94.274 186.124 94.634 186.036 94.962 185.86C95.298 185.684 95.566 185.416 95.766 185.056C95.974 184.688 96.078 184.24 96.078 183.712C96.078 183.176 95.974 182.728 95.766 182.368C95.566 182 95.298 181.728 94.962 181.552C94.634 181.376 94.274 181.288 93.882 181.288ZM99.7969 181.744C100.013 181.288 100.329 180.936 100.745 180.688C101.161 180.432 101.657 180.304 102.233 180.304V181.492H101.897C101.281 181.492 100.777 181.652 100.385 181.972C99.9929 182.284 99.7969 182.804 99.7969 183.532V187H98.7049V180.412H99.7969V181.744ZM111.51 180.304C112.278 180.304 112.894 180.552 113.358 181.048C113.83 181.536 114.066 182.244 114.066 183.172V187H112.974V183.268C112.974 182.62 112.814 182.124 112.494 181.78C112.182 181.436 111.75 181.264 111.198 181.264C110.622 181.264 110.158 181.456 109.806 181.84C109.462 182.216 109.29 182.772 109.29 183.508V187H108.198V183.268C108.198 182.62 108.038 182.124 107.718 181.78C107.398 181.436 106.966 181.264 106.422 181.264C105.838 181.264 105.37 181.456 105.018 181.84C104.674 182.216 104.502 182.772 104.502 183.508V187H103.41V180.412H104.502V181.912C104.662 181.392 104.946 180.996 105.354 180.724C105.77 180.444 106.246 180.304 106.782 180.304C107.342 180.304 107.826 180.448 108.234 180.736C108.65 181.016 108.946 181.432 109.122 181.984C109.306 181.448 109.614 181.036 110.046 180.748C110.478 180.452 110.966 180.304 111.51 180.304ZM117.926 180.328C118.67 180.328 119.266 180.524 119.714 180.916C120.17 181.3 120.446 181.82 120.542 182.476H119.498C119.45 182.084 119.286 181.764 119.006 181.516C118.734 181.26 118.366 181.132 117.902 181.132C117.51 181.132 117.202 181.228 116.978 181.42C116.762 181.604 116.654 181.856 116.654 182.176C116.654 182.416 116.726 182.612 116.87 182.764C117.022 182.908 117.206 183.02 117.422 183.1C117.646 183.172 117.95 183.252 118.334 183.34C118.822 183.452 119.214 183.568 119.51 183.688C119.814 183.8 120.07 183.984 120.278 184.24C120.494 184.496 120.602 184.84 120.602 185.272C120.602 185.808 120.398 186.244 119.99 186.58C119.59 186.916 119.054 187.084 118.382 187.084C117.598 187.084 116.958 186.896 116.462 186.52C115.966 186.144 115.674 185.62 115.586 184.948H116.642C116.682 185.348 116.854 185.672 117.158 185.92C117.47 186.168 117.878 186.292 118.382 186.292C118.758 186.292 119.05 186.196 119.258 186.004C119.474 185.812 119.582 185.56 119.582 185.248C119.582 184.992 119.506 184.788 119.354 184.636C119.202 184.484 119.014 184.368 118.79 184.288C118.566 184.208 118.258 184.124 117.866 184.036C117.378 183.924 116.986 183.812 116.69 183.7C116.402 183.588 116.154 183.412 115.946 183.172C115.746 182.924 115.646 182.592 115.646 182.176C115.646 181.624 115.85 181.18 116.258 180.844C116.666 180.5 117.222 180.328 117.926 180.328ZM128.37 186.04V187H127.554C126.882 187 126.378 186.84 126.042 186.52C125.714 186.2 125.55 185.664 125.55 184.912V181.36H124.566V180.412H125.55V178.768H126.654V180.412H128.358V181.36H126.654V184.936C126.654 185.36 126.73 185.652 126.882 185.812C127.042 185.964 127.314 186.04 127.698 186.04H128.37ZM132.791 180.328C133.423 180.328 133.987 180.464 134.483 180.736C134.987 181.008 135.379 181.4 135.659 181.912C135.947 182.424 136.091 183.024 136.091 183.712C136.091 184.4 135.947 185 135.659 185.512C135.379 186.016 134.987 186.404 134.483 186.676C133.987 186.948 133.423 187.084 132.791 187.084C132.159 187.084 131.591 186.948 131.087 186.676C130.591 186.404 130.199 186.016 129.911 185.512C129.623 185 129.479 184.4 129.479 183.712C129.479 183.024 129.623 182.424 129.911 181.912C130.199 181.4 130.591 181.008 131.087 180.736C131.591 180.464 132.159 180.328 132.791 180.328ZM132.791 181.288C132.399 181.288 132.035 181.376 131.699 181.552C131.371 181.728 131.103 182 130.895 182.368C130.695 182.728 130.595 183.176 130.595 183.712C130.595 184.24 130.695 184.688 130.895 185.056C131.103 185.416 131.371 185.684 131.699 185.86C132.035 186.036 132.399 186.124 132.791 186.124C133.183 186.124 133.543 186.036 133.871 185.86C134.207 185.684 134.475 185.416 134.675 185.056C134.883 184.688 134.987 184.24 134.987 183.712C134.987 183.176 134.883 182.728 134.675 182.368C134.475 182 134.207 181.728 133.871 181.552C133.543 181.376 133.183 181.288 132.791 181.288ZM141.134 180.412L143.27 185.596L145.25 180.412H146.462L142.55 190.12H141.314L142.682 186.892L139.91 180.412H141.134ZM150.552 180.328C151.184 180.328 151.748 180.464 152.244 180.736C152.748 181.008 153.14 181.4 153.42 181.912C153.708 182.424 153.852 183.024 153.852 183.712C153.852 184.4 153.708 185 153.42 185.512C153.14 186.016 152.748 186.404 152.244 186.676C151.748 186.948 151.184 187.084 150.552 187.084C149.92 187.084 149.352 186.948 148.848 186.676C148.352 186.404 147.96 186.016 147.672 185.512C147.384 185 147.24 184.4 147.24 183.712C147.24 183.024 147.384 182.424 147.672 181.912C147.96 181.4 148.352 181.008 148.848 180.736C149.352 180.464 149.92 180.328 150.552 180.328ZM150.552 181.288C150.16 181.288 149.796 181.376 149.46 181.552C149.132 181.728 148.864 182 148.656 182.368C148.456 182.728 148.356 183.176 148.356 183.712C148.356 184.24 148.456 184.688 148.656 185.056C148.864 185.416 149.132 185.684 149.46 185.86C149.796 186.036 150.16 186.124 150.552 186.124C150.944 186.124 151.304 186.036 151.632 185.86C151.968 185.684 152.236 185.416 152.436 185.056C152.644 184.688 152.747 184.24 152.747 183.712C152.747 183.176 152.644 182.728 152.436 182.368C152.236 182 151.968 181.728 151.632 181.552C151.304 181.376 150.944 181.288 150.552 181.288ZM161.23 180.412V187H160.138V185.452C159.97 185.988 159.67 186.4 159.238 186.688C158.814 186.968 158.318 187.108 157.75 187.108C156.99 187.108 156.374 186.864 155.902 186.376C155.43 185.88 155.194 185.172 155.194 184.252V180.412H156.286V184.144C156.286 184.8 156.454 185.308 156.79 185.668C157.126 186.02 157.582 186.196 158.158 186.196C158.758 186.196 159.238 186.004 159.598 185.62C159.958 185.228 160.138 184.66 160.138 183.916V180.412H161.23ZM164.172 181.744C164.388 181.288 164.704 180.936 165.12 180.688C165.536 180.432 166.032 180.304 166.608 180.304V181.492H166.272C165.656 181.492 165.152 181.652 164.76 181.972C164.368 182.284 164.172 182.804 164.172 183.532V187H163.08V180.412H164.172V181.744ZM179.322 178.684V187H178.23V180.364L175.578 187H174.606L171.942 180.388V187H170.85V178.684H172.158L175.11 185.668L178.014 178.684H179.322ZM183.869 180.328C184.509 180.328 185.049 180.488 185.489 180.808C185.937 181.128 186.249 181.556 186.425 182.092V180.412H187.517V187H186.425V185.32C186.249 185.856 185.937 186.284 185.489 186.604C185.049 186.924 184.509 187.084 183.869 187.084C183.285 187.084 182.765 186.948 182.309 186.676C181.853 186.404 181.493 186.016 181.229 185.512C180.973 185 180.845 184.4 180.845 183.712C180.845 183.024 180.973 182.424 181.229 181.912C181.493 181.4 181.853 181.008 182.309 180.736C182.765 180.464 183.285 180.328 183.869 180.328ZM184.181 181.3C183.509 181.3 182.969 181.516 182.561 181.948C182.161 182.372 181.961 182.96 181.961 183.712C181.961 184.464 182.161 185.056 182.561 185.488C182.969 185.912 183.509 186.124 184.181 186.124C184.613 186.124 184.997 186.024 185.333 185.824C185.677 185.624 185.945 185.344 186.137 184.984C186.329 184.616 186.425 184.192 186.425 183.712C186.425 183.232 186.329 182.808 186.137 182.44C185.945 182.072 185.677 181.792 185.333 181.6C184.997 181.4 184.613 181.3 184.181 181.3ZM189.163 178.48C189.163 178.28 189.231 178.12 189.367 178C189.503 177.872 189.683 177.808 189.907 177.808C190.131 177.808 190.311 177.872 190.447 178C190.583 178.12 190.651 178.28 190.651 178.48C190.651 178.68 190.583 178.844 190.447 178.972C190.311 179.092 190.131 179.152 189.907 179.152C189.683 179.152 189.503 179.092 189.367 178.972C189.231 178.844 189.163 178.68 189.163 178.48ZM190.447 180.412V187H189.355V180.412H190.447ZM193.395 178.12V187H192.303V178.12H193.395ZM198.994 178.456C200.026 178.456 200.878 178.712 201.55 179.224C202.222 179.728 202.686 180.42 202.942 181.3H201.79C201.574 180.74 201.226 180.296 200.746 179.968C200.266 179.632 199.678 179.464 198.982 179.464C198.43 179.464 197.934 179.6 197.494 179.872C197.062 180.136 196.718 180.52 196.462 181.024C196.214 181.52 196.09 182.104 196.09 182.776C196.09 183.44 196.214 184.02 196.462 184.516C196.718 185.012 197.062 185.396 197.494 185.668C197.934 185.932 198.43 186.064 198.982 186.064C199.678 186.064 200.266 185.9 200.746 185.572C201.226 185.236 201.574 184.788 201.79 184.228H202.942C202.686 185.108 202.222 185.804 201.55 186.316C200.878 186.82 200.026 187.072 198.994 187.072C198.202 187.072 197.502 186.892 196.894 186.532C196.286 186.164 195.81 185.656 195.466 185.008C195.13 184.352 194.962 183.608 194.962 182.776C194.962 181.936 195.13 181.188 195.466 180.532C195.81 179.876 196.286 179.368 196.894 179.008C197.502 178.64 198.202 178.456 198.994 178.456ZM207.971 180.304C208.739 180.304 209.359 180.552 209.831 181.048C210.303 181.536 210.539 182.244 210.539 183.172V187H209.447V183.268C209.447 182.612 209.279 182.108 208.943 181.756C208.607 181.404 208.151 181.228 207.575 181.228C206.975 181.228 206.495 181.424 206.135 181.816C205.775 182.2 205.595 182.764 205.595 183.508V187H204.503V178.12H205.595V181.972C205.763 181.436 206.059 181.024 206.483 180.736C206.915 180.448 207.411 180.304 207.971 180.304ZM212.122 178.48C212.122 178.28 212.19 178.12 212.326 178C212.462 177.872 212.642 177.808 212.866 177.808C213.09 177.808 213.27 177.872 213.406 178C213.542 178.12 213.61 178.28 213.61 178.48C213.61 178.68 213.542 178.844 213.406 178.972C213.27 179.092 213.09 179.152 212.866 179.152C212.642 179.152 212.462 179.092 212.326 178.972C212.19 178.844 212.122 178.68 212.122 178.48ZM213.406 180.412V187H212.314V180.412H213.406ZM223.361 180.304C224.129 180.304 224.745 180.552 225.209 181.048C225.681 181.536 225.917 182.244 225.917 183.172V187H224.825V183.268C224.825 182.62 224.665 182.124 224.345 181.78C224.033 181.436 223.601 181.264 223.049 181.264C222.473 181.264 222.009 181.456 221.657 181.84C221.313 182.216 221.141 182.772 221.141 183.508V187H220.049V183.268C220.049 182.62 219.889 182.124 219.569 181.78C219.249 181.436 218.817 181.264 218.273 181.264C217.689 181.264 217.221 181.456 216.869 181.84C216.525 182.216 216.353 182.772 216.353 183.508V187H215.261V180.412H216.353V181.912C216.513 181.392 216.797 180.996 217.205 180.724C217.621 180.444 218.097 180.304 218.633 180.304C219.193 180.304 219.677 180.448 220.085 180.736C220.501 181.016 220.797 181.432 220.973 181.984C221.157 181.448 221.465 181.036 221.897 180.748C222.329 180.452 222.817 180.304 223.361 180.304ZM231.349 180.328C231.933 180.328 232.453 180.464 232.909 180.736C233.365 181.008 233.721 181.4 233.977 181.912C234.241 182.424 234.373 183.024 234.373 183.712C234.373 184.4 234.241 185 233.977 185.512C233.721 186.016 233.365 186.404 232.909 186.676C232.453 186.948 231.933 187.084 231.349 187.084C230.709 187.084 230.165 186.924 229.717 186.604C229.277 186.276 228.973 185.848 228.805 185.32V190.12H227.713V180.412H228.805V182.092C228.973 181.564 229.277 181.14 229.717 180.82C230.165 180.492 230.709 180.328 231.349 180.328ZM231.037 181.3C230.613 181.3 230.229 181.4 229.885 181.6C229.541 181.792 229.273 182.072 229.081 182.44C228.889 182.808 228.793 183.232 228.793 183.712C228.793 184.192 228.889 184.616 229.081 184.984C229.273 185.344 229.541 185.624 229.885 185.824C230.229 186.024 230.613 186.124 231.037 186.124C231.717 186.124 232.257 185.912 232.657 185.488C233.065 185.056 233.269 184.464 233.269 183.712C233.269 182.96 233.065 182.372 232.657 181.948C232.257 181.516 231.717 181.3 231.037 181.3ZM29.576 198.328C30.216 198.328 30.756 198.488 31.196 198.808C31.644 199.128 31.956 199.556 32.132 200.092V198.412H33.224V205H32.132V203.32C31.956 203.856 31.644 204.284 31.196 204.604C30.756 204.924 30.216 205.084 29.576 205.084C28.992 205.084 28.472 204.948 28.016 204.676C27.56 204.404 27.2 204.016 26.936 203.512C26.68 203 26.552 202.4 26.552 201.712C26.552 201.024 26.68 200.424 26.936 199.912C27.2 199.4 27.56 199.008 28.016 198.736C28.472 198.464 28.992 198.328 29.576 198.328ZM29.888 199.3C29.216 199.3 28.676 199.516 28.268 199.948C27.868 200.372 27.668 200.96 27.668 201.712C27.668 202.464 27.868 203.056 28.268 203.488C28.676 203.912 29.216 204.124 29.888 204.124C30.32 204.124 30.704 204.024 31.04 203.824C31.384 203.624 31.652 203.344 31.844 202.984C32.036 202.616 32.132 202.192 32.132 201.712C32.132 201.232 32.036 200.808 31.844 200.44C31.652 200.072 31.384 199.792 31.04 199.6C30.704 199.4 30.32 199.3 29.888 199.3ZM37.9779 198.328C38.8179 198.328 39.5139 198.552 40.0659 199C40.6179 199.448 40.9579 200.048 41.0859 200.8H39.9339C39.8539 200.328 39.6339 199.96 39.2739 199.696C38.9219 199.424 38.4819 199.288 37.9539 199.288C37.5699 199.288 37.2179 199.376 36.8979 199.552C36.5859 199.728 36.3339 200 36.1419 200.368C35.9499 200.728 35.8539 201.176 35.8539 201.712C35.8539 202.248 35.9499 202.7 36.1419 203.068C36.3339 203.428 36.5859 203.696 36.8979 203.872C37.2179 204.048 37.5699 204.136 37.9539 204.136C38.4819 204.136 38.9219 204 39.2739 203.728C39.6339 203.456 39.8539 203.084 39.9339 202.612H41.0859C40.9579 203.372 40.6179 203.976 40.0659 204.424C39.5139 204.864 38.8179 205.084 37.9779 205.084C37.3459 205.084 36.7859 204.948 36.2979 204.676C35.8099 204.404 35.4259 204.016 35.1459 203.512C34.8739 203 34.7379 202.4 34.7379 201.712C34.7379 201.024 34.8739 200.424 35.1459 199.912C35.4259 199.4 35.8099 199.008 36.2979 198.736C36.7859 198.464 37.3459 198.328 37.9779 198.328ZM45.5311 198.328C46.3711 198.328 47.0671 198.552 47.6191 199C48.1711 199.448 48.5111 200.048 48.6391 200.8H47.4871C47.4071 200.328 47.1871 199.96 46.8271 199.696C46.4751 199.424 46.0351 199.288 45.5071 199.288C45.1231 199.288 44.7711 199.376 44.4511 199.552C44.1391 199.728 43.8871 200 43.6951 200.368C43.5031 200.728 43.4071 201.176 43.4071 201.712C43.4071 202.248 43.5031 202.7 43.6951 203.068C43.8871 203.428 44.1391 203.696 44.4511 203.872C44.7711 204.048 45.1231 204.136 45.5071 204.136C46.0351 204.136 46.4751 204 46.8271 203.728C47.1871 203.456 47.4071 203.084 47.4871 202.612H48.6391C48.5111 203.372 48.1711 203.976 47.6191 204.424C47.0671 204.864 46.3711 205.084 45.5311 205.084C44.8991 205.084 44.3391 204.948 43.8511 204.676C43.3631 204.404 42.9791 204.016 42.6991 203.512C42.4271 203 42.2911 202.4 42.2911 201.712C42.2911 201.024 42.4271 200.424 42.6991 199.912C42.9791 199.4 43.3631 199.008 43.8511 198.736C44.3391 198.464 44.8991 198.328 45.5311 198.328ZM53.1562 198.328C53.7882 198.328 54.3522 198.464 54.8482 198.736C55.3522 199.008 55.7442 199.4 56.0242 199.912C56.3122 200.424 56.4562 201.024 56.4562 201.712C56.4562 202.4 56.3122 203 56.0242 203.512C55.7442 204.016 55.3522 204.404 54.8482 204.676C54.3522 204.948 53.7882 205.084 53.1562 205.084C52.5242 205.084 51.9562 204.948 51.4522 204.676C50.9562 204.404 50.5642 204.016 50.2762 203.512C49.9882 203 49.8442 202.4 49.8442 201.712C49.8442 201.024 49.9882 200.424 50.2762 199.912C50.5642 199.4 50.9562 199.008 51.4522 198.736C51.9562 198.464 52.5242 198.328 53.1562 198.328ZM53.1562 199.288C52.7642 199.288 52.4002 199.376 52.0642 199.552C51.7362 199.728 51.4682 200 51.2602 200.368C51.0602 200.728 50.9602 201.176 50.9602 201.712C50.9602 202.24 51.0602 202.688 51.2602 203.056C51.4682 203.416 51.7362 203.684 52.0642 203.86C52.4002 204.036 52.7642 204.124 53.1562 204.124C53.5482 204.124 53.9082 204.036 54.2362 203.86C54.5722 203.684 54.8402 203.416 55.0402 203.056C55.2482 202.688 55.3522 202.24 55.3522 201.712C55.3522 201.176 55.2482 200.728 55.0402 200.368C54.8402 200 54.5722 199.728 54.2362 199.552C53.9082 199.376 53.5482 199.288 53.1562 199.288ZM63.8351 198.412V205H62.7431V203.452C62.5751 203.988 62.2751 204.4 61.8431 204.688C61.4191 204.968 60.9231 205.108 60.3551 205.108C59.5951 205.108 58.9791 204.864 58.5071 204.376C58.0351 203.88 57.7991 203.172 57.7991 202.252V198.412H58.8911V202.144C58.8911 202.8 59.0591 203.308 59.3951 203.668C59.7311 204.02 60.1871 204.196 60.7631 204.196C61.3631 204.196 61.8431 204.004 62.2031 203.62C62.5631 203.228 62.7431 202.66 62.7431 201.916V198.412H63.8351ZM69.1526 198.304C69.9206 198.304 70.5406 198.552 71.0126 199.048C71.4846 199.536 71.7206 200.244 71.7206 201.172V205H70.6286V201.268C70.6286 200.612 70.4606 200.108 70.1246 199.756C69.7886 199.404 69.3326 199.228 68.7566 199.228C68.1566 199.228 67.6766 199.424 67.3166 199.816C66.9566 200.2 66.7766 200.764 66.7766 201.508V205H65.6846V198.412H66.7766V199.972C66.9446 199.436 67.2406 199.024 67.6646 198.736C68.0966 198.448 68.5926 198.304 69.1526 198.304ZM76.6395 204.04V205H75.8235C75.1515 205 74.6475 204.84 74.3115 204.52C73.9835 204.2 73.8195 203.664 73.8195 202.912V199.36H72.8355V198.412H73.8195V196.768H74.9235V198.412H76.6275V199.36H74.9235V202.936C74.9235 203.36 74.9995 203.652 75.1515 203.812C75.3115 203.964 75.5835 204.04 75.9675 204.04H76.6395ZM78.8761 203.716V205H77.5561V203.716H78.8761Z" fill="#192A3E"/>
<path d="M38.015 133.575V144H36.29V136.185L33.275 144H31.775L28.745 136.185V144H27.035V133.575H29.105L32.555 141.9L35.945 133.575H38.015ZM43.4871 135.63C44.2371 135.63 44.8771 135.815 45.4071 136.185C45.9371 136.555 46.3121 137.045 46.5321 137.655V135.735H48.2421V144H46.5321V142.08C46.3121 142.69 45.9371 143.18 45.4071 143.55C44.8771 143.92 44.2371 144.105 43.4871 144.105C42.7671 144.105 42.1221 143.935 41.5521 143.595C40.9921 143.255 40.5521 142.765 40.2321 142.125C39.9121 141.485 39.7521 140.73 39.7521 139.86C39.7521 139 39.9121 138.25 40.2321 137.61C40.5521 136.97 40.9921 136.48 41.5521 136.14C42.1221 135.8 42.7671 135.63 43.4871 135.63ZM44.0121 137.13C43.2521 137.13 42.6421 137.375 42.1821 137.865C41.7321 138.345 41.5071 139.01 41.5071 139.86C41.5071 140.71 41.7321 141.38 42.1821 141.87C42.6421 142.35 43.2521 142.59 44.0121 142.59C44.4921 142.59 44.9221 142.48 45.3021 142.26C45.6821 142.03 45.9821 141.71 46.2021 141.3C46.4221 140.89 46.5321 140.41 46.5321 139.86C46.5321 139.32 46.4221 138.845 46.2021 138.435C45.9821 138.015 45.6821 137.695 45.3021 137.475C44.9221 137.245 44.4921 137.13 44.0121 137.13ZM50.1542 133.335C50.1542 133.045 50.2542 132.805 50.4542 132.615C50.6542 132.425 50.9192 132.33 51.2492 132.33C51.5792 132.33 51.8442 132.425 52.0442 132.615C52.2542 132.805 52.3592 133.045 52.3592 133.335C52.3592 133.625 52.2542 133.86 52.0442 134.04C51.8442 134.22 51.5792 134.31 51.2492 134.31C50.9192 134.31 50.6542 134.22 50.4542 134.04C50.2542 133.86 50.1542 133.625 50.1542 133.335ZM52.1042 135.735V144H50.3942V135.735H52.1042ZM55.9835 132.9V144H54.2735V132.9H55.9835ZM62.8778 133.305C64.1778 133.305 65.2578 133.635 66.1178 134.295C66.9778 134.955 67.5578 135.85 67.8578 136.98H66.0428C65.7928 136.34 65.3928 135.835 64.8428 135.465C64.3028 135.085 63.6378 134.895 62.8478 134.895C62.2178 134.895 61.6528 135.05 61.1528 135.36C60.6628 135.67 60.2728 136.115 59.9828 136.695C59.7028 137.265 59.5628 137.935 59.5628 138.705C59.5628 139.465 59.7028 140.135 59.9828 140.715C60.2728 141.285 60.6628 141.725 61.1528 142.035C61.6528 142.345 62.2178 142.5 62.8478 142.5C63.6378 142.5 64.3028 142.315 64.8428 141.945C65.3928 141.565 65.7928 141.06 66.0428 140.43H67.8578C67.5578 141.56 66.9778 142.455 66.1178 143.115C65.2578 143.765 64.1778 144.09 62.8778 144.09C61.8778 144.09 60.9928 143.865 60.2228 143.415C59.4528 142.955 58.8578 142.32 58.4378 141.51C58.0178 140.69 57.8078 139.755 57.8078 138.705C57.8078 137.655 58.0178 136.725 58.4378 135.915C58.8578 135.095 59.4528 134.455 60.2228 133.995C60.9928 133.535 61.8778 133.305 62.8778 133.305ZM74.2839 135.6C75.2439 135.6 76.0139 135.91 76.5939 136.53C77.1739 137.15 77.4639 138.035 77.4639 139.185V144H75.7539V139.365C75.7539 138.625 75.5639 138.055 75.1839 137.655C74.8039 137.245 74.2839 137.04 73.6239 137.04C72.9439 137.04 72.3989 137.26 71.9889 137.7C71.5789 138.13 71.3739 138.765 71.3739 139.605V144H69.6639V132.9H71.3739V137.55C71.5939 136.93 71.9639 136.45 72.4839 136.11C73.0039 135.77 73.6039 135.6 74.2839 135.6ZM79.3237 133.335C79.3237 133.045 79.4237 132.805 79.6237 132.615C79.8237 132.425 80.0887 132.33 80.4187 132.33C80.7487 132.33 81.0137 132.425 81.2137 132.615C81.4237 132.805 81.5287 133.045 81.5287 133.335C81.5287 133.625 81.4237 133.86 81.2137 134.04C81.0137 134.22 80.7487 134.31 80.4187 134.31C80.0887 134.31 79.8237 134.22 79.6237 134.04C79.4237 133.86 79.3237 133.625 79.3237 133.335ZM81.2737 135.735V144H79.5637V135.735H81.2737ZM93.778 135.6C94.758 135.6 95.538 135.91 96.118 136.53C96.708 137.15 97.003 138.035 97.003 139.185V144H95.293V139.365C95.293 138.645 95.113 138.09 94.753 137.7C94.393 137.3 93.898 137.1 93.268 137.1C92.598 137.1 92.063 137.315 91.663 137.745C91.273 138.165 91.078 138.785 91.078 139.605V144H89.368V139.365C89.368 138.645 89.188 138.09 88.828 137.7C88.468 137.3 87.973 137.1 87.343 137.1C86.673 137.1 86.138 137.315 85.738 137.745C85.348 138.165 85.153 138.785 85.153 139.605V144H83.443V135.735H85.153V137.46C85.363 136.86 85.713 136.4 86.203 136.08C86.693 135.76 87.268 135.6 87.928 135.6C88.618 135.6 89.213 135.77 89.713 136.11C90.223 136.45 90.593 136.94 90.823 137.58C91.063 136.96 91.448 136.475 91.978 136.125C92.508 135.775 93.108 135.6 93.778 135.6ZM103.84 135.63C104.56 135.63 105.2 135.8 105.76 136.14C106.33 136.48 106.775 136.97 107.095 137.61C107.415 138.25 107.575 139 107.575 139.86C107.575 140.73 107.415 141.485 107.095 142.125C106.775 142.765 106.33 143.255 105.76 143.595C105.2 143.935 104.56 144.105 103.84 144.105C103.09 144.105 102.45 143.92 101.92 143.55C101.39 143.18 101.02 142.69 100.81 142.08V147.93H99.0997V135.735H100.81V137.655C101.02 137.045 101.39 136.555 101.92 136.185C102.45 135.815 103.09 135.63 103.84 135.63ZM103.315 137.13C102.835 137.13 102.405 137.245 102.025 137.475C101.645 137.695 101.345 138.015 101.125 138.435C100.905 138.845 100.795 139.32 100.795 139.86C100.795 140.41 100.905 140.89 101.125 141.3C101.345 141.71 101.645 142.03 102.025 142.26C102.405 142.48 102.835 142.59 103.315 142.59C104.075 142.59 104.685 142.35 105.145 141.87C105.605 141.38 105.835 140.71 105.835 139.86C105.835 139.02 105.605 138.355 105.145 137.865C104.685 137.375 104.075 137.13 103.315 137.13Z" fill="#192A3E"/>
<path d="M30.979 240.731C32.123 240.731 33.072 241.026 33.826 241.615C34.58 242.204 35.0783 243.006 35.321 244.02H33.397C33.1977 243.526 32.8857 243.136 32.461 242.85C32.045 242.564 31.5423 242.421 30.953 242.421C30.4677 242.421 30.03 242.542 29.64 242.785C29.25 243.028 28.9467 243.374 28.73 243.825C28.5133 244.276 28.405 244.804 28.405 245.411C28.405 246.009 28.5133 246.533 28.73 246.984C28.9467 247.435 29.25 247.781 29.64 248.024C30.03 248.267 30.4677 248.388 30.953 248.388C31.5423 248.388 32.045 248.245 32.461 247.959C32.8857 247.673 33.1977 247.283 33.397 246.789H35.321C35.0783 247.803 34.58 248.605 33.826 249.194C33.072 249.783 32.123 250.078 30.979 250.078C30.1037 250.078 29.328 249.883 28.652 249.493C27.9847 249.094 27.4647 248.54 27.092 247.829C26.728 247.118 26.546 246.312 26.546 245.411C26.546 244.501 26.728 243.691 27.092 242.98C27.4647 242.269 27.9847 241.719 28.652 241.329C29.3193 240.93 30.095 240.731 30.979 240.731ZM40.1243 242.707C40.8263 242.707 41.4546 242.854 42.0093 243.149C42.5726 243.444 43.0146 243.873 43.3353 244.436C43.6559 244.991 43.8163 245.645 43.8163 246.399C43.8163 247.153 43.6559 247.807 43.3353 248.362C43.0146 248.917 42.5726 249.346 42.0093 249.649C41.4546 249.944 40.8263 250.091 40.1243 250.091C39.4223 250.091 38.7896 249.944 38.2263 249.649C37.6716 249.346 37.2339 248.917 36.9133 248.362C36.5926 247.807 36.4323 247.153 36.4323 246.399C36.4323 245.645 36.5926 244.991 36.9133 244.436C37.2339 243.873 37.6716 243.444 38.2263 243.149C38.7896 242.854 39.4223 242.707 40.1243 242.707ZM40.1243 244.293C39.6129 244.293 39.1796 244.475 38.8243 244.839C38.4689 245.194 38.2913 245.714 38.2913 246.399C38.2913 247.084 38.4689 247.608 38.8243 247.972C39.1796 248.327 39.6129 248.505 40.1243 248.505C40.6356 248.505 41.0689 248.327 41.4243 247.972C41.7796 247.608 41.9573 247.084 41.9573 246.399C41.9573 245.714 41.7796 245.194 41.4243 244.839C41.0689 244.475 40.6356 244.293 40.1243 244.293ZM49.5017 242.694C50.3337 242.694 50.9967 242.967 51.4907 243.513C51.9847 244.059 52.2317 244.826 52.2317 245.814V250H50.4117V246.022C50.4117 245.45 50.2644 245.008 49.9697 244.696C49.675 244.375 49.272 244.215 48.7607 244.215C48.2407 244.215 47.8247 244.384 47.5127 244.722C47.2007 245.06 47.0447 245.545 47.0447 246.178V250H45.2117V242.798H47.0447V244.241C47.2354 243.756 47.5474 243.379 47.9807 243.11C48.4227 242.833 48.9297 242.694 49.5017 242.694ZM58.2345 242.694C59.0665 242.694 59.7295 242.967 60.2235 243.513C60.7175 244.059 60.9645 244.826 60.9645 245.814V250H59.1445V246.022C59.1445 245.45 58.9972 245.008 58.7025 244.696C58.4078 244.375 58.0048 244.215 57.4935 244.215C56.9735 244.215 56.5575 244.384 56.2455 244.722C55.9335 245.06 55.7775 245.545 55.7775 246.178V250H53.9445V242.798H55.7775V244.241C55.9682 243.756 56.2802 243.379 56.7135 243.11C57.1555 242.833 57.6625 242.694 58.2345 242.694ZM69.4503 246.126C69.4503 246.308 69.4286 246.516 69.3853 246.75H64.1073C64.1333 247.391 64.3066 247.864 64.6273 248.167C64.948 248.47 65.3466 248.622 65.8233 248.622C66.248 248.622 66.599 248.518 66.8763 248.31C67.1623 248.102 67.3443 247.82 67.4223 247.465H69.3593C69.264 247.968 69.0603 248.418 68.7483 248.817C68.4363 249.216 68.0333 249.528 67.5393 249.753C67.054 249.978 66.5123 250.091 65.9143 250.091C65.2123 250.091 64.5883 249.944 64.0423 249.649C63.4963 249.346 63.0716 248.917 62.7683 248.362C62.465 247.807 62.3133 247.153 62.3133 246.399C62.3133 245.645 62.465 244.991 62.7683 244.436C63.0716 243.873 63.4963 243.444 64.0423 243.149C64.5883 242.854 65.2123 242.707 65.9143 242.707C66.625 242.707 67.2446 242.854 67.7733 243.149C68.3106 243.444 68.7223 243.851 69.0083 244.371C69.303 244.882 69.4503 245.467 69.4503 246.126ZM67.6043 245.944C67.6303 245.355 67.4743 244.908 67.1363 244.605C66.807 244.302 66.3996 244.15 65.9143 244.15C65.4203 244.15 65.0043 244.302 64.6663 244.605C64.3283 244.908 64.142 245.355 64.1073 245.944H67.6043ZM74.0885 242.707C75.0159 242.707 75.7872 242.958 76.4025 243.461C77.0265 243.964 77.4165 244.648 77.5725 245.515H75.6355C75.5575 245.134 75.3799 244.835 75.1025 244.618C74.8252 244.393 74.4742 244.28 74.0495 244.28C73.5642 244.28 73.1569 244.462 72.8275 244.826C72.5069 245.181 72.3465 245.706 72.3465 246.399C72.3465 247.092 72.5069 247.621 72.8275 247.985C73.1569 248.34 73.5642 248.518 74.0495 248.518C74.4742 248.518 74.8252 248.41 75.1025 248.193C75.3799 247.968 75.5575 247.664 75.6355 247.283H77.5725C77.4165 248.15 77.0265 248.834 76.4025 249.337C75.7872 249.84 75.0159 250.091 74.0885 250.091C73.3865 250.091 72.7625 249.944 72.2165 249.649C71.6705 249.346 71.2459 248.917 70.9425 248.362C70.6392 247.807 70.4875 247.153 70.4875 246.399C70.4875 245.645 70.6392 244.991 70.9425 244.436C71.2459 243.873 71.6705 243.444 72.2165 243.149C72.7625 242.854 73.3865 242.707 74.0885 242.707ZM82.823 248.427V250H81.861C81.055 250 80.4353 249.805 80.002 249.415C79.5773 249.025 79.365 248.375 79.365 247.465V244.345H78.364V242.798H79.365V241.017H81.198V242.798H82.81V244.345H81.198V247.491C81.198 247.838 81.2673 248.08 81.406 248.219C81.5446 248.358 81.7786 248.427 82.108 248.427H82.823Z" fill="#109CF1"/>
<g clip-path="url(#clip0_118_585)">
<path d="M81.4919 63.3196C81.806 63.2817 82.1072 63.2809 82.3834 63.3196C82.5434 62.9524 82.5709 62.3203 82.4272 61.6323C82.213 60.6089 81.9239 59.9897 81.3259 60.086C80.7278 60.1823 80.7055 60.9236 80.9197 61.947C81.0402 62.5224 81.2544 63.0151 81.4928 63.3196H81.4919Z" fill="black"/>
<path d="M76.3559 64.1246C76.7844 64.3114 77.0469 64.4355 77.1501 64.3276C77.2164 64.26 77.1966 64.1315 77.0942 63.9653C76.8834 63.6219 76.448 63.2741 75.9876 63.078C75.0446 62.6737 73.9199 62.8082 73.0526 63.4292C72.7661 63.6382 72.495 63.9276 72.5337 64.1032C72.5466 64.1598 72.5888 64.2026 72.6895 64.2171C72.9252 64.2437 73.7504 63.8292 74.7012 63.7709C75.3724 63.7298 75.9283 63.9388 76.3559 64.1255V64.1246Z" fill="black"/>
<path d="M75.4947 64.6201C74.9372 64.7075 74.63 64.8908 74.4321 65.0612C74.2634 65.2077 74.1593 65.3695 74.1602 65.4834L74.2032 65.5845L74.2953 65.6196C74.4209 65.6196 74.7031 65.5074 74.7031 65.5074C75.4792 65.2308 75.9912 65.2642 76.498 65.3216C76.7785 65.3533 76.911 65.3704 76.9721 65.2745C76.9902 65.2471 77.0126 65.188 76.9567 65.0972C76.8259 64.8865 76.2631 64.5302 75.4956 64.621L75.4947 64.6201Z" fill="black"/>
<path d="M79.7581 66.4178C80.1367 66.6028 80.5532 66.53 80.6891 66.2551C80.8251 65.9802 80.628 65.6076 80.2494 65.4226C79.8708 65.2376 79.4544 65.3104 79.3184 65.5853C79.1825 65.8603 79.3795 66.2328 79.7581 66.4178Z" fill="black"/>
<path d="M82.189 64.2979C81.8832 64.2928 81.6288 64.6285 81.622 65.049C81.6151 65.4687 81.8575 65.813 82.1633 65.8182C82.469 65.8233 82.7234 65.4876 82.7302 65.0679C82.7371 64.6482 82.4947 64.3039 82.189 64.2979Z" fill="black"/>
<path d="M61.5346 71.898C61.4581 71.8025 61.3324 71.8317 61.2111 71.8593C61.1259 71.879 61.0295 71.9014 60.9246 71.8997C60.6983 71.8954 60.5064 71.7991 60.3988 71.6339C60.2586 71.4189 60.2672 71.0982 60.4212 70.7309L60.4935 70.5667C60.7404 70.0137 61.1526 69.0875 60.6897 68.206C60.3412 67.5421 59.7715 67.1284 59.0875 67.0416C58.4309 66.9581 57.7546 67.2015 57.3235 67.6771C56.6429 68.427 56.5371 69.4478 56.6687 69.809C56.7169 69.9415 56.7926 69.9776 56.8468 69.9853C56.963 70.0008 57.1334 69.9165 57.2409 69.6284L57.2719 69.5347C57.3201 69.3825 57.4087 69.0987 57.5541 68.8708C57.7297 68.5964 58.0033 68.4072 58.3251 68.3384C58.6521 68.2688 58.9868 68.3307 59.2665 68.5139C59.7432 68.8261 59.9264 69.4091 59.7234 69.9664C59.6184 70.2545 59.4472 70.8049 59.485 71.2573C59.5616 72.1732 60.1252 72.5412 60.6312 72.5799C61.1233 72.5989 61.4675 72.3219 61.5544 72.1198C61.6061 72.0003 61.5622 71.9281 61.5346 71.8962V71.898Z" fill="black"/>
<path d="M89.952 70.2232C89.9331 70.157 89.8109 69.7107 89.6431 69.1732L89.3015 68.2573C89.9744 67.2502 89.9864 66.3498 89.8969 65.8398C89.8014 65.2077 89.5381 64.6685 89.0072 64.1121C88.4763 63.5548 87.3913 62.9846 85.8657 62.5572L85.0654 62.3353C85.0611 62.3026 85.0233 60.4493 84.9889 59.6538C84.9639 59.0785 84.914 58.1815 84.6352 57.2966C84.3031 56.0995 83.7249 55.0529 83.0021 54.3829C84.9958 52.3181 86.24 50.0425 86.2365 48.0912C86.2305 44.3382 81.6193 43.2021 75.936 45.5542L74.7322 46.065C74.727 46.0599 72.5552 43.9305 72.5225 43.9021C66.0432 38.2537 45.7837 60.7598 52.2612 66.2259L53.6767 67.4248C53.3093 68.3751 53.1656 69.4647 53.2835 70.636C53.4349 72.1401 54.211 73.5824 55.4699 74.6969C56.6642 75.7547 58.2354 76.4247 59.7593 76.4229C62.2796 82.2288 68.0387 85.79 74.7915 85.9904C82.0349 86.2054 88.1158 82.8084 90.6636 76.7059C90.8305 76.2776 91.5378 74.3478 91.5378 72.6441C91.5378 70.9319 90.5698 70.2224 89.9529 70.2224L89.952 70.2232ZM60.316 74.7924C60.0957 74.8302 59.8712 74.8448 59.6449 74.8397C57.4567 74.7812 55.0939 72.8127 54.859 70.4778C54.5991 67.8978 55.9182 65.9112 58.2544 65.4408C58.5331 65.3849 58.8713 65.3522 59.2353 65.3711C60.544 65.4425 62.4723 66.447 62.9129 69.2961C63.3027 71.8194 62.6831 74.389 60.316 74.7924ZM57.8732 63.8971C56.419 64.18 55.1378 65.003 54.3539 66.1408C53.8858 65.7504 53.0124 64.9944 52.8584 64.7003C51.6073 62.3259 54.224 57.7094 56.0516 55.1027C60.569 48.6596 67.6437 43.7835 70.9195 44.6675C71.4521 44.818 73.2152 46.8614 73.2152 46.8614C73.2152 46.8614 69.9411 48.6768 66.9054 51.2078C62.8148 54.3563 59.724 58.9315 57.8732 63.8971ZM80.8371 73.8275C80.8845 73.8077 80.9172 73.7526 80.912 73.6993C80.9051 73.6331 80.8458 73.5849 80.7795 73.5918C80.7795 73.5918 77.3523 74.0992 74.1144 72.9141C74.4672 71.7686 75.4051 72.1823 76.8222 72.2967C79.3769 72.4489 81.6666 72.0756 83.3583 71.5906C84.8245 71.1701 86.7502 70.341 88.2466 69.1611C88.7508 70.2688 88.9289 71.4874 88.9289 71.4874C88.9289 71.4874 89.3196 71.4178 89.6457 71.6181C89.9537 71.8082 90.18 72.2021 90.026 73.222C89.7111 75.1269 88.9014 76.6723 87.5401 78.0948C86.7115 78.9866 85.7056 79.7614 84.5543 80.3247C83.9434 80.6455 83.292 80.9233 82.6045 81.1478C77.4727 82.823 72.2188 80.9809 70.5254 77.0258C70.3903 76.7282 70.2759 76.4169 70.1855 76.0918C69.4636 73.4852 70.0762 70.3582 71.9916 68.3897V68.3888C72.1095 68.2633 72.23 68.1162 72.23 67.9305C72.23 67.7748 72.131 67.6114 72.0458 67.4953C71.3755 66.5244 69.0549 64.8689 69.5212 61.6654C69.8559 59.364 71.8694 57.7438 73.7469 57.8401L74.2228 57.8676C75.0359 57.9158 75.7458 58.0199 76.4161 58.0482C77.5373 58.0964 78.5449 57.9339 79.7383 56.9397C80.141 56.6043 80.4637 56.3136 81.0101 56.2207C81.0677 56.2113 81.2106 56.1597 81.4954 56.1734C81.7871 56.1889 82.0642 56.2689 82.3137 56.4349C83.2705 57.0713 83.4065 58.6133 83.4564 59.7407C83.4848 60.3848 83.5622 61.9423 83.5889 62.3886C83.65 63.4112 83.9185 63.5548 84.4623 63.7345C84.7686 63.8352 85.0525 63.91 85.4707 64.0278C86.7373 64.383 87.4885 64.7442 87.9626 65.2069C88.2449 65.4967 88.3765 65.8037 88.4169 66.0978C88.5667 67.1874 87.5711 68.5325 84.9355 69.7554C82.0547 71.0918 78.5604 71.4298 76.1459 71.1615L75.3001 71.066C73.3683 70.8063 72.267 73.3011 73.426 75.01C74.1729 76.1116 76.2079 76.828 78.2437 76.8289C82.9117 76.8297 86.4998 74.8371 87.8344 73.1162L87.9411 72.964C88.0065 72.8651 87.9523 72.8109 87.8705 72.8668C86.7803 73.6125 81.9368 76.5734 76.756 75.6825C76.756 75.6825 76.1261 75.5793 75.5522 75.3557C75.0953 75.1785 74.1402 74.7391 74.024 73.7587C78.205 75.0512 80.8371 73.8292 80.8371 73.8292V73.8275ZM74.2142 73.0457L74.215 73.0466L74.2159 73.0483L74.2142 73.0449V73.0457ZM66.2162 55.0752C67.8218 53.2202 69.7992 51.6077 71.57 50.7021C71.6311 50.6712 71.6965 50.7374 71.6629 50.7976C71.5227 51.0522 71.2516 51.5974 71.1656 52.0102C71.1518 52.0747 71.2224 52.1229 71.2766 52.0859C72.378 51.3351 74.2951 50.531 75.9764 50.4278C76.0487 50.4235 76.0831 50.5155 76.0263 50.5602C75.7708 50.7563 75.4911 51.0272 75.2872 51.3016C75.2528 51.348 75.2855 51.4151 75.3431 51.4159C76.5237 51.4245 78.1878 51.8373 79.272 52.4454C79.3451 52.4866 79.2935 52.6285 79.2109 52.6096C77.57 52.2338 74.8836 51.9483 72.0931 52.6285C69.6021 53.2357 67.7005 54.1731 66.3134 55.1819C66.2437 55.2326 66.1594 55.1406 66.2162 55.0744V55.0752Z" fill="black"/>
<path d="M205.867 59.4363C203.467 59.4363 202.367 61.2354 201.889 62.2597C201.573 62.9365 201.588 63.1351 201.358 63.1351C201.024 63.1351 201.301 62.5916 201.451 61.9518C201.747 60.6927 201.521 59.7313 201.521 59.7313H198.1V76.1391H202.77V70.937C203.322 71.8736 204.346 72.8746 205.924 72.8746C209.301 72.8746 211 70.0185 211 66.1606C211 61.7875 208.966 59.4346 205.867 59.4346L205.867 59.4363ZM204.585 69.8293C203.514 69.8293 202.727 68.4723 202.727 66.5803C202.727 64.7433 203.536 63.3321 204.548 63.3321C205.848 63.3321 206.402 64.5232 206.402 66.5803C206.402 68.7199 205.892 69.8293 204.585 69.8293Z" fill="black"/>
<path d="M113.047 59.4363C110.993 59.4363 109.977 61.0523 109.51 62.0937C109.249 62.676 109.177 63.1361 108.966 63.1361C108.668 63.1361 108.881 62.7362 108.638 61.8495C108.317 60.6825 107.351 59.4363 105.298 59.4363C103.14 59.4363 102.216 61.2587 101.778 62.2597C101.479 62.9443 101.478 63.1352 101.247 63.1352C100.913 63.1352 101.19 62.5917 101.34 61.9518C101.636 60.6928 101.411 59.7313 101.411 59.7313H97.9895V72.5883H102.659V66.1916C102.659 64.93 103.188 63.3287 104.093 63.3287C105.138 63.3287 105.348 64.1319 105.348 65.618V72.5917H110.037V66.1916C110.037 65.0685 110.495 63.3287 111.477 63.3287C112.537 63.3287 112.726 64.4561 112.726 65.618V72.5883H117.33V65.0272C117.33 61.6715 116.147 59.4346 113.048 59.4346L113.047 59.4363ZM192.307 59.4363C190.253 59.4363 189.237 61.0523 188.771 62.0937C188.51 62.676 188.438 63.1361 188.226 63.1361C187.928 63.1361 188.127 62.6278 187.898 61.8495C187.556 60.6885 186.705 59.4363 184.559 59.4363C182.401 59.4363 181.477 61.2587 181.039 62.2597C180.739 62.9443 180.738 63.1352 180.508 63.1352C180.174 63.1352 180.451 62.5917 180.601 61.9518C180.897 60.6928 180.671 59.7313 180.671 59.7313H177.25V72.5883H181.92V66.1916C181.92 64.93 182.448 63.3287 183.353 63.3287C184.399 63.3287 184.609 64.1319 184.609 65.618V72.5917H189.297V66.1916C189.297 65.0685 189.756 63.3287 190.738 63.3287C191.798 63.3287 191.986 64.4561 191.986 65.618V72.5883H196.591V65.0272C196.591 61.6715 195.407 59.4346 192.308 59.4346L192.307 59.4363ZM125.302 59.4389C121.725 59.4389 119.159 60.753 119.159 60.753V64.617C119.159 64.617 121.993 62.9881 124.292 62.9881C126.127 62.9881 126.353 63.9771 126.269 64.7984C126.269 64.7984 125.74 64.6582 124.125 64.6582C120.319 64.6582 118.398 66.3868 118.398 69.1595C118.398 71.7893 120.557 72.8884 122.377 72.8884C125.031 72.8884 126.198 71.1056 126.557 70.2594C126.805 69.6729 126.851 69.2773 127.075 69.2773C127.33 69.2773 127.243 69.5611 127.231 70.145C127.21 71.1676 127.258 71.9416 127.421 72.5926H130.94V66.2647C130.94 62.3139 129.542 59.4389 125.303 59.4389H125.302ZM124.166 69.5843C123.049 69.8423 122.47 69.4983 122.47 68.7587C122.47 67.7456 123.519 67.3397 125.016 67.3397C125.676 67.3397 126.296 67.3965 126.296 67.3965C126.296 67.8308 125.354 69.3108 124.166 69.5843ZM138.632 55.8398H143.301V72.5926H138.632V55.8398ZM148.441 66.1632C148.441 65.0074 149.516 63.9556 151.488 63.9556C153.637 63.9556 155.366 64.9902 155.754 65.225V60.753C155.754 60.753 154.388 59.4389 151.031 59.4389C147.492 59.4389 144.545 61.5089 144.545 65.9637C144.545 70.4185 147.219 72.8884 151.021 72.8884C153.991 72.8884 155.762 71.2579 155.762 71.2579V67.0103C155.202 67.3234 153.641 68.4061 151.509 68.4061C149.252 68.4061 148.44 67.3681 148.44 66.1641L148.441 66.1632ZM165.214 59.4389C162.51 59.4389 161.482 61.9991 161.275 62.4438C161.067 62.8884 160.964 63.1438 160.795 63.1386C160.499 63.1292 160.705 62.5925 160.82 62.246C161.038 61.5898 161.498 59.8698 161.498 57.7542C161.498 56.3197 161.304 55.8398 161.304 55.8398H157.273V72.5926H161.942V66.1959C161.942 65.1536 162.358 63.333 163.535 63.333C164.509 63.333 164.815 64.0545 164.815 65.5079V72.5934H169.484V65.7883C169.484 62.4876 168.937 59.4406 165.214 59.4406V59.4389ZM171.002 59.7494V72.5917H175.672V59.7494C175.672 59.7494 174.887 60.2086 173.342 60.2086C171.796 60.2086 171.002 59.7494 171.002 59.7494Z" fill="black"/>
<path d="M176.182 57.5744C176.182 58.6042 174.903 59.4389 173.324 59.4389C171.745 59.4389 170.465 58.6042 170.465 57.5744C170.465 56.5447 171.745 55.71 173.324 55.71C174.903 55.71 176.182 56.5447 176.182 57.5744Z" fill="black"/>
<path d="M132.45 59.749V72.5914H137.12V59.749C137.12 59.749 136.335 60.2083 134.79 60.2083L132.45 59.749Z" fill="black"/>
<path d="M137.63 57.5744C137.63 58.6042 136.35 59.4389 134.772 59.4389C133.193 59.4389 131.913 58.6042 131.913 57.5744C131.913 56.5447 133.193 55.71 134.772 55.71C136.35 55.71 137.63 56.5447 137.63 57.5744Z" fill="black"/>
</g>
<defs>
<filter id="filter0_d_118_585" x="0" y="0" width="263" height="284" filterUnits="userSpaceOnUse" color-interpolation-filters="sRGB">
<feFlood flood-opacity="0" result="BackgroundImageFix"/>
<feColorMatrix in="SourceAlpha" type="matrix" values="0 0 0 0 0 0 0 0 0 0 0 0 0 0 0 0 0 0 127 0" result="hardAlpha"/>
<feOffset dy="2"/>
<feGaussianBlur stdDeviation="5"/>
<feColorMatrix type="matrix" values="0 0 0 0 0 0 0 0 0 0 0 0 0 0 0 0 0 0 0.08 0"/>
<feBlend mode="normal" in2="BackgroundImageFix" result="effect1_dropShadow_118_585"/>
<feBlend mode="normal" in="SourceGraphic" in2="effect1_dropShadow_118_585" result="shape"/>
</filter>
<clipPath id="clip0_118_585">
<rect width="160" height="43" fill="white" transform="translate(51 43)"/>
</clipPath>
</defs>
</svg>
