<svg width="263" height="284" viewBox="0 0 263 284" fill="none" xmlns="http://www.w3.org/2000/svg">
<g filter="url(#filter0_d_118_588)">
<rect x="10" y="8" width="243" height="264" rx="4" fill="white"/>
</g>
<path opacity="0.5" d="M30.716 160.456C31.7 160.456 32.524 160.7 33.188 161.188C33.86 161.676 34.312 162.34 34.544 163.18H33.392C33.192 162.668 32.856 162.256 32.384 161.944C31.92 161.632 31.368 161.476 30.728 161.476C30.152 161.476 29.636 161.612 29.18 161.884C28.724 162.148 28.364 162.528 28.1 163.024C27.844 163.52 27.716 164.104 27.716 164.776C27.716 165.464 27.848 166.06 28.112 166.564C28.376 167.06 28.74 167.444 29.204 167.716C29.676 167.98 30.216 168.112 30.824 168.112C31.344 168.112 31.82 168 32.252 167.776C32.684 167.552 33.036 167.228 33.308 166.804C33.588 166.372 33.756 165.868 33.812 165.292H30.488V164.476H34.736V165.484C34.664 166.156 34.456 166.764 34.112 167.308C33.768 167.852 33.304 168.284 32.72 168.604C32.136 168.924 31.472 169.084 30.728 169.084C29.912 169.084 29.192 168.904 28.568 168.544C27.944 168.176 27.456 167.668 27.104 167.02C26.76 166.364 26.588 165.616 26.588 164.776C26.588 163.936 26.76 163.192 27.104 162.544C27.456 161.888 27.944 161.376 28.568 161.008C29.192 160.64 29.908 160.456 30.716 160.456ZM39.0158 162.328C39.6558 162.328 40.1958 162.488 40.6358 162.808C41.0838 163.128 41.3958 163.556 41.5718 164.092V162.412H42.6638V169H41.5718V167.32C41.3958 167.856 41.0838 168.284 40.6358 168.604C40.1958 168.924 39.6558 169.084 39.0158 169.084C38.4318 169.084 37.9118 168.948 37.4558 168.676C36.9998 168.404 36.6398 168.016 36.3758 167.512C36.1198 167 35.9918 166.4 35.9918 165.712C35.9918 165.024 36.1198 164.424 36.3758 163.912C36.6398 163.4 36.9998 163.008 37.4558 162.736C37.9118 162.464 38.4318 162.328 39.0158 162.328ZM39.3278 163.3C38.6558 163.3 38.1158 163.516 37.7078 163.948C37.3078 164.372 37.1078 164.96 37.1078 165.712C37.1078 166.464 37.3078 167.056 37.7078 167.488C38.1158 167.912 38.6558 168.124 39.3278 168.124C39.7598 168.124 40.1438 168.024 40.4798 167.824C40.8238 167.624 41.0918 167.344 41.2838 166.984C41.4758 166.616 41.5718 166.192 41.5718 165.712C41.5718 165.232 41.4758 164.808 41.2838 164.44C41.0918 164.072 40.8238 163.792 40.4798 163.6C40.1438 163.4 39.7598 163.3 39.3278 163.3ZM44.3098 160.48C44.3098 160.28 44.3778 160.12 44.5138 160C44.6498 159.872 44.8298 159.808 45.0538 159.808C45.2778 159.808 45.4578 159.872 45.5938 160C45.7298 160.12 45.7978 160.28 45.7978 160.48C45.7978 160.68 45.7298 160.844 45.5938 160.972C45.4578 161.092 45.2778 161.152 45.0538 161.152C44.8298 161.152 44.6498 161.092 44.5138 160.972C44.3778 160.844 44.3098 160.68 44.3098 160.48ZM45.5938 162.412V169H44.5018V162.412H45.5938ZM50.9174 162.304C51.6854 162.304 52.3054 162.552 52.7774 163.048C53.2494 163.536 53.4854 164.244 53.4854 165.172V169H52.3934V165.268C52.3934 164.612 52.2254 164.108 51.8894 163.756C51.5534 163.404 51.0974 163.228 50.5214 163.228C49.9214 163.228 49.4414 163.424 49.0814 163.816C48.7214 164.2 48.5414 164.764 48.5414 165.508V169H47.4494V162.412H48.5414V163.972C48.7094 163.436 49.0054 163.024 49.4294 162.736C49.8614 162.448 50.3574 162.304 50.9174 162.304ZM66.4252 162.304C67.1932 162.304 67.8092 162.552 68.2732 163.048C68.7452 163.536 68.9812 164.244 68.9812 165.172V169H67.8892V165.268C67.8892 164.62 67.7292 164.124 67.4092 163.78C67.0972 163.436 66.6652 163.264 66.1132 163.264C65.5372 163.264 65.0732 163.456 64.7212 163.84C64.3772 164.216 64.2052 164.772 64.2052 165.508V169H63.1132V165.268C63.1132 164.62 62.9532 164.124 62.6332 163.78C62.3132 163.436 61.8812 163.264 61.3372 163.264C60.7532 163.264 60.2852 163.456 59.9332 163.84C59.5892 164.216 59.4172 164.772 59.4172 165.508V169H58.3252V162.412H59.4172V163.912C59.5772 163.392 59.8612 162.996 60.2692 162.724C60.6852 162.444 61.1612 162.304 61.6972 162.304C62.2572 162.304 62.7412 162.448 63.1492 162.736C63.5652 163.016 63.8612 163.432 64.0372 163.984C64.2212 163.448 64.5292 163.036 64.9612 162.748C65.3932 162.452 65.8812 162.304 66.4252 162.304ZM73.7648 162.328C74.3968 162.328 74.9608 162.464 75.4568 162.736C75.9608 163.008 76.3528 163.4 76.6328 163.912C76.9208 164.424 77.0648 165.024 77.0648 165.712C77.0648 166.4 76.9208 167 76.6328 167.512C76.3528 168.016 75.9608 168.404 75.4568 168.676C74.9608 168.948 74.3968 169.084 73.7648 169.084C73.1328 169.084 72.5648 168.948 72.0608 168.676C71.5648 168.404 71.1728 168.016 70.8848 167.512C70.5968 167 70.4528 166.4 70.4528 165.712C70.4528 165.024 70.5968 164.424 70.8848 163.912C71.1728 163.4 71.5648 163.008 72.0608 162.736C72.5648 162.464 73.1328 162.328 73.7648 162.328ZM73.7648 163.288C73.3728 163.288 73.0088 163.376 72.6728 163.552C72.3448 163.728 72.0768 164 71.8688 164.368C71.6688 164.728 71.5688 165.176 71.5688 165.712C71.5688 166.24 71.6688 166.688 71.8688 167.056C72.0768 167.416 72.3448 167.684 72.6728 167.86C73.0088 168.036 73.3728 168.124 73.7648 168.124C74.1568 168.124 74.5168 168.036 74.8448 167.86C75.1808 167.684 75.4488 167.416 75.6488 167.056C75.8568 166.688 75.9608 166.24 75.9608 165.712C75.9608 165.176 75.8568 164.728 75.6488 164.368C75.4488 164 75.1808 163.728 74.8448 163.552C74.5168 163.376 74.1568 163.288 73.7648 163.288ZM79.6797 163.744C79.8957 163.288 80.2117 162.936 80.6277 162.688C81.0437 162.432 81.5397 162.304 82.1157 162.304V163.492H81.7797C81.1637 163.492 80.6597 163.652 80.2677 163.972C79.8757 164.284 79.6797 164.804 79.6797 165.532V169H78.5877V162.412H79.6797V163.744ZM89.3532 165.34C89.3532 165.572 89.3372 165.772 89.3052 165.94H84.0372C84.0612 166.692 84.2732 167.256 84.6732 167.632C85.0812 168.008 85.5772 168.196 86.1612 168.196C86.6892 168.196 87.1292 168.064 87.4812 167.8C87.8412 167.528 88.0612 167.168 88.1412 166.72H89.3052C89.2252 167.176 89.0452 167.584 88.7652 167.944C88.4932 168.304 88.1372 168.584 87.6972 168.784C87.2572 168.984 86.7612 169.084 86.2092 169.084C85.5772 169.084 85.0172 168.948 84.5292 168.676C84.0412 168.404 83.6572 168.016 83.3772 167.512C83.1052 167 82.9692 166.4 82.9692 165.712C82.9692 165.024 83.1052 164.424 83.3772 163.912C83.6572 163.4 84.0412 163.008 84.5292 162.736C85.0172 162.464 85.5772 162.328 86.2092 162.328C86.8492 162.328 87.4052 162.464 87.8772 162.736C88.3572 163.008 88.7212 163.372 88.9692 163.828C89.2252 164.284 89.3532 164.788 89.3532 165.34ZM88.2492 165.412C88.2732 164.924 88.1932 164.516 88.0092 164.188C87.8252 163.86 87.5732 163.616 87.2532 163.456C86.9332 163.296 86.5852 163.216 86.2092 163.216C85.6092 163.216 85.1052 163.404 84.6972 163.78C84.2892 164.148 84.0692 164.692 84.0372 165.412H88.2492ZM93.7543 160.48C93.7543 160.28 93.8223 160.12 93.9583 160C94.0943 159.872 94.2743 159.808 94.4983 159.808C94.7223 159.808 94.9023 159.872 95.0383 160C95.1743 160.12 95.2423 160.28 95.2423 160.48C95.2423 160.68 95.1743 160.844 95.0383 160.972C94.9023 161.092 94.7223 161.152 94.4983 161.152C94.2743 161.152 94.0943 161.092 93.9583 160.972C93.8223 160.844 93.7543 160.68 93.7543 160.48ZM95.0383 162.412V169H93.9463V162.412H95.0383ZM100.362 162.304C101.13 162.304 101.75 162.552 102.222 163.048C102.694 163.536 102.93 164.244 102.93 165.172V169H101.838V165.268C101.838 164.612 101.67 164.108 101.334 163.756C100.998 163.404 100.542 163.228 99.966 163.228C99.366 163.228 98.886 163.424 98.526 163.816C98.166 164.2 97.986 164.764 97.986 165.508V169H96.894V162.412H97.986V163.972C98.154 163.436 98.45 163.024 98.874 162.736C99.306 162.448 99.802 162.304 100.362 162.304ZM106.769 162.328C107.513 162.328 108.109 162.524 108.557 162.916C109.013 163.3 109.289 163.82 109.385 164.476H108.341C108.293 164.084 108.129 163.764 107.849 163.516C107.577 163.26 107.209 163.132 106.745 163.132C106.353 163.132 106.045 163.228 105.821 163.42C105.605 163.604 105.497 163.856 105.497 164.176C105.497 164.416 105.569 164.612 105.713 164.764C105.865 164.908 106.049 165.02 106.265 165.1C106.489 165.172 106.793 165.252 107.177 165.34C107.665 165.452 108.057 165.568 108.353 165.688C108.657 165.8 108.913 165.984 109.121 166.24C109.337 166.496 109.445 166.84 109.445 167.272C109.445 167.808 109.241 168.244 108.833 168.58C108.433 168.916 107.897 169.084 107.225 169.084C106.441 169.084 105.801 168.896 105.305 168.52C104.809 168.144 104.517 167.62 104.429 166.948H105.485C105.525 167.348 105.697 167.672 106.001 167.92C106.313 168.168 106.721 168.292 107.225 168.292C107.601 168.292 107.893 168.196 108.101 168.004C108.317 167.812 108.425 167.56 108.425 167.248C108.425 166.992 108.349 166.788 108.197 166.636C108.045 166.484 107.857 166.368 107.633 166.288C107.409 166.208 107.101 166.124 106.709 166.036C106.221 165.924 105.829 165.812 105.533 165.7C105.245 165.588 104.997 165.412 104.789 165.172C104.589 164.924 104.489 164.592 104.489 164.176C104.489 163.624 104.693 163.18 105.101 162.844C105.509 162.5 106.065 162.328 106.769 162.328ZM110.812 160.48C110.812 160.28 110.88 160.12 111.016 160C111.152 159.872 111.332 159.808 111.556 159.808C111.78 159.808 111.96 159.872 112.096 160C112.232 160.12 112.3 160.28 112.3 160.48C112.3 160.68 112.232 160.844 112.096 160.972C111.96 161.092 111.78 161.152 111.556 161.152C111.332 161.152 111.152 161.092 111.016 160.972C110.88 160.844 110.812 160.68 110.812 160.48ZM112.096 162.412V169H111.004V162.412H112.096ZM116.652 162.328C117.292 162.328 117.832 162.488 118.272 162.808C118.72 163.128 119.032 163.556 119.208 164.092V162.412H120.3V169.108C120.3 169.716 120.172 170.256 119.916 170.728C119.66 171.2 119.3 171.568 118.836 171.832C118.372 172.096 117.832 172.228 117.216 172.228C116.328 172.228 115.604 172.012 115.044 171.58C114.484 171.156 114.128 170.58 113.976 169.852H115.056C115.184 170.292 115.424 170.636 115.776 170.884C116.136 171.14 116.596 171.268 117.156 171.268C117.748 171.268 118.236 171.076 118.62 170.692C119.012 170.316 119.208 169.788 119.208 169.108V167.32C119.032 167.856 118.72 168.284 118.272 168.604C117.832 168.924 117.292 169.084 116.652 169.084C116.068 169.084 115.548 168.948 115.092 168.676C114.636 168.404 114.276 168.016 114.012 167.512C113.756 167 113.628 166.4 113.628 165.712C113.628 165.024 113.756 164.424 114.012 163.912C114.276 163.4 114.636 163.008 115.092 162.736C115.548 162.464 116.068 162.328 116.652 162.328ZM116.964 163.3C116.292 163.3 115.752 163.516 115.344 163.948C114.944 164.372 114.744 164.96 114.744 165.712C114.744 166.464 114.944 167.056 115.344 167.488C115.752 167.912 116.292 168.124 116.964 168.124C117.396 168.124 117.78 168.024 118.116 167.824C118.46 167.624 118.728 167.344 118.92 166.984C119.112 166.616 119.208 166.192 119.208 165.712C119.208 165.232 119.112 164.808 118.92 164.44C118.728 164.072 118.46 163.792 118.116 163.6C117.78 163.4 117.396 163.3 116.964 163.3ZM125.606 162.304C126.374 162.304 126.994 162.552 127.466 163.048C127.938 163.536 128.174 164.244 128.174 165.172V169H127.082V165.268C127.082 164.612 126.914 164.108 126.578 163.756C126.242 163.404 125.786 163.228 125.21 163.228C124.61 163.228 124.13 163.424 123.77 163.816C123.41 164.2 123.23 164.764 123.23 165.508V169H122.138V160.12H123.23V163.972C123.398 163.436 123.694 163.024 124.118 162.736C124.55 162.448 125.046 162.304 125.606 162.304ZM133.093 168.04V169H132.277C131.605 169 131.101 168.84 130.765 168.52C130.437 168.2 130.273 167.664 130.273 166.912V163.36H129.289V162.412H130.273V160.768H131.377V162.412H133.081V163.36H131.377V166.936C131.377 167.36 131.453 167.652 131.605 167.812C131.765 167.964 132.037 168.04 132.421 168.04H133.093ZM136.589 162.328C137.333 162.328 137.929 162.524 138.377 162.916C138.833 163.3 139.109 163.82 139.205 164.476H138.161C138.113 164.084 137.949 163.764 137.669 163.516C137.397 163.26 137.029 163.132 136.565 163.132C136.173 163.132 135.865 163.228 135.641 163.42C135.425 163.604 135.317 163.856 135.317 164.176C135.317 164.416 135.389 164.612 135.533 164.764C135.685 164.908 135.869 165.02 136.085 165.1C136.309 165.172 136.613 165.252 136.997 165.34C137.485 165.452 137.877 165.568 138.173 165.688C138.477 165.8 138.733 165.984 138.941 166.24C139.157 166.496 139.265 166.84 139.265 167.272C139.265 167.808 139.061 168.244 138.653 168.58C138.253 168.916 137.717 169.084 137.045 169.084C136.261 169.084 135.621 168.896 135.125 168.52C134.629 168.144 134.337 167.62 134.249 166.948H135.305C135.345 167.348 135.517 167.672 135.821 167.92C136.133 168.168 136.541 168.292 137.045 168.292C137.421 168.292 137.713 168.196 137.921 168.004C138.137 167.812 138.245 167.56 138.245 167.248C138.245 166.992 138.169 166.788 138.017 166.636C137.865 166.484 137.677 166.368 137.453 166.288C137.229 166.208 136.921 166.124 136.529 166.036C136.041 165.924 135.649 165.812 135.353 165.7C135.065 165.588 134.817 165.412 134.609 165.172C134.409 164.924 134.309 164.592 134.309 164.176C134.309 163.624 134.513 163.18 134.921 162.844C135.329 162.5 135.885 162.328 136.589 162.328ZM143.697 160.48C143.697 160.28 143.765 160.12 143.901 160C144.037 159.872 144.217 159.808 144.441 159.808C144.665 159.808 144.845 159.872 144.981 160C145.117 160.12 145.185 160.28 145.185 160.48C145.185 160.68 145.117 160.844 144.981 160.972C144.845 161.092 144.665 161.152 144.441 161.152C144.217 161.152 144.037 161.092 143.901 160.972C143.765 160.844 143.697 160.68 143.697 160.48ZM144.981 162.412V169H143.889V162.412H144.981ZM150.305 162.304C151.073 162.304 151.693 162.552 152.165 163.048C152.637 163.536 152.873 164.244 152.873 165.172V169H151.781V165.268C151.781 164.612 151.613 164.108 151.277 163.756C150.941 163.404 150.485 163.228 149.909 163.228C149.309 163.228 148.829 163.424 148.469 163.816C148.109 164.2 147.929 164.764 147.929 165.508V169H146.837V162.412H147.929V163.972C148.097 163.436 148.393 163.024 148.817 162.736C149.249 162.448 149.745 162.304 150.305 162.304ZM157.792 168.04V169H156.976C156.304 169 155.8 168.84 155.464 168.52C155.136 168.2 154.972 167.664 154.972 166.912V163.36H153.988V162.412H154.972V160.768H156.076V162.412H157.78V163.36H156.076V166.936C156.076 167.36 156.152 167.652 156.304 167.812C156.464 167.964 156.736 168.04 157.12 168.04H157.792ZM162.212 162.328C162.844 162.328 163.408 162.464 163.904 162.736C164.408 163.008 164.8 163.4 165.08 163.912C165.368 164.424 165.512 165.024 165.512 165.712C165.512 166.4 165.368 167 165.08 167.512C164.8 168.016 164.408 168.404 163.904 168.676C163.408 168.948 162.844 169.084 162.212 169.084C161.58 169.084 161.012 168.948 160.508 168.676C160.012 168.404 159.62 168.016 159.332 167.512C159.044 167 158.9 166.4 158.9 165.712C158.9 165.024 159.044 164.424 159.332 163.912C159.62 163.4 160.012 163.008 160.508 162.736C161.012 162.464 161.58 162.328 162.212 162.328ZM162.212 163.288C161.82 163.288 161.456 163.376 161.12 163.552C160.792 163.728 160.524 164 160.316 164.368C160.116 164.728 160.016 165.176 160.016 165.712C160.016 166.24 160.116 166.688 160.316 167.056C160.524 167.416 160.792 167.684 161.12 167.86C161.456 168.036 161.82 168.124 162.212 168.124C162.604 168.124 162.964 168.036 163.292 167.86C163.628 167.684 163.896 167.416 164.096 167.056C164.304 166.688 164.408 166.24 164.408 165.712C164.408 165.176 164.304 164.728 164.096 164.368C163.896 164 163.628 163.728 163.292 163.552C162.964 163.376 162.604 163.288 162.212 163.288ZM173.244 168.04V169H172.428C171.756 169 171.252 168.84 170.916 168.52C170.588 168.2 170.424 167.664 170.424 166.912V163.36H169.44V162.412H170.424V160.768H171.528V162.412H173.232V163.36H171.528V166.936C171.528 167.36 171.604 167.652 171.756 167.812C171.916 167.964 172.188 168.04 172.572 168.04H173.244ZM178.145 162.304C178.913 162.304 179.533 162.552 180.005 163.048C180.477 163.536 180.713 164.244 180.713 165.172V169H179.621V165.268C179.621 164.612 179.453 164.108 179.117 163.756C178.781 163.404 178.325 163.228 177.749 163.228C177.149 163.228 176.669 163.424 176.309 163.816C175.949 164.2 175.769 164.764 175.769 165.508V169H174.677V160.12H175.769V163.972C175.937 163.436 176.233 163.024 176.657 162.736C177.089 162.448 177.585 162.304 178.145 162.304ZM188.548 165.34C188.548 165.572 188.532 165.772 188.5 165.94H183.232C183.256 166.692 183.468 167.256 183.868 167.632C184.276 168.008 184.772 168.196 185.356 168.196C185.884 168.196 186.324 168.064 186.676 167.8C187.036 167.528 187.256 167.168 187.336 166.72H188.5C188.42 167.176 188.24 167.584 187.96 167.944C187.688 168.304 187.332 168.584 186.892 168.784C186.452 168.984 185.956 169.084 185.404 169.084C184.772 169.084 184.212 168.948 183.724 168.676C183.236 168.404 182.852 168.016 182.572 167.512C182.3 167 182.164 166.4 182.164 165.712C182.164 165.024 182.3 164.424 182.572 163.912C182.852 163.4 183.236 163.008 183.724 162.736C184.212 162.464 184.772 162.328 185.404 162.328C186.044 162.328 186.6 162.464 187.072 162.736C187.552 163.008 187.916 163.372 188.164 163.828C188.42 164.284 188.548 164.788 188.548 165.34ZM187.444 165.412C187.468 164.924 187.388 164.516 187.204 164.188C187.02 163.86 186.768 163.616 186.448 163.456C186.128 163.296 185.78 163.216 185.404 163.216C184.804 163.216 184.3 163.404 183.892 163.78C183.484 164.148 183.264 164.692 183.232 165.412H187.444ZM29.792 180.328C30.632 180.328 31.328 180.552 31.88 181C32.432 181.448 32.772 182.048 32.9 182.8H31.748C31.668 182.328 31.448 181.96 31.088 181.696C30.736 181.424 30.296 181.288 29.768 181.288C29.384 181.288 29.032 181.376 28.712 181.552C28.4 181.728 28.148 182 27.956 182.368C27.764 182.728 27.668 183.176 27.668 183.712C27.668 184.248 27.764 184.7 27.956 185.068C28.148 185.428 28.4 185.696 28.712 185.872C29.032 186.048 29.384 186.136 29.768 186.136C30.296 186.136 30.736 186 31.088 185.728C31.448 185.456 31.668 185.084 31.748 184.612H32.9C32.772 185.372 32.432 185.976 31.88 186.424C31.328 186.864 30.632 187.084 29.792 187.084C29.16 187.084 28.6 186.948 28.112 186.676C27.624 186.404 27.24 186.016 26.96 185.512C26.688 185 26.552 184.4 26.552 183.712C26.552 183.024 26.688 182.424 26.96 181.912C27.24 181.4 27.624 181.008 28.112 180.736C28.6 180.464 29.16 180.328 29.792 180.328ZM40.2851 180.412V187H39.1931V185.452C39.0251 185.988 38.7251 186.4 38.2931 186.688C37.8691 186.968 37.3731 187.108 36.8051 187.108C36.0451 187.108 35.4291 186.864 34.9571 186.376C34.4851 185.88 34.2491 185.172 34.2491 184.252V180.412H35.3411V184.144C35.3411 184.8 35.5091 185.308 35.8451 185.668C36.1811 186.02 36.6371 186.196 37.2131 186.196C37.8131 186.196 38.2931 186.004 38.6531 185.62C39.0131 185.228 39.1931 184.66 39.1931 183.916V180.412H40.2851ZM44.1986 180.328C44.9426 180.328 45.5386 180.524 45.9866 180.916C46.4426 181.3 46.7186 181.82 46.8146 182.476H45.7706C45.7226 182.084 45.5586 181.764 45.2786 181.516C45.0066 181.26 44.6386 181.132 44.1746 181.132C43.7826 181.132 43.4746 181.228 43.2506 181.42C43.0346 181.604 42.9266 181.856 42.9266 182.176C42.9266 182.416 42.9986 182.612 43.1426 182.764C43.2946 182.908 43.4786 183.02 43.6946 183.1C43.9186 183.172 44.2226 183.252 44.6066 183.34C45.0946 183.452 45.4866 183.568 45.7826 183.688C46.0866 183.8 46.3426 183.984 46.5506 184.24C46.7666 184.496 46.8746 184.84 46.8746 185.272C46.8746 185.808 46.6706 186.244 46.2626 186.58C45.8626 186.916 45.3266 187.084 44.6546 187.084C43.8706 187.084 43.2306 186.896 42.7346 186.52C42.2386 186.144 41.9466 185.62 41.8586 184.948H42.9146C42.9546 185.348 43.1266 185.672 43.4306 185.92C43.7426 186.168 44.1506 186.292 44.6546 186.292C45.0306 186.292 45.3226 186.196 45.5306 186.004C45.7466 185.812 45.8546 185.56 45.8546 185.248C45.8546 184.992 45.7786 184.788 45.6266 184.636C45.4746 184.484 45.2866 184.368 45.0626 184.288C44.8386 184.208 44.5306 184.124 44.1386 184.036C43.6506 183.924 43.2586 183.812 42.9626 183.7C42.6746 183.588 42.4266 183.412 42.2186 183.172C42.0186 182.924 41.9186 182.592 41.9186 182.176C41.9186 181.624 42.1226 181.18 42.5306 180.844C42.9386 180.5 43.4946 180.328 44.1986 180.328ZM51.5778 186.04V187H50.7618C50.0898 187 49.5858 186.84 49.2498 186.52C48.9218 186.2 48.7578 185.664 48.7578 184.912V181.36H47.7738V180.412H48.7578V178.768H49.8618V180.412H51.5658V181.36H49.8618V184.936C49.8618 185.36 49.9378 185.652 50.0898 185.812C50.2498 185.964 50.5218 186.04 50.9058 186.04H51.5778ZM55.9984 180.328C56.6304 180.328 57.1944 180.464 57.6904 180.736C58.1944 181.008 58.5864 181.4 58.8664 181.912C59.1544 182.424 59.2984 183.024 59.2984 183.712C59.2984 184.4 59.1544 185 58.8664 185.512C58.5864 186.016 58.1944 186.404 57.6904 186.676C57.1944 186.948 56.6304 187.084 55.9984 187.084C55.3664 187.084 54.7984 186.948 54.2944 186.676C53.7984 186.404 53.4064 186.016 53.1184 185.512C52.8304 185 52.6864 184.4 52.6864 183.712C52.6864 183.024 52.8304 182.424 53.1184 181.912C53.4064 181.4 53.7984 181.008 54.2944 180.736C54.7984 180.464 55.3664 180.328 55.9984 180.328ZM55.9984 181.288C55.6064 181.288 55.2424 181.376 54.9064 181.552C54.5784 181.728 54.3104 182 54.1024 182.368C53.9024 182.728 53.8024 183.176 53.8024 183.712C53.8024 184.24 53.9024 184.688 54.1024 185.056C54.3104 185.416 54.5784 185.684 54.9064 185.86C55.2424 186.036 55.6064 186.124 55.9984 186.124C56.3904 186.124 56.7504 186.036 57.0784 185.86C57.4144 185.684 57.6824 185.416 57.8824 185.056C58.0904 184.688 58.1944 184.24 58.1944 183.712C58.1944 183.176 58.0904 182.728 57.8824 182.368C57.6824 182 57.4144 181.728 57.0784 181.552C56.7504 181.376 56.3904 181.288 55.9984 181.288ZM68.9213 180.304C69.6893 180.304 70.3053 180.552 70.7693 181.048C71.2413 181.536 71.4773 182.244 71.4773 183.172V187H70.3853V183.268C70.3853 182.62 70.2253 182.124 69.9053 181.78C69.5933 181.436 69.1613 181.264 68.6093 181.264C68.0333 181.264 67.5693 181.456 67.2173 181.84C66.8733 182.216 66.7013 182.772 66.7013 183.508V187H65.6093V183.268C65.6093 182.62 65.4493 182.124 65.1293 181.78C64.8093 181.436 64.3773 181.264 63.8333 181.264C63.2493 181.264 62.7813 181.456 62.4293 181.84C62.0853 182.216 61.9133 182.772 61.9133 183.508V187H60.8213V180.412H61.9133V181.912C62.0733 181.392 62.3573 180.996 62.7653 180.724C63.1813 180.444 63.6573 180.304 64.1933 180.304C64.7533 180.304 65.2373 180.448 65.6453 180.736C66.0613 181.016 66.3573 181.432 66.5333 181.984C66.7173 181.448 67.0253 181.036 67.4573 180.748C67.8893 180.452 68.3773 180.304 68.9213 180.304ZM79.3329 183.34C79.3329 183.572 79.3169 183.772 79.2849 183.94H74.0169C74.0409 184.692 74.2529 185.256 74.6529 185.632C75.0609 186.008 75.5569 186.196 76.1409 186.196C76.6689 186.196 77.1089 186.064 77.4609 185.8C77.8209 185.528 78.0409 185.168 78.1209 184.72H79.2849C79.2049 185.176 79.0249 185.584 78.7449 185.944C78.4729 186.304 78.1169 186.584 77.6769 186.784C77.2369 186.984 76.7409 187.084 76.1889 187.084C75.5569 187.084 74.9969 186.948 74.5089 186.676C74.0209 186.404 73.6369 186.016 73.3569 185.512C73.0849 185 72.9489 184.4 72.9489 183.712C72.9489 183.024 73.0849 182.424 73.3569 181.912C73.6369 181.4 74.0209 181.008 74.5089 180.736C74.9969 180.464 75.5569 180.328 76.1889 180.328C76.8289 180.328 77.3849 180.464 77.8569 180.736C78.3369 181.008 78.7009 181.372 78.9489 181.828C79.2049 182.284 79.3329 182.788 79.3329 183.34ZM78.2289 183.412C78.2529 182.924 78.1729 182.516 77.9889 182.188C77.8049 181.86 77.5529 181.616 77.2329 181.456C76.9129 181.296 76.5649 181.216 76.1889 181.216C75.5889 181.216 75.0849 181.404 74.6769 181.78C74.2689 182.148 74.0489 182.692 74.0169 183.412H78.2289ZM81.9532 181.744C82.1692 181.288 82.4852 180.936 82.9012 180.688C83.3172 180.432 83.8132 180.304 84.3892 180.304V181.492H84.0532C83.4372 181.492 82.9332 181.652 82.5412 181.972C82.1492 182.284 81.9532 182.804 81.9532 183.532V187H80.8612V180.412H81.9532V181.744ZM94.6915 183.34C94.6915 183.572 94.6755 183.772 94.6435 183.94H89.3755C89.3995 184.692 89.6115 185.256 90.0115 185.632C90.4195 186.008 90.9155 186.196 91.4995 186.196C92.0275 186.196 92.4675 186.064 92.8195 185.8C93.1795 185.528 93.3995 185.168 93.4795 184.72H94.6435C94.5635 185.176 94.3835 185.584 94.1035 185.944C93.8315 186.304 93.4755 186.584 93.0355 186.784C92.5955 186.984 92.0995 187.084 91.5475 187.084C90.9155 187.084 90.3555 186.948 89.8675 186.676C89.3795 186.404 88.9955 186.016 88.7155 185.512C88.4435 185 88.3075 184.4 88.3075 183.712C88.3075 183.024 88.4435 182.424 88.7155 181.912C88.9955 181.4 89.3795 181.008 89.8675 180.736C90.3555 180.464 90.9155 180.328 91.5475 180.328C92.1875 180.328 92.7435 180.464 93.2155 180.736C93.6955 181.008 94.0595 181.372 94.3075 181.828C94.5635 182.284 94.6915 182.788 94.6915 183.34ZM93.5875 183.412C93.6115 182.924 93.5315 182.516 93.3475 182.188C93.1635 181.86 92.9115 181.616 92.5915 181.456C92.2715 181.296 91.9235 181.216 91.5475 181.216C90.9475 181.216 90.4435 181.404 90.0355 181.78C89.6275 182.148 89.4075 182.692 89.3755 183.412H93.5875ZM100.012 187L98.2958 184.48L96.7478 187H95.5358L97.6958 183.604L95.5238 180.412H96.7718L98.4398 182.86L99.9638 180.412H101.176L99.0278 183.724L101.26 187H100.012ZM106.014 180.328C106.598 180.328 107.118 180.464 107.574 180.736C108.03 181.008 108.386 181.4 108.642 181.912C108.906 182.424 109.038 183.024 109.038 183.712C109.038 184.4 108.906 185 108.642 185.512C108.386 186.016 108.03 186.404 107.574 186.676C107.118 186.948 106.598 187.084 106.014 187.084C105.374 187.084 104.83 186.924 104.382 186.604C103.942 186.276 103.638 185.848 103.47 185.32V190.12H102.378V180.412H103.47V182.092C103.638 181.564 103.942 181.14 104.382 180.82C104.83 180.492 105.374 180.328 106.014 180.328ZM105.702 181.3C105.278 181.3 104.894 181.4 104.55 181.6C104.206 181.792 103.938 182.072 103.746 182.44C103.554 182.808 103.458 183.232 103.458 183.712C103.458 184.192 103.554 184.616 103.746 184.984C103.938 185.344 104.206 185.624 104.55 185.824C104.894 186.024 105.278 186.124 105.702 186.124C106.382 186.124 106.922 185.912 107.322 185.488C107.73 185.056 107.934 184.464 107.934 183.712C107.934 182.96 107.73 182.372 107.322 181.948C106.922 181.516 106.382 181.3 105.702 181.3ZM116.624 183.34C116.624 183.572 116.608 183.772 116.576 183.94H111.308C111.332 184.692 111.544 185.256 111.944 185.632C112.352 186.008 112.848 186.196 113.432 186.196C113.96 186.196 114.4 186.064 114.752 185.8C115.112 185.528 115.332 185.168 115.412 184.72H116.576C116.496 185.176 116.316 185.584 116.036 185.944C115.764 186.304 115.408 186.584 114.968 186.784C114.528 186.984 114.032 187.084 113.48 187.084C112.848 187.084 112.288 186.948 111.8 186.676C111.312 186.404 110.928 186.016 110.648 185.512C110.376 185 110.24 184.4 110.24 183.712C110.24 183.024 110.376 182.424 110.648 181.912C110.928 181.4 111.312 181.008 111.8 180.736C112.288 180.464 112.848 180.328 113.48 180.328C114.12 180.328 114.676 180.464 115.148 180.736C115.628 181.008 115.992 181.372 116.24 181.828C116.496 182.284 116.624 182.788 116.624 183.34ZM115.52 183.412C115.544 182.924 115.464 182.516 115.28 182.188C115.096 181.86 114.844 181.616 114.524 181.456C114.204 181.296 113.856 181.216 113.48 181.216C112.88 181.216 112.376 181.404 111.968 181.78C111.56 182.148 111.34 182.692 111.308 183.412H115.52ZM119.245 181.744C119.461 181.288 119.777 180.936 120.193 180.688C120.609 180.432 121.105 180.304 121.681 180.304V181.492H121.345C120.729 181.492 120.225 181.652 119.833 181.972C119.441 182.284 119.245 182.804 119.245 183.532V187H118.153V180.412H119.245V181.744ZM122.666 178.48C122.666 178.28 122.734 178.12 122.87 178C123.006 177.872 123.186 177.808 123.41 177.808C123.634 177.808 123.814 177.872 123.95 178C124.086 178.12 124.154 178.28 124.154 178.48C124.154 178.68 124.086 178.844 123.95 178.972C123.814 179.092 123.634 179.152 123.41 179.152C123.186 179.152 123.006 179.092 122.87 178.972C122.734 178.844 122.666 178.68 122.666 178.48ZM123.95 180.412V187H122.858V180.412H123.95ZM131.866 183.34C131.866 183.572 131.85 183.772 131.818 183.94H126.55C126.574 184.692 126.786 185.256 127.186 185.632C127.594 186.008 128.09 186.196 128.674 186.196C129.202 186.196 129.642 186.064 129.994 185.8C130.354 185.528 130.574 185.168 130.654 184.72H131.818C131.738 185.176 131.558 185.584 131.278 185.944C131.006 186.304 130.65 186.584 130.21 186.784C129.77 186.984 129.274 187.084 128.722 187.084C128.09 187.084 127.53 186.948 127.042 186.676C126.554 186.404 126.17 186.016 125.89 185.512C125.618 185 125.482 184.4 125.482 183.712C125.482 183.024 125.618 182.424 125.89 181.912C126.17 181.4 126.554 181.008 127.042 180.736C127.53 180.464 128.09 180.328 128.722 180.328C129.362 180.328 129.918 180.464 130.39 180.736C130.87 181.008 131.234 181.372 131.482 181.828C131.738 182.284 131.866 182.788 131.866 183.34ZM130.762 183.412C130.786 182.924 130.706 182.516 130.522 182.188C130.338 181.86 130.086 181.616 129.766 181.456C129.446 181.296 129.098 181.216 128.722 181.216C128.122 181.216 127.618 181.404 127.21 181.78C126.802 182.148 126.582 182.692 126.55 183.412H130.762ZM136.862 180.304C137.63 180.304 138.25 180.552 138.722 181.048C139.194 181.536 139.43 182.244 139.43 183.172V187H138.338V183.268C138.338 182.612 138.17 182.108 137.834 181.756C137.498 181.404 137.042 181.228 136.466 181.228C135.866 181.228 135.386 181.424 135.026 181.816C134.666 182.2 134.486 182.764 134.486 183.508V187H133.394V180.412H134.486V181.972C134.654 181.436 134.95 181.024 135.374 180.736C135.806 180.448 136.302 180.304 136.862 180.304ZM144.121 180.328C144.961 180.328 145.657 180.552 146.209 181C146.761 181.448 147.101 182.048 147.229 182.8H146.077C145.997 182.328 145.777 181.96 145.417 181.696C145.065 181.424 144.625 181.288 144.097 181.288C143.713 181.288 143.361 181.376 143.041 181.552C142.729 181.728 142.477 182 142.285 182.368C142.093 182.728 141.997 183.176 141.997 183.712C141.997 184.248 142.093 184.7 142.285 185.068C142.477 185.428 142.729 185.696 143.041 185.872C143.361 186.048 143.713 186.136 144.097 186.136C144.625 186.136 145.065 186 145.417 185.728C145.777 185.456 145.997 185.084 146.077 184.612H147.229C147.101 185.372 146.761 185.976 146.209 186.424C145.657 186.864 144.961 187.084 144.121 187.084C143.489 187.084 142.929 186.948 142.441 186.676C141.953 186.404 141.569 186.016 141.289 185.512C141.017 185 140.881 184.4 140.881 183.712C140.881 183.024 141.017 182.424 141.289 181.912C141.569 181.4 141.953 181.008 142.441 180.736C142.929 180.464 143.489 180.328 144.121 180.328ZM154.818 183.34C154.818 183.572 154.802 183.772 154.77 183.94H149.502C149.526 184.692 149.738 185.256 150.138 185.632C150.546 186.008 151.042 186.196 151.626 186.196C152.154 186.196 152.594 186.064 152.946 185.8C153.306 185.528 153.526 185.168 153.606 184.72H154.77C154.69 185.176 154.51 185.584 154.23 185.944C153.958 186.304 153.602 186.584 153.162 186.784C152.722 186.984 152.226 187.084 151.674 187.084C151.042 187.084 150.482 186.948 149.994 186.676C149.506 186.404 149.122 186.016 148.842 185.512C148.57 185 148.434 184.4 148.434 183.712C148.434 183.024 148.57 182.424 148.842 181.912C149.122 181.4 149.506 181.008 149.994 180.736C150.482 180.464 151.042 180.328 151.674 180.328C152.314 180.328 152.87 180.464 153.342 180.736C153.822 181.008 154.186 181.372 154.434 181.828C154.69 182.284 154.818 182.788 154.818 183.34ZM153.714 183.412C153.738 182.924 153.658 182.516 153.474 182.188C153.29 181.86 153.038 181.616 152.718 181.456C152.398 181.296 152.05 181.216 151.674 181.216C151.074 181.216 150.57 181.404 150.162 181.78C149.754 182.148 149.534 182.692 149.502 183.412H153.714ZM168.459 180.412L166.563 187H165.387L163.575 181.636L161.751 187H160.563L158.691 180.412H159.795L161.199 185.956L163.023 180.412H164.163L165.999 185.944L167.415 180.412H168.459ZM169.386 178.48C169.386 178.28 169.454 178.12 169.59 178C169.726 177.872 169.906 177.808 170.13 177.808C170.354 177.808 170.534 177.872 170.67 178C170.806 178.12 170.874 178.28 170.874 178.48C170.874 178.68 170.806 178.844 170.67 178.972C170.534 179.092 170.354 179.152 170.13 179.152C169.906 179.152 169.726 179.092 169.59 178.972C169.454 178.844 169.386 178.68 169.386 178.48ZM170.67 180.412V187H169.578V180.412H170.67ZM175.669 186.04V187H174.853C174.181 187 173.677 186.84 173.341 186.52C173.013 186.2 172.849 185.664 172.849 184.912V181.36H171.865V180.412H172.849V178.768H173.953V180.412H175.657V181.36H173.953V184.936C173.953 185.36 174.029 185.652 174.181 185.812C174.341 185.964 174.613 186.04 174.997 186.04H175.669ZM180.57 180.304C181.338 180.304 181.958 180.552 182.43 181.048C182.902 181.536 183.138 182.244 183.138 183.172V187H182.046V183.268C182.046 182.612 181.878 182.108 181.542 181.756C181.206 181.404 180.75 181.228 180.174 181.228C179.574 181.228 179.094 181.424 178.734 181.816C178.374 182.2 178.194 182.764 178.194 183.508V187H177.102V178.12H178.194V181.972C178.362 181.436 178.658 181.024 179.082 180.736C179.514 180.448 180.01 180.304 180.57 180.304ZM191.122 186.04V187H190.306C189.634 187 189.13 186.84 188.794 186.52C188.466 186.2 188.302 185.664 188.302 184.912V181.36H187.318V180.412H188.302V178.768H189.406V180.412H191.11V181.36H189.406V184.936C189.406 185.36 189.482 185.652 189.634 185.812C189.794 185.964 190.066 186.04 190.45 186.04H191.122ZM196.022 180.304C196.79 180.304 197.41 180.552 197.882 181.048C198.354 181.536 198.59 182.244 198.59 183.172V187H197.498V183.268C197.498 182.612 197.33 182.108 196.994 181.756C196.658 181.404 196.202 181.228 195.626 181.228C195.026 181.228 194.546 181.424 194.186 181.816C193.826 182.2 193.646 182.764 193.646 183.508V187H192.554V178.12H193.646V181.972C193.814 181.436 194.11 181.024 194.534 180.736C194.966 180.448 195.462 180.304 196.022 180.304ZM206.425 183.34C206.425 183.572 206.409 183.772 206.377 183.94H201.109C201.133 184.692 201.345 185.256 201.745 185.632C202.153 186.008 202.649 186.196 203.233 186.196C203.761 186.196 204.201 186.064 204.553 185.8C204.913 185.528 205.133 185.168 205.213 184.72H206.377C206.297 185.176 206.117 185.584 205.837 185.944C205.565 186.304 205.209 186.584 204.769 186.784C204.329 186.984 203.833 187.084 203.281 187.084C202.649 187.084 202.089 186.948 201.601 186.676C201.113 186.404 200.729 186.016 200.449 185.512C200.177 185 200.041 184.4 200.041 183.712C200.041 183.024 200.177 182.424 200.449 181.912C200.729 181.4 201.113 181.008 201.601 180.736C202.089 180.464 202.649 180.328 203.281 180.328C203.921 180.328 204.477 180.464 204.949 180.736C205.429 181.008 205.793 181.372 206.041 181.828C206.297 182.284 206.425 182.788 206.425 183.34ZM205.321 183.412C205.345 182.924 205.265 182.516 205.081 182.188C204.897 181.86 204.645 181.616 204.325 181.456C204.005 181.296 203.657 181.216 203.281 181.216C202.681 181.216 202.177 181.404 201.769 181.78C201.361 182.148 201.141 182.692 201.109 183.412H205.321ZM214.486 180.304C215.254 180.304 215.874 180.552 216.346 181.048C216.818 181.536 217.054 182.244 217.054 183.172V187H215.962V183.268C215.962 182.612 215.794 182.108 215.458 181.756C215.122 181.404 214.666 181.228 214.09 181.228C213.49 181.228 213.01 181.424 212.65 181.816C212.29 182.2 212.11 182.764 212.11 183.508V187H211.018V180.412H212.11V181.972C212.278 181.436 212.574 181.024 212.998 180.736C213.43 180.448 213.926 180.304 214.486 180.304ZM224.889 183.34C224.889 183.572 224.873 183.772 224.841 183.94H219.573C219.597 184.692 219.809 185.256 220.209 185.632C220.617 186.008 221.113 186.196 221.697 186.196C222.225 186.196 222.665 186.064 223.017 185.8C223.377 185.528 223.597 185.168 223.677 184.72H224.841C224.761 185.176 224.581 185.584 224.301 185.944C224.029 186.304 223.673 186.584 223.233 186.784C222.793 186.984 222.297 187.084 221.745 187.084C221.113 187.084 220.553 186.948 220.065 186.676C219.577 186.404 219.193 186.016 218.913 185.512C218.641 185 218.505 184.4 218.505 183.712C218.505 183.024 218.641 182.424 218.913 181.912C219.193 181.4 219.577 181.008 220.065 180.736C220.553 180.464 221.113 180.328 221.745 180.328C222.385 180.328 222.941 180.464 223.413 180.736C223.893 181.008 224.257 181.372 224.505 181.828C224.761 182.284 224.889 182.788 224.889 183.34ZM223.785 183.412C223.809 182.924 223.729 182.516 223.545 182.188C223.361 181.86 223.109 181.616 222.789 181.456C222.469 181.296 222.121 181.216 221.745 181.216C221.145 181.216 220.641 181.404 220.233 181.78C219.825 182.148 219.605 182.692 219.573 183.412H223.785ZM235.465 180.412L233.569 187H232.393L230.581 181.636L228.757 187H227.569L225.697 180.412H226.801L228.205 185.956L230.029 180.412H231.169L233.005 185.944L234.421 180.412H235.465ZM27.704 204.1H31.964V205H26.48V204.136L30.668 197.44H26.588V196.54H31.892V197.404L27.704 204.1ZM39.493 201.34C39.493 201.572 39.477 201.772 39.445 201.94H34.177C34.201 202.692 34.413 203.256 34.813 203.632C35.221 204.008 35.717 204.196 36.301 204.196C36.829 204.196 37.269 204.064 37.621 203.8C37.981 203.528 38.201 203.168 38.281 202.72H39.445C39.365 203.176 39.185 203.584 38.905 203.944C38.633 204.304 38.277 204.584 37.837 204.784C37.397 204.984 36.901 205.084 36.349 205.084C35.717 205.084 35.157 204.948 34.669 204.676C34.181 204.404 33.797 204.016 33.517 203.512C33.245 203 33.109 202.4 33.109 201.712C33.109 201.024 33.245 200.424 33.517 199.912C33.797 199.4 34.181 199.008 34.669 198.736C35.157 198.464 35.717 198.328 36.349 198.328C36.989 198.328 37.545 198.464 38.017 198.736C38.497 199.008 38.861 199.372 39.109 199.828C39.365 200.284 39.493 200.788 39.493 201.34ZM38.389 201.412C38.413 200.924 38.333 200.516 38.149 200.188C37.965 199.86 37.713 199.616 37.393 199.456C37.073 199.296 36.725 199.216 36.349 199.216C35.749 199.216 35.245 199.404 34.837 199.78C34.429 200.148 34.209 200.692 34.177 201.412H38.389ZM44.4893 198.304C45.2573 198.304 45.8773 198.552 46.3493 199.048C46.8213 199.536 47.0573 200.244 47.0573 201.172V205H45.9653V201.268C45.9653 200.612 45.7973 200.108 45.4613 199.756C45.1253 199.404 44.6693 199.228 44.0933 199.228C43.4933 199.228 43.0133 199.424 42.6533 199.816C42.2933 200.2 42.1133 200.764 42.1133 201.508V205H41.0213V198.412H42.1133V199.972C42.2813 199.436 42.5773 199.024 43.0013 198.736C43.4333 198.448 43.9293 198.304 44.4893 198.304ZM51.5322 198.328C52.1722 198.328 52.7122 198.488 53.1522 198.808C53.6002 199.128 53.9122 199.556 54.0882 200.092V196.12H55.1802V205H54.0882V203.32C53.9122 203.856 53.6002 204.284 53.1522 204.604C52.7122 204.924 52.1722 205.084 51.5322 205.084C50.9482 205.084 50.4282 204.948 49.9722 204.676C49.5162 204.404 49.1562 204.016 48.8922 203.512C48.6362 203 48.5082 202.4 48.5082 201.712C48.5082 201.024 48.6362 200.424 48.8922 199.912C49.1562 199.4 49.5162 199.008 49.9722 198.736C50.4282 198.464 50.9482 198.328 51.5322 198.328ZM51.8442 199.3C51.1722 199.3 50.6322 199.516 50.2242 199.948C49.8242 200.372 49.6242 200.96 49.6242 201.712C49.6242 202.464 49.8242 203.056 50.2242 203.488C50.6322 203.912 51.1722 204.124 51.8442 204.124C52.2762 204.124 52.6602 204.024 52.9962 203.824C53.3402 203.624 53.6082 203.344 53.8002 202.984C53.9922 202.616 54.0882 202.192 54.0882 201.712C54.0882 201.232 53.9922 200.808 53.8002 200.44C53.6082 200.072 53.3402 199.792 52.9962 199.6C52.6602 199.4 52.2762 199.3 51.8442 199.3ZM63.0782 201.34C63.0782 201.572 63.0622 201.772 63.0302 201.94H57.7622C57.7862 202.692 57.9982 203.256 58.3982 203.632C58.8062 204.008 59.3022 204.196 59.8862 204.196C60.4142 204.196 60.8542 204.064 61.2062 203.8C61.5662 203.528 61.7862 203.168 61.8662 202.72H63.0302C62.9502 203.176 62.7702 203.584 62.4902 203.944C62.2182 204.304 61.8622 204.584 61.4222 204.784C60.9822 204.984 60.4862 205.084 59.9342 205.084C59.3022 205.084 58.7422 204.948 58.2542 204.676C57.7662 204.404 57.3822 204.016 57.1022 203.512C56.8302 203 56.6942 202.4 56.6942 201.712C56.6942 201.024 56.8302 200.424 57.1022 199.912C57.3822 199.4 57.7662 199.008 58.2542 198.736C58.7422 198.464 59.3022 198.328 59.9342 198.328C60.5742 198.328 61.1302 198.464 61.6022 198.736C62.0822 199.008 62.4462 199.372 62.6942 199.828C62.9502 200.284 63.0782 200.788 63.0782 201.34ZM61.9742 201.412C61.9982 200.924 61.9182 200.516 61.7342 200.188C61.5502 199.86 61.2982 199.616 60.9782 199.456C60.6582 199.296 60.3102 199.216 59.9342 199.216C59.3342 199.216 58.8302 199.404 58.4222 199.78C58.0142 200.148 57.7942 200.692 57.7622 201.412H61.9742ZM66.6705 198.328C67.4145 198.328 68.0105 198.524 68.4585 198.916C68.9145 199.3 69.1905 199.82 69.2865 200.476H68.2425C68.1945 200.084 68.0305 199.764 67.7505 199.516C67.4785 199.26 67.1105 199.132 66.6465 199.132C66.2545 199.132 65.9465 199.228 65.7225 199.42C65.5065 199.604 65.3985 199.856 65.3985 200.176C65.3985 200.416 65.4705 200.612 65.6145 200.764C65.7665 200.908 65.9505 201.02 66.1665 201.1C66.3905 201.172 66.6945 201.252 67.0785 201.34C67.5665 201.452 67.9585 201.568 68.2545 201.688C68.5585 201.8 68.8145 201.984 69.0225 202.24C69.2385 202.496 69.3465 202.84 69.3465 203.272C69.3465 203.808 69.1425 204.244 68.7345 204.58C68.3345 204.916 67.7985 205.084 67.1265 205.084C66.3425 205.084 65.7025 204.896 65.2065 204.52C64.7105 204.144 64.4185 203.62 64.3305 202.948H65.3865C65.4265 203.348 65.5985 203.672 65.9025 203.92C66.2145 204.168 66.6225 204.292 67.1265 204.292C67.5025 204.292 67.7945 204.196 68.0025 204.004C68.2185 203.812 68.3265 203.56 68.3265 203.248C68.3265 202.992 68.2505 202.788 68.0985 202.636C67.9465 202.484 67.7585 202.368 67.5345 202.288C67.3105 202.208 67.0025 202.124 66.6105 202.036C66.1225 201.924 65.7305 201.812 65.4345 201.7C65.1465 201.588 64.8985 201.412 64.6905 201.172C64.4905 200.924 64.3905 200.592 64.3905 200.176C64.3905 199.624 64.5945 199.18 65.0025 198.844C65.4105 198.5 65.9665 198.328 66.6705 198.328ZM74.5177 205L71.9977 202.036V205H70.9057V196.12H71.9977V201.28L74.4817 198.412H75.8137L72.8617 201.688L75.8857 205H74.5177ZM82.7119 198.328C83.3519 198.328 83.8919 198.488 84.3319 198.808C84.7799 199.128 85.0919 199.556 85.2679 200.092V198.412H86.3599V205H85.2679V203.32C85.0919 203.856 84.7799 204.284 84.3319 204.604C83.8919 204.924 83.3519 205.084 82.7119 205.084C82.1279 205.084 81.6079 204.948 81.1519 204.676C80.6959 204.404 80.3359 204.016 80.0719 203.512C79.8159 203 79.6879 202.4 79.6879 201.712C79.6879 201.024 79.8159 200.424 80.0719 199.912C80.3359 199.4 80.6959 199.008 81.1519 198.736C81.6079 198.464 82.1279 198.328 82.7119 198.328ZM83.0239 199.3C82.3519 199.3 81.8119 199.516 81.4039 199.948C81.0039 200.372 80.8039 200.96 80.8039 201.712C80.8039 202.464 81.0039 203.056 81.4039 203.488C81.8119 203.912 82.3519 204.124 83.0239 204.124C83.4559 204.124 83.8399 204.024 84.1759 203.824C84.5199 203.624 84.7879 203.344 84.9799 202.984C85.1719 202.616 85.2679 202.192 85.2679 201.712C85.2679 201.232 85.1719 200.808 84.9799 200.44C84.7879 200.072 84.5199 199.792 84.1759 199.6C83.8399 199.4 83.4559 199.3 83.0239 199.3ZM91.1139 198.328C91.9539 198.328 92.6499 198.552 93.2019 199C93.7539 199.448 94.0939 200.048 94.2219 200.8H93.0699C92.9899 200.328 92.7699 199.96 92.4099 199.696C92.0579 199.424 91.6179 199.288 91.0899 199.288C90.7059 199.288 90.3539 199.376 90.0339 199.552C89.7219 199.728 89.4699 200 89.2779 200.368C89.0859 200.728 88.9899 201.176 88.9899 201.712C88.9899 202.248 89.0859 202.7 89.2779 203.068C89.4699 203.428 89.7219 203.696 90.0339 203.872C90.3539 204.048 90.7059 204.136 91.0899 204.136C91.6179 204.136 92.0579 204 92.4099 203.728C92.7699 203.456 92.9899 203.084 93.0699 202.612H94.2219C94.0939 203.372 93.7539 203.976 93.2019 204.424C92.6499 204.864 91.9539 205.084 91.1139 205.084C90.4819 205.084 89.9219 204.948 89.4339 204.676C88.9459 204.404 88.5619 204.016 88.2819 203.512C88.0099 203 87.8739 202.4 87.8739 201.712C87.8739 201.024 88.0099 200.424 88.2819 199.912C88.5619 199.4 88.9459 199.008 89.4339 198.736C89.9219 198.464 90.4819 198.328 91.1139 198.328ZM98.895 204.04V205H98.079C97.407 205 96.903 204.84 96.567 204.52C96.239 204.2 96.075 203.664 96.075 202.912V199.36H95.091V198.412H96.075V196.768H97.179V198.412H98.883V199.36H97.179V202.936C97.179 203.36 97.255 203.652 97.407 203.812C97.567 203.964 97.839 204.04 98.223 204.04H98.895ZM100.136 196.48C100.136 196.28 100.204 196.12 100.34 196C100.476 195.872 100.656 195.808 100.88 195.808C101.104 195.808 101.284 195.872 101.42 196C101.556 196.12 101.624 196.28 101.624 196.48C101.624 196.68 101.556 196.844 101.42 196.972C101.284 197.092 101.104 197.152 100.88 197.152C100.656 197.152 100.476 197.092 100.34 196.972C100.204 196.844 100.136 196.68 100.136 196.48ZM101.42 198.412V205H100.328V198.412H101.42ZM105.831 203.836L107.871 198.412H109.047L106.467 205H105.171L102.591 198.412H103.767L105.831 203.836ZM110.027 196.48C110.027 196.28 110.095 196.12 110.231 196C110.367 195.872 110.547 195.808 110.771 195.808C110.995 195.808 111.175 195.872 111.311 196C111.447 196.12 111.515 196.28 111.515 196.48C111.515 196.68 111.447 196.844 111.311 196.972C111.175 197.092 110.995 197.152 110.771 197.152C110.547 197.152 110.367 197.092 110.231 196.972C110.095 196.844 110.027 196.68 110.027 196.48ZM111.311 198.412V205H110.219V198.412H111.311ZM116.311 204.04V205H115.495C114.823 205 114.319 204.84 113.983 204.52C113.655 204.2 113.491 203.664 113.491 202.912V199.36H112.507V198.412H113.491V196.768H114.595V198.412H116.299V199.36H114.595V202.936C114.595 203.36 114.671 203.652 114.823 203.812C114.983 203.964 115.255 204.04 115.639 204.04H116.311ZM118.199 198.412L120.335 203.596L122.315 198.412H123.527L119.615 208.12H118.379L119.747 204.892L116.975 198.412H118.199ZM127.501 196.48C127.501 196.28 127.569 196.12 127.705 196C127.841 195.872 128.021 195.808 128.245 195.808C128.469 195.808 128.649 195.872 128.785 196C128.921 196.12 128.989 196.28 128.989 196.48C128.989 196.68 128.921 196.844 128.785 196.972C128.649 197.092 128.469 197.152 128.245 197.152C128.021 197.152 127.841 197.092 127.705 196.972C127.569 196.844 127.501 196.68 127.501 196.48ZM128.785 198.412V205H127.693V198.412H128.785ZM134.109 198.304C134.877 198.304 135.497 198.552 135.969 199.048C136.441 199.536 136.677 200.244 136.677 201.172V205H135.585V201.268C135.585 200.612 135.417 200.108 135.081 199.756C134.745 199.404 134.289 199.228 133.713 199.228C133.113 199.228 132.633 199.424 132.273 199.816C131.913 200.2 131.733 200.764 131.733 201.508V205H130.641V198.412H131.733V199.972C131.901 199.436 132.197 199.024 132.621 198.736C133.053 198.448 133.549 198.304 134.109 198.304ZM141.596 204.04V205H140.78C140.108 205 139.604 204.84 139.268 204.52C138.94 204.2 138.776 203.664 138.776 202.912V199.36H137.792V198.412H138.776V196.768H139.88V198.412H141.584V199.36H139.88V202.936C139.88 203.36 139.956 203.652 140.108 203.812C140.268 203.964 140.54 204.04 140.924 204.04H141.596ZM149.088 201.34C149.088 201.572 149.072 201.772 149.04 201.94H143.772C143.796 202.692 144.008 203.256 144.408 203.632C144.816 204.008 145.312 204.196 145.896 204.196C146.424 204.196 146.864 204.064 147.216 203.8C147.576 203.528 147.796 203.168 147.876 202.72H149.04C148.96 203.176 148.78 203.584 148.5 203.944C148.228 204.304 147.872 204.584 147.432 204.784C146.992 204.984 146.496 205.084 145.944 205.084C145.312 205.084 144.752 204.948 144.264 204.676C143.776 204.404 143.392 204.016 143.112 203.512C142.84 203 142.704 202.4 142.704 201.712C142.704 201.024 142.84 200.424 143.112 199.912C143.392 199.4 143.776 199.008 144.264 198.736C144.752 198.464 145.312 198.328 145.944 198.328C146.584 198.328 147.14 198.464 147.612 198.736C148.092 199.008 148.456 199.372 148.704 199.828C148.96 200.284 149.088 200.788 149.088 201.34ZM147.984 201.412C148.008 200.924 147.928 200.516 147.744 200.188C147.56 199.86 147.308 199.616 146.988 199.456C146.668 199.296 146.32 199.216 145.944 199.216C145.344 199.216 144.84 199.404 144.432 199.78C144.024 200.148 143.804 200.692 143.772 201.412H147.984ZM153.317 198.328C153.957 198.328 154.497 198.488 154.937 198.808C155.385 199.128 155.697 199.556 155.873 200.092V198.412H156.965V205.108C156.965 205.716 156.837 206.256 156.581 206.728C156.325 207.2 155.965 207.568 155.501 207.832C155.037 208.096 154.497 208.228 153.881 208.228C152.993 208.228 152.269 208.012 151.709 207.58C151.149 207.156 150.793 206.58 150.641 205.852H151.721C151.849 206.292 152.089 206.636 152.441 206.884C152.801 207.14 153.261 207.268 153.821 207.268C154.413 207.268 154.901 207.076 155.285 206.692C155.677 206.316 155.873 205.788 155.873 205.108V203.32C155.697 203.856 155.385 204.284 154.937 204.604C154.497 204.924 153.957 205.084 153.317 205.084C152.733 205.084 152.213 204.948 151.757 204.676C151.301 204.404 150.941 204.016 150.677 203.512C150.421 203 150.293 202.4 150.293 201.712C150.293 201.024 150.421 200.424 150.677 199.912C150.941 199.4 151.301 199.008 151.757 198.736C152.213 198.464 152.733 198.328 153.317 198.328ZM153.629 199.3C152.957 199.3 152.417 199.516 152.009 199.948C151.609 200.372 151.409 200.96 151.409 201.712C151.409 202.464 151.609 203.056 152.009 203.488C152.417 203.912 152.957 204.124 153.629 204.124C154.061 204.124 154.445 204.024 154.781 203.824C155.125 203.624 155.393 203.344 155.585 202.984C155.777 202.616 155.873 202.192 155.873 201.712C155.873 201.232 155.777 200.808 155.585 200.44C155.393 200.072 155.125 199.792 154.781 199.6C154.445 199.4 154.061 199.3 153.629 199.3ZM159.895 199.744C160.111 199.288 160.427 198.936 160.843 198.688C161.259 198.432 161.755 198.304 162.331 198.304V199.492H161.995C161.379 199.492 160.875 199.652 160.483 199.972C160.091 200.284 159.895 200.804 159.895 201.532V205H158.803V198.412H159.895V199.744ZM166.208 198.328C166.848 198.328 167.388 198.488 167.828 198.808C168.276 199.128 168.588 199.556 168.764 200.092V198.412H169.856V205H168.764V203.32C168.588 203.856 168.276 204.284 167.828 204.604C167.388 204.924 166.848 205.084 166.208 205.084C165.624 205.084 165.104 204.948 164.648 204.676C164.192 204.404 163.832 204.016 163.568 203.512C163.312 203 163.184 202.4 163.184 201.712C163.184 201.024 163.312 200.424 163.568 199.912C163.832 199.4 164.192 199.008 164.648 198.736C165.104 198.464 165.624 198.328 166.208 198.328ZM166.52 199.3C165.848 199.3 165.308 199.516 164.9 199.948C164.5 200.372 164.3 200.96 164.3 201.712C164.3 202.464 164.5 203.056 164.9 203.488C165.308 203.912 165.848 204.124 166.52 204.124C166.952 204.124 167.336 204.024 167.672 203.824C168.016 203.624 168.284 203.344 168.476 202.984C168.668 202.616 168.764 202.192 168.764 201.712C168.764 201.232 168.668 200.808 168.476 200.44C168.284 200.072 168.016 199.792 167.672 199.6C167.336 199.4 166.952 199.3 166.52 199.3ZM174.838 204.04V205H174.022C173.35 205 172.846 204.84 172.51 204.52C172.182 204.2 172.018 203.664 172.018 202.912V199.36H171.034V198.412H172.018V196.768H173.122V198.412H174.826V199.36H173.122V202.936C173.122 203.36 173.198 203.652 173.35 203.812C173.51 203.964 173.782 204.04 174.166 204.04H174.838ZM176.079 196.48C176.079 196.28 176.147 196.12 176.283 196C176.419 195.872 176.599 195.808 176.823 195.808C177.047 195.808 177.227 195.872 177.363 196C177.499 196.12 177.567 196.28 177.567 196.48C177.567 196.68 177.499 196.844 177.363 196.972C177.227 197.092 177.047 197.152 176.823 197.152C176.599 197.152 176.419 197.092 176.283 196.972C176.147 196.844 176.079 196.68 176.079 196.48ZM177.363 198.412V205H176.271V198.412H177.363ZM182.206 198.328C182.838 198.328 183.402 198.464 183.898 198.736C184.402 199.008 184.794 199.4 185.074 199.912C185.362 200.424 185.506 201.024 185.506 201.712C185.506 202.4 185.362 203 185.074 203.512C184.794 204.016 184.402 204.404 183.898 204.676C183.402 204.948 182.838 205.084 182.206 205.084C181.574 205.084 181.006 204.948 180.502 204.676C180.006 204.404 179.614 204.016 179.326 203.512C179.038 203 178.894 202.4 178.894 201.712C178.894 201.024 179.038 200.424 179.326 199.912C179.614 199.4 180.006 199.008 180.502 198.736C181.006 198.464 181.574 198.328 182.206 198.328ZM182.206 199.288C181.814 199.288 181.45 199.376 181.114 199.552C180.786 199.728 180.518 200 180.31 200.368C180.11 200.728 180.01 201.176 180.01 201.712C180.01 202.24 180.11 202.688 180.31 203.056C180.518 203.416 180.786 203.684 181.114 203.86C181.45 204.036 181.814 204.124 182.206 204.124C182.598 204.124 182.958 204.036 183.286 203.86C183.622 203.684 183.89 203.416 184.09 203.056C184.298 202.688 184.402 202.24 184.402 201.712C184.402 201.176 184.298 200.728 184.09 200.368C183.89 200 183.622 199.728 183.286 199.552C182.958 199.376 182.598 199.288 182.206 199.288ZM190.497 198.304C191.265 198.304 191.885 198.552 192.357 199.048C192.829 199.536 193.065 200.244 193.065 201.172V205H191.973V201.268C191.973 200.612 191.805 200.108 191.469 199.756C191.133 199.404 190.677 199.228 190.101 199.228C189.501 199.228 189.021 199.424 188.661 199.816C188.301 200.2 188.121 200.764 188.121 201.508V205H187.029V198.412H188.121V199.972C188.289 199.436 188.585 199.024 189.009 198.736C189.441 198.448 189.937 198.304 190.497 198.304ZM195.644 203.716V205H194.324V203.716H195.644Z" fill="#192A3E"/>
<path d="M28.535 142.605H33.68V144H26.63V142.665L31.67 134.805H26.735V133.41H33.605V134.745L28.535 142.605ZM43.1207 139.47C43.1207 139.75 43.1007 139.995 43.0607 140.205H36.7007C36.7307 141.055 36.9657 141.685 37.4057 142.095C37.8457 142.505 38.3907 142.71 39.0407 142.71C39.6107 142.71 40.0907 142.565 40.4807 142.275C40.8807 141.985 41.1257 141.6 41.2157 141.12H43.0457C42.9357 141.7 42.7057 142.215 42.3557 142.665C42.0057 143.115 41.5507 143.47 40.9907 143.73C40.4307 143.98 39.8057 144.105 39.1157 144.105C38.3157 144.105 37.6057 143.935 36.9857 143.595C36.3757 143.255 35.8957 142.765 35.5457 142.125C35.1957 141.485 35.0207 140.73 35.0207 139.86C35.0207 139 35.1957 138.25 35.5457 137.61C35.8957 136.97 36.3757 136.48 36.9857 136.14C37.6057 135.8 38.3157 135.63 39.1157 135.63C39.9257 135.63 40.6307 135.8 41.2307 136.14C41.8407 136.47 42.3057 136.93 42.6257 137.52C42.9557 138.1 43.1207 138.75 43.1207 139.47ZM41.3957 139.425C41.4157 138.885 41.3207 138.435 41.1107 138.075C40.9107 137.705 40.6307 137.435 40.2707 137.265C39.9207 137.085 39.5357 136.995 39.1157 136.995C38.4457 136.995 37.8857 137.2 37.4357 137.61C36.9857 138.02 36.7407 138.625 36.7007 139.425H41.3957ZM49.4917 135.6C50.4517 135.6 51.2217 135.91 51.8017 136.53C52.3817 137.15 52.6717 138.035 52.6717 139.185V144H50.9617V139.365C50.9617 138.625 50.7717 138.055 50.3917 137.655C50.0117 137.245 49.4917 137.04 48.8317 137.04C48.1517 137.04 47.6067 137.26 47.1967 137.7C46.7867 138.13 46.5817 138.765 46.5817 139.605V144H44.8717V135.735H46.5817V137.55C46.8017 136.93 47.1717 136.45 47.6917 136.11C48.2117 135.77 48.8117 135.6 49.4917 135.6ZM58.0865 135.63C58.8365 135.63 59.4765 135.815 60.0065 136.185C60.5365 136.555 60.9065 137.045 61.1165 137.655V132.9H62.8415V144H61.1165V142.08C60.9065 142.69 60.5365 143.18 60.0065 143.55C59.4765 143.92 58.8365 144.105 58.0865 144.105C57.3665 144.105 56.7215 143.935 56.1515 143.595C55.5915 143.255 55.1515 142.765 54.8315 142.125C54.5115 141.485 54.3515 140.73 54.3515 139.86C54.3515 139 54.5115 138.25 54.8315 137.61C55.1515 136.97 55.5915 136.48 56.1515 136.14C56.7215 135.8 57.3665 135.63 58.0865 135.63ZM58.6115 137.13C57.8515 137.13 57.2415 137.375 56.7815 137.865C56.3315 138.345 56.1065 139.01 56.1065 139.86C56.1065 140.71 56.3315 141.38 56.7815 141.87C57.2415 142.35 57.8515 142.59 58.6115 142.59C59.0915 142.59 59.5215 142.48 59.9015 142.26C60.2815 142.03 60.5815 141.71 60.8015 141.3C61.0215 140.89 61.1315 140.41 61.1315 139.86C61.1315 139.32 61.0215 138.845 60.8015 138.435C60.5815 138.015 60.2815 137.695 59.9015 137.475C59.5215 137.245 59.0915 137.13 58.6115 137.13ZM72.6736 139.47C72.6736 139.75 72.6536 139.995 72.6136 140.205H66.2536C66.2836 141.055 66.5186 141.685 66.9586 142.095C67.3986 142.505 67.9436 142.71 68.5936 142.71C69.1636 142.71 69.6436 142.565 70.0336 142.275C70.4336 141.985 70.6786 141.6 70.7686 141.12H72.5986C72.4886 141.7 72.2586 142.215 71.9086 142.665C71.5586 143.115 71.1036 143.47 70.5436 143.73C69.9836 143.98 69.3586 144.105 68.6686 144.105C67.8686 144.105 67.1586 143.935 66.5386 143.595C65.9286 143.255 65.4486 142.765 65.0986 142.125C64.7486 141.485 64.5736 140.73 64.5736 139.86C64.5736 139 64.7486 138.25 65.0986 137.61C65.4486 136.97 65.9286 136.48 66.5386 136.14C67.1586 135.8 67.8686 135.63 68.6686 135.63C69.4786 135.63 70.1836 135.8 70.7836 136.14C71.3936 136.47 71.8586 136.93 72.1786 137.52C72.5086 138.1 72.6736 138.75 72.6736 139.47ZM70.9486 139.425C70.9686 138.885 70.8736 138.435 70.6636 138.075C70.4636 137.705 70.1836 137.435 69.8236 137.265C69.4736 137.085 69.0886 136.995 68.6686 136.995C67.9986 136.995 67.4386 137.2 66.9886 137.61C66.5386 138.02 66.2936 138.625 66.2536 139.425H70.9486ZM77.1396 135.63C78.1096 135.63 78.8846 135.88 79.4646 136.38C80.0546 136.87 80.4146 137.53 80.5446 138.36H78.9246C78.8546 137.91 78.6596 137.55 78.3396 137.28C78.0296 137 77.6146 136.86 77.0946 136.86C76.6646 136.86 76.3296 136.965 76.0896 137.175C75.8596 137.375 75.7446 137.65 75.7446 138C75.7446 138.26 75.8296 138.47 75.9996 138.63C76.1696 138.79 76.3796 138.915 76.6296 139.005C76.8896 139.095 77.2546 139.195 77.7246 139.305C78.3446 139.445 78.8446 139.59 79.2246 139.74C79.6146 139.89 79.9446 140.13 80.2146 140.46C80.4946 140.78 80.6346 141.22 80.6346 141.78C80.6346 142.47 80.3696 143.03 79.8396 143.46C79.3196 143.89 78.6146 144.105 77.7246 144.105C76.6946 144.105 75.8596 143.865 75.2196 143.385C74.5896 142.905 74.2096 142.235 74.0796 141.375H75.7446C75.7946 141.825 75.9946 142.19 76.3446 142.47C76.6946 142.75 77.1546 142.89 77.7246 142.89C78.1346 142.89 78.4546 142.785 78.6846 142.575C78.9246 142.355 79.0446 142.08 79.0446 141.75C79.0446 141.46 78.9546 141.23 78.7746 141.06C78.5946 140.89 78.3696 140.76 78.0996 140.67C77.8296 140.57 77.4596 140.47 76.9896 140.37C76.3896 140.23 75.8996 140.09 75.5196 139.95C75.1496 139.81 74.8296 139.585 74.5596 139.275C74.2996 138.955 74.1696 138.525 74.1696 137.985C74.1696 137.285 74.4296 136.72 74.9496 136.29C75.4796 135.85 76.2096 135.63 77.1396 135.63ZM87.1295 144L84.1595 140.325V144H82.4495V132.9H84.1595V139.26L87.0995 135.735H89.1545L85.5545 139.845L89.2445 144H87.1295Z" fill="#192A3E"/>
<path d="M29.979 240.731C31.123 240.731 32.072 241.026 32.826 241.615C33.58 242.204 34.0783 243.006 34.321 244.02H32.397C32.1977 243.526 31.8857 243.136 31.461 242.85C31.045 242.564 30.5423 242.421 29.953 242.421C29.4677 242.421 29.03 242.542 28.64 242.785C28.25 243.028 27.9467 243.374 27.73 243.825C27.5133 244.276 27.405 244.804 27.405 245.411C27.405 246.009 27.5133 246.533 27.73 246.984C27.9467 247.435 28.25 247.781 28.64 248.024C29.03 248.267 29.4677 248.388 29.953 248.388C30.5423 248.388 31.045 248.245 31.461 247.959C31.8857 247.673 32.1977 247.283 32.397 246.789H34.321C34.0783 247.803 33.58 248.605 32.826 249.194C32.072 249.783 31.123 250.078 29.979 250.078C29.1037 250.078 28.328 249.883 27.652 249.493C26.9847 249.094 26.4647 248.54 26.092 247.829C25.728 247.118 25.546 246.312 25.546 245.411C25.546 244.501 25.728 243.691 26.092 242.98C26.4647 242.269 26.9847 241.719 27.652 241.329C28.3193 240.93 29.095 240.731 29.979 240.731ZM39.1243 242.707C39.8263 242.707 40.4546 242.854 41.0093 243.149C41.5726 243.444 42.0146 243.873 42.3353 244.436C42.6559 244.991 42.8163 245.645 42.8163 246.399C42.8163 247.153 42.6559 247.807 42.3353 248.362C42.0146 248.917 41.5726 249.346 41.0093 249.649C40.4546 249.944 39.8263 250.091 39.1243 250.091C38.4223 250.091 37.7896 249.944 37.2263 249.649C36.6716 249.346 36.2339 248.917 35.9133 248.362C35.5926 247.807 35.4323 247.153 35.4323 246.399C35.4323 245.645 35.5926 244.991 35.9133 244.436C36.2339 243.873 36.6716 243.444 37.2263 243.149C37.7896 242.854 38.4223 242.707 39.1243 242.707ZM39.1243 244.293C38.6129 244.293 38.1796 244.475 37.8243 244.839C37.4689 245.194 37.2913 245.714 37.2913 246.399C37.2913 247.084 37.4689 247.608 37.8243 247.972C38.1796 248.327 38.6129 248.505 39.1243 248.505C39.6356 248.505 40.0689 248.327 40.4243 247.972C40.7796 247.608 40.9573 247.084 40.9573 246.399C40.9573 245.714 40.7796 245.194 40.4243 244.839C40.0689 244.475 39.6356 244.293 39.1243 244.293ZM48.5017 242.694C49.3337 242.694 49.9967 242.967 50.4907 243.513C50.9847 244.059 51.2317 244.826 51.2317 245.814V250H49.4117V246.022C49.4117 245.45 49.2644 245.008 48.9697 244.696C48.675 244.375 48.272 244.215 47.7607 244.215C47.2407 244.215 46.8247 244.384 46.5127 244.722C46.2007 245.06 46.0447 245.545 46.0447 246.178V250H44.2117V242.798H46.0447V244.241C46.2354 243.756 46.5474 243.379 46.9807 243.11C47.4227 242.833 47.9297 242.694 48.5017 242.694ZM57.2345 242.694C58.0665 242.694 58.7295 242.967 59.2235 243.513C59.7175 244.059 59.9645 244.826 59.9645 245.814V250H58.1445V246.022C58.1445 245.45 57.9972 245.008 57.7025 244.696C57.4078 244.375 57.0048 244.215 56.4935 244.215C55.9735 244.215 55.5575 244.384 55.2455 244.722C54.9335 245.06 54.7775 245.545 54.7775 246.178V250H52.9445V242.798H54.7775V244.241C54.9682 243.756 55.2802 243.379 55.7135 243.11C56.1555 242.833 56.6625 242.694 57.2345 242.694ZM68.4503 246.126C68.4503 246.308 68.4286 246.516 68.3853 246.75H63.1073C63.1333 247.391 63.3066 247.864 63.6273 248.167C63.948 248.47 64.3466 248.622 64.8233 248.622C65.248 248.622 65.599 248.518 65.8763 248.31C66.1623 248.102 66.3443 247.82 66.4223 247.465H68.3593C68.264 247.968 68.0603 248.418 67.7483 248.817C67.4363 249.216 67.0333 249.528 66.5393 249.753C66.054 249.978 65.5123 250.091 64.9143 250.091C64.2123 250.091 63.5883 249.944 63.0423 249.649C62.4963 249.346 62.0716 248.917 61.7683 248.362C61.465 247.807 61.3133 247.153 61.3133 246.399C61.3133 245.645 61.465 244.991 61.7683 244.436C62.0716 243.873 62.4963 243.444 63.0423 243.149C63.5883 242.854 64.2123 242.707 64.9143 242.707C65.625 242.707 66.2446 242.854 66.7733 243.149C67.3106 243.444 67.7223 243.851 68.0083 244.371C68.303 244.882 68.4503 245.467 68.4503 246.126ZM66.6043 245.944C66.6303 245.355 66.4743 244.908 66.1363 244.605C65.807 244.302 65.3996 244.15 64.9143 244.15C64.4203 244.15 64.0043 244.302 63.6663 244.605C63.3283 244.908 63.142 245.355 63.1073 245.944H66.6043ZM73.0885 242.707C74.0159 242.707 74.7872 242.958 75.4025 243.461C76.0265 243.964 76.4165 244.648 76.5725 245.515H74.6355C74.5575 245.134 74.3799 244.835 74.1025 244.618C73.8252 244.393 73.4742 244.28 73.0495 244.28C72.5642 244.28 72.1569 244.462 71.8275 244.826C71.5069 245.181 71.3465 245.706 71.3465 246.399C71.3465 247.092 71.5069 247.621 71.8275 247.985C72.1569 248.34 72.5642 248.518 73.0495 248.518C73.4742 248.518 73.8252 248.41 74.1025 248.193C74.3799 247.968 74.5575 247.664 74.6355 247.283H76.5725C76.4165 248.15 76.0265 248.834 75.4025 249.337C74.7872 249.84 74.0159 250.091 73.0885 250.091C72.3865 250.091 71.7625 249.944 71.2165 249.649C70.6705 249.346 70.2459 248.917 69.9425 248.362C69.6392 247.807 69.4875 247.153 69.4875 246.399C69.4875 245.645 69.6392 244.991 69.9425 244.436C70.2459 243.873 70.6705 243.444 71.2165 243.149C71.7625 242.854 72.3865 242.707 73.0885 242.707ZM81.823 248.427V250H80.861C80.055 250 79.4353 249.805 79.002 249.415C78.5773 249.025 78.365 248.375 78.365 247.465V244.345H77.364V242.798H78.365V241.017H80.198V242.798H81.81V244.345H80.198V247.491C80.198 247.838 80.2673 248.08 80.406 248.219C80.5446 248.358 80.7786 248.427 81.108 248.427H81.823ZM90.015 246.126C90.015 246.308 89.9933 246.516 89.95 246.75H84.672C84.698 247.391 84.8713 247.864 85.192 248.167C85.5126 248.47 85.9113 248.622 86.388 248.622C86.8126 248.622 87.1636 248.518 87.441 248.31C87.727 248.102 87.909 247.82 87.987 247.465H89.924C89.8286 247.968 89.625 248.418 89.313 248.817C89.001 249.216 88.598 249.528 88.104 249.753C87.6186 249.978 87.077 250.091 86.479 250.091C85.777 250.091 85.153 249.944 84.607 249.649C84.061 249.346 83.6363 248.917 83.333 248.362C83.0296 247.807 82.878 247.153 82.878 246.399C82.878 245.645 83.0296 244.991 83.333 244.436C83.6363 243.873 84.061 243.444 84.607 243.149C85.153 242.854 85.777 242.707 86.479 242.707C87.1896 242.707 87.8093 242.854 88.338 243.149C88.8753 243.444 89.287 243.851 89.573 244.371C89.8676 244.882 90.015 245.467 90.015 246.126ZM88.169 245.944C88.195 245.355 88.039 244.908 87.701 244.605C87.3716 244.302 86.9643 244.15 86.479 244.15C85.985 244.15 85.569 244.302 85.231 244.605C84.893 244.908 84.7066 245.355 84.672 245.944H88.169ZM94.2372 242.707C94.8438 242.707 95.3595 242.85 95.7842 243.136C96.2175 243.422 96.5295 243.808 96.7202 244.293V240.38H98.5402V250H96.7202V248.492C96.5295 248.977 96.2175 249.367 95.7842 249.662C95.3595 249.948 94.8438 250.091 94.2372 250.091C93.6305 250.091 93.0845 249.944 92.5992 249.649C92.1138 249.354 91.7325 248.93 91.4552 248.375C91.1865 247.812 91.0522 247.153 91.0522 246.399C91.0522 245.645 91.1865 244.991 91.4552 244.436C91.7325 243.873 92.1138 243.444 92.5992 243.149C93.0845 242.854 93.6305 242.707 94.2372 242.707ZM94.8092 244.306C94.2372 244.306 93.7778 244.492 93.4312 244.865C93.0845 245.238 92.9112 245.749 92.9112 246.399C92.9112 247.049 93.0845 247.56 93.4312 247.933C93.7778 248.297 94.2372 248.479 94.8092 248.479C95.3638 248.479 95.8188 248.293 96.1742 247.92C96.5382 247.539 96.7202 247.032 96.7202 246.399C96.7202 245.758 96.5382 245.251 96.1742 244.878C95.8188 244.497 95.3638 244.306 94.8092 244.306Z" fill="#C2CFE0"/>
<path d="M129.772 40.2324V70.8276H104.364L129.772 40.2324Z" fill="#03363D"/>
<path d="M129.772 29.2432C129.772 36.2348 124.093 41.8985 117.082 41.8985C110.071 41.8985 104.364 36.2348 104.364 29.2432H129.772Z" fill="#03363D"/>
<path d="M133.957 70.8115C133.957 63.8199 139.636 58.1562 146.647 58.1562C153.658 58.1562 159.337 63.8199 159.337 70.8115H133.957Z" fill="#03363D"/>
<path d="M133.957 59.8382V29.2432H159.364L133.957 59.8382Z" fill="#03363D"/>
<path d="M148.169 96.9415C149.799 96.9415 150.967 96.264 151.674 95.5865L153.413 97.4564C152.272 98.6487 150.669 99.5159 148.169 99.5159C143.902 99.5159 141.158 96.6976 141.158 92.8766C141.158 89.0827 144.065 86.2373 147.788 86.2373C152.027 86.2373 154.419 89.435 154.201 93.9064H144.228C144.582 95.7762 145.886 96.9415 148.169 96.9415ZM151.212 91.7926C150.94 90.0583 149.908 88.7846 147.842 88.7846C145.913 88.7846 144.582 89.8686 144.228 91.7926H151.212Z" fill="#03363D"/>
<path d="M82.5435 96.8273L90.2337 89.0229H82.7337V86.584H93.7935V89.0771L86.1032 96.8815H93.9022V99.3203H82.5435V96.8273Z" fill="#03363D"/>
<path d="M102.544 96.9415C104.174 96.9415 105.342 96.264 106.049 95.5865L107.788 97.4564C106.647 98.6487 105.044 99.5159 102.544 99.5159C98.2773 99.5159 95.5327 96.6976 95.5327 92.8766C95.5327 89.0827 98.4403 86.2373 102.163 86.2373C106.402 86.2373 108.794 89.435 108.576 93.9064H98.6034C98.9566 95.7762 100.261 96.9415 102.544 96.9415ZM105.587 91.7926C105.315 90.0583 104.283 88.7846 102.217 88.7846C100.288 88.7846 98.9566 89.8686 98.6034 91.7926H105.587Z" fill="#03363D"/>
<path d="M125.207 92.8853C125.207 88.8203 128.25 86.273 131.62 86.273C133.304 86.273 134.935 87.0046 135.886 88.197V80.6904H138.603V99.2808H135.886V97.4922C134.908 98.7388 133.304 99.4976 131.592 99.4976C128.332 99.4976 125.207 96.9231 125.207 92.8853ZM136.022 92.8582C136.022 90.5818 134.31 88.739 131.973 88.739C129.69 88.739 127.924 90.5547 127.924 92.8582C127.924 95.1616 129.69 97.0044 131.973 97.0044C134.31 97.0044 136.022 95.1345 136.022 92.8582Z" fill="#03363D"/>
<path d="M155.995 96.5705L158.467 95.2968C159.174 96.4621 160.288 97.1666 161.756 97.1666C163.304 97.1666 164.092 96.3808 164.092 95.4865C164.092 94.4567 162.598 94.2399 160.995 93.9147C158.821 93.454 156.565 92.7495 156.565 90.1208C156.565 88.1155 158.495 86.2457 161.511 86.2728C163.902 86.2728 165.669 87.2212 166.674 88.7388L164.391 89.9853C163.794 89.0911 162.815 88.522 161.511 88.522C160.044 88.522 159.31 89.2266 159.31 90.0395C159.31 90.9609 160.478 91.2048 162.326 91.6113C164.419 92.072 166.81 92.7495 166.81 95.4052C166.81 97.1666 165.261 99.5243 161.62 99.4972C158.957 99.5243 157.082 98.4674 155.995 96.5705Z" fill="#03363D"/>
<path d="M174.174 93.6166L172.027 95.9742V99.2802H169.31V80.6904H172.027V92.8578L177.788 86.5438H181.103L176.103 91.9906L181.239 99.2802H178.141L174.174 93.6166Z" fill="#03363D"/>
<path d="M117 86.2725C113.766 86.2725 111.076 88.3591 111.076 91.8278V99.2801H113.848V92.1801C113.848 90.0935 115.044 88.8469 117.109 88.8469C119.174 88.8469 120.179 90.0935 120.179 92.1801V99.2801H122.951V91.8278C122.924 88.3591 120.234 86.2725 117 86.2725Z" fill="#03363D"/>
<defs>
<filter id="filter0_d_118_588" x="0" y="0" width="263" height="284" filterUnits="userSpaceOnUse" color-interpolation-filters="sRGB">
<feFlood flood-opacity="0" result="BackgroundImageFix"/>
<feColorMatrix in="SourceAlpha" type="matrix" values="0 0 0 0 0 0 0 0 0 0 0 0 0 0 0 0 0 0 127 0" result="hardAlpha"/>
<feOffset dy="2"/>
<feGaussianBlur stdDeviation="5"/>
<feColorMatrix type="matrix" values="0 0 0 0 0 0 0 0 0 0 0 0 0 0 0 0 0 0 0.08 0"/>
<feBlend mode="normal" in2="BackgroundImageFix" result="effect1_dropShadow_118_588"/>
<feBlend mode="normal" in="SourceGraphic" in2="effect1_dropShadow_118_588" result="shape"/>
</filter>
</defs>
</svg>
