<svg width="263" height="284" viewBox="0 0 263 284" fill="none" xmlns="http://www.w3.org/2000/svg">
<g filter="url(#filter0_d_118_629)">
<rect x="10" y="8" width="243" height="264" rx="4" fill="white"/>
</g>
<path opacity="0.5" d="M30.62 160.456C31.652 160.456 32.504 160.712 33.176 161.224C33.848 161.728 34.312 162.42 34.568 163.3H33.416C33.2 162.74 32.852 162.296 32.372 161.968C31.892 161.632 31.304 161.464 30.608 161.464C30.056 161.464 29.56 161.6 29.12 161.872C28.688 162.136 28.344 162.52 28.088 163.024C27.84 163.52 27.716 164.104 27.716 164.776C27.716 165.44 27.84 166.02 28.088 166.516C28.344 167.012 28.688 167.396 29.12 167.668C29.56 167.932 30.056 168.064 30.608 168.064C31.304 168.064 31.892 167.9 32.372 167.572C32.852 167.236 33.2 166.788 33.416 166.228H34.568C34.312 167.108 33.848 167.804 33.176 168.316C32.504 168.82 31.652 169.072 30.62 169.072C29.828 169.072 29.128 168.892 28.52 168.532C27.912 168.164 27.436 167.656 27.092 167.008C26.756 166.352 26.588 165.608 26.588 164.776C26.588 163.936 26.756 163.188 27.092 162.532C27.436 161.876 27.912 161.368 28.52 161.008C29.128 160.64 29.828 160.456 30.62 160.456ZM39.1163 162.328C39.7483 162.328 40.3123 162.464 40.8083 162.736C41.3123 163.008 41.7043 163.4 41.9843 163.912C42.2723 164.424 42.4163 165.024 42.4163 165.712C42.4163 166.4 42.2723 167 41.9843 167.512C41.7043 168.016 41.3123 168.404 40.8083 168.676C40.3123 168.948 39.7483 169.084 39.1163 169.084C38.4843 169.084 37.9163 168.948 37.4123 168.676C36.9163 168.404 36.5243 168.016 36.2363 167.512C35.9483 167 35.8043 166.4 35.8043 165.712C35.8043 165.024 35.9483 164.424 36.2363 163.912C36.5243 163.4 36.9163 163.008 37.4123 162.736C37.9163 162.464 38.4843 162.328 39.1163 162.328ZM39.1163 163.288C38.7243 163.288 38.3603 163.376 38.0243 163.552C37.6963 163.728 37.4283 164 37.2203 164.368C37.0203 164.728 36.9203 165.176 36.9203 165.712C36.9203 166.24 37.0203 166.688 37.2203 167.056C37.4283 167.416 37.6963 167.684 38.0243 167.86C38.3603 168.036 38.7243 168.124 39.1163 168.124C39.5083 168.124 39.8683 168.036 40.1963 167.86C40.5323 167.684 40.8003 167.416 41.0003 167.056C41.2083 166.688 41.3123 166.24 41.3123 165.712C41.3123 165.176 41.2083 164.728 41.0003 164.368C40.8003 164 40.5323 163.728 40.1963 163.552C39.8683 163.376 39.5083 163.288 39.1163 163.288ZM47.4073 162.304C48.1753 162.304 48.7953 162.552 49.2673 163.048C49.7393 163.536 49.9753 164.244 49.9753 165.172V169H48.8833V165.268C48.8833 164.612 48.7153 164.108 48.3793 163.756C48.0433 163.404 47.5873 163.228 47.0113 163.228C46.4113 163.228 45.9313 163.424 45.5713 163.816C45.2113 164.2 45.0313 164.764 45.0313 165.508V169H43.9393V162.412H45.0313V163.972C45.1993 163.436 45.4953 163.024 45.9193 162.736C46.3513 162.448 46.8473 162.304 47.4073 162.304ZM55.2182 162.304C55.9862 162.304 56.6062 162.552 57.0782 163.048C57.5502 163.536 57.7862 164.244 57.7862 165.172V169H56.6942V165.268C56.6942 164.612 56.5262 164.108 56.1902 163.756C55.8542 163.404 55.3982 163.228 54.8222 163.228C54.2222 163.228 53.7422 163.424 53.3822 163.816C53.0222 164.2 52.8422 164.764 52.8422 165.508V169H51.7502V162.412H52.8422V163.972C53.0102 163.436 53.3062 163.024 53.7302 162.736C54.1622 162.448 54.6582 162.304 55.2182 162.304ZM65.6212 165.34C65.6212 165.572 65.6052 165.772 65.5732 165.94H60.3052C60.3292 166.692 60.5412 167.256 60.9412 167.632C61.3492 168.008 61.8452 168.196 62.4292 168.196C62.9572 168.196 63.3972 168.064 63.7492 167.8C64.1092 167.528 64.3292 167.168 64.4092 166.72H65.5732C65.4932 167.176 65.3132 167.584 65.0332 167.944C64.7612 168.304 64.4052 168.584 63.9652 168.784C63.5252 168.984 63.0292 169.084 62.4772 169.084C61.8452 169.084 61.2852 168.948 60.7972 168.676C60.3092 168.404 59.9252 168.016 59.6452 167.512C59.3732 167 59.2372 166.4 59.2372 165.712C59.2372 165.024 59.3732 164.424 59.6452 163.912C59.9252 163.4 60.3092 163.008 60.7972 162.736C61.2852 162.464 61.8452 162.328 62.4772 162.328C63.1172 162.328 63.6732 162.464 64.1452 162.736C64.6252 163.008 64.9892 163.372 65.2372 163.828C65.4932 164.284 65.6212 164.788 65.6212 165.34ZM64.5172 165.412C64.5412 164.924 64.4612 164.516 64.2772 164.188C64.0932 163.86 63.8412 163.616 63.5212 163.456C63.2012 163.296 62.8532 163.216 62.4772 163.216C61.8772 163.216 61.3732 163.404 60.9652 163.78C60.5572 164.148 60.3372 164.692 60.3052 165.412H64.5172ZM70.0654 162.328C70.9054 162.328 71.6014 162.552 72.1534 163C72.7054 163.448 73.0454 164.048 73.1734 164.8H72.0214C71.9414 164.328 71.7214 163.96 71.3614 163.696C71.0094 163.424 70.5694 163.288 70.0414 163.288C69.6574 163.288 69.3054 163.376 68.9854 163.552C68.6734 163.728 68.4214 164 68.2294 164.368C68.0374 164.728 67.9414 165.176 67.9414 165.712C67.9414 166.248 68.0374 166.7 68.2294 167.068C68.4214 167.428 68.6734 167.696 68.9854 167.872C69.3054 168.048 69.6574 168.136 70.0414 168.136C70.5694 168.136 71.0094 168 71.3614 167.728C71.7214 167.456 71.9414 167.084 72.0214 166.612H73.1734C73.0454 167.372 72.7054 167.976 72.1534 168.424C71.6014 168.864 70.9054 169.084 70.0654 169.084C69.4334 169.084 68.8734 168.948 68.3854 168.676C67.8974 168.404 67.5134 168.016 67.2334 167.512C66.9614 167 66.8254 166.4 66.8254 165.712C66.8254 165.024 66.9614 164.424 67.2334 163.912C67.5134 163.4 67.8974 163.008 68.3854 162.736C68.8734 162.464 69.4334 162.328 70.0654 162.328ZM77.8466 168.04V169H77.0306C76.3586 169 75.8546 168.84 75.5186 168.52C75.1906 168.2 75.0266 167.664 75.0266 166.912V163.36H74.0426V162.412H75.0266V160.768H76.1306V162.412H77.8346V163.36H76.1306V166.936C76.1306 167.36 76.2066 167.652 76.3586 167.812C76.5186 167.964 76.7906 168.04 77.1746 168.04H77.8466ZM91.392 162.412L89.496 169H88.32L86.508 163.636L84.684 169H83.496L81.624 162.412H82.728L84.132 167.956L85.956 162.412H87.096L88.932 167.944L90.348 162.412H91.392ZM92.3184 160.48C92.3184 160.28 92.3864 160.12 92.5224 160C92.6584 159.872 92.8384 159.808 93.0624 159.808C93.2864 159.808 93.4664 159.872 93.6024 160C93.7384 160.12 93.8064 160.28 93.8064 160.48C93.8064 160.68 93.7384 160.844 93.6024 160.972C93.4664 161.092 93.2864 161.152 93.0624 161.152C92.8384 161.152 92.6584 161.092 92.5224 160.972C92.3864 160.844 92.3184 160.68 92.3184 160.48ZM93.6024 162.412V169H92.5104V162.412H93.6024ZM98.602 168.04V169H97.786C97.114 169 96.61 168.84 96.274 168.52C95.946 168.2 95.782 167.664 95.782 166.912V163.36H94.798V162.412H95.782V160.768H96.886V162.412H98.59V163.36H96.886V166.936C96.886 167.36 96.962 167.652 97.114 167.812C97.274 167.964 97.546 168.04 97.93 168.04H98.602ZM103.503 162.304C104.271 162.304 104.891 162.552 105.363 163.048C105.835 163.536 106.071 164.244 106.071 165.172V169H104.979V165.268C104.979 164.612 104.811 164.108 104.475 163.756C104.139 163.404 103.683 163.228 103.107 163.228C102.507 163.228 102.027 163.424 101.667 163.816C101.307 164.2 101.127 164.764 101.127 165.508V169H100.035V160.12H101.127V163.972C101.295 163.436 101.591 163.024 102.015 162.736C102.447 162.448 102.943 162.304 103.503 162.304ZM121.314 160.54L119.166 169H117.834L115.878 162.088L113.922 169H112.59L110.43 160.54H111.642L113.262 167.728L115.266 160.54H116.478L118.482 167.704L120.114 160.54H121.314ZM125.682 162.328C126.314 162.328 126.878 162.464 127.374 162.736C127.878 163.008 128.27 163.4 128.55 163.912C128.838 164.424 128.982 165.024 128.982 165.712C128.982 166.4 128.838 167 128.55 167.512C128.27 168.016 127.878 168.404 127.374 168.676C126.878 168.948 126.314 169.084 125.682 169.084C125.05 169.084 124.482 168.948 123.978 168.676C123.482 168.404 123.09 168.016 122.802 167.512C122.514 167 122.37 166.4 122.37 165.712C122.37 165.024 122.514 164.424 122.802 163.912C123.09 163.4 123.482 163.008 123.978 162.736C124.482 162.464 125.05 162.328 125.682 162.328ZM125.682 163.288C125.29 163.288 124.926 163.376 124.59 163.552C124.262 163.728 123.994 164 123.786 164.368C123.586 164.728 123.486 165.176 123.486 165.712C123.486 166.24 123.586 166.688 123.786 167.056C123.994 167.416 124.262 167.684 124.59 167.86C124.926 168.036 125.29 168.124 125.682 168.124C126.074 168.124 126.434 168.036 126.762 167.86C127.098 167.684 127.366 167.416 127.566 167.056C127.774 166.688 127.878 166.24 127.878 165.712C127.878 165.176 127.774 164.728 127.566 164.368C127.366 164 127.098 163.728 126.762 163.552C126.434 163.376 126.074 163.288 125.682 163.288ZM131.597 163.744C131.813 163.288 132.129 162.936 132.545 162.688C132.961 162.432 133.457 162.304 134.033 162.304V163.492H133.697C133.081 163.492 132.577 163.652 132.185 163.972C131.793 164.284 131.597 164.804 131.597 165.532V169H130.505V162.412H131.597V163.744ZM137.91 162.328C138.55 162.328 139.09 162.488 139.53 162.808C139.978 163.128 140.29 163.556 140.466 164.092V160.12H141.558V169H140.466V167.32C140.29 167.856 139.978 168.284 139.53 168.604C139.09 168.924 138.55 169.084 137.91 169.084C137.326 169.084 136.806 168.948 136.35 168.676C135.894 168.404 135.534 168.016 135.27 167.512C135.014 167 134.886 166.4 134.886 165.712C134.886 165.024 135.014 164.424 135.27 163.912C135.534 163.4 135.894 163.008 136.35 162.736C136.806 162.464 137.326 162.328 137.91 162.328ZM138.222 163.3C137.55 163.3 137.01 163.516 136.602 163.948C136.202 164.372 136.002 164.96 136.002 165.712C136.002 166.464 136.202 167.056 136.602 167.488C137.01 167.912 137.55 168.124 138.222 168.124C138.654 168.124 139.038 168.024 139.374 167.824C139.718 167.624 139.986 167.344 140.178 166.984C140.37 166.616 140.466 166.192 140.466 165.712C140.466 165.232 140.37 164.808 140.178 164.44C139.986 164.072 139.718 163.792 139.374 163.6C139.038 163.4 138.654 163.3 138.222 163.3ZM144.488 165.592V169H143.396V160.54H146.084C147.052 160.54 147.776 160.768 148.256 161.224C148.736 161.672 148.976 162.288 148.976 163.072C148.976 163.864 148.728 164.484 148.232 164.932C147.736 165.372 147.02 165.592 146.084 165.592H144.488ZM145.988 164.68C146.652 164.68 147.128 164.54 147.416 164.26C147.712 163.98 147.86 163.584 147.86 163.072C147.86 162.544 147.712 162.144 147.416 161.872C147.128 161.592 146.652 161.452 145.988 161.452H144.488V164.68H145.988ZM151.444 163.744C151.66 163.288 151.976 162.936 152.392 162.688C152.808 162.432 153.304 162.304 153.88 162.304V163.492H153.544C152.928 163.492 152.424 163.652 152.032 163.972C151.64 164.284 151.444 164.804 151.444 165.532V169H150.352V162.412H151.444V163.744ZM161.117 165.34C161.117 165.572 161.101 165.772 161.069 165.94H155.801C155.825 166.692 156.037 167.256 156.437 167.632C156.845 168.008 157.341 168.196 157.925 168.196C158.453 168.196 158.893 168.064 159.245 167.8C159.605 167.528 159.825 167.168 159.905 166.72H161.069C160.989 167.176 160.809 167.584 160.529 167.944C160.257 168.304 159.901 168.584 159.461 168.784C159.021 168.984 158.525 169.084 157.973 169.084C157.341 169.084 156.781 168.948 156.293 168.676C155.805 168.404 155.421 168.016 155.141 167.512C154.869 167 154.733 166.4 154.733 165.712C154.733 165.024 154.869 164.424 155.141 163.912C155.421 163.4 155.805 163.008 156.293 162.736C156.781 162.464 157.341 162.328 157.973 162.328C158.613 162.328 159.169 162.464 159.641 162.736C160.121 163.008 160.485 163.372 160.733 163.828C160.989 164.284 161.117 164.788 161.117 165.34ZM160.013 165.412C160.037 164.924 159.957 164.516 159.773 164.188C159.589 163.86 159.337 163.616 159.017 163.456C158.697 163.296 158.349 163.216 157.973 163.216C157.373 163.216 156.869 163.404 156.461 163.78C156.053 164.148 155.833 164.692 155.801 165.412H160.013ZM164.71 162.328C165.454 162.328 166.05 162.524 166.498 162.916C166.954 163.3 167.23 163.82 167.326 164.476H166.282C166.234 164.084 166.07 163.764 165.79 163.516C165.518 163.26 165.15 163.132 164.686 163.132C164.294 163.132 163.986 163.228 163.762 163.42C163.546 163.604 163.438 163.856 163.438 164.176C163.438 164.416 163.51 164.612 163.654 164.764C163.806 164.908 163.99 165.02 164.206 165.1C164.43 165.172 164.734 165.252 165.118 165.34C165.606 165.452 165.998 165.568 166.294 165.688C166.598 165.8 166.854 165.984 167.062 166.24C167.278 166.496 167.386 166.84 167.386 167.272C167.386 167.808 167.182 168.244 166.774 168.58C166.374 168.916 165.838 169.084 165.166 169.084C164.382 169.084 163.742 168.896 163.246 168.52C162.75 168.144 162.458 167.62 162.37 166.948H163.426C163.466 167.348 163.638 167.672 163.942 167.92C164.254 168.168 164.662 168.292 165.166 168.292C165.542 168.292 165.834 168.196 166.042 168.004C166.258 167.812 166.366 167.56 166.366 167.248C166.366 166.992 166.29 166.788 166.138 166.636C165.986 166.484 165.798 166.368 165.574 166.288C165.35 166.208 165.042 166.124 164.65 166.036C164.162 165.924 163.77 165.812 163.474 165.7C163.186 165.588 162.938 165.412 162.73 165.172C162.53 164.924 162.43 164.592 162.43 164.176C162.43 163.624 162.634 163.18 163.042 162.844C163.45 162.5 164.006 162.328 164.71 162.328ZM171.009 162.328C171.753 162.328 172.349 162.524 172.797 162.916C173.253 163.3 173.529 163.82 173.625 164.476H172.581C172.533 164.084 172.369 163.764 172.089 163.516C171.817 163.26 171.449 163.132 170.985 163.132C170.593 163.132 170.285 163.228 170.061 163.42C169.845 163.604 169.737 163.856 169.737 164.176C169.737 164.416 169.809 164.612 169.953 164.764C170.105 164.908 170.289 165.02 170.505 165.1C170.729 165.172 171.033 165.252 171.417 165.34C171.905 165.452 172.297 165.568 172.593 165.688C172.897 165.8 173.153 165.984 173.361 166.24C173.577 166.496 173.685 166.84 173.685 167.272C173.685 167.808 173.481 168.244 173.073 168.58C172.673 168.916 172.137 169.084 171.465 169.084C170.681 169.084 170.041 168.896 169.545 168.52C169.049 168.144 168.757 167.62 168.669 166.948H169.725C169.765 167.348 169.937 167.672 170.241 167.92C170.553 168.168 170.961 168.292 171.465 168.292C171.841 168.292 172.133 168.196 172.341 168.004C172.557 167.812 172.665 167.56 172.665 167.248C172.665 166.992 172.589 166.788 172.437 166.636C172.285 166.484 172.097 166.368 171.873 166.288C171.649 166.208 171.341 166.124 170.949 166.036C170.461 165.924 170.069 165.812 169.773 165.7C169.485 165.588 169.237 165.412 169.029 165.172C168.829 164.924 168.729 164.592 168.729 164.176C168.729 163.624 168.933 163.18 169.341 162.844C169.749 162.5 170.305 162.328 171.009 162.328ZM181.945 162.328C182.529 162.328 183.049 162.464 183.505 162.736C183.961 163.008 184.317 163.4 184.573 163.912C184.837 164.424 184.969 165.024 184.969 165.712C184.969 166.4 184.837 167 184.573 167.512C184.317 168.016 183.961 168.404 183.505 168.676C183.049 168.948 182.529 169.084 181.945 169.084C181.305 169.084 180.761 168.924 180.313 168.604C179.873 168.276 179.569 167.848 179.401 167.32V169H178.309V160.12H179.401V164.092C179.569 163.564 179.873 163.14 180.313 162.82C180.761 162.492 181.305 162.328 181.945 162.328ZM181.633 163.3C181.209 163.3 180.825 163.4 180.481 163.6C180.137 163.792 179.869 164.072 179.677 164.44C179.485 164.808 179.389 165.232 179.389 165.712C179.389 166.192 179.485 166.616 179.677 166.984C179.869 167.344 180.137 167.624 180.481 167.824C180.825 168.024 181.209 168.124 181.633 168.124C182.313 168.124 182.853 167.912 183.253 167.488C183.661 167.056 183.865 166.464 183.865 165.712C183.865 164.96 183.661 164.372 183.253 163.948C182.853 163.516 182.313 163.3 181.633 163.3ZM187.587 160.12V169H186.495V160.12H187.587ZM192.43 162.328C193.062 162.328 193.626 162.464 194.122 162.736C194.626 163.008 195.018 163.4 195.298 163.912C195.586 164.424 195.73 165.024 195.73 165.712C195.73 166.4 195.586 167 195.298 167.512C195.018 168.016 194.626 168.404 194.122 168.676C193.626 168.948 193.062 169.084 192.43 169.084C191.798 169.084 191.23 168.948 190.726 168.676C190.23 168.404 189.838 168.016 189.55 167.512C189.262 167 189.118 166.4 189.118 165.712C189.118 165.024 189.262 164.424 189.55 163.912C189.838 163.4 190.23 163.008 190.726 162.736C191.23 162.464 191.798 162.328 192.43 162.328ZM192.43 163.288C192.038 163.288 191.674 163.376 191.338 163.552C191.01 163.728 190.742 164 190.534 164.368C190.334 164.728 190.234 165.176 190.234 165.712C190.234 166.24 190.334 166.688 190.534 167.056C190.742 167.416 191.01 167.684 191.338 167.86C191.674 168.036 192.038 168.124 192.43 168.124C192.822 168.124 193.182 168.036 193.51 167.86C193.846 167.684 194.114 167.416 194.314 167.056C194.522 166.688 194.626 166.24 194.626 165.712C194.626 165.176 194.522 164.728 194.314 164.368C194.114 164 193.846 163.728 193.51 163.552C193.182 163.376 192.822 163.288 192.43 163.288ZM199.953 162.328C200.593 162.328 201.133 162.488 201.573 162.808C202.021 163.128 202.333 163.556 202.509 164.092V162.412H203.601V169.108C203.601 169.716 203.473 170.256 203.217 170.728C202.961 171.2 202.601 171.568 202.137 171.832C201.673 172.096 201.133 172.228 200.517 172.228C199.629 172.228 198.905 172.012 198.345 171.58C197.785 171.156 197.429 170.58 197.277 169.852H198.357C198.485 170.292 198.725 170.636 199.077 170.884C199.437 171.14 199.897 171.268 200.457 171.268C201.049 171.268 201.537 171.076 201.921 170.692C202.313 170.316 202.509 169.788 202.509 169.108V167.32C202.333 167.856 202.021 168.284 201.573 168.604C201.133 168.924 200.593 169.084 199.953 169.084C199.369 169.084 198.849 168.948 198.393 168.676C197.937 168.404 197.577 168.016 197.313 167.512C197.057 167 196.929 166.4 196.929 165.712C196.929 165.024 197.057 164.424 197.313 163.912C197.577 163.4 197.937 163.008 198.393 162.736C198.849 162.464 199.369 162.328 199.953 162.328ZM200.265 163.3C199.593 163.3 199.053 163.516 198.645 163.948C198.245 164.372 198.045 164.96 198.045 165.712C198.045 166.464 198.245 167.056 198.645 167.488C199.053 167.912 199.593 168.124 200.265 168.124C200.697 168.124 201.081 168.024 201.417 167.824C201.761 167.624 202.029 167.344 202.221 166.984C202.413 166.616 202.509 166.192 202.509 165.712C202.509 165.232 202.413 164.808 202.221 164.44C202.029 164.072 201.761 163.792 201.417 163.6C201.081 163.4 200.697 163.3 200.265 163.3ZM211.492 162.328C212.124 162.328 212.688 162.464 213.184 162.736C213.688 163.008 214.08 163.4 214.36 163.912C214.648 164.424 214.792 165.024 214.792 165.712C214.792 166.4 214.648 167 214.36 167.512C214.08 168.016 213.688 168.404 213.184 168.676C212.688 168.948 212.124 169.084 211.492 169.084C210.86 169.084 210.292 168.948 209.788 168.676C209.292 168.404 208.9 168.016 208.612 167.512C208.324 167 208.18 166.4 208.18 165.712C208.18 165.024 208.324 164.424 208.612 163.912C208.9 163.4 209.292 163.008 209.788 162.736C210.292 162.464 210.86 162.328 211.492 162.328ZM211.492 163.288C211.1 163.288 210.736 163.376 210.4 163.552C210.072 163.728 209.804 164 209.596 164.368C209.396 164.728 209.296 165.176 209.296 165.712C209.296 166.24 209.396 166.688 209.596 167.056C209.804 167.416 210.072 167.684 210.4 167.86C210.736 168.036 211.1 168.124 211.492 168.124C211.884 168.124 212.244 168.036 212.572 167.86C212.908 167.684 213.176 167.416 213.376 167.056C213.584 166.688 213.688 166.24 213.688 165.712C213.688 165.176 213.584 164.728 213.376 164.368C213.176 164 212.908 163.728 212.572 163.552C212.244 163.376 211.884 163.288 211.492 163.288ZM217.407 163.744C217.623 163.288 217.939 162.936 218.355 162.688C218.771 162.432 219.267 162.304 219.843 162.304V163.492H219.507C218.891 163.492 218.387 163.652 217.995 163.972C217.603 164.284 217.407 164.804 217.407 165.532V169H216.315V162.412H217.407V163.744ZM35.924 180.412L34.028 187H32.852L31.04 181.636L29.216 187H28.028L26.156 180.412H27.26L28.664 185.956L30.488 180.412H31.628L33.464 185.944L34.88 180.412H35.924ZM43.1024 183.34C43.1024 183.572 43.0864 183.772 43.0544 183.94H37.7864C37.8104 184.692 38.0224 185.256 38.4224 185.632C38.8304 186.008 39.3264 186.196 39.9104 186.196C40.4384 186.196 40.8784 186.064 41.2304 185.8C41.5904 185.528 41.8104 185.168 41.8904 184.72H43.0544C42.9744 185.176 42.7944 185.584 42.5144 185.944C42.2424 186.304 41.8864 186.584 41.4464 186.784C41.0064 186.984 40.5104 187.084 39.9584 187.084C39.3264 187.084 38.7664 186.948 38.2784 186.676C37.7904 186.404 37.4064 186.016 37.1264 185.512C36.8544 185 36.7184 184.4 36.7184 183.712C36.7184 183.024 36.8544 182.424 37.1264 181.912C37.4064 181.4 37.7904 181.008 38.2784 180.736C38.7664 180.464 39.3264 180.328 39.9584 180.328C40.5984 180.328 41.1544 180.464 41.6264 180.736C42.1064 181.008 42.4704 181.372 42.7184 181.828C42.9744 182.284 43.1024 182.788 43.1024 183.34ZM41.9984 183.412C42.0224 182.924 41.9424 182.516 41.7584 182.188C41.5744 181.86 41.3224 181.616 41.0024 181.456C40.6824 181.296 40.3344 181.216 39.9584 181.216C39.3584 181.216 38.8544 181.404 38.4464 181.78C38.0384 182.148 37.8184 182.692 37.7864 183.412H41.9984ZM48.2667 180.328C48.8507 180.328 49.3707 180.464 49.8267 180.736C50.2827 181.008 50.6387 181.4 50.8947 181.912C51.1587 182.424 51.2907 183.024 51.2907 183.712C51.2907 184.4 51.1587 185 50.8947 185.512C50.6387 186.016 50.2827 186.404 49.8267 186.676C49.3707 186.948 48.8507 187.084 48.2667 187.084C47.6267 187.084 47.0827 186.924 46.6347 186.604C46.1947 186.276 45.8907 185.848 45.7227 185.32V187H44.6307V178.12H45.7227V182.092C45.8907 181.564 46.1947 181.14 46.6347 180.82C47.0827 180.492 47.6267 180.328 48.2667 180.328ZM47.9547 181.3C47.5307 181.3 47.1467 181.4 46.8027 181.6C46.4587 181.792 46.1907 182.072 45.9987 182.44C45.8067 182.808 45.7107 183.232 45.7107 183.712C45.7107 184.192 45.8067 184.616 45.9987 184.984C46.1907 185.344 46.4587 185.624 46.8027 185.824C47.1467 186.024 47.5307 186.124 47.9547 186.124C48.6347 186.124 49.1747 185.912 49.5747 185.488C49.9827 185.056 50.1867 184.464 50.1867 183.712C50.1867 182.96 49.9827 182.372 49.5747 181.948C49.1747 181.516 48.6347 181.3 47.9547 181.3ZM54.8806 180.328C55.6246 180.328 56.2206 180.524 56.6686 180.916C57.1246 181.3 57.4006 181.82 57.4966 182.476H56.4526C56.4046 182.084 56.2406 181.764 55.9606 181.516C55.6886 181.26 55.3206 181.132 54.8566 181.132C54.4646 181.132 54.1566 181.228 53.9326 181.42C53.7166 181.604 53.6086 181.856 53.6086 182.176C53.6086 182.416 53.6806 182.612 53.8246 182.764C53.9766 182.908 54.1606 183.02 54.3766 183.1C54.6006 183.172 54.9046 183.252 55.2886 183.34C55.7766 183.452 56.1686 183.568 56.4646 183.688C56.7686 183.8 57.0246 183.984 57.2326 184.24C57.4486 184.496 57.5566 184.84 57.5566 185.272C57.5566 185.808 57.3526 186.244 56.9446 186.58C56.5446 186.916 56.0086 187.084 55.3366 187.084C54.5526 187.084 53.9126 186.896 53.4166 186.52C52.9206 186.144 52.6286 185.62 52.5406 184.948H53.5966C53.6366 185.348 53.8086 185.672 54.1126 185.92C54.4246 186.168 54.8326 186.292 55.3366 186.292C55.7126 186.292 56.0046 186.196 56.2126 186.004C56.4286 185.812 56.5366 185.56 56.5366 185.248C56.5366 184.992 56.4606 184.788 56.3086 184.636C56.1566 184.484 55.9686 184.368 55.7446 184.288C55.5206 184.208 55.2126 184.124 54.8206 184.036C54.3326 183.924 53.9406 183.812 53.6446 183.7C53.3566 183.588 53.1086 183.412 52.9006 183.172C52.7006 182.924 52.6006 182.592 52.6006 182.176C52.6006 181.624 52.8046 181.18 53.2126 180.844C53.6206 180.5 54.1766 180.328 54.8806 180.328ZM58.9238 178.48C58.9238 178.28 58.9918 178.12 59.1278 178C59.2638 177.872 59.4438 177.808 59.6678 177.808C59.8918 177.808 60.0718 177.872 60.2078 178C60.3438 178.12 60.4118 178.28 60.4118 178.48C60.4118 178.68 60.3438 178.844 60.2078 178.972C60.0718 179.092 59.8918 179.152 59.6678 179.152C59.4438 179.152 59.2638 179.092 59.1278 178.972C58.9918 178.844 58.9238 178.68 58.9238 178.48ZM60.2078 180.412V187H59.1158V180.412H60.2078ZM65.2075 186.04V187H64.3915C63.7195 187 63.2155 186.84 62.8795 186.52C62.5515 186.2 62.3875 185.664 62.3875 184.912V181.36H61.4035V180.412H62.3875V178.768H63.4915V180.412H65.1955V181.36H63.4915V184.936C63.4915 185.36 63.5675 185.652 63.7195 185.812C63.8795 185.964 64.1515 186.04 64.5355 186.04H65.2075ZM72.7001 183.34C72.7001 183.572 72.6841 183.772 72.6521 183.94H67.3841C67.4081 184.692 67.6201 185.256 68.0201 185.632C68.4281 186.008 68.9241 186.196 69.5081 186.196C70.0361 186.196 70.4761 186.064 70.8281 185.8C71.1881 185.528 71.4081 185.168 71.4881 184.72H72.6521C72.5721 185.176 72.3921 185.584 72.1121 185.944C71.8401 186.304 71.4841 186.584 71.0441 186.784C70.6041 186.984 70.1081 187.084 69.5561 187.084C68.9241 187.084 68.3641 186.948 67.8761 186.676C67.3881 186.404 67.0041 186.016 66.7241 185.512C66.4521 185 66.3161 184.4 66.3161 183.712C66.3161 183.024 66.4521 182.424 66.7241 181.912C67.0041 181.4 67.3881 181.008 67.8761 180.736C68.3641 180.464 68.9241 180.328 69.5561 180.328C70.1961 180.328 70.7521 180.464 71.2241 180.736C71.7041 181.008 72.0681 181.372 72.3161 181.828C72.5721 182.284 72.7001 182.788 72.7001 183.34ZM71.5961 183.412C71.6201 182.924 71.5401 182.516 71.3561 182.188C71.1721 181.86 70.9201 181.616 70.6001 181.456C70.2801 181.296 69.9321 181.216 69.5561 181.216C68.9561 181.216 68.4521 181.404 68.0441 181.78C67.6361 182.148 67.4161 182.692 67.3841 183.412H71.5961ZM80.4372 186.04V187H79.6212C78.9492 187 78.4452 186.84 78.1092 186.52C77.7812 186.2 77.6172 185.664 77.6172 184.912V181.36H76.6332V180.412H77.6172V178.768H78.7212V180.412H80.4252V181.36H78.7212V184.936C78.7212 185.36 78.7972 185.652 78.9492 185.812C79.1092 185.964 79.3812 186.04 79.7652 186.04H80.4372ZM84.8578 180.328C85.4898 180.328 86.0538 180.464 86.5498 180.736C87.0538 181.008 87.4458 181.4 87.7258 181.912C88.0138 182.424 88.1578 183.024 88.1578 183.712C88.1578 184.4 88.0138 185 87.7258 185.512C87.4458 186.016 87.0538 186.404 86.5498 186.676C86.0538 186.948 85.4898 187.084 84.8578 187.084C84.2258 187.084 83.6578 186.948 83.1538 186.676C82.6578 186.404 82.2658 186.016 81.9778 185.512C81.6898 185 81.5458 184.4 81.5458 183.712C81.5458 183.024 81.6898 182.424 81.9778 181.912C82.2658 181.4 82.6578 181.008 83.1538 180.736C83.6578 180.464 84.2258 180.328 84.8578 180.328ZM84.8578 181.288C84.4658 181.288 84.1018 181.376 83.7658 181.552C83.4378 181.728 83.1698 182 82.9618 182.368C82.7618 182.728 82.6618 183.176 82.6618 183.712C82.6618 184.24 82.7618 184.688 82.9618 185.056C83.1698 185.416 83.4378 185.684 83.7658 185.86C84.1018 186.036 84.4658 186.124 84.8578 186.124C85.2498 186.124 85.6098 186.036 85.9378 185.86C86.2738 185.684 86.5418 185.416 86.7418 185.056C86.9498 184.688 87.0538 184.24 87.0538 183.712C87.0538 183.176 86.9498 182.728 86.7418 182.368C86.5418 182 86.2738 181.728 85.9378 181.552C85.6098 181.376 85.2498 181.288 84.8578 181.288ZM95.6615 180.328C96.5015 180.328 97.1975 180.552 97.7495 181C98.3015 181.448 98.6415 182.048 98.7695 182.8H97.6175C97.5375 182.328 97.3175 181.96 96.9575 181.696C96.6055 181.424 96.1655 181.288 95.6375 181.288C95.2535 181.288 94.9015 181.376 94.5815 181.552C94.2695 181.728 94.0175 182 93.8255 182.368C93.6335 182.728 93.5375 183.176 93.5375 183.712C93.5375 184.248 93.6335 184.7 93.8255 185.068C94.0175 185.428 94.2695 185.696 94.5815 185.872C94.9015 186.048 95.2535 186.136 95.6375 186.136C96.1655 186.136 96.6055 186 96.9575 185.728C97.3175 185.456 97.5375 185.084 97.6175 184.612H98.7695C98.6415 185.372 98.3015 185.976 97.7495 186.424C97.1975 186.864 96.5015 187.084 95.6615 187.084C95.0295 187.084 94.4695 186.948 93.9815 186.676C93.4935 186.404 93.1095 186.016 92.8295 185.512C92.5575 185 92.4215 184.4 92.4215 183.712C92.4215 183.024 92.5575 182.424 92.8295 181.912C93.1095 181.4 93.4935 181.008 93.9815 180.736C94.4695 180.464 95.0295 180.328 95.6615 180.328ZM103.287 180.328C103.919 180.328 104.483 180.464 104.979 180.736C105.483 181.008 105.875 181.4 106.155 181.912C106.443 182.424 106.587 183.024 106.587 183.712C106.587 184.4 106.443 185 106.155 185.512C105.875 186.016 105.483 186.404 104.979 186.676C104.483 186.948 103.919 187.084 103.287 187.084C102.655 187.084 102.087 186.948 101.583 186.676C101.087 186.404 100.695 186.016 100.407 185.512C100.119 185 99.9747 184.4 99.9747 183.712C99.9747 183.024 100.119 182.424 100.407 181.912C100.695 181.4 101.087 181.008 101.583 180.736C102.087 180.464 102.655 180.328 103.287 180.328ZM103.287 181.288C102.895 181.288 102.531 181.376 102.195 181.552C101.867 181.728 101.599 182 101.391 182.368C101.191 182.728 101.091 183.176 101.091 183.712C101.091 184.24 101.191 184.688 101.391 185.056C101.599 185.416 101.867 185.684 102.195 185.86C102.531 186.036 102.895 186.124 103.287 186.124C103.679 186.124 104.039 186.036 104.367 185.86C104.703 185.684 104.971 185.416 105.171 185.056C105.379 184.688 105.483 184.24 105.483 183.712C105.483 183.176 105.379 182.728 105.171 182.368C104.971 182 104.703 181.728 104.367 181.552C104.039 181.376 103.679 181.288 103.287 181.288ZM111.578 180.304C112.346 180.304 112.966 180.552 113.438 181.048C113.91 181.536 114.146 182.244 114.146 183.172V187H113.054V183.268C113.054 182.612 112.886 182.108 112.55 181.756C112.214 181.404 111.758 181.228 111.182 181.228C110.582 181.228 110.102 181.424 109.742 181.816C109.382 182.2 109.202 182.764 109.202 183.508V187H108.11V180.412H109.202V181.972C109.37 181.436 109.666 181.024 110.09 180.736C110.522 180.448 111.018 180.304 111.578 180.304ZM118.477 185.836L120.517 180.412H121.693L119.113 187H117.817L115.237 180.412H116.413L118.477 185.836ZM128.924 183.34C128.924 183.572 128.908 183.772 128.876 183.94H123.608C123.632 184.692 123.844 185.256 124.244 185.632C124.652 186.008 125.148 186.196 125.732 186.196C126.26 186.196 126.7 186.064 127.052 185.8C127.412 185.528 127.632 185.168 127.712 184.72H128.876C128.796 185.176 128.616 185.584 128.336 185.944C128.064 186.304 127.708 186.584 127.268 186.784C126.828 186.984 126.332 187.084 125.78 187.084C125.148 187.084 124.588 186.948 124.1 186.676C123.612 186.404 123.228 186.016 122.948 185.512C122.676 185 122.54 184.4 122.54 183.712C122.54 183.024 122.676 182.424 122.948 181.912C123.228 181.4 123.612 181.008 124.1 180.736C124.588 180.464 125.148 180.328 125.78 180.328C126.42 180.328 126.976 180.464 127.448 180.736C127.928 181.008 128.292 181.372 128.54 181.828C128.796 182.284 128.924 182.788 128.924 183.34ZM127.82 183.412C127.844 182.924 127.764 182.516 127.58 182.188C127.396 181.86 127.144 181.616 126.824 181.456C126.504 181.296 126.156 181.216 125.78 181.216C125.18 181.216 124.676 181.404 124.268 181.78C123.86 182.148 123.64 182.692 123.608 183.412H127.82ZM131.545 181.744C131.761 181.288 132.077 180.936 132.493 180.688C132.909 180.432 133.405 180.304 133.981 180.304V181.492H133.645C133.029 181.492 132.525 181.652 132.133 181.972C131.741 182.284 131.545 182.804 131.545 183.532V187H130.453V180.412H131.545V181.744ZM138.302 186.04V187H137.486C136.814 187 136.31 186.84 135.974 186.52C135.646 186.2 135.482 185.664 135.482 184.912V181.36H134.498V180.412H135.482V178.768H136.586V180.412H138.29V181.36H136.586V184.936C136.586 185.36 136.662 185.652 136.814 185.812C136.974 185.964 137.246 186.04 137.63 186.04H138.302ZM151.847 180.412L149.951 187H148.775L146.963 181.636L145.139 187H143.951L142.079 180.412H143.183L144.587 185.956L146.411 180.412H147.551L149.387 185.944L150.803 180.412H151.847ZM159.026 183.34C159.026 183.572 159.01 183.772 158.978 183.94H153.71C153.734 184.692 153.946 185.256 154.346 185.632C154.754 186.008 155.25 186.196 155.834 186.196C156.362 186.196 156.802 186.064 157.154 185.8C157.514 185.528 157.734 185.168 157.814 184.72H158.978C158.898 185.176 158.718 185.584 158.438 185.944C158.166 186.304 157.81 186.584 157.37 186.784C156.93 186.984 156.434 187.084 155.882 187.084C155.25 187.084 154.69 186.948 154.202 186.676C153.714 186.404 153.33 186.016 153.05 185.512C152.778 185 152.642 184.4 152.642 183.712C152.642 183.024 152.778 182.424 153.05 181.912C153.33 181.4 153.714 181.008 154.202 180.736C154.69 180.464 155.25 180.328 155.882 180.328C156.522 180.328 157.078 180.464 157.55 180.736C158.03 181.008 158.394 181.372 158.642 181.828C158.898 182.284 159.026 182.788 159.026 183.34ZM157.922 183.412C157.946 182.924 157.866 182.516 157.682 182.188C157.498 181.86 157.246 181.616 156.926 181.456C156.606 181.296 156.258 181.216 155.882 181.216C155.282 181.216 154.778 181.404 154.37 181.78C153.962 182.148 153.742 182.692 153.71 183.412H157.922ZM164.19 180.328C164.774 180.328 165.294 180.464 165.75 180.736C166.206 181.008 166.562 181.4 166.818 181.912C167.082 182.424 167.214 183.024 167.214 183.712C167.214 184.4 167.082 185 166.818 185.512C166.562 186.016 166.206 186.404 165.75 186.676C165.294 186.948 164.774 187.084 164.19 187.084C163.55 187.084 163.006 186.924 162.558 186.604C162.118 186.276 161.814 185.848 161.646 185.32V187H160.554V178.12H161.646V182.092C161.814 181.564 162.118 181.14 162.558 180.82C163.006 180.492 163.55 180.328 164.19 180.328ZM163.878 181.3C163.454 181.3 163.07 181.4 162.726 181.6C162.382 181.792 162.114 182.072 161.922 182.44C161.73 182.808 161.634 183.232 161.634 183.712C161.634 184.192 161.73 184.616 161.922 184.984C162.114 185.344 162.382 185.624 162.726 185.824C163.07 186.024 163.454 186.124 163.878 186.124C164.558 186.124 165.098 185.912 165.498 185.488C165.906 185.056 166.11 184.464 166.11 183.712C166.11 182.96 165.906 182.372 165.498 181.948C165.098 181.516 164.558 181.3 163.878 181.3ZM170.804 180.328C171.548 180.328 172.144 180.524 172.592 180.916C173.048 181.3 173.324 181.82 173.42 182.476H172.376C172.328 182.084 172.164 181.764 171.884 181.516C171.612 181.26 171.244 181.132 170.78 181.132C170.388 181.132 170.08 181.228 169.856 181.42C169.64 181.604 169.532 181.856 169.532 182.176C169.532 182.416 169.604 182.612 169.748 182.764C169.9 182.908 170.084 183.02 170.3 183.1C170.524 183.172 170.828 183.252 171.212 183.34C171.7 183.452 172.092 183.568 172.388 183.688C172.692 183.8 172.948 183.984 173.156 184.24C173.372 184.496 173.48 184.84 173.48 185.272C173.48 185.808 173.276 186.244 172.868 186.58C172.468 186.916 171.932 187.084 171.26 187.084C170.476 187.084 169.836 186.896 169.34 186.52C168.844 186.144 168.552 185.62 168.464 184.948H169.52C169.56 185.348 169.732 185.672 170.036 185.92C170.348 186.168 170.756 186.292 171.26 186.292C171.636 186.292 171.928 186.196 172.136 186.004C172.352 185.812 172.46 185.56 172.46 185.248C172.46 184.992 172.384 184.788 172.232 184.636C172.08 184.484 171.892 184.368 171.668 184.288C171.444 184.208 171.136 184.124 170.744 184.036C170.256 183.924 169.864 183.812 169.568 183.7C169.28 183.588 169.032 183.412 168.824 183.172C168.624 182.924 168.524 182.592 168.524 182.176C168.524 181.624 168.728 181.18 169.136 180.844C169.544 180.5 170.1 180.328 170.804 180.328ZM174.847 178.48C174.847 178.28 174.915 178.12 175.051 178C175.187 177.872 175.367 177.808 175.591 177.808C175.815 177.808 175.995 177.872 176.131 178C176.267 178.12 176.335 178.28 176.335 178.48C176.335 178.68 176.267 178.844 176.131 178.972C175.995 179.092 175.815 179.152 175.591 179.152C175.367 179.152 175.187 179.092 175.051 178.972C174.915 178.844 174.847 178.68 174.847 178.48ZM176.131 180.412V187H175.039V180.412H176.131ZM181.131 186.04V187H180.315C179.643 187 179.139 186.84 178.803 186.52C178.475 186.2 178.311 185.664 178.311 184.912V181.36H177.327V180.412H178.311V178.768H179.415V180.412H181.119V181.36H179.415V184.936C179.415 185.36 179.491 185.652 179.643 185.812C179.803 185.964 180.075 186.04 180.459 186.04H181.131ZM188.624 183.34C188.624 183.572 188.608 183.772 188.576 183.94H183.308C183.332 184.692 183.544 185.256 183.944 185.632C184.352 186.008 184.848 186.196 185.432 186.196C185.96 186.196 186.4 186.064 186.752 185.8C187.112 185.528 187.332 185.168 187.412 184.72H188.576C188.496 185.176 188.316 185.584 188.036 185.944C187.764 186.304 187.408 186.584 186.968 186.784C186.528 186.984 186.032 187.084 185.48 187.084C184.848 187.084 184.288 186.948 183.8 186.676C183.312 186.404 182.928 186.016 182.648 185.512C182.376 185 182.24 184.4 182.24 183.712C182.24 183.024 182.376 182.424 182.648 181.912C182.928 181.4 183.312 181.008 183.8 180.736C184.288 180.464 184.848 180.328 185.48 180.328C186.12 180.328 186.676 180.464 187.148 180.736C187.628 181.008 187.992 181.372 188.24 181.828C188.496 182.284 188.624 182.788 188.624 183.34ZM187.52 183.412C187.544 182.924 187.464 182.516 187.28 182.188C187.096 181.86 186.844 181.616 186.524 181.456C186.204 181.296 185.856 181.216 185.48 181.216C184.88 181.216 184.376 181.404 183.968 181.78C183.56 182.148 183.34 182.692 183.308 183.412H187.52ZM195.773 185.836L197.813 180.412H198.989L196.409 187H195.113L192.533 180.412H193.709L195.773 185.836ZM199.968 178.48C199.968 178.28 200.036 178.12 200.172 178C200.308 177.872 200.488 177.808 200.712 177.808C200.936 177.808 201.116 177.872 201.252 178C201.388 178.12 201.456 178.28 201.456 178.48C201.456 178.68 201.388 178.844 201.252 178.972C201.116 179.092 200.936 179.152 200.712 179.152C200.488 179.152 200.308 179.092 200.172 178.972C200.036 178.844 199.968 178.68 199.968 178.48ZM201.252 180.412V187H200.16V180.412H201.252ZM205.172 180.328C205.916 180.328 206.512 180.524 206.96 180.916C207.416 181.3 207.692 181.82 207.788 182.476H206.744C206.696 182.084 206.532 181.764 206.252 181.516C205.98 181.26 205.612 181.132 205.148 181.132C204.756 181.132 204.448 181.228 204.224 181.42C204.008 181.604 203.9 181.856 203.9 182.176C203.9 182.416 203.972 182.612 204.116 182.764C204.268 182.908 204.452 183.02 204.668 183.1C204.892 183.172 205.196 183.252 205.58 183.34C206.068 183.452 206.46 183.568 206.756 183.688C207.06 183.8 207.316 183.984 207.524 184.24C207.74 184.496 207.848 184.84 207.848 185.272C207.848 185.808 207.644 186.244 207.236 186.58C206.836 186.916 206.3 187.084 205.628 187.084C204.844 187.084 204.204 186.896 203.708 186.52C203.212 186.144 202.92 185.62 202.832 184.948H203.888C203.928 185.348 204.1 185.672 204.404 185.92C204.716 186.168 205.124 186.292 205.628 186.292C206.004 186.292 206.296 186.196 206.504 186.004C206.72 185.812 206.828 185.56 206.828 185.248C206.828 184.992 206.752 184.788 206.6 184.636C206.448 184.484 206.26 184.368 206.036 184.288C205.812 184.208 205.504 184.124 205.112 184.036C204.624 183.924 204.232 183.812 203.936 183.7C203.648 183.588 203.4 183.412 203.192 183.172C202.992 182.924 202.892 182.592 202.892 182.176C202.892 181.624 203.096 181.18 203.504 180.844C203.912 180.5 204.468 180.328 205.172 180.328ZM209.215 178.48C209.215 178.28 209.283 178.12 209.419 178C209.555 177.872 209.735 177.808 209.959 177.808C210.183 177.808 210.363 177.872 210.499 178C210.635 178.12 210.703 178.28 210.703 178.48C210.703 178.68 210.635 178.844 210.499 178.972C210.363 179.092 210.183 179.152 209.959 179.152C209.735 179.152 209.555 179.092 209.419 178.972C209.283 178.844 209.215 178.68 209.215 178.48ZM210.499 180.412V187H209.407V180.412H210.499ZM215.499 186.04V187H214.683C214.011 187 213.507 186.84 213.171 186.52C212.843 186.2 212.679 185.664 212.679 184.912V181.36H211.695V180.412H212.679V178.768H213.783V180.412H215.487V181.36H213.783V184.936C213.783 185.36 213.859 185.652 214.011 185.812C214.171 185.964 214.443 186.04 214.827 186.04H215.499ZM219.919 180.328C220.551 180.328 221.115 180.464 221.611 180.736C222.115 181.008 222.507 181.4 222.787 181.912C223.075 182.424 223.219 183.024 223.219 183.712C223.219 184.4 223.075 185 222.787 185.512C222.507 186.016 222.115 186.404 221.611 186.676C221.115 186.948 220.551 187.084 219.919 187.084C219.287 187.084 218.719 186.948 218.215 186.676C217.719 186.404 217.327 186.016 217.039 185.512C216.751 185 216.607 184.4 216.607 183.712C216.607 183.024 216.751 182.424 217.039 181.912C217.327 181.4 217.719 181.008 218.215 180.736C218.719 180.464 219.287 180.328 219.919 180.328ZM219.919 181.288C219.527 181.288 219.163 181.376 218.827 181.552C218.499 181.728 218.231 182 218.023 182.368C217.823 182.728 217.723 183.176 217.723 183.712C217.723 184.24 217.823 184.688 218.023 185.056C218.231 185.416 218.499 185.684 218.827 185.86C219.163 186.036 219.527 186.124 219.919 186.124C220.311 186.124 220.671 186.036 220.999 185.86C221.335 185.684 221.603 185.416 221.803 185.056C222.011 184.688 222.115 184.24 222.115 183.712C222.115 183.176 222.011 182.728 221.803 182.368C221.603 182 221.335 181.728 220.999 181.552C220.671 181.376 220.311 181.288 219.919 181.288ZM225.834 181.744C226.05 181.288 226.366 180.936 226.782 180.688C227.198 180.432 227.694 180.304 228.27 180.304V181.492H227.934C227.318 181.492 226.814 181.652 226.422 181.972C226.03 182.284 225.834 182.804 225.834 183.532V187H224.742V180.412H225.834V181.744ZM231.512 180.328C232.256 180.328 232.852 180.524 233.3 180.916C233.756 181.3 234.032 181.82 234.128 182.476H233.084C233.036 182.084 232.872 181.764 232.592 181.516C232.32 181.26 231.952 181.132 231.488 181.132C231.096 181.132 230.788 181.228 230.564 181.42C230.348 181.604 230.24 181.856 230.24 182.176C230.24 182.416 230.312 182.612 230.456 182.764C230.608 182.908 230.792 183.02 231.008 183.1C231.232 183.172 231.536 183.252 231.92 183.34C232.408 183.452 232.8 183.568 233.096 183.688C233.4 183.8 233.656 183.984 233.864 184.24C234.08 184.496 234.188 184.84 234.188 185.272C234.188 185.808 233.984 186.244 233.576 186.58C233.176 186.916 232.64 187.084 231.968 187.084C231.184 187.084 230.544 186.896 230.048 186.52C229.552 186.144 229.26 185.62 229.172 184.948H230.228C230.268 185.348 230.44 185.672 230.744 185.92C231.056 186.168 231.464 186.292 231.968 186.292C232.344 186.292 232.636 186.196 232.844 186.004C233.06 185.812 233.168 185.56 233.168 185.248C233.168 184.992 233.092 184.788 232.94 184.636C232.788 184.484 232.6 184.368 232.376 184.288C232.152 184.208 231.844 184.124 231.452 184.036C230.964 183.924 230.572 183.812 230.276 183.7C229.988 183.588 229.74 183.412 229.532 183.172C229.332 182.924 229.232 182.592 229.232 182.176C229.232 181.624 229.436 181.18 229.844 180.844C230.252 180.5 230.808 180.328 231.512 180.328ZM26.684 196.48C26.684 196.28 26.752 196.12 26.888 196C27.024 195.872 27.204 195.808 27.428 195.808C27.652 195.808 27.832 195.872 27.968 196C28.104 196.12 28.172 196.28 28.172 196.48C28.172 196.68 28.104 196.844 27.968 196.972C27.832 197.092 27.652 197.152 27.428 197.152C27.204 197.152 27.024 197.092 26.888 196.972C26.752 196.844 26.684 196.68 26.684 196.48ZM27.968 198.412V205H26.876V198.412H27.968ZM33.2917 198.304C34.0597 198.304 34.6797 198.552 35.1517 199.048C35.6237 199.536 35.8597 200.244 35.8597 201.172V205H34.7677V201.268C34.7677 200.612 34.5997 200.108 34.2637 199.756C33.9277 199.404 33.4717 199.228 32.8957 199.228C32.2957 199.228 31.8157 199.424 31.4557 199.816C31.0957 200.2 30.9157 200.764 30.9157 201.508V205H29.8237V198.412H30.9157V199.972C31.0837 199.436 31.3797 199.024 31.8037 198.736C32.2357 198.448 32.7317 198.304 33.2917 198.304ZM40.7786 204.04V205H39.9626C39.2906 205 38.7866 204.84 38.4506 204.52C38.1226 204.2 37.9586 203.664 37.9586 202.912V199.36H36.9746V198.412H37.9586V196.768H39.0626V198.412H40.7666V199.36H39.0626V202.936C39.0626 203.36 39.1386 203.652 39.2906 203.812C39.4506 203.964 39.7226 204.04 40.1066 204.04H40.7786ZM45.1992 198.328C45.8312 198.328 46.3952 198.464 46.8912 198.736C47.3952 199.008 47.7872 199.4 48.0672 199.912C48.3552 200.424 48.4992 201.024 48.4992 201.712C48.4992 202.4 48.3552 203 48.0672 203.512C47.7872 204.016 47.3952 204.404 46.8912 204.676C46.3952 204.948 45.8312 205.084 45.1992 205.084C44.5672 205.084 43.9992 204.948 43.4952 204.676C42.9992 204.404 42.6072 204.016 42.3192 203.512C42.0312 203 41.8872 202.4 41.8872 201.712C41.8872 201.024 42.0312 200.424 42.3192 199.912C42.6072 199.4 42.9992 199.008 43.4952 198.736C43.9992 198.464 44.5672 198.328 45.1992 198.328ZM45.1992 199.288C44.8072 199.288 44.4432 199.376 44.1072 199.552C43.7792 199.728 43.5112 200 43.3032 200.368C43.1032 200.728 43.0032 201.176 43.0032 201.712C43.0032 202.24 43.1032 202.688 43.3032 203.056C43.5112 203.416 43.7792 203.684 44.1072 203.86C44.4432 204.036 44.8072 204.124 45.1992 204.124C45.5912 204.124 45.9512 204.036 46.2792 203.86C46.6152 203.684 46.8832 203.416 47.0832 203.056C47.2912 202.688 47.3952 202.24 47.3952 201.712C47.3952 201.176 47.2912 200.728 47.0832 200.368C46.8832 200 46.6152 199.728 46.2792 199.552C45.9512 199.376 45.5912 199.288 45.1992 199.288ZM54.1789 196.12V205H53.0869V196.12H54.1789ZM62.0946 201.34C62.0946 201.572 62.0786 201.772 62.0466 201.94H56.7786C56.8026 202.692 57.0146 203.256 57.4146 203.632C57.8226 204.008 58.3186 204.196 58.9026 204.196C59.4306 204.196 59.8706 204.064 60.2226 203.8C60.5826 203.528 60.8026 203.168 60.8826 202.72H62.0466C61.9666 203.176 61.7866 203.584 61.5066 203.944C61.2346 204.304 60.8786 204.584 60.4386 204.784C59.9986 204.984 59.5026 205.084 58.9506 205.084C58.3186 205.084 57.7586 204.948 57.2706 204.676C56.7826 204.404 56.3986 204.016 56.1186 203.512C55.8466 203 55.7106 202.4 55.7106 201.712C55.7106 201.024 55.8466 200.424 56.1186 199.912C56.3986 199.4 56.7826 199.008 57.2706 198.736C57.7586 198.464 58.3186 198.328 58.9506 198.328C59.5906 198.328 60.1466 198.464 60.6186 198.736C61.0986 199.008 61.4626 199.372 61.7106 199.828C61.9666 200.284 62.0946 200.788 62.0946 201.34ZM60.9906 201.412C61.0146 200.924 60.9346 200.516 60.7506 200.188C60.5666 199.86 60.3146 199.616 59.9946 199.456C59.6746 199.296 59.3266 199.216 58.9506 199.216C58.3506 199.216 57.8466 199.404 57.4386 199.78C57.0306 200.148 56.8106 200.692 56.7786 201.412H60.9906ZM66.3229 198.328C66.9629 198.328 67.5029 198.488 67.9429 198.808C68.3909 199.128 68.7029 199.556 68.8789 200.092V198.412H69.9709V205H68.8789V203.32C68.7029 203.856 68.3909 204.284 67.9429 204.604C67.5029 204.924 66.9629 205.084 66.3229 205.084C65.7389 205.084 65.2189 204.948 64.7629 204.676C64.3069 204.404 63.9469 204.016 63.6829 203.512C63.4269 203 63.2989 202.4 63.2989 201.712C63.2989 201.024 63.4269 200.424 63.6829 199.912C63.9469 199.4 64.3069 199.008 64.7629 198.736C65.2189 198.464 65.7389 198.328 66.3229 198.328ZM66.6349 199.3C65.9629 199.3 65.4229 199.516 65.0149 199.948C64.6149 200.372 64.4149 200.96 64.4149 201.712C64.4149 202.464 64.6149 203.056 65.0149 203.488C65.4229 203.912 65.9629 204.124 66.6349 204.124C67.0669 204.124 67.4509 204.024 67.7869 203.824C68.1309 203.624 68.3989 203.344 68.5909 202.984C68.7829 202.616 68.8789 202.192 68.8789 201.712C68.8789 201.232 68.7829 200.808 68.5909 200.44C68.3989 200.072 68.1309 199.792 67.7869 199.6C67.4509 199.4 67.0669 199.3 66.6349 199.3ZM74.5088 198.328C75.1488 198.328 75.6888 198.488 76.1288 198.808C76.5768 199.128 76.8888 199.556 77.0648 200.092V196.12H78.1568V205H77.0648V203.32C76.8888 203.856 76.5768 204.284 76.1288 204.604C75.6888 204.924 75.1488 205.084 74.5088 205.084C73.9248 205.084 73.4048 204.948 72.9488 204.676C72.4928 204.404 72.1328 204.016 71.8688 203.512C71.6128 203 71.4848 202.4 71.4848 201.712C71.4848 201.024 71.6128 200.424 71.8688 199.912C72.1328 199.4 72.4928 199.008 72.9488 198.736C73.4048 198.464 73.9248 198.328 74.5088 198.328ZM74.8208 199.3C74.1488 199.3 73.6088 199.516 73.2008 199.948C72.8008 200.372 72.6008 200.96 72.6008 201.712C72.6008 202.464 72.8008 203.056 73.2008 203.488C73.6088 203.912 74.1488 204.124 74.8208 204.124C75.2528 204.124 75.6368 204.024 75.9728 203.824C76.3168 203.624 76.5848 203.344 76.7768 202.984C76.9688 202.616 77.0648 202.192 77.0648 201.712C77.0648 201.232 76.9688 200.808 76.7768 200.44C76.5848 200.072 76.3168 199.792 75.9728 199.6C75.6368 199.4 75.2528 199.3 74.8208 199.3ZM82.0588 198.328C82.8028 198.328 83.3988 198.524 83.8468 198.916C84.3028 199.3 84.5788 199.82 84.6748 200.476H83.6308C83.5828 200.084 83.4188 199.764 83.1388 199.516C82.8668 199.26 82.4988 199.132 82.0348 199.132C81.6428 199.132 81.3348 199.228 81.1108 199.42C80.8948 199.604 80.7868 199.856 80.7868 200.176C80.7868 200.416 80.8588 200.612 81.0028 200.764C81.1548 200.908 81.3388 201.02 81.5548 201.1C81.7788 201.172 82.0828 201.252 82.4668 201.34C82.9548 201.452 83.3468 201.568 83.6428 201.688C83.9468 201.8 84.2028 201.984 84.4108 202.24C84.6268 202.496 84.7348 202.84 84.7348 203.272C84.7348 203.808 84.5308 204.244 84.1228 204.58C83.7228 204.916 83.1868 205.084 82.5148 205.084C81.7308 205.084 81.0908 204.896 80.5948 204.52C80.0988 204.144 79.8068 203.62 79.7188 202.948H80.7748C80.8148 203.348 80.9868 203.672 81.2908 203.92C81.6028 204.168 82.0108 204.292 82.5148 204.292C82.8908 204.292 83.1828 204.196 83.3908 204.004C83.6068 203.812 83.7148 203.56 83.7148 203.248C83.7148 202.992 83.6388 202.788 83.4868 202.636C83.3348 202.484 83.1468 202.368 82.9228 202.288C82.6988 202.208 82.3908 202.124 81.9988 202.036C81.5108 201.924 81.1188 201.812 80.8228 201.7C80.5348 201.588 80.2868 201.412 80.0788 201.172C79.8788 200.924 79.7788 200.592 79.7788 200.176C79.7788 199.624 79.9828 199.18 80.3908 198.844C80.7988 198.5 81.3548 198.328 82.0588 198.328ZM92.3468 198.328C92.9788 198.328 93.5428 198.464 94.0388 198.736C94.5428 199.008 94.9348 199.4 95.2148 199.912C95.5028 200.424 95.6468 201.024 95.6468 201.712C95.6468 202.4 95.5028 203 95.2148 203.512C94.9348 204.016 94.5428 204.404 94.0388 204.676C93.5428 204.948 92.9788 205.084 92.3468 205.084C91.7148 205.084 91.1468 204.948 90.6428 204.676C90.1468 204.404 89.7548 204.016 89.4668 203.512C89.1788 203 89.0348 202.4 89.0348 201.712C89.0348 201.024 89.1788 200.424 89.4668 199.912C89.7548 199.4 90.1468 199.008 90.6428 198.736C91.1468 198.464 91.7148 198.328 92.3468 198.328ZM92.3468 199.288C91.9548 199.288 91.5908 199.376 91.2548 199.552C90.9268 199.728 90.6588 200 90.4508 200.368C90.2508 200.728 90.1508 201.176 90.1508 201.712C90.1508 202.24 90.2508 202.688 90.4508 203.056C90.6588 203.416 90.9268 203.684 91.2548 203.86C91.5908 204.036 91.9548 204.124 92.3468 204.124C92.7388 204.124 93.0988 204.036 93.4268 203.86C93.7628 203.684 94.0308 203.416 94.2308 203.056C94.4388 202.688 94.5428 202.24 94.5428 201.712C94.5428 201.176 94.4388 200.728 94.2308 200.368C94.0308 200 93.7628 199.728 93.4268 199.552C93.0988 199.376 92.7388 199.288 92.3468 199.288ZM98.2617 199.744C98.4777 199.288 98.7937 198.936 99.2097 198.688C99.6257 198.432 100.122 198.304 100.698 198.304V199.492H100.362C99.7457 199.492 99.2417 199.652 98.8497 199.972C98.4577 200.284 98.2617 200.804 98.2617 201.532V205H97.1697V198.412H98.2617V199.744ZM108.576 198.328C109.16 198.328 109.68 198.464 110.136 198.736C110.592 199.008 110.948 199.4 111.204 199.912C111.468 200.424 111.6 201.024 111.6 201.712C111.6 202.4 111.468 203 111.204 203.512C110.948 204.016 110.592 204.404 110.136 204.676C109.68 204.948 109.16 205.084 108.576 205.084C107.936 205.084 107.392 204.924 106.944 204.604C106.504 204.276 106.2 203.848 106.032 203.32V205H104.94V196.12H106.032V200.092C106.2 199.564 106.504 199.14 106.944 198.82C107.392 198.492 107.936 198.328 108.576 198.328ZM108.264 199.3C107.84 199.3 107.456 199.4 107.112 199.6C106.768 199.792 106.5 200.072 106.308 200.44C106.116 200.808 106.02 201.232 106.02 201.712C106.02 202.192 106.116 202.616 106.308 202.984C106.5 203.344 106.768 203.624 107.112 203.824C107.456 204.024 107.84 204.124 108.264 204.124C108.944 204.124 109.484 203.912 109.884 203.488C110.292 203.056 110.496 202.464 110.496 201.712C110.496 200.96 110.292 200.372 109.884 199.948C109.484 199.516 108.944 199.3 108.264 199.3ZM118.982 198.412V205H117.89V203.452C117.722 203.988 117.422 204.4 116.99 204.688C116.566 204.968 116.07 205.108 115.502 205.108C114.742 205.108 114.126 204.864 113.654 204.376C113.182 203.88 112.946 203.172 112.946 202.252V198.412H114.038V202.144C114.038 202.8 114.206 203.308 114.542 203.668C114.878 204.02 115.334 204.196 115.91 204.196C116.51 204.196 116.99 204.004 117.35 203.62C117.71 203.228 117.89 202.66 117.89 201.916V198.412H118.982ZM121.287 198.412L123.423 203.596L125.403 198.412H126.615L122.703 208.12H121.467L122.835 204.892L120.063 198.412H121.287ZM133.777 201.34C133.777 201.572 133.761 201.772 133.729 201.94H128.461C128.485 202.692 128.697 203.256 129.097 203.632C129.505 204.008 130.001 204.196 130.585 204.196C131.113 204.196 131.553 204.064 131.905 203.8C132.265 203.528 132.485 203.168 132.565 202.72H133.729C133.649 203.176 133.469 203.584 133.189 203.944C132.917 204.304 132.561 204.584 132.121 204.784C131.681 204.984 131.185 205.084 130.633 205.084C130.001 205.084 129.441 204.948 128.953 204.676C128.465 204.404 128.081 204.016 127.801 203.512C127.529 203 127.393 202.4 127.393 201.712C127.393 201.024 127.529 200.424 127.801 199.912C128.081 199.4 128.465 199.008 128.953 198.736C129.441 198.464 130.001 198.328 130.633 198.328C131.273 198.328 131.829 198.464 132.301 198.736C132.781 199.008 133.145 199.372 133.393 199.828C133.649 200.284 133.777 200.788 133.777 201.34ZM132.673 201.412C132.697 200.924 132.617 200.516 132.433 200.188C132.249 199.86 131.997 199.616 131.677 199.456C131.357 199.296 131.009 199.216 130.633 199.216C130.033 199.216 129.529 199.404 129.121 199.78C128.713 200.148 128.493 200.692 128.461 201.412H132.673ZM136.397 199.744C136.613 199.288 136.929 198.936 137.345 198.688C137.761 198.432 138.257 198.304 138.833 198.304V199.492H138.497C137.881 199.492 137.377 199.652 136.985 199.972C136.593 200.284 136.397 200.804 136.397 201.532V205H135.305V198.412H136.397V199.744ZM142.074 198.328C142.818 198.328 143.414 198.524 143.862 198.916C144.318 199.3 144.594 199.82 144.69 200.476H143.646C143.598 200.084 143.434 199.764 143.154 199.516C142.882 199.26 142.514 199.132 142.05 199.132C141.658 199.132 141.35 199.228 141.126 199.42C140.91 199.604 140.802 199.856 140.802 200.176C140.802 200.416 140.874 200.612 141.018 200.764C141.17 200.908 141.354 201.02 141.57 201.1C141.794 201.172 142.098 201.252 142.482 201.34C142.97 201.452 143.362 201.568 143.658 201.688C143.962 201.8 144.218 201.984 144.426 202.24C144.642 202.496 144.75 202.84 144.75 203.272C144.75 203.808 144.546 204.244 144.138 204.58C143.738 204.916 143.202 205.084 142.53 205.084C141.746 205.084 141.106 204.896 140.61 204.52C140.114 204.144 139.822 203.62 139.734 202.948H140.79C140.83 203.348 141.002 203.672 141.306 203.92C141.618 204.168 142.026 204.292 142.53 204.292C142.906 204.292 143.198 204.196 143.406 204.004C143.622 203.812 143.73 203.56 143.73 203.248C143.73 202.992 143.654 202.788 143.502 202.636C143.35 202.484 143.162 202.368 142.938 202.288C142.714 202.208 142.406 202.124 142.014 202.036C141.526 201.924 141.134 201.812 140.838 201.7C140.55 201.588 140.302 201.412 140.094 201.172C139.894 200.924 139.794 200.592 139.794 200.176C139.794 199.624 139.998 199.18 140.406 198.844C140.814 198.5 141.37 198.328 142.074 198.328ZM147.114 203.716V205H145.794V203.716H147.114Z" fill="#192A3E"/>
<path d="M40.445 133.41L37.805 144H35.705L33.47 135.81L31.235 144H29.135L26.495 133.41H28.37L30.2 142.02L32.525 133.41H34.415L36.74 142.02L38.57 133.41H40.445ZM45.8564 135.63C46.6564 135.63 47.3764 135.8 48.0164 136.14C48.6564 136.48 49.1564 136.97 49.5164 137.61C49.8764 138.25 50.0564 139 50.0564 139.86C50.0564 140.73 49.8764 141.485 49.5164 142.125C49.1564 142.765 48.6564 143.255 48.0164 143.595C47.3764 143.935 46.6564 144.105 45.8564 144.105C45.0564 144.105 44.3364 143.935 43.6964 143.595C43.0664 143.255 42.5664 142.765 42.1964 142.125C41.8364 141.475 41.6564 140.72 41.6564 139.86C41.6564 139 41.8364 138.25 42.1964 137.61C42.5664 136.97 43.0664 136.48 43.6964 136.14C44.3364 135.8 45.0564 135.63 45.8564 135.63ZM45.8564 137.115C45.4164 137.115 45.0114 137.215 44.6414 137.415C44.2714 137.615 43.9714 137.925 43.7414 138.345C43.5214 138.755 43.4114 139.26 43.4114 139.86C43.4114 140.47 43.5214 140.98 43.7414 141.39C43.9714 141.8 44.2714 142.105 44.6414 142.305C45.0114 142.505 45.4164 142.605 45.8564 142.605C46.2964 142.605 46.7014 142.505 47.0714 142.305C47.4414 142.105 47.7364 141.8 47.9564 141.39C48.1864 140.98 48.3014 140.47 48.3014 139.86C48.3014 139.26 48.1864 138.755 47.9564 138.345C47.7364 137.925 47.4414 137.615 47.0714 137.415C46.7014 137.215 46.2964 137.115 45.8564 137.115ZM53.5104 137.355C53.7904 136.815 54.1904 136.39 54.7104 136.08C55.2304 135.76 55.8304 135.6 56.5104 135.6V137.46H56.0004C55.2504 137.46 54.6454 137.645 54.1854 138.015C53.7354 138.375 53.5104 138.975 53.5104 139.815V144H51.8004V135.735H53.5104V137.355ZM61.2066 135.63C61.9566 135.63 62.5966 135.815 63.1266 136.185C63.6566 136.555 64.0266 137.045 64.2366 137.655V132.9H65.9616V144H64.2366V142.08C64.0266 142.69 63.6566 143.18 63.1266 143.55C62.5966 143.92 61.9566 144.105 61.2066 144.105C60.4866 144.105 59.8416 143.935 59.2716 143.595C58.7116 143.255 58.2716 142.765 57.9516 142.125C57.6316 141.485 57.4716 140.73 57.4716 139.86C57.4716 139 57.6316 138.25 57.9516 137.61C58.2716 136.97 58.7116 136.48 59.2716 136.14C59.8416 135.8 60.4866 135.63 61.2066 135.63ZM61.7316 137.13C60.9716 137.13 60.3616 137.375 59.9016 137.865C59.4516 138.345 59.2266 139.01 59.2266 139.86C59.2266 140.71 59.4516 141.38 59.9016 141.87C60.3616 142.35 60.9716 142.59 61.7316 142.59C62.2116 142.59 62.6416 142.48 63.0216 142.26C63.4016 142.03 63.7016 141.71 63.9216 141.3C64.1416 140.89 64.2516 140.41 64.2516 139.86C64.2516 139.32 64.1416 138.845 63.9216 138.435C63.7016 138.015 63.4016 137.695 63.0216 137.475C62.6416 137.245 62.2116 137.13 61.7316 137.13ZM69.8237 139.89V144H68.1137V133.41H71.7137C72.9337 133.41 73.8487 133.7 74.4587 134.28C75.0787 134.86 75.3887 135.655 75.3887 136.665C75.3887 137.665 75.0737 138.455 74.4437 139.035C73.8137 139.605 72.9037 139.89 71.7137 139.89H69.8237ZM71.5337 138.495C72.9437 138.495 73.6487 137.885 73.6487 136.665C73.6487 136.065 73.4787 135.61 73.1387 135.3C72.8087 134.98 72.2737 134.82 71.5337 134.82H69.8237V138.495H71.5337ZM78.6981 137.355C78.9781 136.815 79.3781 136.39 79.8981 136.08C80.4181 135.76 81.0181 135.6 81.6981 135.6V137.46H81.1881C80.4381 137.46 79.8331 137.645 79.3731 138.015C78.9231 138.375 78.6981 138.975 78.6981 139.815V144H76.9881V135.735H78.6981V137.355ZM90.7593 139.47C90.7593 139.75 90.7393 139.995 90.6993 140.205H84.3393C84.3693 141.055 84.6043 141.685 85.0443 142.095C85.4843 142.505 86.0293 142.71 86.6793 142.71C87.2493 142.71 87.7293 142.565 88.1193 142.275C88.5193 141.985 88.7643 141.6 88.8543 141.12H90.6843C90.5743 141.7 90.3443 142.215 89.9943 142.665C89.6443 143.115 89.1893 143.47 88.6293 143.73C88.0693 143.98 87.4443 144.105 86.7543 144.105C85.9543 144.105 85.2443 143.935 84.6243 143.595C84.0143 143.255 83.5343 142.765 83.1843 142.125C82.8343 141.485 82.6593 140.73 82.6593 139.86C82.6593 139 82.8343 138.25 83.1843 137.61C83.5343 136.97 84.0143 136.48 84.6243 136.14C85.2443 135.8 85.9543 135.63 86.7543 135.63C87.5643 135.63 88.2693 135.8 88.8693 136.14C89.4793 136.47 89.9443 136.93 90.2643 137.52C90.5943 138.1 90.7593 138.75 90.7593 139.47ZM89.0343 139.425C89.0543 138.885 88.9593 138.435 88.7493 138.075C88.5493 137.705 88.2693 137.435 87.9093 137.265C87.5593 137.085 87.1743 136.995 86.7543 136.995C86.0843 136.995 85.5243 137.2 85.0743 137.61C84.6243 138.02 84.3793 138.625 84.3393 139.425H89.0343ZM95.2254 135.63C96.1954 135.63 96.9704 135.88 97.5504 136.38C98.1404 136.87 98.5004 137.53 98.6304 138.36H97.0104C96.9404 137.91 96.7454 137.55 96.4254 137.28C96.1154 137 95.7004 136.86 95.1804 136.86C94.7504 136.86 94.4154 136.965 94.1754 137.175C93.9454 137.375 93.8304 137.65 93.8304 138C93.8304 138.26 93.9154 138.47 94.0854 138.63C94.2554 138.79 94.4654 138.915 94.7154 139.005C94.9754 139.095 95.3404 139.195 95.8104 139.305C96.4304 139.445 96.9304 139.59 97.3104 139.74C97.7004 139.89 98.0304 140.13 98.3004 140.46C98.5804 140.78 98.7204 141.22 98.7204 141.78C98.7204 142.47 98.4554 143.03 97.9254 143.46C97.4054 143.89 96.7004 144.105 95.8104 144.105C94.7804 144.105 93.9454 143.865 93.3054 143.385C92.6754 142.905 92.2954 142.235 92.1654 141.375H93.8304C93.8804 141.825 94.0804 142.19 94.4304 142.47C94.7804 142.75 95.2404 142.89 95.8104 142.89C96.2204 142.89 96.5404 142.785 96.7704 142.575C97.0104 142.355 97.1304 142.08 97.1304 141.75C97.1304 141.46 97.0404 141.23 96.8604 141.06C96.6804 140.89 96.4554 140.76 96.1854 140.67C95.9154 140.57 95.5454 140.47 95.0754 140.37C94.4754 140.23 93.9854 140.09 93.6054 139.95C93.2354 139.81 92.9154 139.585 92.6454 139.275C92.3854 138.955 92.2554 138.525 92.2554 137.985C92.2554 137.285 92.5154 136.72 93.0354 136.29C93.5654 135.85 94.2954 135.63 95.2254 135.63ZM103.25 135.63C104.22 135.63 104.995 135.88 105.575 136.38C106.165 136.87 106.525 137.53 106.655 138.36H105.035C104.965 137.91 104.77 137.55 104.45 137.28C104.14 137 103.725 136.86 103.205 136.86C102.775 136.86 102.44 136.965 102.2 137.175C101.97 137.375 101.855 137.65 101.855 138C101.855 138.26 101.94 138.47 102.11 138.63C102.28 138.79 102.49 138.915 102.74 139.005C103 139.095 103.365 139.195 103.835 139.305C104.455 139.445 104.955 139.59 105.335 139.74C105.725 139.89 106.055 140.13 106.325 140.46C106.605 140.78 106.745 141.22 106.745 141.78C106.745 142.47 106.48 143.03 105.95 143.46C105.43 143.89 104.725 144.105 103.835 144.105C102.805 144.105 101.97 143.865 101.33 143.385C100.7 142.905 100.32 142.235 100.19 141.375H101.855C101.905 141.825 102.105 142.19 102.455 142.47C102.805 142.75 103.265 142.89 103.835 142.89C104.245 142.89 104.565 142.785 104.795 142.575C105.035 142.355 105.155 142.08 105.155 141.75C105.155 141.46 105.065 141.23 104.885 141.06C104.705 140.89 104.48 140.76 104.21 140.67C103.94 140.57 103.57 140.47 103.1 140.37C102.5 140.23 102.01 140.09 101.63 139.95C101.26 139.81 100.94 139.585 100.67 139.275C100.41 138.955 100.28 138.525 100.28 137.985C100.28 137.285 100.54 136.72 101.06 136.29C101.59 135.85 102.32 135.63 103.25 135.63Z" fill="#192A3E"/>
<path d="M30.979 240.731C32.123 240.731 33.072 241.026 33.826 241.615C34.58 242.204 35.0783 243.006 35.321 244.02H33.397C33.1977 243.526 32.8857 243.136 32.461 242.85C32.045 242.564 31.5423 242.421 30.953 242.421C30.4677 242.421 30.03 242.542 29.64 242.785C29.25 243.028 28.9467 243.374 28.73 243.825C28.5133 244.276 28.405 244.804 28.405 245.411C28.405 246.009 28.5133 246.533 28.73 246.984C28.9467 247.435 29.25 247.781 29.64 248.024C30.03 248.267 30.4677 248.388 30.953 248.388C31.5423 248.388 32.045 248.245 32.461 247.959C32.8857 247.673 33.1977 247.283 33.397 246.789H35.321C35.0783 247.803 34.58 248.605 33.826 249.194C33.072 249.783 32.123 250.078 30.979 250.078C30.1037 250.078 29.328 249.883 28.652 249.493C27.9847 249.094 27.4647 248.54 27.092 247.829C26.728 247.118 26.546 246.312 26.546 245.411C26.546 244.501 26.728 243.691 27.092 242.98C27.4647 242.269 27.9847 241.719 28.652 241.329C29.3193 240.93 30.095 240.731 30.979 240.731ZM40.1243 242.707C40.8263 242.707 41.4546 242.854 42.0093 243.149C42.5726 243.444 43.0146 243.873 43.3353 244.436C43.6559 244.991 43.8163 245.645 43.8163 246.399C43.8163 247.153 43.6559 247.807 43.3353 248.362C43.0146 248.917 42.5726 249.346 42.0093 249.649C41.4546 249.944 40.8263 250.091 40.1243 250.091C39.4223 250.091 38.7896 249.944 38.2263 249.649C37.6716 249.346 37.2339 248.917 36.9133 248.362C36.5926 247.807 36.4323 247.153 36.4323 246.399C36.4323 245.645 36.5926 244.991 36.9133 244.436C37.2339 243.873 37.6716 243.444 38.2263 243.149C38.7896 242.854 39.4223 242.707 40.1243 242.707ZM40.1243 244.293C39.6129 244.293 39.1796 244.475 38.8243 244.839C38.4689 245.194 38.2913 245.714 38.2913 246.399C38.2913 247.084 38.4689 247.608 38.8243 247.972C39.1796 248.327 39.6129 248.505 40.1243 248.505C40.6356 248.505 41.0689 248.327 41.4243 247.972C41.7796 247.608 41.9573 247.084 41.9573 246.399C41.9573 245.714 41.7796 245.194 41.4243 244.839C41.0689 244.475 40.6356 244.293 40.1243 244.293ZM49.5017 242.694C50.3337 242.694 50.9967 242.967 51.4907 243.513C51.9847 244.059 52.2317 244.826 52.2317 245.814V250H50.4117V246.022C50.4117 245.45 50.2644 245.008 49.9697 244.696C49.675 244.375 49.272 244.215 48.7607 244.215C48.2407 244.215 47.8247 244.384 47.5127 244.722C47.2007 245.06 47.0447 245.545 47.0447 246.178V250H45.2117V242.798H47.0447V244.241C47.2354 243.756 47.5474 243.379 47.9807 243.11C48.4227 242.833 48.9297 242.694 49.5017 242.694ZM58.2345 242.694C59.0665 242.694 59.7295 242.967 60.2235 243.513C60.7175 244.059 60.9645 244.826 60.9645 245.814V250H59.1445V246.022C59.1445 245.45 58.9972 245.008 58.7025 244.696C58.4078 244.375 58.0048 244.215 57.4935 244.215C56.9735 244.215 56.5575 244.384 56.2455 244.722C55.9335 245.06 55.7775 245.545 55.7775 246.178V250H53.9445V242.798H55.7775V244.241C55.9682 243.756 56.2802 243.379 56.7135 243.11C57.1555 242.833 57.6625 242.694 58.2345 242.694ZM69.4503 246.126C69.4503 246.308 69.4286 246.516 69.3853 246.75H64.1073C64.1333 247.391 64.3066 247.864 64.6273 248.167C64.948 248.47 65.3466 248.622 65.8233 248.622C66.248 248.622 66.599 248.518 66.8763 248.31C67.1623 248.102 67.3443 247.82 67.4223 247.465H69.3593C69.264 247.968 69.0603 248.418 68.7483 248.817C68.4363 249.216 68.0333 249.528 67.5393 249.753C67.054 249.978 66.5123 250.091 65.9143 250.091C65.2123 250.091 64.5883 249.944 64.0423 249.649C63.4963 249.346 63.0716 248.917 62.7683 248.362C62.465 247.807 62.3133 247.153 62.3133 246.399C62.3133 245.645 62.465 244.991 62.7683 244.436C63.0716 243.873 63.4963 243.444 64.0423 243.149C64.5883 242.854 65.2123 242.707 65.9143 242.707C66.625 242.707 67.2446 242.854 67.7733 243.149C68.3106 243.444 68.7223 243.851 69.0083 244.371C69.303 244.882 69.4503 245.467 69.4503 246.126ZM67.6043 245.944C67.6303 245.355 67.4743 244.908 67.1363 244.605C66.807 244.302 66.3996 244.15 65.9143 244.15C65.4203 244.15 65.0043 244.302 64.6663 244.605C64.3283 244.908 64.142 245.355 64.1073 245.944H67.6043ZM74.0885 242.707C75.0159 242.707 75.7872 242.958 76.4025 243.461C77.0265 243.964 77.4165 244.648 77.5725 245.515H75.6355C75.5575 245.134 75.3799 244.835 75.1025 244.618C74.8252 244.393 74.4742 244.28 74.0495 244.28C73.5642 244.28 73.1569 244.462 72.8275 244.826C72.5069 245.181 72.3465 245.706 72.3465 246.399C72.3465 247.092 72.5069 247.621 72.8275 247.985C73.1569 248.34 73.5642 248.518 74.0495 248.518C74.4742 248.518 74.8252 248.41 75.1025 248.193C75.3799 247.968 75.5575 247.664 75.6355 247.283H77.5725C77.4165 248.15 77.0265 248.834 76.4025 249.337C75.7872 249.84 75.0159 250.091 74.0885 250.091C73.3865 250.091 72.7625 249.944 72.2165 249.649C71.6705 249.346 71.2459 248.917 70.9425 248.362C70.6392 247.807 70.4875 247.153 70.4875 246.399C70.4875 245.645 70.6392 244.991 70.9425 244.436C71.2459 243.873 71.6705 243.444 72.2165 243.149C72.7625 242.854 73.3865 242.707 74.0885 242.707ZM82.823 248.427V250H81.861C81.055 250 80.4353 249.805 80.002 249.415C79.5773 249.025 79.365 248.375 79.365 247.465V244.345H78.364V242.798H79.365V241.017H81.198V242.798H82.81V244.345H81.198V247.491C81.198 247.838 81.2673 248.08 81.406 248.219C81.5446 248.358 81.7786 248.427 82.108 248.427H82.823Z" fill="#109CF1"/>
<g clip-path="url(#clip0_118_629)">
<path fill-rule="evenodd" clip-rule="evenodd" d="M131.998 38.2031C138.727 38.2031 144.854 40.7817 149.447 45.0036C147.196 44.9432 144.95 46.2813 144.857 49.3454C144.667 55.5399 152.264 56.8594 148.171 69.3192L144.785 79.6256L135.563 52.4618C135.42 52.0413 135.586 51.8021 136.103 51.8021H138.71C138.846 51.8021 138.957 51.6864 138.957 51.5447V50.0005C138.957 49.8589 138.846 49.7374 138.71 49.7432C133.773 49.9591 128.865 49.9606 123.987 49.7432C123.851 49.7374 123.74 49.8594 123.74 50.0011V51.5452C123.74 51.6868 123.851 51.8026 123.987 51.8026H126.608C127.191 51.8026 127.354 51.9969 127.492 52.3728L131.281 62.7349L125.581 79.9454L116.212 52.3495C116.096 52.0034 116.237 51.8025 116.57 51.8025H119.557C119.692 51.8025 119.803 51.6868 119.803 51.5451V50.0009C119.803 49.8593 119.692 49.7365 119.557 49.7436C116.423 49.9101 113.277 49.9435 110.347 49.9736C114.945 42.8901 122.924 38.2026 131.997 38.2026L131.997 38.2025L131.998 38.2031ZM154.686 51.7153C156.668 55.3673 157.793 59.5515 157.793 63.9974C157.793 73.7549 152.372 82.2475 144.379 86.6312L152.424 63.8453C153.67 60.3188 154.827 55.553 154.685 51.7153H154.685H154.686ZM140.634 88.3084C137.934 89.269 135.028 89.7929 131.998 89.7929C129.388 89.7929 126.87 89.4038 124.496 88.6836L132.443 65.9105L140.634 88.3096L140.634 88.3084ZM120.96 87.3165C112.237 83.1794 106.203 74.2921 106.203 63.9986C106.203 60.1827 107.033 56.5603 108.521 53.3013L120.961 87.317L120.961 87.3169L120.96 87.3165ZM131.998 35.7825C147.577 35.7825 160.213 48.4177 160.213 63.9974C160.213 79.5772 147.577 92.2124 131.998 92.2124C116.418 92.2124 103.783 79.5772 103.783 63.9974C103.783 48.4177 116.418 35.7825 131.998 35.7825ZM131.998 33.999C148.562 33.999 161.997 47.4334 161.997 63.9981C161.997 80.5628 148.562 93.9972 131.998 93.9972C115.433 93.9972 101.999 80.5628 101.999 63.9981C101.999 47.4334 115.433 33.999 131.998 33.999Z" fill="#464342"/>
</g>
<defs>
<filter id="filter0_d_118_629" x="0" y="0" width="263" height="284" filterUnits="userSpaceOnUse" color-interpolation-filters="sRGB">
<feFlood flood-opacity="0" result="BackgroundImageFix"/>
<feColorMatrix in="SourceAlpha" type="matrix" values="0 0 0 0 0 0 0 0 0 0 0 0 0 0 0 0 0 0 127 0" result="hardAlpha"/>
<feOffset dy="2"/>
<feGaussianBlur stdDeviation="5"/>
<feColorMatrix type="matrix" values="0 0 0 0 0 0 0 0 0 0 0 0 0 0 0 0 0 0 0.08 0"/>
<feBlend mode="normal" in2="BackgroundImageFix" result="effect1_dropShadow_118_629"/>
<feBlend mode="normal" in="SourceGraphic" in2="effect1_dropShadow_118_629" result="shape"/>
</filter>
<clipPath id="clip0_118_629">
<rect width="60" height="60" fill="white" transform="translate(102 34)"/>
</clipPath>
</defs>
</svg>
