<svg width="263" height="284" viewBox="0 0 263 284" fill="none" xmlns="http://www.w3.org/2000/svg">
<g filter="url(#filter0_d_118_587)">
<rect x="10" y="8" width="243" height="264" rx="4" fill="white"/>
</g>
<path opacity="0.5" d="M30.62 160.456C31.652 160.456 32.504 160.712 33.176 161.224C33.848 161.728 34.312 162.42 34.568 163.3H33.416C33.2 162.74 32.852 162.296 32.372 161.968C31.892 161.632 31.304 161.464 30.608 161.464C30.056 161.464 29.56 161.6 29.12 161.872C28.688 162.136 28.344 162.52 28.088 163.024C27.84 163.52 27.716 164.104 27.716 164.776C27.716 165.44 27.84 166.02 28.088 166.516C28.344 167.012 28.688 167.396 29.12 167.668C29.56 167.932 30.056 168.064 30.608 168.064C31.304 168.064 31.892 167.9 32.372 167.572C32.852 167.236 33.2 166.788 33.416 166.228H34.568C34.312 167.108 33.848 167.804 33.176 168.316C32.504 168.82 31.652 169.072 30.62 169.072C29.828 169.072 29.128 168.892 28.52 168.532C27.912 168.164 27.436 167.656 27.092 167.008C26.756 166.352 26.588 165.608 26.588 164.776C26.588 163.936 26.756 163.188 27.092 162.532C27.436 161.876 27.912 161.368 28.52 161.008C29.128 160.64 29.828 160.456 30.62 160.456ZM39.1163 162.328C39.7483 162.328 40.3123 162.464 40.8083 162.736C41.3123 163.008 41.7043 163.4 41.9843 163.912C42.2723 164.424 42.4163 165.024 42.4163 165.712C42.4163 166.4 42.2723 167 41.9843 167.512C41.7043 168.016 41.3123 168.404 40.8083 168.676C40.3123 168.948 39.7483 169.084 39.1163 169.084C38.4843 169.084 37.9163 168.948 37.4123 168.676C36.9163 168.404 36.5243 168.016 36.2363 167.512C35.9483 167 35.8043 166.4 35.8043 165.712C35.8043 165.024 35.9483 164.424 36.2363 163.912C36.5243 163.4 36.9163 163.008 37.4123 162.736C37.9163 162.464 38.4843 162.328 39.1163 162.328ZM39.1163 163.288C38.7243 163.288 38.3603 163.376 38.0243 163.552C37.6963 163.728 37.4283 164 37.2203 164.368C37.0203 164.728 36.9203 165.176 36.9203 165.712C36.9203 166.24 37.0203 166.688 37.2203 167.056C37.4283 167.416 37.6963 167.684 38.0243 167.86C38.3603 168.036 38.7243 168.124 39.1163 168.124C39.5083 168.124 39.8683 168.036 40.1963 167.86C40.5323 167.684 40.8003 167.416 41.0003 167.056C41.2083 166.688 41.3123 166.24 41.3123 165.712C41.3123 165.176 41.2083 164.728 41.0003 164.368C40.8003 164 40.5323 163.728 40.1963 163.552C39.8683 163.376 39.5083 163.288 39.1163 163.288ZM47.4073 162.304C48.1753 162.304 48.7953 162.552 49.2673 163.048C49.7393 163.536 49.9753 164.244 49.9753 165.172V169H48.8833V165.268C48.8833 164.612 48.7153 164.108 48.3793 163.756C48.0433 163.404 47.5873 163.228 47.0113 163.228C46.4113 163.228 45.9313 163.424 45.5713 163.816C45.2113 164.2 45.0313 164.764 45.0313 165.508V169H43.9393V162.412H45.0313V163.972C45.1993 163.436 45.4953 163.024 45.9193 162.736C46.3513 162.448 46.8473 162.304 47.4073 162.304ZM55.2182 162.304C55.9862 162.304 56.6062 162.552 57.0782 163.048C57.5502 163.536 57.7862 164.244 57.7862 165.172V169H56.6942V165.268C56.6942 164.612 56.5262 164.108 56.1902 163.756C55.8542 163.404 55.3982 163.228 54.8222 163.228C54.2222 163.228 53.7422 163.424 53.3822 163.816C53.0222 164.2 52.8422 164.764 52.8422 165.508V169H51.7502V162.412H52.8422V163.972C53.0102 163.436 53.3062 163.024 53.7302 162.736C54.1622 162.448 54.6582 162.304 55.2182 162.304ZM65.6212 165.34C65.6212 165.572 65.6052 165.772 65.5732 165.94H60.3052C60.3292 166.692 60.5412 167.256 60.9412 167.632C61.3492 168.008 61.8452 168.196 62.4292 168.196C62.9572 168.196 63.3972 168.064 63.7492 167.8C64.1092 167.528 64.3292 167.168 64.4092 166.72H65.5732C65.4932 167.176 65.3132 167.584 65.0332 167.944C64.7612 168.304 64.4052 168.584 63.9652 168.784C63.5252 168.984 63.0292 169.084 62.4772 169.084C61.8452 169.084 61.2852 168.948 60.7972 168.676C60.3092 168.404 59.9252 168.016 59.6452 167.512C59.3732 167 59.2372 166.4 59.2372 165.712C59.2372 165.024 59.3732 164.424 59.6452 163.912C59.9252 163.4 60.3092 163.008 60.7972 162.736C61.2852 162.464 61.8452 162.328 62.4772 162.328C63.1172 162.328 63.6732 162.464 64.1452 162.736C64.6252 163.008 64.9892 163.372 65.2372 163.828C65.4932 164.284 65.6212 164.788 65.6212 165.34ZM64.5172 165.412C64.5412 164.924 64.4612 164.516 64.2772 164.188C64.0932 163.86 63.8412 163.616 63.5212 163.456C63.2012 163.296 62.8532 163.216 62.4772 163.216C61.8772 163.216 61.3732 163.404 60.9652 163.78C60.5572 164.148 60.3372 164.692 60.3052 165.412H64.5172ZM70.0654 162.328C70.9054 162.328 71.6014 162.552 72.1534 163C72.7054 163.448 73.0454 164.048 73.1734 164.8H72.0214C71.9414 164.328 71.7214 163.96 71.3614 163.696C71.0094 163.424 70.5694 163.288 70.0414 163.288C69.6574 163.288 69.3054 163.376 68.9854 163.552C68.6734 163.728 68.4214 164 68.2294 164.368C68.0374 164.728 67.9414 165.176 67.9414 165.712C67.9414 166.248 68.0374 166.7 68.2294 167.068C68.4214 167.428 68.6734 167.696 68.9854 167.872C69.3054 168.048 69.6574 168.136 70.0414 168.136C70.5694 168.136 71.0094 168 71.3614 167.728C71.7214 167.456 71.9414 167.084 72.0214 166.612H73.1734C73.0454 167.372 72.7054 167.976 72.1534 168.424C71.6014 168.864 70.9054 169.084 70.0654 169.084C69.4334 169.084 68.8734 168.948 68.3854 168.676C67.8974 168.404 67.5134 168.016 67.2334 167.512C66.9614 167 66.8254 166.4 66.8254 165.712C66.8254 165.024 66.9614 164.424 67.2334 163.912C67.5134 163.4 67.8974 163.008 68.3854 162.736C68.8734 162.464 69.4334 162.328 70.0654 162.328ZM77.8466 168.04V169H77.0306C76.3586 169 75.8546 168.84 75.5186 168.52C75.1906 168.2 75.0266 167.664 75.0266 166.912V163.36H74.0426V162.412H75.0266V160.768H76.1306V162.412H77.8346V163.36H76.1306V166.936C76.1306 167.36 76.2066 167.652 76.3586 167.812C76.5186 167.964 76.7906 168.04 77.1746 168.04H77.8466ZM82.8 162.412L84.936 167.596L86.916 162.412H88.128L84.216 172.12H82.98L84.348 168.892L81.576 162.412H82.8ZM92.2171 162.328C92.8491 162.328 93.4131 162.464 93.9091 162.736C94.4131 163.008 94.8051 163.4 95.0851 163.912C95.3731 164.424 95.5171 165.024 95.5171 165.712C95.5171 166.4 95.3731 167 95.0851 167.512C94.8051 168.016 94.4131 168.404 93.9091 168.676C93.4131 168.948 92.8491 169.084 92.2171 169.084C91.5851 169.084 91.0171 168.948 90.5131 168.676C90.0171 168.404 89.6251 168.016 89.3371 167.512C89.0491 167 88.9051 166.4 88.9051 165.712C88.9051 165.024 89.0491 164.424 89.3371 163.912C89.6251 163.4 90.0171 163.008 90.5131 162.736C91.0171 162.464 91.5851 162.328 92.2171 162.328ZM92.2171 163.288C91.8251 163.288 91.4611 163.376 91.1251 163.552C90.7971 163.728 90.5291 164 90.3211 164.368C90.1211 164.728 90.0211 165.176 90.0211 165.712C90.0211 166.24 90.1211 166.688 90.3211 167.056C90.5291 167.416 90.7971 167.684 91.1251 167.86C91.4611 168.036 91.8251 168.124 92.2171 168.124C92.6091 168.124 92.9691 168.036 93.2971 167.86C93.6331 167.684 93.9011 167.416 94.1011 167.056C94.3091 166.688 94.4131 166.24 94.4131 165.712C94.4131 165.176 94.3091 164.728 94.1011 164.368C93.9011 164 93.6331 163.728 93.2971 163.552C92.9691 163.376 92.6091 163.288 92.2171 163.288ZM102.896 162.412V169H101.804V167.452C101.636 167.988 101.336 168.4 100.904 168.688C100.48 168.968 99.9841 169.108 99.4161 169.108C98.6561 169.108 98.0401 168.864 97.5681 168.376C97.0961 167.88 96.8601 167.172 96.8601 166.252V162.412H97.9521V166.144C97.9521 166.8 98.1201 167.308 98.4561 167.668C98.7921 168.02 99.2481 168.196 99.8241 168.196C100.424 168.196 100.904 168.004 101.264 167.62C101.624 167.228 101.804 166.66 101.804 165.916V162.412H102.896ZM105.838 163.744C106.054 163.288 106.37 162.936 106.786 162.688C107.202 162.432 107.698 162.304 108.274 162.304V163.492H107.938C107.322 163.492 106.818 163.652 106.426 163.972C106.034 164.284 105.838 164.804 105.838 165.532V169H104.746V162.412H105.838V163.744ZM117.304 160.54V161.428H113.608V164.356H116.74V165.208H113.608V169H112.516V160.54H117.304ZM121.398 162.328C122.038 162.328 122.578 162.488 123.018 162.808C123.466 163.128 123.778 163.556 123.954 164.092V162.412H125.046V169H123.954V167.32C123.778 167.856 123.466 168.284 123.018 168.604C122.578 168.924 122.038 169.084 121.398 169.084C120.814 169.084 120.294 168.948 119.838 168.676C119.382 168.404 119.022 168.016 118.758 167.512C118.502 167 118.374 166.4 118.374 165.712C118.374 165.024 118.502 164.424 118.758 163.912C119.022 163.4 119.382 163.008 119.838 162.736C120.294 162.464 120.814 162.328 121.398 162.328ZM121.71 163.3C121.038 163.3 120.498 163.516 120.09 163.948C119.69 164.372 119.49 164.96 119.49 165.712C119.49 166.464 119.69 167.056 120.09 167.488C120.498 167.912 121.038 168.124 121.71 168.124C122.142 168.124 122.526 168.024 122.862 167.824C123.206 167.624 123.474 167.344 123.666 166.984C123.858 166.616 123.954 166.192 123.954 165.712C123.954 165.232 123.858 164.808 123.666 164.44C123.474 164.072 123.206 163.792 122.862 163.6C122.526 163.4 122.142 163.3 121.71 163.3ZM129.8 162.328C130.64 162.328 131.336 162.552 131.888 163C132.44 163.448 132.78 164.048 132.908 164.8H131.756C131.676 164.328 131.456 163.96 131.096 163.696C130.744 163.424 130.304 163.288 129.776 163.288C129.392 163.288 129.04 163.376 128.72 163.552C128.408 163.728 128.156 164 127.964 164.368C127.772 164.728 127.676 165.176 127.676 165.712C127.676 166.248 127.772 166.7 127.964 167.068C128.156 167.428 128.408 167.696 128.72 167.872C129.04 168.048 129.392 168.136 129.776 168.136C130.304 168.136 130.744 168 131.096 167.728C131.456 167.456 131.676 167.084 131.756 166.612H132.908C132.78 167.372 132.44 167.976 131.888 168.424C131.336 168.864 130.64 169.084 129.8 169.084C129.168 169.084 128.608 168.948 128.12 168.676C127.632 168.404 127.248 168.016 126.968 167.512C126.696 167 126.56 166.4 126.56 165.712C126.56 165.024 126.696 164.424 126.968 163.912C127.248 163.4 127.632 163.008 128.12 162.736C128.608 162.464 129.168 162.328 129.8 162.328ZM140.497 165.34C140.497 165.572 140.481 165.772 140.449 165.94H135.181C135.205 166.692 135.417 167.256 135.817 167.632C136.225 168.008 136.721 168.196 137.305 168.196C137.833 168.196 138.273 168.064 138.625 167.8C138.985 167.528 139.205 167.168 139.285 166.72H140.449C140.369 167.176 140.189 167.584 139.909 167.944C139.637 168.304 139.281 168.584 138.841 168.784C138.401 168.984 137.905 169.084 137.353 169.084C136.721 169.084 136.161 168.948 135.673 168.676C135.185 168.404 134.801 168.016 134.521 167.512C134.249 167 134.113 166.4 134.113 165.712C134.113 165.024 134.249 164.424 134.521 163.912C134.801 163.4 135.185 163.008 135.673 162.736C136.161 162.464 136.721 162.328 137.353 162.328C137.993 162.328 138.549 162.464 139.021 162.736C139.501 163.008 139.865 163.372 140.113 163.828C140.369 164.284 140.497 164.788 140.497 165.34ZM139.393 165.412C139.417 164.924 139.337 164.516 139.153 164.188C138.969 163.86 138.717 163.616 138.397 163.456C138.077 163.296 137.729 163.216 137.353 163.216C136.753 163.216 136.249 163.404 135.841 163.78C135.433 164.148 135.213 164.692 135.181 165.412H139.393ZM145.661 162.328C146.245 162.328 146.765 162.464 147.221 162.736C147.677 163.008 148.033 163.4 148.289 163.912C148.553 164.424 148.685 165.024 148.685 165.712C148.685 166.4 148.553 167 148.289 167.512C148.033 168.016 147.677 168.404 147.221 168.676C146.765 168.948 146.245 169.084 145.661 169.084C145.021 169.084 144.477 168.924 144.029 168.604C143.589 168.276 143.285 167.848 143.117 167.32V169H142.025V160.12H143.117V164.092C143.285 163.564 143.589 163.14 144.029 162.82C144.477 162.492 145.021 162.328 145.661 162.328ZM145.349 163.3C144.925 163.3 144.541 163.4 144.197 163.6C143.853 163.792 143.585 164.072 143.393 164.44C143.201 164.808 143.105 165.232 143.105 165.712C143.105 166.192 143.201 166.616 143.393 166.984C143.585 167.344 143.853 167.624 144.197 167.824C144.541 168.024 144.925 168.124 145.349 168.124C146.029 168.124 146.569 167.912 146.969 167.488C147.377 167.056 147.581 166.464 147.581 165.712C147.581 164.96 147.377 164.372 146.969 163.948C146.569 163.516 146.029 163.3 145.349 163.3ZM153.199 162.328C153.831 162.328 154.395 162.464 154.891 162.736C155.395 163.008 155.787 163.4 156.067 163.912C156.355 164.424 156.499 165.024 156.499 165.712C156.499 166.4 156.355 167 156.067 167.512C155.787 168.016 155.395 168.404 154.891 168.676C154.395 168.948 153.831 169.084 153.199 169.084C152.567 169.084 151.999 168.948 151.495 168.676C150.999 168.404 150.607 168.016 150.319 167.512C150.031 167 149.887 166.4 149.887 165.712C149.887 165.024 150.031 164.424 150.319 163.912C150.607 163.4 150.999 163.008 151.495 162.736C151.999 162.464 152.567 162.328 153.199 162.328ZM153.199 163.288C152.807 163.288 152.443 163.376 152.107 163.552C151.779 163.728 151.511 164 151.303 164.368C151.103 164.728 151.003 165.176 151.003 165.712C151.003 166.24 151.103 166.688 151.303 167.056C151.511 167.416 151.779 167.684 152.107 167.86C152.443 168.036 152.807 168.124 153.199 168.124C153.591 168.124 153.951 168.036 154.279 167.86C154.615 167.684 154.883 167.416 155.083 167.056C155.291 166.688 155.395 166.24 155.395 165.712C155.395 165.176 155.291 164.728 155.083 164.368C154.883 164 154.615 163.728 154.279 163.552C153.951 163.376 153.591 163.288 153.199 163.288ZM161.01 162.328C161.642 162.328 162.206 162.464 162.702 162.736C163.206 163.008 163.598 163.4 163.878 163.912C164.166 164.424 164.31 165.024 164.31 165.712C164.31 166.4 164.166 167 163.878 167.512C163.598 168.016 163.206 168.404 162.702 168.676C162.206 168.948 161.642 169.084 161.01 169.084C160.378 169.084 159.81 168.948 159.306 168.676C158.81 168.404 158.418 168.016 158.13 167.512C157.842 167 157.698 166.4 157.698 165.712C157.698 165.024 157.842 164.424 158.13 163.912C158.418 163.4 158.81 163.008 159.306 162.736C159.81 162.464 160.378 162.328 161.01 162.328ZM161.01 163.288C160.618 163.288 160.254 163.376 159.918 163.552C159.59 163.728 159.322 164 159.114 164.368C158.914 164.728 158.814 165.176 158.814 165.712C158.814 166.24 158.914 166.688 159.114 167.056C159.322 167.416 159.59 167.684 159.918 167.86C160.254 168.036 160.618 168.124 161.01 168.124C161.402 168.124 161.762 168.036 162.09 167.86C162.426 167.684 162.694 167.416 162.894 167.056C163.102 166.688 163.206 166.24 163.206 165.712C163.206 165.176 163.102 164.728 162.894 164.368C162.694 164 162.426 163.728 162.09 163.552C161.762 163.376 161.402 163.288 161.01 163.288ZM169.445 169L166.925 166.036V169H165.833V160.12H166.925V165.28L169.409 162.412H170.741L167.789 165.688L170.813 169H169.445ZM179.895 167.044H176.175L175.467 169H174.291L177.423 160.696H178.659L181.779 169H180.603L179.895 167.044ZM179.583 166.192L178.035 161.92L176.487 166.192H179.583ZM185.685 162.328C186.325 162.328 186.865 162.488 187.305 162.808C187.753 163.128 188.065 163.556 188.241 164.092V160.12H189.333V169H188.241V167.32C188.065 167.856 187.753 168.284 187.305 168.604C186.865 168.924 186.325 169.084 185.685 169.084C185.101 169.084 184.581 168.948 184.125 168.676C183.669 168.404 183.309 168.016 183.045 167.512C182.789 167 182.661 166.4 182.661 165.712C182.661 165.024 182.789 164.424 183.045 163.912C183.309 163.4 183.669 163.008 184.125 162.736C184.581 162.464 185.101 162.328 185.685 162.328ZM185.997 163.3C185.325 163.3 184.785 163.516 184.377 163.948C183.977 164.372 183.777 164.96 183.777 165.712C183.777 166.464 183.977 167.056 184.377 167.488C184.785 167.912 185.325 168.124 185.997 168.124C186.429 168.124 186.813 168.024 187.149 167.824C187.493 167.624 187.761 167.344 187.953 166.984C188.145 166.616 188.241 166.192 188.241 165.712C188.241 165.232 188.145 164.808 187.953 164.44C187.761 164.072 187.493 163.792 187.149 163.6C186.813 163.4 186.429 163.3 185.997 163.3ZM193.235 162.328C193.979 162.328 194.575 162.524 195.023 162.916C195.479 163.3 195.755 163.82 195.851 164.476H194.807C194.759 164.084 194.595 163.764 194.315 163.516C194.043 163.26 193.675 163.132 193.211 163.132C192.819 163.132 192.511 163.228 192.287 163.42C192.071 163.604 191.963 163.856 191.963 164.176C191.963 164.416 192.035 164.612 192.179 164.764C192.331 164.908 192.515 165.02 192.731 165.1C192.955 165.172 193.259 165.252 193.643 165.34C194.131 165.452 194.523 165.568 194.819 165.688C195.123 165.8 195.379 165.984 195.587 166.24C195.803 166.496 195.911 166.84 195.911 167.272C195.911 167.808 195.707 168.244 195.299 168.58C194.899 168.916 194.363 169.084 193.691 169.084C192.907 169.084 192.267 168.896 191.771 168.52C191.275 168.144 190.983 167.62 190.895 166.948H191.951C191.991 167.348 192.163 167.672 192.467 167.92C192.779 168.168 193.187 168.292 193.691 168.292C194.067 168.292 194.359 168.196 194.567 168.004C194.783 167.812 194.891 167.56 194.891 167.248C194.891 166.992 194.815 166.788 194.663 166.636C194.511 166.484 194.323 166.368 194.099 166.288C193.875 166.208 193.567 166.124 193.175 166.036C192.687 165.924 192.295 165.812 191.999 165.7C191.711 165.588 191.463 165.412 191.255 165.172C191.055 164.924 190.955 164.592 190.955 164.176C190.955 163.624 191.159 163.18 191.567 162.844C191.975 162.5 192.531 162.328 193.235 162.328ZM29.576 180.328C30.216 180.328 30.756 180.488 31.196 180.808C31.644 181.128 31.956 181.556 32.132 182.092V180.412H33.224V187H32.132V185.32C31.956 185.856 31.644 186.284 31.196 186.604C30.756 186.924 30.216 187.084 29.576 187.084C28.992 187.084 28.472 186.948 28.016 186.676C27.56 186.404 27.2 186.016 26.936 185.512C26.68 185 26.552 184.4 26.552 183.712C26.552 183.024 26.68 182.424 26.936 181.912C27.2 181.4 27.56 181.008 28.016 180.736C28.472 180.464 28.992 180.328 29.576 180.328ZM29.888 181.3C29.216 181.3 28.676 181.516 28.268 181.948C27.868 182.372 27.668 182.96 27.668 183.712C27.668 184.464 27.868 185.056 28.268 185.488C28.676 185.912 29.216 186.124 29.888 186.124C30.32 186.124 30.704 186.024 31.04 185.824C31.384 185.624 31.652 185.344 31.844 184.984C32.036 184.616 32.132 184.192 32.132 183.712C32.132 183.232 32.036 182.808 31.844 182.44C31.652 182.072 31.384 181.792 31.04 181.6C30.704 181.4 30.32 181.3 29.888 181.3ZM37.9779 180.328C38.8179 180.328 39.5139 180.552 40.0659 181C40.6179 181.448 40.9579 182.048 41.0859 182.8H39.9339C39.8539 182.328 39.6339 181.96 39.2739 181.696C38.9219 181.424 38.4819 181.288 37.9539 181.288C37.5699 181.288 37.2179 181.376 36.8979 181.552C36.5859 181.728 36.3339 182 36.1419 182.368C35.9499 182.728 35.8539 183.176 35.8539 183.712C35.8539 184.248 35.9499 184.7 36.1419 185.068C36.3339 185.428 36.5859 185.696 36.8979 185.872C37.2179 186.048 37.5699 186.136 37.9539 186.136C38.4819 186.136 38.9219 186 39.2739 185.728C39.6339 185.456 39.8539 185.084 39.9339 184.612H41.0859C40.9579 185.372 40.6179 185.976 40.0659 186.424C39.5139 186.864 38.8179 187.084 37.9779 187.084C37.3459 187.084 36.7859 186.948 36.2979 186.676C35.8099 186.404 35.4259 186.016 35.1459 185.512C34.8739 185 34.7379 184.4 34.7379 183.712C34.7379 183.024 34.8739 182.424 35.1459 181.912C35.4259 181.4 35.8099 181.008 36.2979 180.736C36.7859 180.464 37.3459 180.328 37.9779 180.328ZM45.5311 180.328C46.3711 180.328 47.0671 180.552 47.6191 181C48.1711 181.448 48.5111 182.048 48.6391 182.8H47.4871C47.4071 182.328 47.1871 181.96 46.8271 181.696C46.4751 181.424 46.0351 181.288 45.5071 181.288C45.1231 181.288 44.7711 181.376 44.4511 181.552C44.1391 181.728 43.8871 182 43.6951 182.368C43.5031 182.728 43.4071 183.176 43.4071 183.712C43.4071 184.248 43.5031 184.7 43.6951 185.068C43.8871 185.428 44.1391 185.696 44.4511 185.872C44.7711 186.048 45.1231 186.136 45.5071 186.136C46.0351 186.136 46.4751 186 46.8271 185.728C47.1871 185.456 47.4071 185.084 47.4871 184.612H48.6391C48.5111 185.372 48.1711 185.976 47.6191 186.424C47.0671 186.864 46.3711 187.084 45.5311 187.084C44.8991 187.084 44.3391 186.948 43.8511 186.676C43.3631 186.404 42.9791 186.016 42.6991 185.512C42.4271 185 42.2911 184.4 42.2911 183.712C42.2911 183.024 42.4271 182.424 42.6991 181.912C42.9791 181.4 43.3631 181.008 43.8511 180.736C44.3391 180.464 44.8991 180.328 45.5311 180.328ZM53.1562 180.328C53.7882 180.328 54.3522 180.464 54.8482 180.736C55.3522 181.008 55.7442 181.4 56.0242 181.912C56.3122 182.424 56.4562 183.024 56.4562 183.712C56.4562 184.4 56.3122 185 56.0242 185.512C55.7442 186.016 55.3522 186.404 54.8482 186.676C54.3522 186.948 53.7882 187.084 53.1562 187.084C52.5242 187.084 51.9562 186.948 51.4522 186.676C50.9562 186.404 50.5642 186.016 50.2762 185.512C49.9882 185 49.8442 184.4 49.8442 183.712C49.8442 183.024 49.9882 182.424 50.2762 181.912C50.5642 181.4 50.9562 181.008 51.4522 180.736C51.9562 180.464 52.5242 180.328 53.1562 180.328ZM53.1562 181.288C52.7642 181.288 52.4002 181.376 52.0642 181.552C51.7362 181.728 51.4682 182 51.2602 182.368C51.0602 182.728 50.9602 183.176 50.9602 183.712C50.9602 184.24 51.0602 184.688 51.2602 185.056C51.4682 185.416 51.7362 185.684 52.0642 185.86C52.4002 186.036 52.7642 186.124 53.1562 186.124C53.5482 186.124 53.9082 186.036 54.2362 185.86C54.5722 185.684 54.8402 185.416 55.0402 185.056C55.2482 184.688 55.3522 184.24 55.3522 183.712C55.3522 183.176 55.2482 182.728 55.0402 182.368C54.8402 182 54.5722 181.728 54.2362 181.552C53.9082 181.376 53.5482 181.288 53.1562 181.288ZM63.8351 180.412V187H62.7431V185.452C62.5751 185.988 62.2751 186.4 61.8431 186.688C61.4191 186.968 60.9231 187.108 60.3551 187.108C59.5951 187.108 58.9791 186.864 58.5071 186.376C58.0351 185.88 57.7991 185.172 57.7991 184.252V180.412H58.8911V184.144C58.8911 184.8 59.0591 185.308 59.3951 185.668C59.7311 186.02 60.1871 186.196 60.7631 186.196C61.3631 186.196 61.8431 186.004 62.2031 185.62C62.5631 185.228 62.7431 184.66 62.7431 183.916V180.412H63.8351ZM69.1526 180.304C69.9206 180.304 70.5406 180.552 71.0126 181.048C71.4846 181.536 71.7206 182.244 71.7206 183.172V187H70.6286V183.268C70.6286 182.612 70.4606 182.108 70.1246 181.756C69.7886 181.404 69.3326 181.228 68.7566 181.228C68.1566 181.228 67.6766 181.424 67.3166 181.816C66.9566 182.2 66.7766 182.764 66.7766 183.508V187H65.6846V180.412H66.7766V181.972C66.9446 181.436 67.2406 181.024 67.6646 180.736C68.0966 180.448 68.5926 180.304 69.1526 180.304ZM76.6395 186.04V187H75.8235C75.1515 187 74.6475 186.84 74.3115 186.52C73.9835 186.2 73.8195 185.664 73.8195 184.912V181.36H72.8355V180.412H73.8195V178.768H74.9235V180.412H76.6275V181.36H74.9235V184.936C74.9235 185.36 74.9995 185.652 75.1515 185.812C75.3115 185.964 75.5835 186.04 75.9675 186.04H76.6395ZM83.8369 180.328C84.4769 180.328 85.0169 180.488 85.4569 180.808C85.9049 181.128 86.2169 181.556 86.3929 182.092V180.412H87.4849V187H86.3929V185.32C86.2169 185.856 85.9049 186.284 85.4569 186.604C85.0169 186.924 84.4769 187.084 83.8369 187.084C83.2529 187.084 82.7329 186.948 82.2769 186.676C81.8209 186.404 81.4609 186.016 81.1969 185.512C80.9409 185 80.8129 184.4 80.8129 183.712C80.8129 183.024 80.9409 182.424 81.1969 181.912C81.4609 181.4 81.8209 181.008 82.2769 180.736C82.7329 180.464 83.2529 180.328 83.8369 180.328ZM84.1489 181.3C83.4769 181.3 82.9369 181.516 82.5289 181.948C82.1289 182.372 81.9289 182.96 81.9289 183.712C81.9289 184.464 82.1289 185.056 82.5289 185.488C82.9369 185.912 83.4769 186.124 84.1489 186.124C84.5809 186.124 84.9649 186.024 85.3009 185.824C85.6449 185.624 85.9129 185.344 86.1049 184.984C86.2969 184.616 86.3929 184.192 86.3929 183.712C86.3929 183.232 86.2969 182.808 86.1049 182.44C85.9129 182.072 85.6449 181.792 85.3009 181.6C84.9649 181.4 84.5809 181.3 84.1489 181.3ZM92.7909 180.304C93.5589 180.304 94.1789 180.552 94.6509 181.048C95.1229 181.536 95.3589 182.244 95.3589 183.172V187H94.2669V183.268C94.2669 182.612 94.0989 182.108 93.7629 181.756C93.4269 181.404 92.9709 181.228 92.3949 181.228C91.7949 181.228 91.3149 181.424 90.9549 181.816C90.5949 182.2 90.4149 182.764 90.4149 183.508V187H89.3229V180.412H90.4149V181.972C90.5829 181.436 90.8789 181.024 91.3029 180.736C91.7349 180.448 92.2309 180.304 92.7909 180.304ZM99.8338 180.328C100.474 180.328 101.014 180.488 101.454 180.808C101.902 181.128 102.214 181.556 102.39 182.092V178.12H103.482V187H102.39V185.32C102.214 185.856 101.902 186.284 101.454 186.604C101.014 186.924 100.474 187.084 99.8338 187.084C99.2498 187.084 98.7298 186.948 98.2738 186.676C97.8178 186.404 97.4578 186.016 97.1938 185.512C96.9378 185 96.8098 184.4 96.8098 183.712C96.8098 183.024 96.9378 182.424 97.1938 181.912C97.4578 181.4 97.8178 181.008 98.2738 180.736C98.7298 180.464 99.2498 180.328 99.8338 180.328ZM100.146 181.3C99.4738 181.3 98.9338 181.516 98.5258 181.948C98.1258 182.372 97.9258 182.96 97.9258 183.712C97.9258 184.464 98.1258 185.056 98.5258 185.488C98.9338 185.912 99.4738 186.124 100.146 186.124C100.578 186.124 100.962 186.024 101.298 185.824C101.642 185.624 101.91 185.344 102.102 184.984C102.294 184.616 102.39 184.192 102.39 183.712C102.39 183.232 102.294 182.808 102.102 182.44C101.91 182.072 101.642 181.792 101.298 181.6C100.962 181.4 100.578 181.3 100.146 181.3ZM111.853 180.304C112.621 180.304 113.241 180.552 113.713 181.048C114.185 181.536 114.421 182.244 114.421 183.172V187H113.329V183.268C113.329 182.612 113.161 182.108 112.825 181.756C112.489 181.404 112.033 181.228 111.457 181.228C110.857 181.228 110.377 181.424 110.017 181.816C109.657 182.2 109.477 182.764 109.477 183.508V187H108.385V180.412H109.477V181.972C109.645 181.436 109.941 181.024 110.365 180.736C110.797 180.448 111.293 180.304 111.853 180.304ZM122.256 183.34C122.256 183.572 122.24 183.772 122.208 183.94H116.94C116.964 184.692 117.176 185.256 117.576 185.632C117.984 186.008 118.48 186.196 119.064 186.196C119.592 186.196 120.032 186.064 120.384 185.8C120.744 185.528 120.964 185.168 121.044 184.72H122.208C122.128 185.176 121.948 185.584 121.668 185.944C121.396 186.304 121.04 186.584 120.6 186.784C120.16 186.984 119.664 187.084 119.112 187.084C118.48 187.084 117.92 186.948 117.432 186.676C116.944 186.404 116.56 186.016 116.28 185.512C116.008 185 115.872 184.4 115.872 183.712C115.872 183.024 116.008 182.424 116.28 181.912C116.56 181.4 116.944 181.008 117.432 180.736C117.92 180.464 118.48 180.328 119.112 180.328C119.752 180.328 120.308 180.464 120.78 180.736C121.26 181.008 121.624 181.372 121.872 181.828C122.128 182.284 122.256 182.788 122.256 183.34ZM121.152 183.412C121.176 182.924 121.096 182.516 120.912 182.188C120.728 181.86 120.476 181.616 120.156 181.456C119.836 181.296 119.488 181.216 119.112 181.216C118.512 181.216 118.008 181.404 117.6 181.78C117.192 182.148 116.972 182.692 116.94 183.412H121.152ZM126.34 185.836L128.38 180.412H129.556L126.976 187H125.68L123.1 180.412H124.276L126.34 185.836ZM136.788 183.34C136.788 183.572 136.772 183.772 136.74 183.94H131.472C131.496 184.692 131.708 185.256 132.108 185.632C132.516 186.008 133.012 186.196 133.596 186.196C134.124 186.196 134.564 186.064 134.916 185.8C135.276 185.528 135.496 185.168 135.576 184.72H136.74C136.66 185.176 136.48 185.584 136.2 185.944C135.928 186.304 135.572 186.584 135.132 186.784C134.692 186.984 134.196 187.084 133.644 187.084C133.012 187.084 132.452 186.948 131.964 186.676C131.476 186.404 131.092 186.016 130.812 185.512C130.54 185 130.404 184.4 130.404 183.712C130.404 183.024 130.54 182.424 130.812 181.912C131.092 181.4 131.476 181.008 131.964 180.736C132.452 180.464 133.012 180.328 133.644 180.328C134.284 180.328 134.84 180.464 135.312 180.736C135.792 181.008 136.156 181.372 136.404 181.828C136.66 182.284 136.788 182.788 136.788 183.34ZM135.684 183.412C135.708 182.924 135.628 182.516 135.444 182.188C135.26 181.86 135.008 181.616 134.688 181.456C134.368 181.296 134.02 181.216 133.644 181.216C133.044 181.216 132.54 181.404 132.132 181.78C131.724 182.148 131.504 182.692 131.472 183.412H135.684ZM139.408 181.744C139.624 181.288 139.94 180.936 140.356 180.688C140.772 180.432 141.268 180.304 141.844 180.304V181.492H141.508C140.892 181.492 140.388 181.652 139.996 181.972C139.604 182.284 139.408 182.804 139.408 183.532V187H138.316V180.412H139.408V181.744ZM148.15 180.328C148.894 180.328 149.49 180.524 149.938 180.916C150.394 181.3 150.67 181.82 150.766 182.476H149.722C149.674 182.084 149.51 181.764 149.23 181.516C148.958 181.26 148.59 181.132 148.126 181.132C147.734 181.132 147.426 181.228 147.202 181.42C146.986 181.604 146.878 181.856 146.878 182.176C146.878 182.416 146.95 182.612 147.094 182.764C147.246 182.908 147.43 183.02 147.646 183.1C147.87 183.172 148.174 183.252 148.558 183.34C149.046 183.452 149.438 183.568 149.734 183.688C150.038 183.8 150.294 183.984 150.502 184.24C150.718 184.496 150.826 184.84 150.826 185.272C150.826 185.808 150.622 186.244 150.214 186.58C149.814 186.916 149.278 187.084 148.606 187.084C147.822 187.084 147.182 186.896 146.686 186.52C146.19 186.144 145.898 185.62 145.81 184.948H146.866C146.906 185.348 147.078 185.672 147.382 185.92C147.694 186.168 148.102 186.292 148.606 186.292C148.982 186.292 149.274 186.196 149.482 186.004C149.698 185.812 149.806 185.56 149.806 185.248C149.806 184.992 149.73 184.788 149.578 184.636C149.426 184.484 149.238 184.368 149.014 184.288C148.79 184.208 148.482 184.124 148.09 184.036C147.602 183.924 147.21 183.812 146.914 183.7C146.626 183.588 146.378 183.412 146.17 183.172C145.97 182.924 145.87 182.592 145.87 182.176C145.87 181.624 146.074 181.18 146.482 180.844C146.89 180.5 147.446 180.328 148.15 180.328ZM155.529 186.04V187H154.713C154.041 187 153.537 186.84 153.201 186.52C152.873 186.2 152.709 185.664 152.709 184.912V181.36H151.725V180.412H152.709V178.768H153.813V180.412H155.517V181.36H153.813V184.936C153.813 185.36 153.889 185.652 154.041 185.812C154.201 185.964 154.473 186.04 154.857 186.04H155.529ZM158.054 181.744C158.27 181.288 158.586 180.936 159.002 180.688C159.418 180.432 159.914 180.304 160.49 180.304V181.492H160.154C159.538 181.492 159.034 181.652 158.642 181.972C158.25 182.284 158.054 182.804 158.054 183.532V187H156.962V180.412H158.054V181.744ZM167.523 180.412V187H166.431V185.452C166.263 185.988 165.963 186.4 165.531 186.688C165.107 186.968 164.611 187.108 164.043 187.108C163.283 187.108 162.667 186.864 162.195 186.376C161.723 185.88 161.487 185.172 161.487 184.252V180.412H162.579V184.144C162.579 184.8 162.747 185.308 163.083 185.668C163.419 186.02 163.875 186.196 164.451 186.196C165.051 186.196 165.531 186.004 165.891 185.62C166.251 185.228 166.431 184.66 166.431 183.916V180.412H167.523ZM172.073 180.328C172.713 180.328 173.253 180.488 173.693 180.808C174.141 181.128 174.453 181.556 174.629 182.092V180.412H175.721V187.108C175.721 187.716 175.593 188.256 175.337 188.728C175.081 189.2 174.721 189.568 174.257 189.832C173.793 190.096 173.253 190.228 172.637 190.228C171.749 190.228 171.025 190.012 170.465 189.58C169.905 189.156 169.549 188.58 169.397 187.852H170.477C170.605 188.292 170.845 188.636 171.197 188.884C171.557 189.14 172.017 189.268 172.577 189.268C173.169 189.268 173.657 189.076 174.041 188.692C174.433 188.316 174.629 187.788 174.629 187.108V185.32C174.453 185.856 174.141 186.284 173.693 186.604C173.253 186.924 172.713 187.084 172.073 187.084C171.489 187.084 170.969 186.948 170.513 186.676C170.057 186.404 169.697 186.016 169.433 185.512C169.177 185 169.049 184.4 169.049 183.712C169.049 183.024 169.177 182.424 169.433 181.912C169.697 181.4 170.057 181.008 170.513 180.736C170.969 180.464 171.489 180.328 172.073 180.328ZM172.385 181.3C171.713 181.3 171.173 181.516 170.765 181.948C170.365 182.372 170.165 182.96 170.165 183.712C170.165 184.464 170.365 185.056 170.765 185.488C171.173 185.912 171.713 186.124 172.385 186.124C172.817 186.124 173.201 186.024 173.537 185.824C173.881 185.624 174.149 185.344 174.341 184.984C174.533 184.616 174.629 184.192 174.629 183.712C174.629 183.232 174.533 182.808 174.341 182.44C174.149 182.072 173.881 181.792 173.537 181.6C173.201 181.4 172.817 181.3 172.385 181.3ZM180.259 180.328C180.899 180.328 181.439 180.488 181.879 180.808C182.327 181.128 182.639 181.556 182.815 182.092V180.412H183.907V187.108C183.907 187.716 183.779 188.256 183.523 188.728C183.267 189.2 182.907 189.568 182.443 189.832C181.979 190.096 181.439 190.228 180.823 190.228C179.935 190.228 179.211 190.012 178.651 189.58C178.091 189.156 177.735 188.58 177.583 187.852H178.663C178.791 188.292 179.031 188.636 179.383 188.884C179.743 189.14 180.203 189.268 180.763 189.268C181.355 189.268 181.843 189.076 182.227 188.692C182.619 188.316 182.815 187.788 182.815 187.108V185.32C182.639 185.856 182.327 186.284 181.879 186.604C181.439 186.924 180.899 187.084 180.259 187.084C179.675 187.084 179.155 186.948 178.699 186.676C178.243 186.404 177.883 186.016 177.619 185.512C177.363 185 177.235 184.4 177.235 183.712C177.235 183.024 177.363 182.424 177.619 181.912C177.883 181.4 178.243 181.008 178.699 180.736C179.155 180.464 179.675 180.328 180.259 180.328ZM180.571 181.3C179.899 181.3 179.359 181.516 178.951 181.948C178.551 182.372 178.351 182.96 178.351 183.712C178.351 184.464 178.551 185.056 178.951 185.488C179.359 185.912 179.899 186.124 180.571 186.124C181.003 186.124 181.387 186.024 181.723 185.824C182.067 185.624 182.335 185.344 182.527 184.984C182.719 184.616 182.815 184.192 182.815 183.712C182.815 183.232 182.719 182.808 182.527 182.44C182.335 182.072 182.067 181.792 181.723 181.6C181.387 181.4 181.003 181.3 180.571 181.3ZM186.837 178.12V187H185.745V178.12H186.837ZM194.752 183.34C194.752 183.572 194.736 183.772 194.704 183.94H189.436C189.46 184.692 189.672 185.256 190.072 185.632C190.48 186.008 190.976 186.196 191.56 186.196C192.088 186.196 192.528 186.064 192.88 185.8C193.24 185.528 193.46 185.168 193.54 184.72H194.704C194.624 185.176 194.444 185.584 194.164 185.944C193.892 186.304 193.536 186.584 193.096 186.784C192.656 186.984 192.16 187.084 191.608 187.084C190.976 187.084 190.416 186.948 189.928 186.676C189.44 186.404 189.056 186.016 188.776 185.512C188.504 185 188.368 184.4 188.368 183.712C188.368 183.024 188.504 182.424 188.776 181.912C189.056 181.4 189.44 181.008 189.928 180.736C190.416 180.464 190.976 180.328 191.608 180.328C192.248 180.328 192.804 180.464 193.276 180.736C193.756 181.008 194.12 181.372 194.368 181.828C194.624 182.284 194.752 182.788 194.752 183.34ZM193.648 183.412C193.672 182.924 193.592 182.516 193.408 182.188C193.224 181.86 192.972 181.616 192.652 181.456C192.332 181.296 191.984 181.216 191.608 181.216C191.008 181.216 190.504 181.404 190.096 181.78C189.688 182.148 189.468 182.692 189.436 183.412H193.648ZM202.49 186.04V187H201.674C201.002 187 200.498 186.84 200.162 186.52C199.834 186.2 199.67 185.664 199.67 184.912V181.36H198.686V180.412H199.67V178.768H200.774V180.412H202.478V181.36H200.774V184.936C200.774 185.36 200.85 185.652 201.002 185.812C201.162 185.964 201.434 186.04 201.818 186.04H202.49ZM206.91 180.328C207.542 180.328 208.106 180.464 208.602 180.736C209.106 181.008 209.498 181.4 209.778 181.912C210.066 182.424 210.21 183.024 210.21 183.712C210.21 184.4 210.066 185 209.778 185.512C209.498 186.016 209.106 186.404 208.602 186.676C208.106 186.948 207.542 187.084 206.91 187.084C206.278 187.084 205.71 186.948 205.206 186.676C204.71 186.404 204.318 186.016 204.03 185.512C203.742 185 203.598 184.4 203.598 183.712C203.598 183.024 203.742 182.424 204.03 181.912C204.318 181.4 204.71 181.008 205.206 180.736C205.71 180.464 206.278 180.328 206.91 180.328ZM206.91 181.288C206.518 181.288 206.154 181.376 205.818 181.552C205.49 181.728 205.222 182 205.014 182.368C204.814 182.728 204.714 183.176 204.714 183.712C204.714 184.24 204.814 184.688 205.014 185.056C205.222 185.416 205.49 185.684 205.818 185.86C206.154 186.036 206.518 186.124 206.91 186.124C207.302 186.124 207.662 186.036 207.99 185.86C208.326 185.684 208.594 185.416 208.794 185.056C209.002 184.688 209.106 184.24 209.106 183.712C209.106 183.176 209.002 182.728 208.794 182.368C208.594 182 208.326 181.728 207.99 181.552C207.662 181.376 207.302 181.288 206.91 181.288ZM27.968 199.744C28.184 199.288 28.5 198.936 28.916 198.688C29.332 198.432 29.828 198.304 30.404 198.304V199.492H30.068C29.452 199.492 28.948 199.652 28.556 199.972C28.164 200.284 27.968 200.804 27.968 201.532V205H26.876V198.412H27.968V199.744ZM37.6415 201.34C37.6415 201.572 37.6255 201.772 37.5935 201.94H32.3255C32.3495 202.692 32.5615 203.256 32.9615 203.632C33.3695 204.008 33.8655 204.196 34.4495 204.196C34.9775 204.196 35.4175 204.064 35.7695 203.8C36.1295 203.528 36.3495 203.168 36.4295 202.72H37.5935C37.5135 203.176 37.3335 203.584 37.0535 203.944C36.7815 204.304 36.4255 204.584 35.9855 204.784C35.5455 204.984 35.0495 205.084 34.4975 205.084C33.8655 205.084 33.3055 204.948 32.8175 204.676C32.3295 204.404 31.9455 204.016 31.6655 203.512C31.3935 203 31.2575 202.4 31.2575 201.712C31.2575 201.024 31.3935 200.424 31.6655 199.912C31.9455 199.4 32.3295 199.008 32.8175 198.736C33.3055 198.464 33.8655 198.328 34.4975 198.328C35.1375 198.328 35.6935 198.464 36.1655 198.736C36.6455 199.008 37.0095 199.372 37.2575 199.828C37.5135 200.284 37.6415 200.788 37.6415 201.34ZM36.5375 201.412C36.5615 200.924 36.4815 200.516 36.2975 200.188C36.1135 199.86 35.8615 199.616 35.5415 199.456C35.2215 199.296 34.8735 199.216 34.4975 199.216C33.8975 199.216 33.3935 199.404 32.9855 199.78C32.5775 200.148 32.3575 200.692 32.3255 201.412H36.5375ZM42.8058 198.328C43.3898 198.328 43.9098 198.464 44.3658 198.736C44.8218 199.008 45.1778 199.4 45.4338 199.912C45.6978 200.424 45.8298 201.024 45.8298 201.712C45.8298 202.4 45.6978 203 45.4338 203.512C45.1778 204.016 44.8218 204.404 44.3658 204.676C43.9098 204.948 43.3898 205.084 42.8058 205.084C42.1657 205.084 41.6217 204.924 41.1737 204.604C40.7337 204.276 40.4297 203.848 40.2617 203.32V208.12H39.1697V198.412H40.2617V200.092C40.4297 199.564 40.7337 199.14 41.1737 198.82C41.6217 198.492 42.1657 198.328 42.8058 198.328ZM42.4938 199.3C42.0698 199.3 41.6858 199.4 41.3417 199.6C40.9977 199.792 40.7297 200.072 40.5377 200.44C40.3457 200.808 40.2497 201.232 40.2497 201.712C40.2497 202.192 40.3457 202.616 40.5377 202.984C40.7297 203.344 40.9977 203.624 41.3417 203.824C41.6858 204.024 42.0698 204.124 42.4938 204.124C43.1738 204.124 43.7138 203.912 44.1137 203.488C44.5217 203.056 44.7257 202.464 44.7257 201.712C44.7257 200.96 44.5217 200.372 44.1137 199.948C43.7138 199.516 43.1738 199.3 42.4938 199.3ZM50.3437 198.328C50.9757 198.328 51.5397 198.464 52.0357 198.736C52.5397 199.008 52.9317 199.4 53.2117 199.912C53.4997 200.424 53.6437 201.024 53.6437 201.712C53.6437 202.4 53.4997 203 53.2117 203.512C52.9317 204.016 52.5397 204.404 52.0357 204.676C51.5397 204.948 50.9757 205.084 50.3437 205.084C49.7117 205.084 49.1437 204.948 48.6397 204.676C48.1437 204.404 47.7517 204.016 47.4637 203.512C47.1757 203 47.0317 202.4 47.0317 201.712C47.0317 201.024 47.1757 200.424 47.4637 199.912C47.7517 199.4 48.1437 199.008 48.6397 198.736C49.1437 198.464 49.7117 198.328 50.3437 198.328ZM50.3437 199.288C49.9517 199.288 49.5877 199.376 49.2517 199.552C48.9237 199.728 48.6557 200 48.4477 200.368C48.2477 200.728 48.1477 201.176 48.1477 201.712C48.1477 202.24 48.2477 202.688 48.4477 203.056C48.6557 203.416 48.9237 203.684 49.2517 203.86C49.5877 204.036 49.9517 204.124 50.3437 204.124C50.7357 204.124 51.0957 204.036 51.4237 203.86C51.7597 203.684 52.0277 203.416 52.2277 203.056C52.4357 202.688 52.5397 202.24 52.5397 201.712C52.5397 201.176 52.4357 200.728 52.2277 200.368C52.0277 200 51.7597 199.728 51.4237 199.552C51.0957 199.376 50.7357 199.288 50.3437 199.288ZM56.2586 199.744C56.4746 199.288 56.7906 198.936 57.2066 198.688C57.6226 198.432 58.1186 198.304 58.6946 198.304V199.492H58.3586C57.7426 199.492 57.2386 199.652 56.8466 199.972C56.4546 200.284 56.2586 200.804 56.2586 201.532V205H55.1666V198.412H56.2586V199.744ZM63.0161 204.04V205H62.2001C61.5281 205 61.0241 204.84 60.6881 204.52C60.3601 204.2 60.1961 203.664 60.1961 202.912V199.36H59.2121V198.412H60.1961V196.768H61.3001V198.412H63.0041V199.36H61.3001V202.936C61.3001 203.36 61.3761 203.652 61.5281 203.812C61.6881 203.964 61.9601 204.04 62.3441 204.04H63.0161ZM70.5015 198.328C71.1335 198.328 71.6975 198.464 72.1935 198.736C72.6975 199.008 73.0895 199.4 73.3695 199.912C73.6575 200.424 73.8015 201.024 73.8015 201.712C73.8015 202.4 73.6575 203 73.3695 203.512C73.0895 204.016 72.6975 204.404 72.1935 204.676C71.6975 204.948 71.1335 205.084 70.5015 205.084C69.8695 205.084 69.3015 204.948 68.7975 204.676C68.3015 204.404 67.9095 204.016 67.6215 203.512C67.3335 203 67.1895 202.4 67.1895 201.712C67.1895 201.024 67.3335 200.424 67.6215 199.912C67.9095 199.4 68.3015 199.008 68.7975 198.736C69.3015 198.464 69.8695 198.328 70.5015 198.328ZM70.5015 199.288C70.1095 199.288 69.7455 199.376 69.4095 199.552C69.0815 199.728 68.8135 200 68.6055 200.368C68.4055 200.728 68.3055 201.176 68.3055 201.712C68.3055 202.24 68.4055 202.688 68.6055 203.056C68.8135 203.416 69.0815 203.684 69.4095 203.86C69.7455 204.036 70.1095 204.124 70.5015 204.124C70.8935 204.124 71.2535 204.036 71.5815 203.86C71.9175 203.684 72.1855 203.416 72.3855 203.056C72.5935 202.688 72.6975 202.24 72.6975 201.712C72.6975 201.176 72.5935 200.728 72.3855 200.368C72.1855 200 71.9175 199.728 71.5815 199.552C71.2535 199.376 70.8935 199.288 70.5015 199.288ZM78.7924 198.304C79.5604 198.304 80.1804 198.552 80.6524 199.048C81.1244 199.536 81.3604 200.244 81.3604 201.172V205H80.2684V201.268C80.2684 200.612 80.1004 200.108 79.7644 199.756C79.4284 199.404 78.9724 199.228 78.3964 199.228C77.7964 199.228 77.3164 199.424 76.9564 199.816C76.5964 200.2 76.4164 200.764 76.4164 201.508V205H75.3244V198.412H76.4164V199.972C76.5844 199.436 76.8804 199.024 77.3044 198.736C77.7364 198.448 78.2324 198.304 78.7924 198.304ZM89.3442 204.04V205H88.5282C87.8562 205 87.3522 204.84 87.0162 204.52C86.6882 204.2 86.5242 203.664 86.5242 202.912V199.36H85.5402V198.412H86.5242V196.768H87.6282V198.412H89.3322V199.36H87.6282V202.936C87.6282 203.36 87.7042 203.652 87.8562 203.812C88.0162 203.964 88.2882 204.04 88.6722 204.04H89.3442ZM94.2448 198.304C95.0128 198.304 95.6328 198.552 96.1048 199.048C96.5768 199.536 96.8128 200.244 96.8128 201.172V205H95.7208V201.268C95.7208 200.612 95.5528 200.108 95.2168 199.756C94.8808 199.404 94.4248 199.228 93.8488 199.228C93.2488 199.228 92.7688 199.424 92.4088 199.816C92.0488 200.2 91.8688 200.764 91.8688 201.508V205H90.7768V196.12H91.8688V199.972C92.0368 199.436 92.3328 199.024 92.7568 198.736C93.1888 198.448 93.6848 198.304 94.2448 198.304ZM104.648 201.34C104.648 201.572 104.632 201.772 104.6 201.94H99.3317C99.3557 202.692 99.5677 203.256 99.9677 203.632C100.376 204.008 100.872 204.196 101.456 204.196C101.984 204.196 102.424 204.064 102.776 203.8C103.136 203.528 103.356 203.168 103.436 202.72H104.6C104.52 203.176 104.34 203.584 104.06 203.944C103.788 204.304 103.432 204.584 102.992 204.784C102.552 204.984 102.056 205.084 101.504 205.084C100.872 205.084 100.312 204.948 99.8237 204.676C99.3357 204.404 98.9517 204.016 98.6717 203.512C98.3997 203 98.2637 202.4 98.2637 201.712C98.2637 201.024 98.3997 200.424 98.6717 199.912C98.9517 199.4 99.3357 199.008 99.8237 198.736C100.312 198.464 100.872 198.328 101.504 198.328C102.144 198.328 102.7 198.464 103.172 198.736C103.652 199.008 104.016 199.372 104.264 199.828C104.52 200.284 104.648 200.788 104.648 201.34ZM103.544 201.412C103.568 200.924 103.488 200.516 103.304 200.188C103.12 199.86 102.868 199.616 102.548 199.456C102.228 199.296 101.88 199.216 101.504 199.216C100.904 199.216 100.4 199.404 99.9917 199.78C99.5837 200.148 99.3637 200.692 99.3317 201.412H103.544ZM111.305 198.328C112.049 198.328 112.645 198.524 113.093 198.916C113.549 199.3 113.825 199.82 113.921 200.476H112.877C112.829 200.084 112.665 199.764 112.385 199.516C112.113 199.26 111.745 199.132 111.281 199.132C110.889 199.132 110.581 199.228 110.357 199.42C110.141 199.604 110.033 199.856 110.033 200.176C110.033 200.416 110.105 200.612 110.249 200.764C110.401 200.908 110.585 201.02 110.801 201.1C111.025 201.172 111.329 201.252 111.713 201.34C112.201 201.452 112.593 201.568 112.889 201.688C113.193 201.8 113.449 201.984 113.657 202.24C113.873 202.496 113.981 202.84 113.981 203.272C113.981 203.808 113.777 204.244 113.369 204.58C112.969 204.916 112.433 205.084 111.761 205.084C110.977 205.084 110.337 204.896 109.841 204.52C109.345 204.144 109.053 203.62 108.965 202.948H110.021C110.061 203.348 110.233 203.672 110.537 203.92C110.849 204.168 111.257 204.292 111.761 204.292C112.137 204.292 112.429 204.196 112.637 204.004C112.853 203.812 112.961 203.56 112.961 203.248C112.961 202.992 112.885 202.788 112.733 202.636C112.581 202.484 112.393 202.368 112.169 202.288C111.945 202.208 111.637 202.124 111.245 202.036C110.757 201.924 110.365 201.812 110.069 201.7C109.781 201.588 109.533 201.412 109.325 201.172C109.125 200.924 109.025 200.592 109.025 200.176C109.025 199.624 109.229 199.18 109.637 198.844C110.045 198.5 110.601 198.328 111.305 198.328ZM121.396 198.412V205H120.304V203.452C120.136 203.988 119.836 204.4 119.404 204.688C118.98 204.968 118.484 205.108 117.916 205.108C117.156 205.108 116.54 204.864 116.068 204.376C115.596 203.88 115.36 203.172 115.36 202.252V198.412H116.452V202.144C116.452 202.8 116.62 203.308 116.956 203.668C117.292 204.02 117.748 204.196 118.324 204.196C118.924 204.196 119.404 204.004 119.764 203.62C120.124 203.228 120.304 202.66 120.304 201.916V198.412H121.396ZM126.162 198.328C127.002 198.328 127.698 198.552 128.25 199C128.802 199.448 129.142 200.048 129.27 200.8H128.118C128.038 200.328 127.818 199.96 127.458 199.696C127.106 199.424 126.666 199.288 126.138 199.288C125.754 199.288 125.402 199.376 125.082 199.552C124.77 199.728 124.518 200 124.326 200.368C124.134 200.728 124.038 201.176 124.038 201.712C124.038 202.248 124.134 202.7 124.326 203.068C124.518 203.428 124.77 203.696 125.082 203.872C125.402 204.048 125.754 204.136 126.138 204.136C126.666 204.136 127.106 204 127.458 203.728C127.818 203.456 128.038 203.084 128.118 202.612H129.27C129.142 203.372 128.802 203.976 128.25 204.424C127.698 204.864 127.002 205.084 126.162 205.084C125.53 205.084 124.97 204.948 124.482 204.676C123.994 204.404 123.61 204.016 123.33 203.512C123.058 203 122.922 202.4 122.922 201.712C122.922 201.024 123.058 200.424 123.33 199.912C123.61 199.4 123.994 199.008 124.482 198.736C124.97 198.464 125.53 198.328 126.162 198.328ZM133.715 198.328C134.555 198.328 135.251 198.552 135.803 199C136.355 199.448 136.695 200.048 136.823 200.8H135.671C135.591 200.328 135.371 199.96 135.011 199.696C134.659 199.424 134.219 199.288 133.691 199.288C133.307 199.288 132.955 199.376 132.635 199.552C132.323 199.728 132.071 200 131.879 200.368C131.687 200.728 131.591 201.176 131.591 201.712C131.591 202.248 131.687 202.7 131.879 203.068C132.071 203.428 132.323 203.696 132.635 203.872C132.955 204.048 133.307 204.136 133.691 204.136C134.219 204.136 134.659 204 135.011 203.728C135.371 203.456 135.591 203.084 135.671 202.612H136.823C136.695 203.372 136.355 203.976 135.803 204.424C135.251 204.864 134.555 205.084 133.715 205.084C133.083 205.084 132.523 204.948 132.035 204.676C131.547 204.404 131.163 204.016 130.883 203.512C130.611 203 130.475 202.4 130.475 201.712C130.475 201.024 130.611 200.424 130.883 199.912C131.163 199.4 131.547 199.008 132.035 198.736C132.523 198.464 133.083 198.328 133.715 198.328ZM144.412 201.34C144.412 201.572 144.396 201.772 144.364 201.94H139.096C139.12 202.692 139.332 203.256 139.732 203.632C140.14 204.008 140.636 204.196 141.22 204.196C141.748 204.196 142.188 204.064 142.54 203.8C142.9 203.528 143.12 203.168 143.2 202.72H144.364C144.284 203.176 144.104 203.584 143.824 203.944C143.552 204.304 143.196 204.584 142.756 204.784C142.316 204.984 141.82 205.084 141.268 205.084C140.636 205.084 140.076 204.948 139.588 204.676C139.1 204.404 138.716 204.016 138.436 203.512C138.164 203 138.028 202.4 138.028 201.712C138.028 201.024 138.164 200.424 138.436 199.912C138.716 199.4 139.1 199.008 139.588 198.736C140.076 198.464 140.636 198.328 141.268 198.328C141.908 198.328 142.464 198.464 142.936 198.736C143.416 199.008 143.78 199.372 144.028 199.828C144.284 200.284 144.412 200.788 144.412 201.34ZM143.308 201.412C143.332 200.924 143.252 200.516 143.068 200.188C142.884 199.86 142.632 199.616 142.312 199.456C141.992 199.296 141.644 199.216 141.268 199.216C140.668 199.216 140.164 199.404 139.756 199.78C139.348 200.148 139.128 200.692 139.096 201.412H143.308ZM148.004 198.328C148.748 198.328 149.344 198.524 149.792 198.916C150.248 199.3 150.524 199.82 150.62 200.476H149.576C149.528 200.084 149.364 199.764 149.084 199.516C148.812 199.26 148.444 199.132 147.98 199.132C147.588 199.132 147.28 199.228 147.056 199.42C146.84 199.604 146.732 199.856 146.732 200.176C146.732 200.416 146.804 200.612 146.948 200.764C147.1 200.908 147.284 201.02 147.5 201.1C147.724 201.172 148.028 201.252 148.412 201.34C148.9 201.452 149.292 201.568 149.588 201.688C149.892 201.8 150.148 201.984 150.356 202.24C150.572 202.496 150.68 202.84 150.68 203.272C150.68 203.808 150.476 204.244 150.068 204.58C149.668 204.916 149.132 205.084 148.46 205.084C147.676 205.084 147.036 204.896 146.54 204.52C146.044 204.144 145.752 203.62 145.664 202.948H146.72C146.76 203.348 146.932 203.672 147.236 203.92C147.548 204.168 147.956 204.292 148.46 204.292C148.836 204.292 149.128 204.196 149.336 204.004C149.552 203.812 149.66 203.56 149.66 203.248C149.66 202.992 149.584 202.788 149.432 202.636C149.28 202.484 149.092 202.368 148.868 202.288C148.644 202.208 148.336 202.124 147.944 202.036C147.456 201.924 147.064 201.812 146.768 201.7C146.48 201.588 146.232 201.412 146.024 201.172C145.824 200.924 145.724 200.592 145.724 200.176C145.724 199.624 145.928 199.18 146.336 198.844C146.744 198.5 147.3 198.328 148.004 198.328ZM154.303 198.328C155.047 198.328 155.643 198.524 156.091 198.916C156.547 199.3 156.823 199.82 156.919 200.476H155.875C155.827 200.084 155.663 199.764 155.383 199.516C155.111 199.26 154.743 199.132 154.279 199.132C153.887 199.132 153.579 199.228 153.355 199.42C153.139 199.604 153.031 199.856 153.031 200.176C153.031 200.416 153.103 200.612 153.247 200.764C153.399 200.908 153.583 201.02 153.799 201.1C154.023 201.172 154.327 201.252 154.711 201.34C155.199 201.452 155.591 201.568 155.887 201.688C156.191 201.8 156.447 201.984 156.655 202.24C156.871 202.496 156.979 202.84 156.979 203.272C156.979 203.808 156.775 204.244 156.367 204.58C155.967 204.916 155.431 205.084 154.759 205.084C153.975 205.084 153.335 204.896 152.839 204.52C152.343 204.144 152.051 203.62 151.963 202.948H153.019C153.059 203.348 153.231 203.672 153.535 203.92C153.847 204.168 154.255 204.292 154.759 204.292C155.135 204.292 155.427 204.196 155.635 204.004C155.851 203.812 155.959 203.56 155.959 203.248C155.959 202.992 155.883 202.788 155.731 202.636C155.579 202.484 155.391 202.368 155.167 202.288C154.943 202.208 154.635 202.124 154.243 202.036C153.755 201.924 153.363 201.812 153.067 201.7C152.779 201.588 152.531 201.412 152.323 201.172C152.123 200.924 152.023 200.592 152.023 200.176C152.023 199.624 152.227 199.18 152.635 198.844C153.043 198.5 153.599 198.328 154.303 198.328ZM159.343 203.716V205H158.023V203.716H159.343Z" fill="#192A3E"/>
<path d="M33.29 133.41V134.79H28.745V138.075H32.495V139.395H28.745V144H27.035V133.41H33.29ZM38.2283 135.63C38.9783 135.63 39.6183 135.815 40.1483 136.185C40.6783 136.555 41.0533 137.045 41.2733 137.655V135.735H42.9833V144H41.2733V142.08C41.0533 142.69 40.6783 143.18 40.1483 143.55C39.6183 143.92 38.9783 144.105 38.2283 144.105C37.5083 144.105 36.8633 143.935 36.2933 143.595C35.7333 143.255 35.2933 142.765 34.9733 142.125C34.6533 141.485 34.4933 140.73 34.4933 139.86C34.4933 139 34.6533 138.25 34.9733 137.61C35.2933 136.97 35.7333 136.48 36.2933 136.14C36.8633 135.8 37.5083 135.63 38.2283 135.63ZM38.7533 137.13C37.9933 137.13 37.3833 137.375 36.9233 137.865C36.4733 138.345 36.2483 139.01 36.2483 139.86C36.2483 140.71 36.4733 141.38 36.9233 141.87C37.3833 142.35 37.9933 142.59 38.7533 142.59C39.2333 142.59 39.6633 142.48 40.0433 142.26C40.4233 142.03 40.7233 141.71 40.9433 141.3C41.1633 140.89 41.2733 140.41 41.2733 139.86C41.2733 139.32 41.1633 138.845 40.9433 138.435C40.7233 138.015 40.4233 137.695 40.0433 137.475C39.6633 137.245 39.2333 137.13 38.7533 137.13ZM48.8104 135.63C49.8804 135.63 50.7654 135.915 51.4654 136.485C52.1654 137.045 52.6004 137.81 52.7704 138.78H50.9554C50.8554 138.26 50.6104 137.855 50.2204 137.565C49.8404 137.265 49.3604 137.115 48.7804 137.115C48.1204 137.115 47.5704 137.35 47.1304 137.82C46.6904 138.28 46.4704 138.96 46.4704 139.86C46.4704 140.76 46.6904 141.445 47.1304 141.915C47.5704 142.385 48.1204 142.62 48.7804 142.62C49.3604 142.62 49.8404 142.47 50.2204 142.17C50.6104 141.87 50.8554 141.46 50.9554 140.94H52.7704C52.6004 141.91 52.1654 142.68 51.4654 143.25C50.7654 143.82 49.8804 144.105 48.8104 144.105C48.0104 144.105 47.3004 143.935 46.6804 143.595C46.0704 143.255 45.5904 142.765 45.2404 142.125C44.8904 141.485 44.7154 140.73 44.7154 139.86C44.7154 139 44.8904 138.25 45.2404 137.61C45.5904 136.97 46.0704 136.48 46.6804 136.14C47.3004 135.8 48.0104 135.63 48.8104 135.63ZM62.2025 139.47C62.2025 139.75 62.1825 139.995 62.1425 140.205H55.7825C55.8125 141.055 56.0475 141.685 56.4875 142.095C56.9275 142.505 57.4725 142.71 58.1225 142.71C58.6925 142.71 59.1725 142.565 59.5625 142.275C59.9625 141.985 60.2075 141.6 60.2975 141.12H62.1275C62.0175 141.7 61.7875 142.215 61.4375 142.665C61.0875 143.115 60.6325 143.47 60.0725 143.73C59.5125 143.98 58.8875 144.105 58.1975 144.105C57.3975 144.105 56.6875 143.935 56.0675 143.595C55.4575 143.255 54.9775 142.765 54.6275 142.125C54.2775 141.485 54.1025 140.73 54.1025 139.86C54.1025 139 54.2775 138.25 54.6275 137.61C54.9775 136.97 55.4575 136.48 56.0675 136.14C56.6875 135.8 57.3975 135.63 58.1975 135.63C59.0075 135.63 59.7125 135.8 60.3125 136.14C60.9225 136.47 61.3875 136.93 61.7075 137.52C62.0375 138.1 62.2025 138.75 62.2025 139.47ZM60.4775 139.425C60.4975 138.885 60.4025 138.435 60.1925 138.075C59.9925 137.705 59.7125 137.435 59.3525 137.265C59.0025 137.085 58.6175 136.995 58.1975 136.995C57.5275 136.995 56.9675 137.2 56.5175 137.61C56.0675 138.02 55.8225 138.625 55.7825 139.425H60.4775ZM68.6936 135.63C69.4136 135.63 70.0536 135.8 70.6136 136.14C71.1836 136.48 71.6286 136.97 71.9486 137.61C72.2686 138.25 72.4286 139 72.4286 139.86C72.4286 140.73 72.2686 141.485 71.9486 142.125C71.6286 142.765 71.1836 143.255 70.6136 143.595C70.0536 143.935 69.4136 144.105 68.6936 144.105C67.9436 144.105 67.3036 143.92 66.7736 143.55C66.2436 143.18 65.8736 142.69 65.6636 142.08V144H63.9536V132.9H65.6636V137.655C65.8736 137.045 66.2436 136.555 66.7736 136.185C67.3036 135.815 67.9436 135.63 68.6936 135.63ZM68.1686 137.13C67.6886 137.13 67.2586 137.245 66.8786 137.475C66.4986 137.695 66.1986 138.015 65.9786 138.435C65.7586 138.845 65.6486 139.32 65.6486 139.86C65.6486 140.41 65.7586 140.89 65.9786 141.3C66.1986 141.71 66.4986 142.03 66.8786 142.26C67.2586 142.48 67.6886 142.59 68.1686 142.59C68.9286 142.59 69.5386 142.35 69.9986 141.87C70.4586 141.38 70.6886 140.71 70.6886 139.86C70.6886 139.02 70.4586 138.355 69.9986 137.865C69.5386 137.375 68.9286 137.13 68.1686 137.13ZM77.9556 135.63C78.7556 135.63 79.4756 135.8 80.1156 136.14C80.7556 136.48 81.2556 136.97 81.6156 137.61C81.9756 138.25 82.1556 139 82.1556 139.86C82.1556 140.73 81.9756 141.485 81.6156 142.125C81.2556 142.765 80.7556 143.255 80.1156 143.595C79.4756 143.935 78.7556 144.105 77.9556 144.105C77.1556 144.105 76.4356 143.935 75.7956 143.595C75.1656 143.255 74.6656 142.765 74.2956 142.125C73.9356 141.475 73.7556 140.72 73.7556 139.86C73.7556 139 73.9356 138.25 74.2956 137.61C74.6656 136.97 75.1656 136.48 75.7956 136.14C76.4356 135.8 77.1556 135.63 77.9556 135.63ZM77.9556 137.115C77.5156 137.115 77.1106 137.215 76.7406 137.415C76.3706 137.615 76.0706 137.925 75.8406 138.345C75.6206 138.755 75.5106 139.26 75.5106 139.86C75.5106 140.47 75.6206 140.98 75.8406 141.39C76.0706 141.8 76.3706 142.105 76.7406 142.305C77.1106 142.505 77.5156 142.605 77.9556 142.605C78.3956 142.605 78.8006 142.505 79.1706 142.305C79.5406 142.105 79.8356 141.8 80.0556 141.39C80.2856 140.98 80.4006 140.47 80.4006 139.86C80.4006 139.26 80.2856 138.755 80.0556 138.345C79.8356 137.925 79.5406 137.615 79.1706 137.415C78.8006 137.215 78.3956 137.115 77.9556 137.115ZM87.6796 135.63C88.4796 135.63 89.1996 135.8 89.8396 136.14C90.4796 136.48 90.9796 136.97 91.3396 137.61C91.6996 138.25 91.8796 139 91.8796 139.86C91.8796 140.73 91.6996 141.485 91.3396 142.125C90.9796 142.765 90.4796 143.255 89.8396 143.595C89.1996 143.935 88.4796 144.105 87.6796 144.105C86.8796 144.105 86.1596 143.935 85.5196 143.595C84.8896 143.255 84.3896 142.765 84.0196 142.125C83.6596 141.475 83.4796 140.72 83.4796 139.86C83.4796 139 83.6596 138.25 84.0196 137.61C84.3896 136.97 84.8896 136.48 85.5196 136.14C86.1596 135.8 86.8796 135.63 87.6796 135.63ZM87.6796 137.115C87.2396 137.115 86.8346 137.215 86.4646 137.415C86.0946 137.615 85.7946 137.925 85.5646 138.345C85.3446 138.755 85.2346 139.26 85.2346 139.86C85.2346 140.47 85.3446 140.98 85.5646 141.39C85.7946 141.8 86.0946 142.105 86.4646 142.305C86.8346 142.505 87.2396 142.605 87.6796 142.605C88.1196 142.605 88.5246 142.505 88.8946 142.305C89.2646 142.105 89.5596 141.8 89.7796 141.39C90.0096 140.98 90.1246 140.47 90.1246 139.86C90.1246 139.26 90.0096 138.755 89.7796 138.345C89.5596 137.925 89.2646 137.615 88.8946 137.415C88.5246 137.215 88.1196 137.115 87.6796 137.115ZM98.3037 144L95.3337 140.325V144H93.6237V132.9H95.3337V139.26L98.2737 135.735H100.329L96.7287 139.845L100.419 144H98.3037ZM111.564 141.705H107.094L106.284 144H104.454L108.354 133.575H110.319L114.204 144H112.374L111.564 141.705ZM111.084 140.385L109.329 135.435L107.574 140.385H111.084ZM118.889 135.63C119.639 135.63 120.279 135.815 120.809 136.185C121.339 136.555 121.709 137.045 121.919 137.655V132.9H123.644V144H121.919V142.08C121.709 142.69 121.339 143.18 120.809 143.55C120.279 143.92 119.639 144.105 118.889 144.105C118.169 144.105 117.524 143.935 116.954 143.595C116.394 143.255 115.954 142.765 115.634 142.125C115.314 141.485 115.154 140.73 115.154 139.86C115.154 139 115.314 138.25 115.634 137.61C115.954 136.97 116.394 136.48 116.954 136.14C117.524 135.8 118.169 135.63 118.889 135.63ZM119.414 137.13C118.654 137.13 118.044 137.375 117.584 137.865C117.134 138.345 116.909 139.01 116.909 139.86C116.909 140.71 117.134 141.38 117.584 141.87C118.044 142.35 118.654 142.59 119.414 142.59C119.894 142.59 120.324 142.48 120.704 142.26C121.084 142.03 121.384 141.71 121.604 141.3C121.824 140.89 121.934 140.41 121.934 139.86C121.934 139.32 121.824 138.845 121.604 138.435C121.384 138.015 121.084 137.695 120.704 137.475C120.324 137.245 119.894 137.13 119.414 137.13ZM128.511 135.63C129.481 135.63 130.256 135.88 130.836 136.38C131.426 136.87 131.786 137.53 131.916 138.36H130.296C130.226 137.91 130.031 137.55 129.711 137.28C129.401 137 128.986 136.86 128.466 136.86C128.036 136.86 127.701 136.965 127.461 137.175C127.231 137.375 127.116 137.65 127.116 138C127.116 138.26 127.201 138.47 127.371 138.63C127.541 138.79 127.751 138.915 128.001 139.005C128.261 139.095 128.626 139.195 129.096 139.305C129.716 139.445 130.216 139.59 130.596 139.74C130.986 139.89 131.316 140.13 131.586 140.46C131.866 140.78 132.006 141.22 132.006 141.78C132.006 142.47 131.741 143.03 131.211 143.46C130.691 143.89 129.986 144.105 129.096 144.105C128.066 144.105 127.231 143.865 126.591 143.385C125.961 142.905 125.581 142.235 125.451 141.375H127.116C127.166 141.825 127.366 142.19 127.716 142.47C128.066 142.75 128.526 142.89 129.096 142.89C129.506 142.89 129.826 142.785 130.056 142.575C130.296 142.355 130.416 142.08 130.416 141.75C130.416 141.46 130.326 141.23 130.146 141.06C129.966 140.89 129.741 140.76 129.471 140.67C129.201 140.57 128.831 140.47 128.361 140.37C127.761 140.23 127.271 140.09 126.891 139.95C126.521 139.81 126.201 139.585 125.931 139.275C125.671 138.955 125.541 138.525 125.541 137.985C125.541 137.285 125.801 136.72 126.321 136.29C126.851 135.85 127.581 135.63 128.511 135.63Z" fill="#192A3E"/>
<path d="M29.979 240.731C31.123 240.731 32.072 241.026 32.826 241.615C33.58 242.204 34.0783 243.006 34.321 244.02H32.397C32.1977 243.526 31.8857 243.136 31.461 242.85C31.045 242.564 30.5423 242.421 29.953 242.421C29.4677 242.421 29.03 242.542 28.64 242.785C28.25 243.028 27.9467 243.374 27.73 243.825C27.5133 244.276 27.405 244.804 27.405 245.411C27.405 246.009 27.5133 246.533 27.73 246.984C27.9467 247.435 28.25 247.781 28.64 248.024C29.03 248.267 29.4677 248.388 29.953 248.388C30.5423 248.388 31.045 248.245 31.461 247.959C31.8857 247.673 32.1977 247.283 32.397 246.789H34.321C34.0783 247.803 33.58 248.605 32.826 249.194C32.072 249.783 31.123 250.078 29.979 250.078C29.1037 250.078 28.328 249.883 27.652 249.493C26.9847 249.094 26.4647 248.54 26.092 247.829C25.728 247.118 25.546 246.312 25.546 245.411C25.546 244.501 25.728 243.691 26.092 242.98C26.4647 242.269 26.9847 241.719 27.652 241.329C28.3193 240.93 29.095 240.731 29.979 240.731ZM39.1243 242.707C39.8263 242.707 40.4546 242.854 41.0093 243.149C41.5726 243.444 42.0146 243.873 42.3353 244.436C42.6559 244.991 42.8163 245.645 42.8163 246.399C42.8163 247.153 42.6559 247.807 42.3353 248.362C42.0146 248.917 41.5726 249.346 41.0093 249.649C40.4546 249.944 39.8263 250.091 39.1243 250.091C38.4223 250.091 37.7896 249.944 37.2263 249.649C36.6716 249.346 36.2339 248.917 35.9133 248.362C35.5926 247.807 35.4323 247.153 35.4323 246.399C35.4323 245.645 35.5926 244.991 35.9133 244.436C36.2339 243.873 36.6716 243.444 37.2263 243.149C37.7896 242.854 38.4223 242.707 39.1243 242.707ZM39.1243 244.293C38.6129 244.293 38.1796 244.475 37.8243 244.839C37.4689 245.194 37.2913 245.714 37.2913 246.399C37.2913 247.084 37.4689 247.608 37.8243 247.972C38.1796 248.327 38.6129 248.505 39.1243 248.505C39.6356 248.505 40.0689 248.327 40.4243 247.972C40.7796 247.608 40.9573 247.084 40.9573 246.399C40.9573 245.714 40.7796 245.194 40.4243 244.839C40.0689 244.475 39.6356 244.293 39.1243 244.293ZM48.5017 242.694C49.3337 242.694 49.9967 242.967 50.4907 243.513C50.9847 244.059 51.2317 244.826 51.2317 245.814V250H49.4117V246.022C49.4117 245.45 49.2644 245.008 48.9697 244.696C48.675 244.375 48.272 244.215 47.7607 244.215C47.2407 244.215 46.8247 244.384 46.5127 244.722C46.2007 245.06 46.0447 245.545 46.0447 246.178V250H44.2117V242.798H46.0447V244.241C46.2354 243.756 46.5474 243.379 46.9807 243.11C47.4227 242.833 47.9297 242.694 48.5017 242.694ZM57.2345 242.694C58.0665 242.694 58.7295 242.967 59.2235 243.513C59.7175 244.059 59.9645 244.826 59.9645 245.814V250H58.1445V246.022C58.1445 245.45 57.9972 245.008 57.7025 244.696C57.4078 244.375 57.0048 244.215 56.4935 244.215C55.9735 244.215 55.5575 244.384 55.2455 244.722C54.9335 245.06 54.7775 245.545 54.7775 246.178V250H52.9445V242.798H54.7775V244.241C54.9682 243.756 55.2802 243.379 55.7135 243.11C56.1555 242.833 56.6625 242.694 57.2345 242.694ZM68.4503 246.126C68.4503 246.308 68.4286 246.516 68.3853 246.75H63.1073C63.1333 247.391 63.3066 247.864 63.6273 248.167C63.948 248.47 64.3466 248.622 64.8233 248.622C65.248 248.622 65.599 248.518 65.8763 248.31C66.1623 248.102 66.3443 247.82 66.4223 247.465H68.3593C68.264 247.968 68.0603 248.418 67.7483 248.817C67.4363 249.216 67.0333 249.528 66.5393 249.753C66.054 249.978 65.5123 250.091 64.9143 250.091C64.2123 250.091 63.5883 249.944 63.0423 249.649C62.4963 249.346 62.0716 248.917 61.7683 248.362C61.465 247.807 61.3133 247.153 61.3133 246.399C61.3133 245.645 61.465 244.991 61.7683 244.436C62.0716 243.873 62.4963 243.444 63.0423 243.149C63.5883 242.854 64.2123 242.707 64.9143 242.707C65.625 242.707 66.2446 242.854 66.7733 243.149C67.3106 243.444 67.7223 243.851 68.0083 244.371C68.303 244.882 68.4503 245.467 68.4503 246.126ZM66.6043 245.944C66.6303 245.355 66.4743 244.908 66.1363 244.605C65.807 244.302 65.3996 244.15 64.9143 244.15C64.4203 244.15 64.0043 244.302 63.6663 244.605C63.3283 244.908 63.142 245.355 63.1073 245.944H66.6043ZM73.0885 242.707C74.0159 242.707 74.7872 242.958 75.4025 243.461C76.0265 243.964 76.4165 244.648 76.5725 245.515H74.6355C74.5575 245.134 74.3799 244.835 74.1025 244.618C73.8252 244.393 73.4742 244.28 73.0495 244.28C72.5642 244.28 72.1569 244.462 71.8275 244.826C71.5069 245.181 71.3465 245.706 71.3465 246.399C71.3465 247.092 71.5069 247.621 71.8275 247.985C72.1569 248.34 72.5642 248.518 73.0495 248.518C73.4742 248.518 73.8252 248.41 74.1025 248.193C74.3799 247.968 74.5575 247.664 74.6355 247.283H76.5725C76.4165 248.15 76.0265 248.834 75.4025 249.337C74.7872 249.84 74.0159 250.091 73.0885 250.091C72.3865 250.091 71.7625 249.944 71.2165 249.649C70.6705 249.346 70.2459 248.917 69.9425 248.362C69.6392 247.807 69.4875 247.153 69.4875 246.399C69.4875 245.645 69.6392 244.991 69.9425 244.436C70.2459 243.873 70.6705 243.444 71.2165 243.149C71.7625 242.854 72.3865 242.707 73.0885 242.707ZM81.823 248.427V250H80.861C80.055 250 79.4353 249.805 79.002 249.415C78.5773 249.025 78.365 248.375 78.365 247.465V244.345H77.364V242.798H78.365V241.017H80.198V242.798H81.81V244.345H80.198V247.491C80.198 247.838 80.2673 248.08 80.406 248.219C80.5446 248.358 80.7786 248.427 81.108 248.427H81.823ZM90.015 246.126C90.015 246.308 89.9933 246.516 89.95 246.75H84.672C84.698 247.391 84.8713 247.864 85.192 248.167C85.5126 248.47 85.9113 248.622 86.388 248.622C86.8126 248.622 87.1636 248.518 87.441 248.31C87.727 248.102 87.909 247.82 87.987 247.465H89.924C89.8286 247.968 89.625 248.418 89.313 248.817C89.001 249.216 88.598 249.528 88.104 249.753C87.6186 249.978 87.077 250.091 86.479 250.091C85.777 250.091 85.153 249.944 84.607 249.649C84.061 249.346 83.6363 248.917 83.333 248.362C83.0296 247.807 82.878 247.153 82.878 246.399C82.878 245.645 83.0296 244.991 83.333 244.436C83.6363 243.873 84.061 243.444 84.607 243.149C85.153 242.854 85.777 242.707 86.479 242.707C87.1896 242.707 87.8093 242.854 88.338 243.149C88.8753 243.444 89.287 243.851 89.573 244.371C89.8676 244.882 90.015 245.467 90.015 246.126ZM88.169 245.944C88.195 245.355 88.039 244.908 87.701 244.605C87.3716 244.302 86.9643 244.15 86.479 244.15C85.985 244.15 85.569 244.302 85.231 244.605C84.893 244.908 84.7066 245.355 84.672 245.944H88.169ZM94.2372 242.707C94.8438 242.707 95.3595 242.85 95.7842 243.136C96.2175 243.422 96.5295 243.808 96.7202 244.293V240.38H98.5402V250H96.7202V248.492C96.5295 248.977 96.2175 249.367 95.7842 249.662C95.3595 249.948 94.8438 250.091 94.2372 250.091C93.6305 250.091 93.0845 249.944 92.5992 249.649C92.1138 249.354 91.7325 248.93 91.4552 248.375C91.1865 247.812 91.0522 247.153 91.0522 246.399C91.0522 245.645 91.1865 244.991 91.4552 244.436C91.7325 243.873 92.1138 243.444 92.5992 243.149C93.0845 242.854 93.6305 242.707 94.2372 242.707ZM94.8092 244.306C94.2372 244.306 93.7778 244.492 93.4312 244.865C93.0845 245.238 92.9112 245.749 92.9112 246.399C92.9112 247.049 93.0845 247.56 93.4312 247.933C93.7778 248.297 94.2372 248.479 94.8092 248.479C95.3638 248.479 95.8188 248.293 96.1742 247.92C96.5382 247.539 96.7202 247.032 96.7202 246.399C96.7202 245.758 96.5382 245.251 96.1742 244.878C95.8188 244.497 95.3638 244.306 94.8092 244.306Z" fill="#C2CFE0"/>
<g clip-path="url(#clip0_118_587)">
<path d="M154.237 39.001H109.76C108.237 39.001 107 40.2351 107 41.7606V86.2389C107 87.7644 108.237 89.0002 109.76 89.0002H133.705V69.6375H127.19V62.0906H133.705V56.5252C133.705 50.0683 137.648 46.5504 143.409 46.5504C146.171 46.5504 148.539 46.7571 149.23 46.8468V53.596L145.234 53.5977C142.101 53.5977 141.497 55.087 141.497 57.2711V62.0881H148.971L147.994 69.6342H141.496V88.9977H154.236C155.761 88.9977 156.998 87.7603 156.998 86.2389V41.7589C156.998 40.2351 155.762 39.001 154.237 39.001Z" fill="#3B5998"/>
</g>
<defs>
<filter id="filter0_d_118_587" x="0" y="0" width="263" height="284" filterUnits="userSpaceOnUse" color-interpolation-filters="sRGB">
<feFlood flood-opacity="0" result="BackgroundImageFix"/>
<feColorMatrix in="SourceAlpha" type="matrix" values="0 0 0 0 0 0 0 0 0 0 0 0 0 0 0 0 0 0 127 0" result="hardAlpha"/>
<feOffset dy="2"/>
<feGaussianBlur stdDeviation="5"/>
<feColorMatrix type="matrix" values="0 0 0 0 0 0 0 0 0 0 0 0 0 0 0 0 0 0 0.08 0"/>
<feBlend mode="normal" in2="BackgroundImageFix" result="effect1_dropShadow_118_587"/>
<feBlend mode="normal" in="SourceGraphic" in2="effect1_dropShadow_118_587" result="shape"/>
</filter>
<clipPath id="clip0_118_587">
<rect width="50" height="50" fill="white" transform="translate(107 39)"/>
</clipPath>
</defs>
</svg>
